<?xml version="1.0" encoding="UTF-8" standalone="no"?>
<!-- Created with Inkscape (http://www.inkscape.org/) -->

<svg
   width="2598.8108"
   height="1420.2362"
   viewBox="0 0 687.60202 375.77082"
   version="1.1"
   id="svg1"
   sodipodi:docname="contacts.svg"
   inkscape:version="1.4 (86a8ad7, 2024-10-11)"
   xml:space="preserve"
   xmlns:inkscape="http://www.inkscape.org/namespaces/inkscape"
   xmlns:sodipodi="http://sodipodi.sourceforge.net/DTD/sodipodi-0.dtd"
   xmlns="http://www.w3.org/2000/svg"
   xmlns:svg="http://www.w3.org/2000/svg"><sodipodi:namedview
     id="namedview1"
     pagecolor="#ffffff"
     bordercolor="#000000"
     borderopacity="0.25"
     inkscape:showpageshadow="2"
     inkscape:pageopacity="0.0"
     inkscape:pagecheckerboard="0"
     inkscape:deskcolor="#ffffff"
     inkscape:document-units="mm"
     showborder="false"
     inkscape:zoom="0.28"
     inkscape:cx="1846.4286"
     inkscape:cy="564.28571"
     inkscape:window-width="1920"
     inkscape:window-height="1010"
     inkscape:window-x="2873"
     inkscape:window-y="-6"
     inkscape:window-maximized="1"
     inkscape:current-layer="layer1" /><defs
     id="defs1"><rect
       x="-136.84212"
       y="410.52631"
       width="1184.2104"
       height="186.84212"
       id="rect2" /><marker
       style="overflow:visible"
       id="ArrowWide"
       refX="0"
       refY="0"
       orient="auto-start-reverse"
       inkscape:stockid="Wide arrow"
       markerWidth="1"
       markerHeight="1"
       viewBox="0 0 1 1"
       inkscape:isstock="true"
       inkscape:collect="always"
       preserveAspectRatio="xMidYMid"><path
         style="fill:none;stroke:context-stroke;stroke-width:1;stroke-linecap:butt"
         d="M 3,-3 0,0 3,3"
         transform="rotate(180,0.125,0)"
         sodipodi:nodetypes="ccc"
         id="path40" /></marker><inkscape:path-effect
       effect="simplify"
       id="path-effect39"
       is_visible="true"
       lpeversion="1.3"
       threshold="10"
       steps="1"
       smooth_angles="360"
       helper_size="0"
       simplify_individual_paths="false"
       simplify_just_coalesce="false" /><rect
       x="-689.37268"
       y="151.01825"
       width="231.96527"
       height="360.09286"
       id="rect39" /></defs><g
     inkscape:label="Layer 1"
     inkscape:groupmode="layer"
     id="layer1"
     transform="translate(413.26838,138.83086)"><text
       xml:space="preserve"
       transform="scale(0.26458333)"
       id="text39"
       style="text-align:start;writing-mode:lr-tb;direction:ltr;white-space:pre;shape-inside:url(#rect39);fill:none;stroke:#000000;stroke-width:1.13386" /><g
       id="g2"><path
         style="fill:none;stroke:#000000;stroke-width:3.503;stroke-dasharray:none"
         id="path1"
         d="m -412.2562,222.55792 c 47.86981,-33.89689 85.41728,-85.78872 95.2631,-144.198657 11.7941,-35.398967 11.36706,-73.5650996 -1.68891,-108.52701 -12.2193,-39.485505 -33.1947,-77.259463 -65.03107,-104.242313 42.22662,36.047763 64.8699,89.26051 74.36636,142.8982197 5.39619,39.0667153 -9.32491,77.3653013 -19.99589,114.2816603 -18.35223,38.7834 -47.10499,75.63204 -82.91359,99.7881 z" /><path
         style="fill:none;stroke:#000000;stroke-width:0.3"
         id="path2"
         d="m -293.58383,73.177965 c -1.48768,0.854321 -3.00755,1.652355 -4.48281,2.528483 -1.64772,0.879679 -3.31965,1.695582 -4.9026,2.69022 -1.59451,0.973259 -3.04395,2.155896 -4.5136,3.302952 -1.78105,1.478436 -3.85983,2.508221 -5.87079,3.626512 -2.20999,1.237726 -4.42325,2.468311 -6.61863,3.731738 -2.29786,1.29426 -4.7302,2.310197 -7.15135,3.344096 -2.96402,1.372134 -5.76693,3.060009 -8.62046,4.643122 -2.40634,1.328579 -4.8613,2.549139 -7.37124,3.667382 -2.32625,1.12388 -4.64482,2.26261 -6.97722,3.37403 -2.076,0.9954 -4.19013,1.90451 -6.24626,2.94121 -2.1258,1.11879 -4.19103,2.34167 -6.32008,3.45611 -2.57754,1.35309 -5.24877,2.51304 -7.8759,3.76401 -2.61747,1.3254 -5.45227,2.10527 -8.22921,3.01229 -2.06925,0.65414 -4.09276,1.44593 -6.16018,2.10341 -1.53435,0.44819 -3.03657,0.99071 -4.54195,1.52484 -1.48373,0.565 -2.99987,1.0288 -4.50418,1.53369 -1.51826,0.62792 -3.07203,1.15245 -4.66022,1.57071 -2.34383,0.40076 -4.69161,0.73345 -7.01116,1.26992 -2.33794,0.46958 -1.14491,0.26581 -3.58019,0.60474 0,0 6e-5,1e-5 6e-5,1e-5 v 0 c 2.43538,-0.33891 1.24232,-0.13515 3.58031,-0.60473 2.31955,-0.53647 4.66731,-0.86915 7.01117,-1.26991 1.58819,-0.41826 3.14195,-0.9428 4.66021,-1.57071 1.50432,-0.5049 3.02046,-0.96869 4.50419,-1.5337 1.50537,-0.53413 3.0076,-1.07665 4.54194,-1.52484 2.06743,-0.65748 4.09091,-1.44927 6.16019,-2.10341 2.77693,-0.90701 5.61171,-1.68689 8.2292,-3.01229 2.62713,-1.25097 5.29834,-2.41092 7.87591,-3.76401 2.12902,-1.11444 4.19428,-2.33731 6.32007,-3.45611 2.05611,-1.0367 4.17026,-1.94581 6.24623,-2.94121 2.33244,-1.11142 4.65101,-2.25015 6.97723,-3.37403 2.50994,-1.118245 4.9649,-2.338807 7.37123,-3.667383 2.85354,-1.583116 5.65645,-3.270991 8.62047,-4.643123 2.42115,-1.033899 4.85349,-2.049835 7.15135,-3.344098 2.19538,-1.263425 4.40864,-2.49401 6.61863,-3.731739 2.01096,-1.118293 4.08974,-2.148077 5.87076,-3.626514 1.46968,-1.147053 2.91909,-2.32969 4.5136,-3.302949 1.58298,-0.994638 3.25491,-1.810541 4.9026,-2.69022 1.47529,-0.876128 2.99514,-1.674164 4.48281,-2.52848 z" /><path
         style="fill:none;stroke:#000000;stroke-width:2.902;stroke-dasharray:none"
         id="path3"
         d="m -293.72271,70.668546 c 0.90471,0.809598 1.84578,1.568564 2.81688,2.295956 0.58582,0.428797 1.18777,0.863325 1.88524,1.082122 0.92504,0.253093 1.87042,0.05075 2.80355,-0.0442 0.97306,-0.186396 1.95966,-0.312824 2.89867,-0.636801 0.63609,-0.176051 1.19174,-0.516671 1.70479,-0.921703 0.45707,-0.358055 0.84471,-0.786016 1.19568,-1.245671 0.38862,-0.618191 0.7062,-1.27249 0.95551,-1.959433 0.25882,-0.790509 0.32851,-1.616247 0.36108,-2.441512 -0.10247,-0.789379 -0.14901,-1.607804 -0.38655,-2.371359 -0.19236,-0.530241 -0.38307,-1.048438 -0.65588,-1.543976 -0.40084,-0.665861 -0.83841,-1.306071 -1.26214,-1.956938 -0.44662,-0.719527 -1.04521,-1.313482 -1.6651,-1.881915 -0.81265,-0.716653 -1.80695,-1.034463 -2.84637,-1.248791 -0.92926,-0.224899 -1.84874,-0.08427 -2.77399,0.06283 -0.91311,0.188452 -1.54528,0.807154 -2.11233,1.503839 -0.62362,0.948185 -1.2632,1.8737 -1.78469,2.883664 -0.42797,0.727562 -0.77465,1.482421 -0.92888,2.313409 -0.10938,0.867172 -0.095,1.744532 -0.0955,2.616972 0.0532,0.964787 0.33343,1.88921 0.62908,2.801652 0,0 10e-5,-3e-6 10e-5,-3e-6 v 0 c -0.29551,-0.912463 -0.57578,-1.836885 -0.62896,-2.801649 0,-0.872437 -0.0138,-1.749798 0.0955,-2.616967 0.15426,-0.830988 0.50091,-1.585844 0.92888,-2.313403 0.52149,-1.009965 1.16107,-1.935477 1.78469,-2.883659 0.56706,-0.696683 1.19923,-1.315379 2.1123,-1.503826 0.92514,-0.147071 1.84447,-0.287708 2.7736,-0.06283 1.03942,0.214329 2.03372,0.53213 2.84636,1.248783 0.6199,0.568431 1.21849,1.162381 1.66511,1.88191 0.42373,0.650865 0.86129,1.291074 1.26216,1.956935 0.27282,0.495536 0.4635,1.013733 0.65585,1.543971 0.23755,0.763556 0.28409,1.581975 0.38656,2.371352 -0.0325,0.825262 -0.10224,1.651002 -0.36105,2.441506 -0.24932,0.68694 -0.56692,1.341242 -0.95554,1.959427 -0.35095,0.459656 -0.73859,0.887614 -1.19568,1.245667 -0.51306,0.405029 -1.06868,0.745643 -1.70479,0.921697 -0.93898,0.323974 -1.92561,0.4504 -2.89864,0.636796 -0.933,0.09493 -1.87825,0.297268 -2.80319,0.0442 -0.69744,-0.218794 -1.29942,-0.653322 -1.8852,-1.082116 -0.97113,-0.727393 -1.9122,-1.486353 -2.81692,-2.295954 z" /><path
         style="fill:none;stroke:#000000;stroke-width:0.3"
         id="path4"
         d="m -250.00458,58.394951 c -1.52809,1.462646 -3.28804,2.644675 -4.99357,3.884602 -1.44119,1.066313 -2.93634,2.046126 -4.49032,2.938769 -1.80711,0.911567 -3.46918,2.041676 -5.08107,3.25705 -1.82875,1.507922 -3.68044,2.964731 -5.69532,4.215932 -2.02756,0.985221 -4.02765,2.005163 -5.96151,3.165187 -1.94257,1.176456 -3.87562,2.368454 -5.86309,3.467991 -2.71163,1.330074 -5.19089,3.06001 -7.69543,4.733645 -2.36183,1.578329 -4.94036,2.77129 -7.51261,3.955303 -2.48782,1.136415 -4.90177,2.414167 -7.29826,3.729149 -1.86045,0.999416 -3.71634,2.003533 -5.55879,3.035221 -1.63918,0.912521 -3.38085,1.614275 -5.01391,2.538941 -1.39637,0.917819 -2.87613,1.697255 -4.35592,2.469499 -1.76456,0.90781 -3.58113,1.70998 -5.3762,2.55507 -1.91434,0.92388 -3.8295,1.85295 -5.69653,2.86966 -2.44824,1.37058 -4.92384,2.69399 -7.36833,4.07132 -1.98493,1.11551 -3.9294,2.30315 -5.93508,3.38105 -2.46483,1.22621 -5.0765,2.12887 -7.65503,3.08289 -2.19636,0.66003 -4.30128,1.58455 -6.48348,2.28088 -1.80673,0.65606 -3.66998,1.12513 -5.52154,1.63216 -2.6993,0.70451 -5.32307,1.64935 -7.95356,2.56953 -2.30693,0.84667 -4.65698,1.56816 -7.00481,2.29098 -1.70768,0.51331 -3.32182,1.27528 -4.99478,1.88128 -1.63552,0.60246 -3.25996,1.23002 -4.8962,1.83248 -2.65557,0.74661 -5.29574,1.53907 -7.9362,2.33912 -3.40614,0.97198 -1.59851,0.47991 -5.42726,1.45993 0,0 10e-5,1e-5 10e-5,1e-5 v 0 c 3.82884,-0.97999 2.02118,-0.48793 5.42735,-1.45992 2.64046,-0.80004 5.28066,-1.5925 7.93623,-2.33911 1.63621,-0.60247 3.26067,-1.23002 4.89619,-1.83249 1.67296,-0.606 3.2871,-1.36796 4.99478,-1.88128 2.3478,-0.72281 4.69786,-1.44431 7.00481,-2.29097 2.63049,-0.92019 5.25426,-1.86503 7.95356,-2.56953 1.85156,-0.50703 3.71481,-0.97611 5.52154,-1.63216 2.18221,-0.69634 4.2871,-1.62085 6.48348,-2.28088 2.5785,-0.95402 5.19018,-1.85668 7.65503,-3.0829 2.00565,-1.07789 3.95015,-2.26554 5.93508,-3.38105 2.44446,-1.37733 4.92006,-2.70074 7.36831,-4.07132 1.86703,-1.01671 3.78221,-1.94578 5.69653,-2.86966 1.79509,-0.84508 3.61164,-1.64725 5.3762,-2.555069 1.47979,-0.772244 2.95958,-1.55168 4.35594,-2.469499 1.63304,-0.924665 3.37473,-1.62642 5.01388,-2.538944 1.84245,-1.031687 3.69835,-2.035805 5.55879,-3.03522 2.39649,-1.314982 4.81044,-2.592735 7.29827,-3.729146 2.57222,-1.184013 5.15077,-2.376977 7.51258,-3.955307 2.50457,-1.673638 4.98379,-3.403571 7.69546,-4.733644 1.98747,-1.099537 3.92051,-2.291538 5.86308,-3.467992 1.93387,-1.160026 3.93396,-2.179966 5.96149,-3.165187 2.01488,-1.251204 3.86659,-2.708015 5.69533,-4.215934 1.61189,-1.215371 3.27396,-2.345481 5.08107,-3.257047 1.55397,-0.892646 3.04912,-1.872459 4.49031,-2.938772 1.70553,-1.23993 3.46548,-2.421962 4.99357,-3.884605 z" /><path
         style="fill:none;stroke:#000000;stroke-width:2.902;stroke-dasharray:none"
         id="path5"
         d="m -247.58296,56.585886 c 1.28207,0.87453 2.74313,1.421376 4.1927,1.946551 1.22827,0.426852 2.52023,0.669946 3.81021,0.816414 0.91404,0.132022 1.79703,-0.100944 2.6894,-0.257834 1.19533,-0.303779 2.30106,-0.880004 3.34376,-1.525365 1.24557,-0.809591 2.55211,-1.523609 3.68295,-2.494317 0.65169,-0.607301 1.17161,-1.356874 1.55909,-2.156817 0.2824,-0.95104 0.63175,-1.879899 0.92108,-2.828378 0.30544,-1.105114 0.31519,-2.262132 0.34583,-3.400316 -0.0577,-1.242724 -0.22861,-2.474222 -0.58023,-3.667998 -0.45222,-1.163328 -1.04975,-2.248948 -1.77673,-3.260564 -0.85046,-1.165934 -1.99708,-2.055455 -3.14882,-2.903974 -1.1986,-0.85222 -2.57291,-1.431094 -3.96138,-1.89798 -1.24335,-0.320114 -2.50984,-0.435097 -3.77592,-0.221377 -1.36238,0.213283 -2.64061,0.629369 -3.87848,1.226931 -1.31099,0.543721 -2.58433,1.146876 -3.71613,2.008417 -0.89263,0.775642 -1.58,1.65425 -1.95748,2.775001 -0.28487,1.010121 -0.46658,2.034241 -0.56929,3.077659 -0.18031,1.117119 -0.35459,2.233616 -0.452,3.361376 -0.11953,0.84619 0.0134,1.676019 0.18034,2.504082 0.0494,0.546516 0.18685,1.054331 0.3595,1.571432 0.10861,0.555122 0.43994,1.010764 0.73119,1.481654 0.54809,0.890106 1.30983,1.565899 2.10706,2.228151 0.2837,0.183878 0.5674,0.367758 0.8511,0.551635 0,0 1.4e-4,-1.3e-5 1.4e-4,-1.3e-5 v 0 c -0.28367,-0.183883 -0.56734,-0.367763 -0.851,-0.551643 -0.79722,-0.662255 -1.55897,-1.33804 -2.10706,-2.228144 -0.29126,-0.470887 -0.62258,-0.926525 -0.7312,-1.481648 -0.17265,-0.517101 -0.31012,-1.024911 -0.35949,-1.571426 -0.16696,-0.828064 -0.29988,-1.65789 -0.18035,-2.504078 0.0974,-1.12776 0.27168,-2.244256 0.452,-3.361378 0.10271,-1.043413 0.28441,-2.067533 0.56928,-3.077651 0.37748,-1.120746 1.06485,-1.999351 1.95748,-2.774987 1.13179,-0.861545 2.40514,-1.464691 3.71612,-2.008415 1.23787,-0.597559 2.5161,-1.013643 3.87848,-1.226924 1.26594,-0.213693 2.53228,-0.09872 3.7755,0.221372 1.38847,0.466884 2.76278,1.045755 3.96138,1.897973 1.15175,0.848518 2.29836,1.738037 3.14882,2.903968 0.72699,1.011614 1.32451,2.097231 1.77673,3.260556 0.35163,1.193776 0.52255,2.425269 0.58023,3.66799 -0.0306,1.138185 -0.0404,2.2952 -0.34584,3.400311 -0.28932,0.948479 -0.63867,1.877338 -0.92107,2.828375 -0.38749,0.799941 -0.9074,1.549511 -1.55909,2.156809 -1.13084,0.970706 -2.43738,1.684724 -3.68295,2.494315 -1.0427,0.645358 -2.14843,1.221583 -3.34376,1.525357 -0.89224,0.156863 -1.77507,0.389842 -2.68898,0.257831 -1.28998,-0.146463 -2.58194,-0.389559 -3.81021,-0.816409 -1.44957,-0.525171 -2.91063,-1.072015 -4.19271,-1.946545 z" /><path
         style="fill:none;stroke:#000000;stroke-width:2.902;stroke-dasharray:none"
         id="path6"
         d="m -199.03586,30.178597 c 0.91034,1.170712 2.07116,2.058085 3.40062,2.694112 1.41699,0.645117 2.93924,0.980217 4.47605,1.175266 0.9181,0.149227 1.80484,0.09212 2.70806,-0.08744 0.7713,-0.280636 1.57827,-0.429083 2.33271,-0.753034 0.97881,-0.536574 1.87028,-1.214426 2.73103,-1.921412 1.08475,-1.000082 2.15763,-1.98357 3.09125,-3.130015 0.91025,-1.109655 1.42654,-2.405418 1.84379,-3.760301 0.37498,-1.531704 0.4374,-3.114615 0.48892,-4.683788 -0.003,-1.102146 -0.29646,-2.145051 -0.71089,-3.154558 -0.42623,-1.11835 -1.10686,-2.094405 -1.75782,-3.087016 -0.63608,-0.812367 -1.32393,-1.581916 -1.98399,-2.375913 -0.64377,-0.758795 -1.30063,-1.5075809 -2.04027,-2.1743137 -1.03598,-0.9735151 -2.26801,-1.6487283 -3.56721,-2.1974768 -1.32261,-0.5151453 -2.33302,-0.8796636 -3.7628,-0.9181481 -1.28011,-0.038954 -2.49534,0.4114464 -3.66989,0.8713481 -1.36491,0.5275376 -2.56609,1.3643123 -3.75125,2.205305 -1.31429,0.9124764 -2.37865,2.1154145 -3.35668,3.3690245 -0.92063,1.158717 -1.56414,2.481423 -1.97481,3.89626 -0.22884,1.262916 0.0142,2.512131 0.22789,3.755366 0.30124,1.000154 0.46348,2.032888 0.70832,3.045321 0.21586,0.990105 0.4384,1.970884 0.85832,2.896702 0.42654,1.222554 1.3128,2.148861 2.1792,3.071801 1.30858,1.341904 2.87939,2.359446 4.52837,3.227253 0,0 1.3e-4,-1.3e-5 1.3e-4,-1.3e-5 v 0 c -1.64892,-0.867831 -3.21969,-1.885403 -4.52825,-3.227258 -0.86641,-0.922938 -1.75268,-1.849239 -2.17921,-3.071793 -0.41993,-0.925816 -0.64247,-1.906594 -0.85833,-2.896697 -0.24483,-1.012433 -0.40707,-2.045167 -0.70831,-3.04532 -0.21373,-1.243231 -0.45673,-2.492442 -0.22789,-3.755355 0.41066,-1.414834 1.05417,-2.737536 1.97479,-3.896252 0.97803,-1.253609 2.04239,-2.4565432 3.35668,-3.3690184 1.18516,-0.8409916 2.38634,-1.6777636 3.75125,-2.2052997 1.1744,-0.4598426 2.3895,-0.9102169 3.66945,-0.8713409 1.42979,0.03848 2.44019,0.4029935 3.76281,0.9181399 1.2992,0.5487453 2.53122,1.2239556 3.56721,2.1974696 0.73964,0.666731 1.39649,1.4155175 2.04027,2.1743105 0.66006,0.793996 1.3479,1.563546 1.98398,2.375911 0.65096,0.99261 1.33159,1.968662 1.75782,3.087011 0.41444,1.009504 0.70757,2.052406 0.71089,3.154549 -0.0515,1.569171 -0.11393,3.152081 -0.48891,4.683782 -0.41726,1.354881 -0.93354,2.65064 -1.8438,3.760292 -0.93362,1.146445 -2.00649,2.12993 -3.09125,3.130013 -0.86075,0.706985 -1.75222,1.384834 -2.73103,1.921407 -0.75445,0.323942 -1.56141,0.472395 -2.3327,0.753025 -0.9031,0.179533 -1.78966,0.236672 -2.70763,0.08744 -1.53681,-0.195046 -3.05906,-0.530143 -4.47605,-1.175258 -1.32947,-0.636024 -2.4903,-1.523392 -3.40064,-2.694104 z" /><path
         style="fill:none;stroke:#000000;stroke-width:0.3"
         id="path7"
         d="m -199.44423,31.56092 c -1.2119,2.4456 -3.23816,4.295717 -5.21414,6.117831 -2.56396,2.113971 -5.04147,4.322149 -7.48719,6.57085 -2.18054,1.985331 -4.38443,3.937331 -6.70686,5.755259 -2.26352,1.580182 -4.29369,3.448455 -6.40083,5.222486 -2.3755,2.26491 -5.02113,4.203385 -7.68588,6.108134 -3.32413,2.497878 -6.82219,4.745188 -10.32224,6.98442 -3.3615,2.250128 -6.74202,4.471297 -10.17763,6.606974 -2.94957,1.755535 -5.96929,3.382804 -8.89386,5.183534 -3.02602,1.952427 -6.02689,3.935344 -9.14676,5.736154 -2.49875,1.437447 -4.97202,2.915282 -7.40208,4.466362 -1.77234,1.180902 -3.56749,2.334067 -5.50249,3.230025 -2.21578,1.063025 -4.37872,2.229012 -6.5954,3.290631 -2.83549,1.41741 -5.77205,2.618063 -8.67238,3.89407 -2.53265,1.15455 -4.97771,2.48574 -7.45564,3.75034 -2.60988,1.314 -5.43687,2.09665 -8.15454,3.15041 -2.94706,1.32819 -5.87047,2.70711 -8.82962,4.01083 -3.28573,1.52612 -6.55799,3.07981 -9.84843,4.59621 -2.95108,1.34371 -6.0044,2.43609 -9.02597,3.60537 -2.89361,1.19014 -5.82099,2.29062 -8.75347,3.38152 -3.15437,1.24882 -6.30936,2.49226 -9.49767,3.65278 -2.73889,0.88948 -5.48513,1.7441 -8.21283,2.66989 -2.45382,0.7995 -4.89294,1.66127 -7.38007,2.35224 -1.92545,0.55975 -3.9121,0.89333 -5.80001,1.57686 -1.10763,0.32324 -2.10164,0.91356 -3.16738,1.33345 -0.9746,0.41808 -1.99726,0.70347 -2.9958,1.05583 -1.53482,0.51604 -3.0761,0.99872 -4.59483,1.56342 -1.39163,0.51811 -2.71579,1.1907 -4.12761,1.65312 -1.28357,0.44265 -2.54569,0.93919 -3.80836,1.43748 -1.28593,0.54065 -2.58442,1.06191 -3.90874,1.50211 -1.04481,0.25695 -2.07836,0.53052 -3.09497,0.88403 -0.96488,0.45556 -1.98461,0.64277 -3.0326,0.78882 0,0 1.4e-4,2e-5 1.4e-4,2e-5 v 0 c 1.04801,-0.14605 2.06779,-0.33323 3.0327,-0.78881 1.01658,-0.35351 2.05013,-0.62708 3.09494,-0.88404 1.32435,-0.4402 2.62281,-0.96145 3.90874,-1.5021 1.2627,-0.49829 2.52482,-0.99483 3.80836,-1.43748 1.41182,-0.46242 2.73601,-1.13502 4.12761,-1.65312 1.51876,-0.5647 3.06004,-1.04738 4.59483,-1.56342 0.99857,-0.35236 2.02121,-0.63775 2.99583,-1.05583 1.06574,-0.4199 2.05972,-1.01021 3.16735,-1.33345 1.88791,-0.68353 3.87458,-1.01711 5.80001,-1.57686 2.48716,-0.69097 4.92625,-1.55274 7.38008,-2.35224 2.72769,-0.92579 5.47393,-1.78041 8.21285,-2.6699 3.18828,-1.16051 6.34328,-2.40396 9.49764,-3.65278 2.93248,-1.09089 5.85988,-2.19137 8.75347,-3.38151 3.02157,-1.16928 6.07489,-2.26166 9.026,-3.60537 3.29041,-1.51641 6.56267,-3.0701 9.8484,-4.59621 2.95915,-1.30373 5.88256,-2.68265 8.82962,-4.01083 2.71767,-1.05376 5.54466,-1.83641 8.15454,-3.15042 2.47793,-1.2646 4.923,-2.59578 7.45564,-3.75033 2.90034,-1.276013 5.83689,-2.476666 8.67238,-3.894076 2.21668,-1.061619 4.37962,-2.227606 6.5954,-3.290631 1.935,-0.895961 3.73015,-2.049126 5.50249,-3.230028 2.43006,-1.55108 4.90334,-3.028913 7.40206,-4.466362 3.11989,-1.80081 6.12077,-3.783727 9.14677,-5.736153 2.92457,-1.800731 5.94429,-3.427998 8.89386,-5.183535 3.43561,-2.135682 6.81612,-4.356848 10.17762,-6.606976 3.50005,-2.23923 6.99811,-4.486542 10.32224,-6.984423 2.66475,-1.904746 5.31038,-3.843224 7.68588,-6.108131 2.10714,-1.774034 4.13731,-3.642305 6.40083,-5.222489 2.32243,-1.817928 4.52632,-3.769929 6.70686,-5.755261 2.44572,-2.248699 4.92322,-4.456877 7.48718,-6.570848 1.97599,-1.822119 4.00224,-3.672239 5.21416,-6.117839 z" /><path
         style="fill:none;stroke:#000000;stroke-width:2.902;stroke-dasharray:none"
         id="path8"
         d="m -162.28456,-1.4517479 c 0.98058,0.92337941 2.13099,1.53323295 3.40076,1.94770451 1.30237,0.31397297 2.66039,0.40278878 3.99519,0.31991437 1.18953,-0.059668 2.32797,-0.35386144 3.41272,-0.8360182 1.29219,-0.57624096 2.29501,-1.63738628 3.32446,-2.58139268 1.57485,-1.3937306 2.5571,-3.1721126 3.34652,-5.0866706 0.58755,-1.4636348 0.91989,-2.9962025 0.91271,-4.5716435 -0.0789,-1.771593 -0.65972,-3.368196 -1.45204,-4.929951 -0.83635,-1.579627 -2.03718,-2.858387 -3.48285,-3.889281 -1.44998,-0.968336 -3.163,-1.339259 -4.85334,-1.639713 -1.63475,-0.313672 -3.26586,-0.242932 -4.89245,0.04888 -1.32542,0.265827 -2.5074,0.904954 -3.68541,1.535373 -1.14853,0.620393 -2.21831,1.378288 -3.14706,2.29569 -0.81182,0.72549 -1.47679,1.588263 -1.89603,2.593259 -0.32088,0.983227 -0.41496,1.980628 -0.293,3.001778 0.24712,0.887042 0.41466,1.797738 0.67549,2.680289 0.38843,0.9428555 0.80519,1.8738758 1.17172,2.8258252 0.42325,1.0875656 1.10414,2.010474 1.84958,2.8952113 0.76723,0.7158447 1.59823,1.4426901 2.56006,1.8908165 0.43393,0.2021707 0.90335,0.3172443 1.35502,0.4758665 0,0 1.4e-4,-1.7e-5 1.4e-4,-1.7e-5 v 0 c -0.45164,-0.1586249 -0.92101,-0.2737092 -1.35491,-0.4758749 -0.96183,-0.4481455 -1.79283,-1.1749585 -2.56006,-1.8908088 -0.74544,-0.8847328 -1.42633,-1.8076386 -1.84959,-2.8952026 -0.36653,-0.9519489 -0.78328,-1.8829689 -1.17171,-2.8258232 -0.26084,-0.882549 -0.42838,-1.793244 -0.6755,-2.680285 -0.12196,-1.021146 -0.0279,-2.018543 0.293,-3.001766 0.41924,-1.004992 1.08421,-1.867761 1.89602,-2.593249 0.92875,-0.917399 1.99853,-1.675293 3.14706,-2.295685 1.178,-0.630418 2.35999,-1.269541 3.6854,-1.535365 1.62646,-0.291781 3.2574,-0.362548 4.89201,-0.04888 1.69033,0.300451 3.40336,0.671371 4.85334,1.639702 1.44567,1.03089 2.64649,2.309646 3.48285,3.88927 0.79232,1.561751 1.37317,3.158351 1.45203,4.929941 0.007,1.575437 -0.32516,3.1080026 -0.9127,4.5716345 -0.78942,1.9145564 -1.77167,3.692934 -3.34653,5.0866606 -1.02945,0.9440056 -2.03227,2.00514759 -3.32447,2.58138479 -1.08474,0.48215227 -2.22318,0.77634395 -3.41271,0.83601011 -1.33464,0.0829211 -2.69252,-0.006014 -3.99473,-0.31990818 -1.26977,-0.41446727 -2.42019,-1.02431319 -3.40077,-1.94769512 z" /><path
         style="fill:none;stroke:#000000;stroke-width:0.3"
         id="path9"
         d="m -156.71846,0.83511545 c -0.74429,2.41870655 -1.52562,4.82318405 -2.40782,7.19521355 -0.94143,2.616569 -2.30733,5.042422 -3.66342,7.459302 -1.84597,2.82031 -3.96956,5.438824 -5.89933,8.201129 -1.97395,2.759279 -3.99201,5.487937 -6.06032,8.177233 -2.29852,2.921786 -4.94573,5.544153 -7.64738,8.088903 -2.4926,2.286084 -4.88676,4.660564 -7.52204,6.784308 -3.15409,2.54862 -6.39791,4.980339 -9.70863,7.320719 -3.50927,2.41926 -6.93672,4.947936 -10.29011,7.577944 -3.18309,2.486086 -6.50969,4.780352 -9.82123,7.090228 -2.56839,1.83235 -5.15914,3.63143 -7.79393,5.367027 -3.54806,2.297608 -7.22331,4.387348 -10.79203,6.651305 -3.67466,2.188787 -7.26048,4.520393 -10.89921,6.766362 -3.05451,2.038638 -6.37116,3.608109 -9.65751,5.223592 -3.34367,1.716407 -6.65385,3.49509 -10.00163,5.20383 -3.25331,1.621028 -6.56066,3.129189 -9.85028,4.674269 -2.7728,1.246 -5.59517,2.37539 -8.34024,3.68161 -3.27954,1.52387 -6.43851,3.28719 -9.75371,4.73558 -2.56569,1.11585 -5.16538,2.15877 -7.6935,3.35886 -2.38562,1.14539 -4.82373,2.18029 -7.28946,3.14041 -2.22287,0.81861 -4.44486,1.63936 -6.66017,2.47823 -2.71973,1.08022 -5.4719,2.07639 -8.19978,3.13625 -2.2737,0.914 -4.48789,1.95507 -6.78701,2.80571 -2.25475,0.88322 -4.52665,1.72209 -6.78302,2.60098 -2.4997,1.13779 -5.06455,2.10343 -7.64471,3.04044 -3.52446,1.27203 -6.9895,2.69575 -10.46062,4.10378 -2.85456,1.179 -5.75583,2.23903 -8.66569,3.27263 -2.52843,0.95522 -4.99184,2.0668 -7.53266,2.98943 -2.47483,0.87281 -4.94458,1.76369 -7.43791,2.58246 -1.9164,0.58271 -3.79664,1.26944 -5.68965,1.92145 -2.27516,0.87354 -4.54301,1.76013 -6.78008,2.72829 -2.35932,1.01432 -4.7529,1.98634 -7.21106,2.7389 -1.18393,0.36245 -2.38631,0.66165 -3.57947,0.99247 0,0 5e-5,1e-5 5e-5,1e-5 v 0 c 1.19322,-0.33082 2.39564,-0.63 3.57963,-0.99245 2.45819,-0.75253 4.85177,-1.7246 7.21108,-2.7389 2.23708,-0.96816 4.50496,-1.85475 6.78008,-2.72829 1.89302,-0.65201 3.77325,-1.33874 5.68966,-1.92145 2.49332,-0.81877 4.96308,-1.70965 7.43791,-2.58246 2.54082,-0.92263 5.00422,-2.03421 7.53266,-2.98943 2.90984,-1.0336 5.81112,-2.09363 8.66569,-3.27263 3.47112,-1.40804 6.93616,-2.83175 10.46062,-4.10378 2.58016,-0.93701 5.14501,-1.90266 7.64471,-3.04044 2.25637,-0.87889 4.52826,-1.71776 6.78302,-2.60098 2.29909,-0.85064 4.51331,-1.89172 6.78701,-2.80571 2.72788,-1.05986 5.48005,-2.05604 8.19978,-3.13626 2.21528,-0.83886 4.4373,-1.65961 6.66017,-2.47822 2.46573,-0.96013 4.90381,-1.99502 7.28946,-3.14041 2.52809,-1.20009 5.12781,-2.24301 7.69347,-3.35886 3.3152,-1.4484 6.4742,-3.21172 9.75373,-4.73559 2.74508,-1.30621 5.56745,-2.43561 8.34025,-3.68161 3.28962,-1.54508 6.59694,-3.053237 9.85025,-4.674265 3.34778,-1.70874 6.65797,-3.487423 10.00164,-5.203831 3.28635,-1.615482 6.603,-3.184953 9.6575,-5.223594 3.63873,-2.245969 7.22455,-4.577575 10.89921,-6.766362 3.56872,-2.263954 7.24397,-4.3537 10.79203,-6.651304 2.63479,-1.735598 5.22555,-3.534678 7.79393,-5.367031 3.31154,-2.309876 6.63814,-4.604141 9.82122,-7.090227 3.3534,-2.630009 6.78085,-5.158685 10.29011,-7.577945 3.31073,-2.340379 6.55455,-4.772101 9.70864,-7.320719 2.63528,-2.123744 5.02944,-4.498223 7.52204,-6.784311 2.70164,-2.544751 5.34885,-5.167119 7.64737,-8.088905 2.06831,-2.689296 4.08637,-5.417955 6.06032,-8.177234 1.92977,-2.762305 4.05336,-5.380821 5.89933,-8.201131 1.3561,-2.416881 2.72199,-4.842735 3.66342,-7.4593049 0.8822,-2.3720311 1.66352,-4.7765104 2.40783,-7.19521568 z" /><path
         style="fill:none;stroke:#000000;stroke-width:2.902;stroke-dasharray:none"
         id="path10"
         d="m -96.138718,23.299595 c 1.064217,0.858623 2.299565,1.433481 3.555756,1.946552 1.338675,0.436431 2.587832,1.091148 3.885777,1.627021 1.638644,0.7468 3.310443,1.420336 4.933452,2.200944 1.511086,0.770808 2.987633,1.596565 4.527873,2.309146 1.649029,0.839547 3.431551,1.286547 5.242586,1.603603 1.642499,0.226644 3.307975,0.347191 4.964835,0.2576 1.526731,-0.0645 3.015695,-0.399655 4.505627,-0.710194 1.701429,-0.465185 3.39572,-0.964433 5.069877,-1.522055 2.023702,-0.641914 3.998055,-1.418379 5.911178,-2.337875 2.297358,-1.176305 4.531098,-2.47628 6.703999,-3.868217 2.646344,-1.615289 4.396028,-4.08433 5.962742,-6.68803 1.347171,-2.358147 2.231004,-4.940124 2.961045,-7.545304 0.522769,-2.1739602 0.824664,-4.3950161 1.034751,-6.6188842 0.184277,-2.1326405 -0.02638,-4.27611215 -0.245652,-6.3980947 -0.328018,-2.5759858 -1.185776,-5.0343388 -2.028164,-7.4770658 -0.690748,-2.1292203 -1.723091,-4.1123893 -2.838542,-6.0443443 -1.306124,-2.09295 -2.923104,-3.955474 -4.691907,-5.665349 -2.07223,-2.024807 -4.32639,-3.824737 -6.695077,-5.48591 -2.512672,-1.922495 -5.320012,-3.351689 -8.20909,-4.606989 -2.748634,-1.245722 -5.693111,-1.683805 -8.680428,-1.809319 -2.942246,-0.116797 -5.83537,0.240216 -8.659863,1.044237 -2.533063,0.900263 -4.936696,2.123247 -7.285487,3.421155 -2.161966,1.329502 -4.291439,2.749972 -6.208975,4.418493 -1.490625,1.257479 -2.607707,2.826302 -3.669146,4.442457 -1.205219,1.858521 -2.016114,3.920902 -2.750955,5.998693 -0.654338,1.963015 -1.319774,3.92196 -1.905814,5.9068415 -0.57124,1.5933671 -0.9473,3.2303008 -1.13694,4.9093447 -0.18801,1.7651015 -0.0868,3.52866736 0.12418,5.2850124 0.23296,2.9419277 0.90524,5.8059224 1.68263,8.6435544 0.730955,2.937034 2.117639,5.606972 3.557689,8.243513 1.610178,3.165417 3.796157,5.924669 6.150856,8.558439 0,0 1.27e-4,-8e-6 1.27e-4,-8e-6 v 0 c -2.354622,-2.633797 -4.540546,-5.393074 -6.150737,-8.558444 -1.440053,-2.636539 -2.826734,-5.306475 -3.557695,-8.243506 -0.77739,-2.8376308 -1.44967,-5.7016247 -1.68262,-8.6435513 -0.21098,-1.75634319 -0.3122,-3.5199071 -0.12419,-5.2850068 0.18965,-1.6790421 0.5657,-3.3159745 1.13694,-4.9093405 0.58604,-1.9848814 1.251476,-3.9438244 1.905815,-5.9068404 0.734838,-2.077789 1.545733,-4.140168 2.750952,-5.998687 1.061437,-1.616153 2.178521,-3.184973 3.669144,-4.44245 1.917533,-1.66852 4.047003,-3.088991 6.208966,-4.41849 2.348791,-1.297909 4.752425,-2.520887 7.28549,-3.42115 2.824342,-0.803976 5.717318,-1.161013 8.65941,-1.044231 2.987318,0.12551 5.931792,0.563591 8.680426,1.809311 2.889081,1.255297 5.696421,2.684489 8.209092,4.606983 2.368688,1.661172 4.622848,3.461102 6.695078,5.485907 1.768803,1.709872 3.385777,3.572395 4.691901,5.665343 1.115454,1.931953 2.147798,3.915121 2.838545,6.0443397 0.842389,2.4427249 1.700149,4.9010763 2.028161,7.4770607 0.219279,2.12198094 0.429927,4.2654516 0.24565,6.39809 -0.210087,2.2238671 -0.511985,4.4449214 -1.034754,6.6188806 -0.730035,2.605178 -1.613868,5.187153 -2.961042,7.545298 -1.566714,2.603698 -3.316401,5.072734 -5.962745,6.688018 -2.172901,1.391937 -4.406641,2.691912 -6.704002,3.868215 -1.913125,0.919493 -3.887475,1.695958 -5.91118,2.337872 -1.674157,0.557622 -3.368448,1.05687 -5.069877,1.522052 -1.489933,0.310539 -2.978899,0.645692 -4.505627,0.710192 -1.656699,0.08963 -3.322021,-0.03102 -4.964358,-0.257601 -1.811036,-0.31705 -3.593558,-0.76405 -5.242587,-1.603594 -1.540243,-0.712582 -3.01679,-1.538338 -4.52788,-2.309146 -1.623008,-0.780611 -3.294809,-1.454142 -4.933456,-2.200945 -1.297945,-0.535873 -2.547104,-1.190591 -3.885784,-1.627021 -1.256194,-0.513069 -2.491544,-1.087922 -3.555767,-1.946543 z" /><path
         style="fill:none;stroke:#000000;stroke-width:0.3"
         id="path11"
         d="m -91.681349,26.388902 c -2.453955,2.429369 -4.9711,4.784354 -7.529343,7.103971 -3.123338,2.79172 -6.241608,5.590996 -9.483928,8.244504 -2.73961,2.100313 -5.4445,4.244959 -8.16453,6.3704 -2.61374,2.188199 -5.30743,4.272333 -8.00496,6.355942 -3.54287,2.823922 -7.04298,5.699302 -10.61971,8.480658 -2.97616,2.201394 -6.02265,4.305337 -9.01459,6.485197 -3.32501,2.496986 -6.76346,4.838813 -10.17524,7.214756 -4.09337,2.914663 -8.41265,5.481174 -12.8151,7.895129 -4.4123,2.468288 -8.90362,4.798192 -13.41467,7.080882 -3.94654,2.017401 -7.87207,4.075518 -11.8042,6.120853 -3.29879,1.761349 -6.5546,3.601656 -9.84276,5.382246 -2.99113,1.53267 -5.92478,3.16587 -8.82253,4.86702 -4.0125,2.37561 -8.05125,4.70875 -12.11024,7.00428 -4.19795,2.28246 -8.46337,4.43632 -12.68119,6.68136 -3.83237,2.09225 -7.70153,4.12064 -11.6119,6.06327 -3.94506,2.01487 -8.01875,3.75921 -12.03408,5.62554 -3.49768,1.79681 -7.05647,3.45289 -10.65605,5.0325 -4.40721,2.00601 -8.91013,3.77982 -13.42085,5.53547 -3.72468,1.45967 -7.39717,3.04531 -11.13624,4.4679 -4.12128,1.64752 -8.23415,3.3162 -12.37927,4.90305 -3.76618,1.35361 -7.59132,2.53106 -11.40531,3.74037 -0.69932,0.22246 -1.40444,0.42754 -2.09802,0.66737 -2.17191,0.75104 -3.83984,1.45995 -6.03385,2.27767 -4.16951,1.55401 -5.74251,2.07476 -10.03191,3.56914 0,0 5e-5,2e-5 5e-5,2e-5 v 0 c 4.28855,-1.49407 5.86333,-2.01544 10.03208,-3.56914 2.1944,-0.81785 3.86162,-1.52652 6.03385,-2.27766 0.69357,-0.23983 1.39869,-0.44491 2.09801,-0.66737 3.81399,-1.20932 7.63913,-2.38677 11.40531,-3.74037 4.14512,-1.58685 8.25802,-3.25553 12.37927,-4.90305 3.73907,-1.42259 7.41157,-3.00824 11.13624,-4.4679 4.51072,-1.75566 9.01364,-3.52947 13.42085,-5.53548 3.59958,-1.57961 7.15837,-3.23568 10.65606,-5.0325 4.01533,-1.86633 8.08902,-3.61067 12.03408,-5.62553 3.91036,-1.94264 7.77952,-3.97103 11.61189,-6.06328 4.21782,-2.24504 8.48324,-4.39889 12.68119,-6.68136 4.05899,-2.29553 8.09773,-4.62867 12.11024,-7.00427 2.89775,-1.70116 5.8314,-3.33435 8.82253,-4.86703 3.28815,-1.78059 6.54396,-3.620895 9.84275,-5.382245 3.93213,-2.045335 7.85766,-4.103455 11.8042,-6.120852 4.51104,-2.282693 9.00236,-4.612595 13.41467,-7.080883 4.40244,-2.413955 8.72172,-4.980469 12.81509,-7.895132 3.41179,-2.375942 6.85024,-4.717769 10.17525,-7.214756 2.99194,-2.17986 6.03843,-4.283802 9.01459,-6.485197 3.57672,-2.781358 7.07683,-5.656741 10.61971,-8.48066 2.69752,-2.083607 5.39122,-4.16774 8.00496,-6.35594 2.72002,-2.12544 5.42491,-4.270089 8.16452,-6.370402 3.24231,-2.653506 6.36059,-5.452784 9.483926,-8.244504 2.558245,-2.31962 5.075391,-4.674608 7.529356,-7.103971 z" /><path
         style="fill:none;stroke:#000000;stroke-width:1.4;stroke-dasharray:none"
         id="path12"
         d="m 53.700645,-28.234738 c 1.917652,1.809678 4.134927,3.259123 6.245942,4.827719 1.715992,1.366479 3.344775,2.854878 4.516937,4.721463 0.431462,0.905954 0.636572,1.874952 0.381315,2.851836 -0.260178,0.706612 -0.781743,1.245262 -1.287055,1.783681 -1.054177,0.872307 -2.405351,0.603879 -3.660703,0.472312 -2.678549,-0.479322 -5.235663,-1.432397 -7.812897,-2.27674 -3.477649,-1.053457 -6.975385,-2.0234 -10.435371,-3.136365 -3.172737,-1.090162 -6.462146,-1.741829 -9.733253,-2.447688 -3.143761,-0.72298 -6.154456,-1.917617 -9.189987,-2.99224 -3.364866,-1.146821 -6.607414,-2.601719 -9.869677,-4.004619 -3.0538136,-1.280197 -6.1465308,-2.468883 -9.2441957,-3.638748 -3.03581542,-1.184077 -6.0912921,-2.326315 -9.0561413,-3.681138 -2.3525509,-1.099902 -4.651369,-2.306957 -6.910036,-3.587313 -2.455959,-1.43991 -4.919098,-2.867123 -7.38215,-4.295169 -3.107507,-1.7106 -6.239152,-3.38341 -9.26885,-5.229498 -2.425469,-1.47393 -4.738653,-3.127793 -6.878267,-4.992012 -1.461026,-1.285132 -2.802067,-2.687961 -4.062386,-4.167685 -0.545843,-0.685798 -1.225902,-1.194573 -1.154848,-2.130793 0.112739,-0.332055 0.121881,-0.52869 0.453271,-0.742117 1.176197,-0.757515 3.677132,-0.649223 5.020935,-0.688869 3.307804,-0.02466 6.58001,0.428059 9.84551,0.892985 2.374244,0.37936 4.777407,0.455488 7.176386,0.505772 2.426252,0.02689 4.808035,0.458134 7.189021,0.87639 1.7552996,0.279001 3.4725957,0.716449 5.1733185,1.224187 0,0 1.421e-4,-1.8e-5 1.421e-4,-1.8e-5 v 0 c -1.700675,-0.507786 -3.4179404,-0.945208 -5.1732086,-1.224206 -2.380985,-0.418256 -4.762768,-0.8495 -7.189021,-0.876393 -2.398979,-0.05028 -4.802142,-0.12641 -7.176387,-0.505766 -3.265664,-0.46495 -6.538036,-0.917694 -9.846008,-0.892988 -1.343808,0.03965 -3.844755,-0.06865 -5.02095,0.688885 -0.33139,0.213437 -0.340532,0.410075 -0.453273,0.742135 -0.07105,0.936234 0.609002,1.445009 1.154856,2.130814 1.260321,1.479722 2.601364,2.882556 4.062394,4.167688 2.139616,1.864225 4.452807,3.518082 6.87828,4.992015 3.0297,1.846088 6.161347,3.518895 9.268854,5.2295 2.463051,1.428044 4.926189,2.855259 7.382147,4.295167 2.258668,1.280358 4.5574882,2.487414 6.9100401,3.587316 2.96485,1.354825 6.02033001,2.497061 9.0561468,3.681137 3.0976655,1.169866 6.1903821,2.358554 9.2441961,3.638748 3.262267,1.402898 6.504816,2.857799 9.869684,4.00462 3.035532,1.074624 6.046229,2.269262 9.18999,2.992242 3.27111,0.70586 6.560521,1.357522 9.733258,2.447685 3.459988,1.112966 6.957724,2.082909 10.435371,3.136365 2.57724,0.844343 5.134358,1.797418 7.81291,2.276743 1.255466,0.131579 2.606826,0.400046 3.661098,-0.472326 0.505314,-0.538421 1.026879,-1.077075 1.287055,-1.783691 0.255256,-0.97689 0.05014,-1.945894 -0.38132,-2.851852 -1.172163,-1.866589 -2.800954,-3.354987 -4.516949,-4.721469 -2.111012,-1.568596 -4.328289,-3.018037 -6.245939,-4.827717 z" /><path
         style="fill:none;stroke:#000000;stroke-width:2.902;stroke-dasharray:none"
         id="path13"
         d="m 38.133734,-27.720194 c 0.63631,-1.602312 1.023789,-3.272319 1.29232,-4.970706 0.239109,-1.601962 0.06003,-3.225123 -0.03999,-4.831527 -0.03446,-1.264973 -0.173824,-2.524242 -0.42799,-3.763756 -0.288732,-1.781966 -0.816684,-3.504997 -1.430796,-5.197978 -0.884293,-2.115193 -2.267066,-3.962408 -3.776937,-5.667555 -1.484249,-1.547154 -3.004532,-3.065679 -4.605036,-4.493096 -1.723755,-1.384625 -3.462824,-2.759075 -5.264161,-4.042542 -1.87418,-1.291556 -3.929497,-2.281865 -5.934501,-3.347643 -2.407081,-1.337321 -4.591754,-2.045727 -7.342601,-2.147496 -2.2075625,-0.01201 -4.3833419,0.23985 -6.5418947,0.676648 -1.7781534,0.300503 -3.33330786,1.174697 -4.89748699,2.016429 -1.23131861,0.804863 -2.39008641,1.721893 -3.50689771,2.678488 -0.9389036,0.70153 -1.7499539,1.551006 -2.5686834,2.38451 -0.922323,0.903867 -1.7892324,1.865376 -2.5270145,2.926016 -1.0747237,1.68043 -1.4849867,3.681815 -1.7152277,5.635956 -0.0012,0.307618 -0.0024,0.615236 -0.0036,0.922853 0,0 9.6e-5,0 9.6e-5,0 v 0 c 0.0012,-0.307617 0.0024,-0.615235 0.0036,-0.922853 0.230406,-1.954117 0.640566,-3.955513 1.7153166,-5.635942 0.7377822,-1.060636 1.6046887,-2.022147 2.5270113,-2.926012 0.8187285,-0.833503 1.6297783,-1.682977 2.5686803,-2.384507 1.1168105,-0.956593 2.2755753,-1.873625 3.5068948,-2.678485 1.56417402,-0.84173 3.1193239,-1.715921 4.8974719,-2.016421 2.1584126,-0.436772 4.3340469,-0.688642 6.5414651,-0.676646 2.75085,0.101762 4.935524,0.810165 7.342607,2.147486 2.005004,1.065776 4.060322,2.056085 5.934504,3.347637 1.801339,1.283468 3.540409,2.657917 5.264164,4.04254 1.600507,1.427417 3.120792,2.945942 4.605044,4.493096 1.509876,1.705142 2.89265,3.552354 3.776948,5.667544 0.614116,1.692982 1.142071,3.416012 1.430801,5.197975 0.254166,1.239515 0.39353,2.498781 0.427995,3.763754 0.100018,1.606404 0.279101,3.229562 0.03999,4.831527 -0.268528,1.698384 -0.656011,3.368392 -1.292323,4.970698 z" /><path
         style="fill:none;stroke:#000000;stroke-width:2.902;stroke-dasharray:none"
         id="path14"
         d="m 30.725708,-20.928995 c -0.02291,1.989202 -1.21339,3.461091 -2.528404,4.824257 -1.841632,1.688801 -3.799794,2.42232 -6.209374,2.897839 -2.311662,0.330404 -4.660874,0.481158 -6.994944,0.37784 -1.839906,-0.117592 -3.650398,-0.509966 -5.4488647,-0.897798 -1.8085686,-0.377034 -3.6125126,-0.783453 -5.393492,-1.275962 -1.3323758,-0.418212 -2.6158858,-0.974633 -3.84527431,-1.6342 -1.43817389,-0.741687 -2.81071269,-1.604221 -4.18119939,-2.462748 -1.5123075,-1.031995 -2.9031671,-2.215817 -4.2268513,-3.476793 -1.0014442,-0.976971 -1.8053634,-2.110995 -2.5447623,-3.290576 -0.541237,-0.919151 -0.807131,-1.961501 -1.143899,-2.96461 -0.326261,-1.051798 -0.627604,-2.111468 -0.920302,-3.173161 -0.288148,-1.308703 -0.555008,-2.62659 -0.747622,-3.953484 -0.100337,-0.912304 -0.25611,-1.816541 -0.369421,-2.727306 0,0 -1.37e-4,3e-6 -1.37e-4,3e-6 v 0 c 0.113191,0.910777 0.268967,1.815004 0.369321,2.727309 0.192615,1.326893 0.459477,2.64478 0.747625,3.953483 0.292699,1.061696 0.594042,2.121366 0.920305,3.173164 0.33677,1.003109 0.602665,2.045462 1.143903,2.964615 0.7394012,1.179581 1.5433202,2.313609 2.5447668,3.290581 1.3236877,1.260977 2.7145519,2.444798 4.22686,3.476796 1.3704881,0.858527 2.7430279,1.721062 4.18120229,2.46275 1.22939051,0.65957 2.51290491,1.215989 3.84528281,1.634204 1.7809805,0.492509 3.5849258,0.898928 5.3934955,1.275962 1.7984686,0.387834 3.6089616,0.780208 5.4488696,0.897801 2.3342,0.103282 4.683536,-0.04739 6.995325,-0.377844 2.409583,-0.475522 4.367746,-1.209045 6.209378,-2.89785 1.315016,-1.363171 2.505482,-2.835065 2.528408,-4.824272 z" /><path
         style="fill:none;stroke:#000000;stroke-width:0.302105;stroke-dasharray:none"
         id="path15"
         d="m 75.464743,-60.342874 c 1.512414,1.104963 3.22244,1.803399 5.029422,2.244912 2.488973,0.46041 4.939313,-0.04879 7.331483,-0.731951 1.308663,-0.379574 2.54582,-0.939631 3.743936,-1.581356 0.382323,-0.204777 0.769342,-0.403011 1.134644,-0.636802 0.575972,-0.368618 2.258372,-1.542968 1.686179,-1.168506 -0.814221,0.532855 -1.608304,1.09587 -2.412455,1.643806 -0.262972,0.144306 -0.488958,0.430691 -0.788913,0.432919 -0.192908,0.0013 0.249507,-0.295039 0.387408,-0.429937 0.309137,-0.302406 0.635871,-0.586282 0.952519,-0.880814 0.704395,-0.655193 1.53938,-1.416709 2.192755,-2.12534 0.320516,-0.347622 0.612304,-0.720677 0.918454,-1.081013 0.968285,-1.236911 1.936294,-2.576034 1.986507,-4.207864 0.0075,-0.245499 -0.02663,-0.490509 -0.03995,-0.735764 -0.177647,-1.180481 -0.639451,-2.299092 -1.110928,-3.389416 -0.18424,-0.339368 -0.297698,-0.719844 -0.503978,-1.047581 -0.03348,-0.04292 -0.01609,-0.01281 -0.02681,-0.100777 0,0 -1.12e-4,3e-6 -1.12e-4,3e-6 v 0 c 0.01058,0.08797 -0.0068,0.05787 0.02669,0.100788 0.206296,0.327728 0.319741,0.708215 0.503992,1.047575 0.471482,1.090321 0.933286,2.208929 1.110935,3.389408 0.01331,0.245255 0.0475,0.490262 0.03995,0.735761 -0.05021,1.631826 -1.018214,2.970945 -1.986491,4.207851 -0.306152,0.360339 -0.597937,0.733391 -0.918454,1.081014 -0.653375,0.70863 -1.488363,1.470149 -2.19276,2.125339 -0.316654,0.294532 -0.643449,0.57835 -0.952535,0.880814 -0.137813,0.134861 -0.579781,0.43139 -0.386963,0.429977 0.299942,-0.0021 0.525909,-0.288618 0.788865,-0.432924 0.804019,-0.54795 1.598076,-1.110811 2.412053,-1.643849 0.572082,-0.374629 -1.110207,0.799889 -1.686179,1.168506 -0.365302,0.233791 -0.752321,0.432022 -1.134642,0.636799 -1.198118,0.641726 -2.435275,1.20178 -3.743939,1.581354 -2.392023,0.683117 -4.842197,1.192339 -7.331019,0.731949 -1.806988,-0.441508 -3.517019,-1.139942 -5.029441,-2.244903 z" /><path
         style="fill:none;stroke:#000000;stroke-width:2.902;stroke-dasharray:none"
         id="path16"
         d="m 92.92982,-61.121281 c 0.67546,-0.540401 1.244595,-1.1904 1.782987,-1.863331 0.573395,-0.787569 1.153033,-1.570352 1.725367,-2.358612 0.618252,-0.907987 1.083648,-1.913734 1.440643,-2.950017 0.371723,-1.238205 0.674433,-2.491626 0.851995,-3.772215 0.172371,-1.370695 0.175416,-2.750468 0.125296,-4.128188 -0.03961,-1.486868 -0.475546,-2.905913 -0.978469,-4.291584 -0.46642,-1.229783 -1.030033,-2.422239 -1.608103,-3.603159 -0.367866,-0.777716 -0.818972,-1.511768 -1.276567,-2.238991 -0.505576,-0.708451 -1.023255,-1.411256 -1.558732,-2.097784 -0.553995,-0.807061 -1.231897,-1.40427 -2.038561,-1.942634 -1.062628,-0.653928 -2.218076,-1.13919 -3.398155,-1.535126 -1.536599,-0.477917 -3.148542,-0.566549 -4.744696,-0.642149 -1.475637,-0.05151 -2.956954,0.0027 -4.429096,0.113239 -1.136023,0.107453 -2.243436,0.371679 -3.349585,0.638429 -0.921875,0.216567 -1.805467,0.557393 -2.659679,0.961237 -0.875784,0.372366 -1.641327,0.89971 -2.365513,1.509 -0.958683,0.811274 -1.735079,1.80284 -2.503604,2.788566 -0.71135,0.960287 -1.365662,1.952466 -1.806839,3.065933 -0.390702,1.032931 -0.59785,2.117154 -0.78259,3.201699 -0.179472,1.107925 -0.186259,2.233459 -0.202414,3.352814 -0.05038,1.208108 0.03072,2.410494 0.167632,3.609726 0.08361,1.263348 0.346051,2.486588 0.741667,3.68554 0.409747,1.101936 0.850325,2.200047 1.418981,3.231541 0.35972,0.652502 0.54846,0.906291 0.959255,1.519571 0.695489,0.923515 1.465736,1.797312 2.365171,2.528766 0.448495,0.364733 0.827963,0.601649 1.307015,0.921073 1.137137,0.65591 2.309966,1.325758 3.575712,1.705655 0.618106,0.185517 1.255382,0.299844 1.883071,0.449767 0,0 7.2e-5,-10e-6 7.2e-5,-10e-6 v 0 c -0.627637,-0.149926 -1.264857,-0.264269 -1.882913,-0.449784 -1.265735,-0.379923 -2.438569,-1.049734 -3.575701,-1.705652 -0.479046,-0.319418 -0.858528,-0.556342 -1.307018,-0.92107 -0.899437,-0.731449 -1.669685,-1.605249 -2.365179,-2.528758 -0.410797,-0.613281 -0.599538,-0.867069 -0.959257,-1.519568 -0.568659,-1.031494 -1.00924,-2.1296 -1.418984,-3.231537 -0.395619,-1.198951 -0.658062,-2.422188 -0.741673,-3.685537 -0.136913,-1.199232 -0.218014,-2.401615 -0.167634,-3.609723 0.01617,-1.119352 0.02294,-2.244887 0.202417,-3.352811 0.18474,-1.084543 0.391885,-2.168766 0.782587,-3.201694 0.441174,-1.113464 1.095483,-2.105644 1.806831,-3.065928 0.768522,-0.985724 1.544916,-1.977289 2.503599,-2.788563 0.724186,-0.609285 1.489729,-1.136626 2.36551,-1.508992 0.85421,-0.403845 1.737799,-0.744668 2.659671,-0.961234 1.106146,-0.266753 2.21356,-0.530977 3.34958,-0.638427 1.472017,-0.110561 2.953213,-0.164743 4.428728,-0.113239 1.596152,0.0756 3.208094,0.16423 4.744693,0.642144 1.180077,0.395933 2.335525,0.881195 3.398155,1.53512 0.806662,0.538364 1.484569,1.135566 2.038565,1.942629 0.535479,0.686525 1.053152,1.389333 1.558734,2.097781 0.457597,0.727221 0.908706,1.461275 1.276575,2.238989 0.578075,1.18092 1.141688,2.373376 1.608114,3.603157 0.502925,1.38567 0.938866,2.804713 0.978479,4.291578 0.05012,1.37772 0.04708,2.757493 -0.125293,4.128185 -0.177562,1.280589 -0.480269,2.53401 -0.851993,3.772215 -0.356994,1.036281 -0.822389,2.042028 -1.440643,2.950012 -0.572334,0.788257 -1.151972,1.571043 -1.725364,2.358609 -0.538395,0.672931 -1.10753,1.32293 -1.782993,1.863328 z" /><path
         style="fill:none;stroke:#000000;stroke-width:1;stroke-dasharray:none"
         id="path17"
         d="m 82.474831,-56.423792 c -0.262641,1.145341 -0.495298,2.296639 -0.777129,3.437591 -0.338169,1.333333 -0.832406,2.572231 -1.561827,3.737446 -0.563656,0.979101 -1.402784,1.728226 -2.17351,2.534888 -0.575847,0.641543 -1.179227,1.257348 -1.836082,1.816156 -0.613335,0.509719 -1.266698,0.814845 -2.040694,0.981008 -0.723688,0.129249 -1.46414,-0.05463 -2.055005,-0.497255 -0.135671,-0.101632 -0.250471,-0.228491 -0.375706,-0.342738 -0.875191,-0.949688 -1.05152,-2.271226 -1.255726,-3.497943 -0.329808,-1.84508 -0.387109,-3.72046 -0.494673,-5.587087 -0.144989,-2.126681 -0.07503,-4.260109 0.0013,-6.387947 0.15648,-2.682525 0.526667,-5.345818 0.997681,-7.9893 0.54692,-2.771267 1.332171,-5.484346 2.125271,-8.19259 0.608097,-1.931437 1.089802,-3.898209 1.633325,-5.847836 0.691981,-2.525789 1.390812,-5.052364 2.245993,-7.528343 0.762206,-2.061461 1.642634,-4.074052 2.67122,-6.015908 0.805174,-1.461217 1.673394,-2.894523 2.64042,-4.25485 0.750101,-1.1321 1.770284,-2.00802 2.864932,-2.78919 0.863303,-0.60125 1.795788,-1.10959 2.779334,-1.48393 0.616402,-0.19198 1.253167,-0.33751 1.895972,-0.22718 0.526643,0.1811 1.026676,0.53801 1.307653,1.03225 0.07914,0.1392 0.13113,0.29218 0.196694,0.43826 0.455205,1.1902 0.586714,2.46858 0.67822,3.730093 0.08298,1.330118 0.06988,2.661811 0.0074,3.992091 -0.04396,1.381636 -0.145958,2.758771 -0.310145,4.131083 -0.08052,0.620961 -0.04142,0.329604 -0.116414,0.874183 0,0 9.3e-5,0 9.3e-5,0 v 0 c 0.07506,-0.544576 0.03592,-0.253222 0.116535,-0.874181 0.164182,-1.372312 0.266187,-2.749447 0.310145,-4.131085 0.06251,-1.33028 0.0756,-2.661975 -0.0074,-3.992091 -0.09151,-1.261513 -0.223017,-2.539903 -0.678217,-3.730093 -0.06556,-0.1461 -0.117554,-0.29907 -0.196691,-0.43828 -0.280975,-0.49424 -0.781011,-0.85115 -1.307653,-1.03226 -0.642951,-0.11037 -1.279869,0.0352 -1.896412,0.22719 -0.983541,0.37434 -1.916022,0.88268 -2.779326,1.48393 -1.094645,0.78117 -2.114825,1.6571 -2.864924,2.7892 -0.967023,1.360326 -1.83524,2.793632 -2.640412,4.254849 -1.028581,1.941859 -1.909006,3.954452 -2.671207,6.015914 -0.855181,2.475976 -1.554009,5.002553 -2.24599,7.528343 -0.543523,1.949627 -1.025228,3.916396 -1.633323,5.847836 -0.793094,2.708246 -1.578343,5.421326 -2.125263,8.192593 -0.471014,2.643481 -0.8412,5.306774 -0.99768,7.9893 -0.07647,2.12784 -0.146428,4.261268 -0.0013,6.387949 0.107566,1.86663 0.164867,3.74201 0.494673,5.58709 0.204205,1.226719 0.380532,2.548263 1.255723,3.497955 0.125235,0.114247 0.240035,0.241107 0.375708,0.342742 0.590971,0.442706 1.331543,0.626528 2.055353,0.49726 0.773996,-0.166166 1.42736,-0.471297 2.040694,-0.981017 0.656854,-0.55881 1.260231,-1.174615 1.836078,-1.816158 0.770726,-0.806664 1.609852,-1.555789 2.173507,-2.534891 0.72942,-1.165217 1.223656,-2.404118 1.561823,-3.737451 0.281829,-1.140952 0.514482,-2.292255 0.777131,-3.437593 z" /><path
         style="fill:none;stroke:#000000;stroke-width:2.902;stroke-dasharray:none"
         id="path18"
         d="m 135.22505,-87.38682 c 1.1388,0.362354 2.31728,0.434189 3.50292,0.404476 1.39038,-0.103571 2.79193,-0.363773 4.08986,-0.888389 0.34542,-0.139615 0.67949,-0.305824 1.01923,-0.458734 1.94316,-0.871527 3.60992,-2.189274 5.23307,-3.541916 1.34914,-1.052314 2.37637,-2.396972 3.22982,-3.864708 0.76162,-1.440379 1.23463,-3.006654 1.63092,-4.580169 0.36448,-1.57398 0.40629,-3.19663 0.44625,-4.80465 0.0564,-1.65378 -0.0632,-3.30291 -0.29912,-4.93855 -0.15872,-1.52245 -0.66476,-2.95095 -1.3041,-4.32983 -0.64092,-1.37822 -1.70467,-2.45685 -2.77335,-3.50803 -0.98594,-0.91523 -2.0771,-1.69858 -3.23636,-2.37648 -1.00896,-0.56388 -2.08722,-0.98202 -3.19124,-1.31581 -0.97868,-0.29968 -1.9647,-0.57049 -2.95571,-0.82556 -1.20102,-0.26348 -2.41375,-0.43781 -3.64248,-0.47809 -1.45587,-0.0479 -2.89501,0.18075 -4.30943,0.50195 -1.17968,0.26652 -2.28465,0.72981 -3.35758,1.27614 -1.19003,0.65507 -2.32179,1.40351 -3.37844,2.25604 -0.93262,0.73852 -1.71508,1.62837 -2.44559,2.56042 -0.55969,0.75576 -1.04808,1.56143 -1.55542,2.35276 -0.51424,0.91245 -1.08379,1.79191 -1.61681,2.69281 -0.46172,0.82779 -0.70559,1.74397 -0.8825,2.66851 -0.22405,1.22083 -0.14492,2.4559 -0.0431,3.68352 0.14473,1.65885 0.50756,3.286 0.9644,4.88385 0.42233,1.333975 0.90502,2.64747 1.3637,3.969064 0.34221,1.04798 0.76967,2.06068 1.32164,3.01449 0.62881,1.049052 1.52172,1.856655 2.57569,2.46798 0.30303,0.175766 0.62116,0.324115 0.93173,0.486172 1.36085,0.645099 2.8174,1.022885 4.30047,1.260168 0.61468,0.09834 1.23611,0.148437 1.85416,0.222655 0,0 1e-4,-1.3e-5 1e-4,-1.3e-5 v 0 c -0.61804,-0.07422 -1.23945,-0.124317 -1.85411,-0.222663 -1.48303,-0.237291 -2.93955,-0.615098 -4.30037,-1.260176 -0.31057,-0.162054 -0.6287,-0.310404 -0.93173,-0.486166 -1.05396,-0.611323 -1.94688,-1.418924 -2.57569,-2.46797 -0.55197,-0.953807 -0.97943,-1.966505 -1.32165,-3.014485 -0.45867,-1.321594 -0.94137,-2.635086 -1.36369,-3.969056 -0.45685,-1.59786 -0.81968,-3.22501 -0.96441,-4.88385 -0.10183,-1.22762 -0.18095,-2.46269 0.0431,-3.68351 0.17692,-0.92454 0.42078,-1.84071 0.8825,-2.66851 0.53303,-0.90089 1.10258,-1.78036 1.61681,-2.69281 0.50734,-0.79132 0.99573,-1.597 1.55542,-2.35276 0.73051,-0.93205 1.51297,-1.82188 2.44558,-2.56041 1.05665,-0.85253 2.18841,-1.60097 3.37844,-2.25603 1.07294,-0.54633 2.1779,-1.00962 3.35757,-1.27614 1.41428,-0.32117 2.85328,-0.54979 4.30901,-0.50194 1.22873,0.0403 2.44146,0.2146 3.64248,0.47808 0.991,0.25507 1.97703,0.52588 2.95571,0.82556 1.10402,0.33379 2.18228,0.75193 3.19124,1.3158 1.15926,0.6779 2.25042,1.46124 3.23637,2.37648 1.06867,1.05117 2.13243,2.1298 2.77334,3.50802 0.63934,1.37888 1.14538,2.80738 1.30411,4.32982 0.2359,1.63564 0.35551,3.28477 0.29912,4.93855 -0.04,1.60802 -0.0818,3.23067 -0.44625,4.80465 -0.39629,1.57351 -0.8693,3.139782 -1.63092,4.580158 -0.85345,1.467734 -1.88068,2.812389 -3.22982,3.864703 -1.62314,1.35264 -3.2899,2.670384 -5.23307,3.541908 -0.33974,0.152911 -0.67381,0.319119 -1.01923,0.458732 -1.29794,0.524613 -2.69948,0.784812 -4.08987,0.888383 -1.18549,0.02973 -2.36384,-0.04218 -3.5025,-0.404471 z" /><path
         style="fill:none;stroke:#000000;stroke-width:2.902;stroke-dasharray:none"
         id="path19"
         d="m 176.65993,-126.30245 c 0.76091,0.14474 1.35412,0.0997 2.07143,-0.19383 0.87986,-0.47099 1.5789,-1.20957 2.24887,-1.93588 0.64479,-0.69023 1.08714,-1.49367 1.35364,-2.39356 0.23913,-1.00513 0.0678,-1.96556 -0.28094,-2.91803 -0.47833,-1.01573 -1.3406,-1.75479 -2.19429,-2.45055 -0.81911,-0.6672 -1.80812,-0.96876 -2.83277,-1.13422 -0.81213,-0.11661 -1.63014,-0.0364 -2.39838,0.24506 -0.84255,0.4004 -1.49048,1.06366 -2.06087,1.78482 -0.57749,0.77204 -0.7928,1.67946 -0.92133,2.61558 -0.0814,1.04802 0.17233,2.08131 0.46376,3.07976 0.31767,1.07461 0.78263,2.09116 1.37106,3.04235 0.66644,0.93007 1.66384,1.71021 2.86407,1.75389 0.49829,0.0181 0.99377,-0.0832 1.49065,-0.12476 0.61216,-0.18754 1.22431,-0.37507 1.83647,-0.5626 0,0 -8e-5,-10e-6 -8e-5,-10e-6 v 0 c -0.61219,0.18752 -1.22439,0.37505 -1.83658,0.56258 -0.49674,0.0416 -0.99208,0.14289 -1.49023,0.12476 -1.20021,-0.0437 -2.19761,-0.8238 -2.86406,-1.75387 -0.58843,-0.9512 -1.05339,-1.96773 -1.37107,-3.04235 -0.29142,-0.99845 -0.54516,-2.03173 -0.46376,-3.07975 0.12853,-0.93611 0.34383,-1.84352 0.92133,-2.61556 0.57038,-0.72116 1.2183,-1.38442 2.06085,-1.78481 0.76812,-0.28145 1.58597,-0.36167 2.39797,-0.24506 1.02464,0.16546 2.01365,0.46701 2.83277,1.13421 0.85368,0.69575 1.71596,1.43481 2.19428,2.45054 0.34872,0.95246 0.52008,1.91289 0.28094,2.91801 -0.2665,0.89989 -0.70885,1.70333 -1.35364,2.39355 -0.66997,0.72632 -1.36901,1.46489 -2.24887,1.93587 -0.71723,0.29348 -1.31019,0.33857 -2.07101,0.19383 z" /><path
         style="fill:none;stroke:#000000;stroke-width:0.3"
         id="path20"
         d="m 8.8779629,-13.250265 c 0.1033002,2.532623 -0.4232301,5.0425975 -1.1537508,7.4525005 -1.0277996,2.9084669 -2.7485562,5.49004925 -4.4812002,8.01726 -1.9118783,2.6899395 -3.80167653,5.3958485 -5.7510625,8.0588195 -0.3865977,0.511664 -0.7776635,1.019982 -1.1597932,1.534991 -0.5087025,0.685596 -1.9191449,2.65606 -2.4431696,3.312543 -1.4512965,1.818141 -3.064574,3.504352 -4.6704326,5.183592 -4.625746,4.894189 -9.449045,9.592838 -14.266118,14.296707 -5.625626,5.532225 -11.391146,10.910876 -17.386006,16.040996 -5.340271,4.549315 -10.767179,8.997776 -16.252084,13.371481 -5.126056,3.93922 -10.601317,7.391238 -15.992816,10.950657 -6.516452,4.236923 -13.236194,8.146952 -19.883631,12.171391 -8.369209,5.193676 -17.019589,9.909323 -25.592899,14.752867 -8.24314,4.70231 -16.41187,9.53539 -24.57295,14.37872 -8.04474,4.96322 -16.25468,9.64052 -24.46292,14.32459 -7.89496,4.64216 -15.79295,9.27542 -23.74051,13.82743 -5.9351,3.34701 -12.03027,6.39335 -18.0943,9.49628 -5.83782,3.00247 -11.79279,5.76382 -17.64781,8.7321 -6.54264,3.35821 -13.05852,6.76828 -19.62164,10.08659 -7.81537,3.81668 -15.62861,7.63668 -23.42534,11.4913 -6.99955,3.38846 -14.19314,6.34989 -21.39113,9.28435 -5.97557,2.49262 -11.95753,4.96756 -17.95542,7.40605 -5.16533,2.14279 -10.39212,4.13115 -15.6473,6.04147 -5.20645,1.8816 -10.41196,3.76403 -15.64098,5.58222 -4.43754,1.55501 -8.91251,2.99424 -13.41548,4.34651 -5.1253,1.50388 -10.26637,2.93878 -15.45162,4.22162 -5.7771,1.48373 -11.48945,3.20179 -17.2372,4.79368 0,0 7e-5,1e-5 7e-5,1e-5 v 0 c 5.74781,-1.59186 11.46019,-3.30992 17.23734,-4.79366 5.18526,-1.28285 10.32632,-2.71774 15.45162,-4.22162 4.50297,-1.35227 8.97794,-2.79151 13.41546,-4.34651 5.22904,-1.8182 10.43456,-3.70062 15.641,-5.58222 5.25518,-1.91032 10.48194,-3.89869 15.6473,-6.04148 5.99789,-2.43849 11.97986,-4.91342 17.95539,-7.40605 7.19799,-2.93445 14.39159,-5.89589 21.39114,-9.28435 7.79673,-3.85462 15.60997,-7.67462 23.42535,-11.49129 6.56311,-3.31832 13.07899,-6.72839 19.62164,-10.0866 5.85502,-2.96828 11.80999,-5.72963 17.64781,-8.7321 6.06403,-3.10293 12.1592,-6.14927 18.09429,-9.49628 7.94755,-4.55201 15.84555,-9.18527 23.7405,-13.82743 8.20823,-4.68408 16.41817,-9.36137 24.4629,-14.3246 8.16108,-4.84333 16.32981,-9.67641 24.57295,-14.37872 8.57331,-4.843538 17.22369,-9.559185 25.592901,-14.752861 6.647439,-4.024439 13.367183,-7.934465 19.883638,-12.171391 5.391499,-3.559416 10.86676,-7.011437 15.992814,-10.950657 5.484905,-4.373706 10.911808,-8.822169 16.252078,-13.371483 5.994858,-5.130123 11.760377,-10.508771 17.386003,-16.040997 4.817074,-4.703871 9.640377,-9.402518 14.266126,-14.296707 1.6058601,-1.679241 3.2191389,-3.365452 4.6704364,-5.183594 0.5240221,-0.65648 1.9344701,-2.62695 2.4431704,-3.312542 0.3821303,-0.51501 0.7731964,-1.023328 1.1597946,-1.534992 C -0.55849318,7.6153538 1.3313079,4.9094461 3.243186,2.2195059 4.97583,-0.30770663 6.6965866,-2.889291 7.724386,-5.7977592 8.4549074,-8.2076651 8.981438,-10.717641 8.8781434,-13.250267 Z" /><path
         style="fill:none;stroke:#000000;stroke-width:0.3"
         id="path21"
         d="m 92.721281,-59.365969 c 0.95531,2.558245 2.13623,5.022302 3.201982,7.534724 1.519423,3.247054 2.777728,6.626802 3.674142,10.098352 0.611025,2.915301 0.498015,5.856449 0.09199,8.783164 -0.495872,3.270946 -1.490187,6.42684 -2.666061,9.508812 -2.129668,5.119315 -4.898612,9.937709 -7.883808,14.5981392 C 84.987057,-2.58985 80.338111,3.32022 75.684218,9.2038881 71.332907,14.314444 67.035671,19.485627 62.476945,24.415273 60.584749,26.461431 56.990069,30.135226 55.045371,32.136103 47.295395,40.074289 39.268855,47.740022 31.09959,55.244256 21.945021,63.504145 12.716069,71.684197 3.2228173,79.553426 -6.9698874,88.022013 -17.599266,95.947927 -28.344513,103.69679 c -10.029288,7.20024 -20.434795,13.86551 -31.045121,20.17249 -9.565843,5.54396 -19.174248,11.01247 -28.818016,16.4196 -10.358761,5.75041 -20.89666,11.16465 -31.37732,16.68611 -12.89467,7.02197 -26.12444,13.38468 -39.40387,19.63676 -13.38116,6.27405 -26.86433,12.32775 -40.28076,18.52626 -13.35941,6.23142 -26.69901,12.50473 -40.10033,18.64593 -12.94402,5.86285 -26.04808,11.35873 -39.22518,16.67331 -10.66519,4.20935 -5.09548,2.08745 -16.72166,6.33271 0,0 2e-5,0 2e-5,0 v 0 c 11.62632,-4.24522 6.05658,-2.12333 16.7218,-6.33269 13.17707,-5.31458 26.28115,-10.81046 39.22517,-16.67331 13.40132,-6.1412 26.74092,-12.41452 40.10033,-18.64594 13.41643,-6.1985 26.89959,-12.2522 40.28076,-18.52625 13.27943,-6.25208 26.50921,-12.6148 39.40387,-19.63676 10.48067,-5.52147 21.018573,-10.9357 31.377334,-16.68611 9.643768,-5.40713 19.252173,-10.87565 28.818019,-16.41961 10.610323,-6.30698 21.01582,-12.97225 31.04511,-20.17248 C -17.599111,95.947941 -6.9697337,88.022027 3.2229705,79.553442 12.716225,71.684212 21.945181,63.504158 31.099749,55.244269 c 8.169267,-7.504234 16.19581,-15.169967 23.945786,-23.108152 1.944672,-2.000854 5.539404,-5.674702 7.431577,-7.720832 4.558723,-4.929647 8.855961,-10.10083 13.207275,-15.2113856 4.653899,-5.8836657 9.302845,-11.7937389 13.455322,-18.0466669 2.985198,-4.6604315 5.754145,-9.4788265 7.883821,-14.5981425 1.175877,-3.081973 2.170192,-6.237868 2.666066,-9.508816 0.406014,-2.926718 0.519024,-5.867868 -0.092,-8.783172 -0.896411,-3.47155 -2.154722,-6.851301 -3.674139,-10.098355 -1.06575,-2.512422 -2.246673,-4.976476 -3.201975,-7.534722 z" /><path
         style="fill:none;stroke:#000000;stroke-width:0.3"
         id="path22"
         d="m 148.87082,-93.781022 c 2.56585,1.732571 5.14444,3.447016 7.63737,5.283722 3.66009,2.803919 6.88423,6.103363 10.10285,9.388477 3.52977,3.564469 6.72904,7.413808 9.49145,11.598526 1.96297,3.01053 3.49939,6.249374 4.62679,9.655688 0.81557,2.568419 1.22389,5.199671 1.41097,7.878453 0.2428,3.298399 0.0394,6.595452 -0.34914,9.872157 -0.54236,4.043963 -1.42111,8.025464 -2.62437,11.921191 -1.65173,4.996362 -4.40477,9.47924 -7.18642,13.905684 -3.25896,5.2732191 -6.53937,10.5329593 -10.09381,15.6133238 -3.97615,5.284353 -7.99687,10.5331192 -11.87608,15.8895662 -4.31286,5.748152 -9.02514,11.191269 -13.74708,16.604983 -6.5791,7.653935 -13.24572,15.226363 -20.13418,22.60342 -7.17672,7.674388 -14.8457,14.868782 -22.564498,21.990611 -8.293177,7.772402 -17.015217,15.054871 -25.740553,22.33074 -6.353757,5.52201 -13.176768,10.45002 -19.920542,15.47394 -7.200088,5.42025 -14.825512,10.23645 -22.414898,15.08416 -8.453506,5.50036 -17.3907278,10.18221 -26.23513345,15.0075 C -10.604793,151.77081 -20.6975,156.7714 -30.796108,161.7546 c -11.908446,6.0204 -23.881725,11.91008 -35.729267,18.05015 -11.706907,6.07805 -23.513835,11.96281 -35.351595,17.78125 -8.26048,3.99163 -16.33465,8.35779 -24.58078,12.37778 -3.86042,1.88195 -7.76146,3.67942 -11.64219,5.51914 0,0 0,0 0,0 v 0 c 3.88077,-1.83971 7.78185,-3.63717 11.64231,-5.51913 8.24615,-4.01997 16.32031,-8.38615 24.58081,-12.37778 11.837758,-5.81843 23.644686,-11.70319 35.351594,-17.78124 11.847541,-6.14008 23.820826,-12.02975 35.729277,-18.05015 10.098608,-4.9832 20.191313,-9.98379 30.04965375,-15.43348 8.84440755,-4.82529 17.78162825,-9.50715 26.23513425,-15.0075 7.58939,-4.84772 15.214819,-9.66391 22.414907,-15.08417 6.743771,-5.02392 13.56678,-9.95192 19.920529,-15.47393 8.725334,-7.275879 17.447371,-14.558347 25.74055,-22.330747 7.718805,-7.121832 15.387785,-14.316223 22.564505,-21.990611 6.88846,-7.377059 13.55507,-14.949492 20.13418,-22.603422 4.72194,-5.413711 9.43423,-10.856831 13.74709,-16.604983 3.87921,-5.356447 7.89993,-10.6052147 11.87607,-15.8895671 3.55444,-5.0803643 6.83486,-10.3401029 10.09382,-15.6133239 2.78165,-4.426446 5.53469,-8.909325 7.18642,-13.905688 1.20327,-3.895728 2.08202,-7.877228 2.62438,-11.921194 0.3885,-3.276708 0.59194,-6.573761 0.34914,-9.872162 -0.18708,-2.678785 -0.59539,-5.310037 -1.41096,-7.878456 -1.12741,-3.406317 -2.66382,-6.645164 -4.6268,-9.655696 -2.76241,-4.184716 -5.96168,-8.034059 -9.49146,-11.598526 -3.21862,-3.285117 -6.44275,-6.584561 -10.10284,-9.38848 -2.49293,-1.836706 -5.07152,-3.551153 -7.63737,-5.283721 z" /><path
         style="fill:none;stroke:#000000;stroke-width:0.3"
         id="path23"
         d="m 181.01184,-128.19607 c 4.887,1.19209 9.41241,3.46817 13.9213,5.63625 5.97501,3.09976 12.03525,6.02112 18.12167,8.89413 3.5246,1.70728 7.09819,3.30432 10.66828,4.91222 2.01948,0.97776 4.04353,1.9459 6.05828,2.93341 2.53586,1.08641 4.81518,2.56393 6.95848,4.2845 2.38844,1.922 3.95718,4.506318 5.461,7.12338 1.78254,3.507925 3.38066,7.109989 4.87138,10.750664 1.45647,3.805079 2.81747,7.722626 3.32092,11.788566 0.12346,0.997087 0.15452,2.003451 0.23179,3.005179 0.16846,5.129903 -0.70257,10.211806 -2.13552,15.12538 -0.95052,3.259331 -1.84869,5.424607 -3.05905,8.606428 -3.36871,8.516376 -8.27644,16.246686 -13.30598,23.850339 -7.29801,10.698014 -15.67549,20.59266438 -24.06361,30.4382041 -8.46276,9.7464889 -17.43183,19.0491239 -26.88778,27.8363019 -1.92898,1.792552 -3.90434,3.534545 -5.85651,5.301818 -11.24611,9.900217 -22.98108,19.223321 -34.66504,28.596386 -6.87224,5.467483 -13.70107,10.997348 -20.80251,16.168206 -4.22283,3.074821 -7.48846,5.298834 -11.78559,8.275063 -12.029711,8.538715 -24.591151,16.278965 -37.179174,23.956095 -14.191461,8.52027 -28.784314,16.34416 -43.411756,24.08265 -12.789115,6.86952 -25.8263053,13.25465 -38.868741,19.62387 -14.907649,7.23167 -29.904205,14.2703 -44.97602,21.15232 -24.441346,10.70506 -48.984149,21.18225 -73.606389,31.46449 0,0 2e-5,1e-5 2e-5,1e-5 v 0 c 24.6223,-10.28218 49.165113,-20.75944 73.606498,-31.46449 15.071826,-6.88201 30.068399,-13.92063 44.976055,-21.15231 13.0424323,-6.36923 26.079617,-12.75435 38.868731,-19.62387 14.627441,-7.7385 29.220294,-15.56238 43.411763,-24.08265 12.588021,-7.67714 25.149461,-15.41738 37.179173,-23.956099 4.29706,-2.976181 7.56283,-5.200295 11.78559,-8.275063 7.10144,-5.170855 13.93027,-10.700724 20.80251,-16.168206 11.68396,-9.373068 23.41893,-18.69617 34.66504,-28.596388 1.95216,-1.767274 3.92752,-3.509267 5.8565,-5.301819 9.45596,-8.78718 18.42502,-18.089815 26.88779,-27.8363038 8.38812,-9.8455433 16.76561,-19.7401942 24.06363,-30.4382042 5.02954,-7.603653 9.93727,-15.333966 13.30597,-23.850345 1.21037,-3.181816 2.10854,-5.347102 3.05906,-8.606428 1.43295,-4.913577 2.30399,-9.995482 2.13553,-15.125387 -0.0773,-1.001726 -0.10833,-2.008092 -0.23179,-3.005183 -0.50344,-4.065939 -1.86444,-7.983487 -3.3209,-11.788568 -1.49072,-3.640675 -3.08885,-7.242739 -4.87138,-10.750666 -1.50382,-2.617066 -3.07256,-5.201386 -5.461,-7.12339 -2.1433,-1.72057 -4.42262,-3.19809 -6.95848,-4.28451 -2.01475,-0.98751 -4.0388,-1.95564 -6.05828,-2.9334 -3.57009,-1.6079 -7.14368,-3.20495 -10.66829,-4.91222 -6.08643,-2.87301 -12.14667,-5.79437 -18.12168,-8.89413 -4.50888,-2.16809 -9.03429,-4.44416 -13.92128,-5.63626 z" /><path
         style="fill:none;stroke:#000000;stroke-width:0.3"
         id="path24"
         d="m 167.10049,-133.64437 c -2.71548,0.3552 -5.46632,0.14576 -8.19344,0.0562 -2.90736,-0.15623 -5.79628,-0.51695 -8.69365,-0.78547 -4.98643,-0.30697 -9.98164,-0.43958 -14.96672,-0.76807 -6.7004,-0.52527 -13.40178,-1.02625 -20.10945,-1.4525 -5.79803,-0.37553 -11.60712,-0.50511 -17.415557,-0.5742 -7.092903,0.005 -14.184903,0.22194 -21.277442,0.32426 -1.471481,0.0159 -2.943053,0.025 -4.414446,0.0478 -4.300024,0.0666 -5.200777,0.13803 -9.515917,0.14093 -4.885171,0.003 -9.770541,-0.12008 -14.65566,-0.151 -10.056658,-0.01 -20.113249,0.0434 -30.169841,0.0739 -8.3288166,0.0202 -16.6587273,0.19617 -24.9786106,0.58405 -5.8922794,0.35004 -11.7969954,0.41768 -17.6876034,0.79508 -3.292599,0.21096 -5.176802,0.3923 -8.46655,0.67663 -8.368895,0.80648 -16.676248,2.099 -24.971149,3.44788 -9.165267,1.59627 -18.369129,2.9501 -27.571803,4.30989 -9.411637,1.43605 -18.872591,2.46061 -28.334191,3.48958 -8.0211,0.96067 -16.067,1.68029 -24.08641,2.65532 -11.71554,1.32159 -23.26954,3.68202 -34.80996,6.03715 -13.83017,2.98323 -27.69364,5.80995 -41.52184,8.80232 -2.68247,0.58541 -5.36665,1.16306 -8.04742,1.75622 -9.18126,2.03149 -18.29876,4.228405 -27.34043,6.822703 -9.45807,2.71377 -16.69479,5.043432 -26.18286,8.009813 -4.98234,1.573525 -9.96468,3.147052 -14.94702,4.720577 0,0 0,2e-6 0,2e-6 v 0 c 4.98237,-1.573524 9.96473,-3.147046 14.9471,-4.720571 9.48799,-2.966347 16.7249,-5.296056 26.18291,-8.009805 9.04167,-2.594293 18.15918,-4.791209 27.34045,-6.822699 2.68077,-0.59316 5.36495,-1.17081 8.04742,-1.75622 13.8282,-2.99237 27.69167,-5.81909 41.52185,-8.80232 11.54042,-2.35513 23.09442,-4.71556 34.80996,-6.03715 8.01942,-0.97502 16.06532,-1.69464 24.08642,-2.65532 9.4616,-1.02896 18.922548,-2.05353 28.334185,-3.48958 9.202674,-1.35978 18.406538,-2.71362 27.571805,-4.30989 8.294905,-1.34888 16.602252,-2.64139 24.971148,-3.44788 3.289744,-0.28433 5.17395,-0.46567 8.466548,-0.67662 5.890606,-0.37741 11.795321,-0.44505 17.6875994,-0.79509 8.3198814,-0.38787 16.6497903,-0.56384 24.9786046,-0.58405 10.056492,-0.0305 20.112985,-0.0838 30.169546,-0.0739 4.885213,0.0309 9.770678,0.15427 14.655948,0.15099 4.315102,-0.003 5.215929,-0.0743 9.515919,-0.14092 1.471393,-0.0228 2.942966,-0.0318 4.414446,-0.0478 7.092439,-0.10232 14.184336,-0.31954 21.277135,-0.32427 5.808436,0.0691 11.617536,0.19868 17.415566,0.5742 6.70767,0.42626 13.40905,0.92723 20.10945,1.4525 4.98508,0.3285 9.98029,0.4611 14.96672,0.76807 2.89737,0.26852 5.78629,0.62925 8.69366,0.78547 2.72721,0.0896 5.47815,0.29904 8.19374,-0.0562 z" /><path
         style="fill:none;stroke:#000000;stroke-width:0.3"
         id="path25"
         d="m 116.20247,-109.43895 c -3.3911,-1.38489 -6.94347,-2.27514 -10.50895,-3.07452 -4.6986,-0.92351 -9.440724,-1.59946 -14.170902,-2.33757 -5.793915,-0.88317 -11.548518,-2.00322 -17.320937,-3.0145 -5.40348,-0.89607 -10.750418,-2.10687 -16.175575,-2.86556 -7.513613,-0.91635 -15.05191,-1.57782 -22.605201,-2.05337 -10.647489,-0.62958 -21.314631,-0.86213 -31.9793225,-0.8801 -8.4563097,-0.0383 -16.9084865,0.14618 -25.3607265,0.37596 -10.458746,0.14452 -20.914659,0.38443 -31.368793,0.72539 -8.91445,0.26681 -17.797261,1.09255 -26.659152,2.05649 -9.566508,1.049 -19.091357,2.43055 -28.620811,3.76571 -9.41692,1.40311 -18.80414,2.99052 -28.19345,4.5652 -11.31512,2.02232 -22.65736,3.89132 -33.97036,5.9248 -12.9983,2.39175 -25.95605,4.98916 -38.87866,7.759079 -11.06165,2.483705 -22.1707,4.753255 -33.20785,7.346587 -9.12885,2.144954 -10.9288,2.651258 -20.18286,5.009304 -3.87055,1.063749 -7.74111,2.127498 -11.61165,3.191248 0,0 2e-5,2e-6 2e-5,2e-6 v 0 c 3.87059,-1.063744 7.74116,-2.127488 11.61175,-3.191234 9.25412,-2.35806 11.05397,-2.864337 20.18287,-5.009301 11.03715,-2.593332 22.14621,-4.862883 33.20787,-7.346585 12.92261,-2.76992 25.88036,-5.36733 38.87866,-7.75908 11.313,-2.03347 22.65524,-3.90248 33.97037,-5.9248 9.3893,-1.57468 18.77652,-3.16208 28.19345,-4.56519 9.529448,-1.33517 19.054297,-2.71672 28.620804,-3.76572 8.861886,-0.96394 17.744694,-1.78967 26.659142,-2.05649 10.454137,-0.34096 20.910055,-0.58087 31.368802,-0.72539 8.452143,-0.22977 16.9042224,-0.41429 25.360435,-0.37596 10.664691,0.018 21.331833,0.25052 31.979322,0.8801 7.553288,0.47555 15.091579,1.13702 22.60519,2.05337 5.425157,0.75869 10.7721,1.96949 16.17558,2.86556 5.77242,1.01128 11.527023,2.13133 17.320934,3.0145 4.730179,0.73811 9.472301,1.41406 14.170911,2.33758 3.56547,0.79937 7.11785,1.68961 10.50894,3.07451 z" /><path
         style="fill:none;stroke:#000000;stroke-width:0.3"
         id="path26"
         d="m 61.325931,-84.077772 c -2.683504,-1.924862 -5.771634,-3.148301 -8.799719,-4.411633 -5.038158,-2.103538 -10.358889,-3.316126 -15.651979,-4.568068 -4.951503,-1.033463 -9.875404,-2.197556 -14.796408,-3.36672 -6.598181,-1.565722 -13.234918,-2.96358 -19.8623299,-4.398887 -8.899572,-2.01965 -17.8991171,-3.5542 -26.9359581,-4.80414 -9.656317,-1.20119 -19.377985,-1.74702 -29.093336,-2.19713 -8.496684,-0.4499 -17.004165,-0.29138 -25.506492,-0.16929 -7.658761,0.25931 -15.315496,0.65714 -22.963679,1.14076 -7.82474,0.5531 -15.6402,1.21137 -23.43928,2.05244 -7.37258,0.79104 -14.66601,2.16175 -21.95423,3.50033 -8.79715,1.573668 -17.63254,2.921196 -26.45256,4.358032 -9.61549,1.505979 -19.20627,3.162022 -28.76269,5.005528 -9.69033,1.916022 -19.24283,4.445976 -28.79202,6.955081 -16.49074,4.377978 -32.95885,8.832553 -49.54841,12.823898 0,0 5e-5,3e-6 5e-5,3e-6 v 0 c 16.58961,-3.991298 33.05774,-8.445899 49.54852,-12.82388 9.54919,-2.509102 19.1017,-5.039053 28.79203,-6.955079 9.55642,-1.843505 19.1472,-3.499548 28.76268,-5.00553 8.82003,-1.436835 17.65542,-2.784358 26.45257,-4.358033 7.28822,-1.33858 14.58165,-2.70928 21.95423,-3.50033 7.79907,-0.84106 15.61453,-1.49933 23.43926,-2.05244 7.648189,-0.48362 15.304924,-0.88145 22.963685,-1.14076 8.502227,-0.12208 17.009605,-0.2806 25.50619,0.1693 9.715352,0.4501 19.437019,0.99594 29.093337,2.19712 9.036841,1.24994 18.0363867,2.78449 26.9359586,4.80413 6.6274085,1.435319 13.2641414,2.833179 19.8623194,4.398898 4.921006,1.169165 9.844907,2.333257 14.796412,3.36672 5.293087,1.251942 10.613818,2.464525 15.65198,4.568065 3.028079,1.26333 6.116208,2.486766 8.799705,4.411631 z" /><path
         style="fill:none;stroke:#000000;stroke-width:0.3"
         id="path27"
         d="m -7.3283635,-59.696532 c -2.7094995,-2.40025 -5.4592215,-4.717851 -8.4447925,-6.768772 -4.878,-3.055723 -10.43914,-4.761465 -15.880993,-6.512343 -5.215535,-1.566203 -10.506022,-2.890213 -15.878111,-3.788388 -3.653605,-0.532247 -7.312483,-1.037619 -10.974951,-1.506313 -4.608275,-0.413541 -9.216948,-0.798706 -13.817256,-1.303176 -6.691741,-0.887185 -13.394584,-1.635173 -20.113776,-2.277891 -6.365972,-0.563464 -12.733767,-1.096734 -19.113307,-1.481288 -6.92166,-0.353901 -13.85353,-0.453771 -20.7829,-0.386249 -8.80027,0.206462 -17.58439,0.857581 -26.36368,1.474345 -6.69755,0.435777 -13.38488,1.037239 -20.05721,1.760943 -8.09594,0.935749 -16.17641,1.992368 -24.25385,3.07426 -9.64281,1.363509 -19.28338,2.739125 -28.90309,4.257958 -7.86002,1.342353 -15.76474,2.399307 -23.63808,3.655986 -5.86911,0.936778 -8.7146,1.457624 -14.63039,2.491888 -10.79204,1.881859 -21.48088,4.268483 -32.14481,6.760556 0,0 3e-5,0 3e-5,0 v 0 c 10.66397,-2.492039 21.35285,-4.878657 32.14491,-6.760535 5.91589,-1.034277 8.76124,-1.555097 14.63042,-2.491888 7.87334,-1.256676 15.77807,-2.313633 23.63809,-3.655984 9.61971,-1.518832 19.26028,-2.894446 28.9031,-4.257955 8.07743,-1.081892 16.15791,-2.138511 24.25384,-3.07426 6.67234,-0.723704 13.35967,-1.325165 20.05722,-1.760945 8.77928,-0.616762 17.56339,-1.267883 26.36366,-1.474343 6.92926,-0.06753 13.86102,0.03236 20.78257,0.386247 6.37954,0.384556 12.747338,0.917826 19.113313,1.481291 6.719189,0.642715 13.422035,1.3907 20.113773,2.277888 4.600308,0.50447 9.208982,0.889637 13.817253,1.303176 3.662471,0.468693 7.321352,0.974069 10.974957,1.506312 5.372094,0.898174 10.662586,2.22218 15.878122,3.788384 5.441854,1.750877 11.002993,3.45662 15.880995,6.512338 2.985572,2.05092 5.7353,4.368514 8.4447948,6.768771 z" /><path
         style="fill:none;stroke:#000000;stroke-width:0.3"
         id="path28"
         d="m -67.908717,-32.258259 c -2.020456,-2.54299 -4.302572,-4.867582 -6.539537,-7.218764 -3.553515,-3.655071 -7.908078,-6.357425 -12.217561,-9.017683 -3.999894,-2.405817 -8.320204,-4.203795 -12.593799,-6.054698 -4.008576,-1.795918 -8.087916,-3.417023 -12.212236,-4.925579 -4.05921,-1.529207 -8.24827,-2.60685 -12.48932,-3.481872 -4.71411,-0.80264 -9.43977,-1.53598 -14.1941,-2.052857 -5.61505,-0.693205 -11.2504,-1.138933 -16.90099,-1.394989 -6.82739,-0.213344 -13.66364,-0.03452 -20.48953,0.171773 -9.24047,0.328655 -18.46308,0.973362 -27.68832,1.574461 -10.27937,0.711592 -20.5527,1.505262 -30.82992,2.247199 -9.42179,0.586687 -18.80231,1.642224 -28.15962,2.867041 -7.16449,1.088903 -14.2853,2.432807 -21.44415,3.558296 -9.144,1.502037 -18.26869,3.092144 -27.43976,4.423437 0,0 6e-5,1e-5 6e-5,1e-5 v 0 c 9.17112,-1.331282 18.29585,-2.921365 27.43985,-4.42342 7.15886,-1.12549 14.2797,-2.469393 21.44417,-3.558297 9.3573,-1.224819 18.73783,-2.280356 28.15961,-2.867043 10.27722,-0.741937 20.55055,-1.535607 30.82992,-2.247199 9.22524,-0.601099 18.44786,-1.245804 27.68833,-1.574459 6.82577,-0.206293 13.66191,-0.385114 20.48918,-0.171772 5.6506,0.256055 11.28595,0.70178 16.901,1.394989 4.75433,0.516874 9.47999,1.250217 14.1941,2.052854 4.24105,0.87502 8.43012,1.952662 12.48932,3.481867 4.12433,1.508556 8.20367,3.129663 12.212245,4.925578 4.273598,1.850906 8.59391,3.648879 12.593807,6.054696 4.309485,2.660256 8.664045,5.362612 12.217566,9.01768 2.236968,2.351182 4.519089,4.675772 6.539553,7.218759 z" /><path
         style="fill:none;stroke:#000000;stroke-width:0.3"
         id="path29"
         d="m -167.48966,-20.871755 c -2.97289,-2.161745 -6.03128,-4.188089 -9.20856,-6.035131 -4.69999,-2.656227 -9.84554,-4.340551 -14.86726,-6.260201 -4.18424,-1.762593 -8.57214,-2.86359 -12.98675,-3.858678 -4.20168,-0.983641 -8.47537,-1.594374 -12.73245,-2.277213 -3.39845,-0.595984 -6.84561,-0.732046 -10.28678,-0.826053 -4.59539,-0.104688 -9.18966,-0.07242 -13.78313,0.08046 -4.85553,0.167291 -9.67518,0.760989 -14.50434,1.246129 -4.90096,0.695214 -9.83425,1.029769 -14.76344,1.441194 -10.1202,0.951161 -20.22578,2.003795 -30.36228,2.775876 0,0 2e-5,2e-6 2e-5,2e-6 v 0 c 10.13656,-0.772067 20.24219,-1.824678 30.36242,-2.775849 4.92922,-0.411427 9.8625,-0.745982 14.76346,-1.441196 4.82917,-0.48514 9.64881,-1.078836 14.50434,-1.246127 4.59335,-0.152879 9.1875,-0.185153 13.78277,-0.08046 3.44117,0.09401 6.88833,0.230068 10.28678,0.82605 4.25709,0.682842 8.53078,1.293572 12.73246,2.27721 4.41462,0.995088 8.80252,2.096085 12.98676,3.858676 5.02173,1.91965 10.16728,3.603971 14.86727,6.260197 3.17728,1.847042 6.23566,3.873383 9.20856,6.035131 z" /><path
         style="fill:none;stroke:#000000;stroke-width:0.3"
         id="path30"
         d="m -184.11111,9.3891231 c 0.43003,-1.8444625 0.91041,-3.6761663 1.2695,-5.5366356 0.5127,-2.4002931 0.21943,-4.81038263 -0.15947,-7.2003022 -0.50318,-2.8459181 -2.10557,-5.1846577 -3.76152,-7.4782063 -2.18958,-3.034651 -5.37445,-5.039364 -8.41285,-7.120553 -2.51101,-1.723226 -5.21792,-3.089147 -8.09208,-4.081348 -2.68058,-0.883533 -5.40021,-1.636842 -8.13665,-2.324554 -3.24845,-0.85211 -6.53112,-1.556779 -9.8155,-2.253981 -3.91499,-0.737114 -7.82193,-1.513975 -11.72573,-2.307929 -3.69383,-0.662779 -7.40144,-1.273035 -11.13492,-1.663803 -2.8551,-0.195779 -5.71266,-0.353079 -8.56987,-0.522124 -2.83041,-0.153191 -5.66247,-0.182821 -8.48996,-0.386233 -2.48469,-0.185761 -4.97246,-0.271044 -7.45589,-0.472609 -6.13884,-0.286814 -12.29569,0.08352 -18.4363,0.225972 -1.93228,-0.0043 -3.86456,-0.0086 -5.79684,-0.01289 0,0 -8e-5,1.3e-5 -8e-5,1.3e-5 v 0 c 1.93236,0.0043 3.86472,0.0086 5.79705,0.01289 6.14053,-0.142449 12.29725,-0.512779 18.43598,-0.22597 2.48343,0.201567 4.97121,0.28685 7.45589,0.472609 2.8275,0.203414 5.65956,0.233042 8.48997,0.386233 2.85721,0.169045 5.71478,0.326348 8.56987,0.522124 3.73349,0.390768 7.4411,1.001022 11.13492,1.663798 3.9038,0.793956 7.81075,1.570818 11.72574,2.307931 3.28438,0.697202 6.56705,1.40187 9.8155,2.25398 2.73644,0.687713 5.45606,1.441021 8.13665,2.324553 2.87415,0.992199 5.58108,2.358117 8.09208,4.081343 3.0384,2.081187 6.22328,4.085898 8.41285,7.120547 1.65596,2.2935462 3.25834,4.6322837 3.76153,7.4781984 0.3789,2.38991731 0.67217,4.8000045 0.15948,7.2002966 -0.35909,1.8604683 -0.83947,3.6921723 -1.26948,5.5366348 z" /><path
         style="fill:none;stroke:#000000;stroke-width:0.3"
         id="path31"
         d="m -226.99394,39.277245 c 2.27112,-2.564033 4.11874,-5.46094 6.16204,-8.201409 2.0823,-2.641558 4.05989,-5.342681 5.81748,-8.211648 1.4919,-2.397791 2.44954,-5.055187 3.65646,-7.592947 0.99821,-2.269782 1.70546,-4.652025 2.34778,-7.0425714 0.63701,-2.3585241 0.67531,-4.770548 0.47374,-7.1870476 -0.33499,-2.7977497 -1.69557,-5.2966104 -3.19962,-7.6274326 -1.51887,-2.2053719 -3.40635,-4.0477924 -5.54548,-5.6382514 -2.32004,-1.69843 -4.9452,-2.885652 -7.60042,-3.951212 -2.80757,-0.992228 -5.63857,-1.929614 -8.53814,-2.613761 -3.78835,-0.979416 -7.63668,-1.68707 -11.47326,-2.443674 -3.10402,-0.555628 -6.20589,-1.12616 -9.31354,-1.662012 -2.49941,-0.588016 -5.0226,-0.999715 -7.56338,-1.355974 -4.29585,-0.545322 -8.5939,-1.021559 -12.90807,-1.395284 -8.02222,-0.84989 -16.08357,-0.774028 -24.13672,-0.869038 -1.70476,-0.04722 -3.40952,-0.09443 -5.11426,-0.141642 0,0 -8e-5,10e-6 -8e-5,10e-6 v 0 c 1.70474,0.04722 3.40947,0.09443 5.11424,0.141648 8.05312,0.09503 16.11444,0.01916 24.13664,0.86905 4.31416,0.373724 8.61221,0.849961 12.90806,1.395284 2.54077,0.356259 5.06397,0.767956 7.56338,1.355973 3.10765,0.535853 6.20953,1.106383 9.31354,1.662011 3.83659,0.756603 7.68492,1.464256 11.47326,2.443674 2.89957,0.684145 5.73057,1.62153 8.53814,2.613757 2.65522,1.065558 5.28038,2.25278 7.60042,3.951207 2.13913,1.590458 4.02661,3.4328752 5.54548,5.6382452 1.50405,2.3308194 2.86463,4.829676 3.19962,7.6274234 0.20157,2.4164975 0.16327,4.828519 -0.47374,7.1870413 -0.64232,2.3905461 -1.34957,4.7727881 -2.34777,7.0425681 -1.20692,2.53776 -2.16455,5.195156 -3.65645,7.592945 -1.75759,2.868966 -3.73518,5.570087 -5.81747,8.211647 -2.0433,2.740475 -3.89092,5.637382 -6.16204,8.201409 z" /><path
         style="fill:none;stroke:#000000;stroke-width:0.3"
         id="path32"
         d="m -277.46076,61.933044 c 2.46377,-2.2719 5.11723,-4.322871 7.76274,-6.376225 3.05202,-2.288585 6.03391,-4.648497 8.66317,-7.419406 1.67156,-1.923836 3.30742,-3.873371 5.05241,-5.732682 1.38656,-1.518788 2.83042,-2.979616 4.29961,-4.418404 1.66677,-1.648397 3.04432,-3.541083 4.39455,-5.447824 1.93191,-2.86204 3.7742,-5.781683 5.6907,-8.654638 2.27176,-3.10401 4.09871,-6.471387 5.7294,-9.944583 0.87587,-2.087038 1.64934,-4.2548421 1.85661,-6.5266141 0.13074,-1.432992 0.0229,-2.1951188 -0.0711,-3.6339568 -0.55509,-4.18082061 -2.68507,-7.439395 -5.315,-10.6102114 -2.44911,-2.749464 -5.62236,-4.4866727 -8.915,-6.0105417 -3.34735,-1.509375 -6.93328,-2.324499 -10.54787,-2.86674 -3.4712,-0.315652 -6.94001,-0.656114 -10.40981,-0.993223 -7.89143,-0.97146 -15.85095,-1.047366 -23.78988,-1.130066 0,0 -5e-5,8e-6 -5e-5,8e-6 v 0 c 7.9389,0.08272 15.89836,0.158633 23.78975,1.130088 3.4698,0.337108 6.93859,0.677573 10.40979,0.993222 3.61459,0.542239 7.20052,1.35736 10.54787,2.866733 3.29264,1.523868 6.46589,3.2610748 8.91501,6.0105335 2.62993,3.1708105 4.75991,6.42938199 5.31499,10.6101989 0.094,1.4388404 0.20181,2.2009582 0.0711,3.6339523 -0.20726,2.2717702 -0.98074,4.4395723 -1.85661,6.5266093 -1.63068,3.473194 -3.45763,6.840572 -5.72939,9.944579 -1.9165,2.872956 -3.75879,5.792599 -5.6907,8.654639 -1.35023,1.906736 -2.72779,3.799425 -4.39456,5.447819 -1.46919,1.438788 -2.91304,2.899619 -4.2996,4.418404 -1.74499,1.859314 -3.38084,3.808846 -5.0524,5.732682 -2.62925,2.770912 -5.61115,5.130821 -8.66317,7.419406 -2.64552,2.053357 -5.29894,4.104333 -7.76272,6.376225 z" /><path
         style="fill:none;stroke:#000000;stroke-width:2;stroke-dasharray:none;marker-start:url(#ArrowWide)"
         d="m -182.39652,39.956911 c 0.70765,3.280208 1.76904,6.503432 2.1356,9.83861 0.11907,1.083395 -0.66366,2.364666 -0.0131,3.252146 0.49167,0.670698 0.68691,1.479873 0.8104,2.284386 0.0783,0.510053 0.59634,1.8731 0.28694,1.644855 -0.47148,-0.347816 -0.14658,0.883077 -0.17288,1.157989 -0.0747,0.780224 0.0637,1.566127 0.3755,2.296844 0.36505,0.855404 0.63457,1.742095 0.59427,2.717702 -0.0478,1.157637 0.8176,2.078458 1.05738,3.176651 0.30229,1.384538 0.3954,2.803361 0.80097,4.173009 0.75699,2.556362 2.01491,4.956364 2.39617,7.629468 0.18245,1.2792 0.9997,2.30984 1.50813,3.46824 1.0526,2.398272 2.05416,4.836566 3.53167,7.018292 1.18422,1.748654 2.63713,3.301678 3.68411,5.151893 1.7964,3.174577 2.73642,6.866894 5.09375,9.681624 0.93214,1.113 1.84109,2.24329 2.67275,3.43622 1.42816,2.04856 2.85814,4.13943 4.77285,5.77186 0.98418,0.83909 1.59891,1.98557 2.28998,3.05931 1.17944,1.83256 2.94155,3.17019 4.45285,4.71044 2.11612,2.15668 4.1628,4.40184 6.56054,6.25444 1.58682,1.22606 2.83067,2.81887 4.32713,4.14087 1.17242,1.03574 2.42871,1.96565 3.63658,2.9617 1.32014,1.08864 2.55411,2.26881 3.74315,3.5049 1.49587,1.55505 3.44304,2.54724 5.22144,3.7312 3.24238,2.15861 6.31789,4.57746 9.79535,6.37533 2.72564,1.40917 5.51239,2.69901 8.14657,4.2875 3.38503,2.04129 7.410207,2.37496 11.198962,3.16792 1.061019,0.22206 2.008602,1.14423 3.088819,0.97577 0.580663,-0.0905 2.311524,0.29599 1.806198,0.44021 -0.298685,0.0853 0.356501,0.0103 0.399969,0.0339"
         id="path39"
         inkscape:path-effect="#path-effect39"
         inkscape:original-d="m -182.39652,39.956911 c 0.69596,3.176657 1.4245,6.346352 2.08788,9.529972 0.22515,1.080492 -0.17942,2.353268 0,3.429783 0.06,0.360233 0.40139,0.625642 0.48997,0.979937 1.53393,6.135725 0.0148,0.608513 0.48997,4.409723 -0.26642,1.454312 0.75852,2.591282 0.97994,3.919755 0.0805,0.483301 -0.11884,0.994566 0,1.469906 0.21331,0.85326 0.74852,1.601316 0.97994,2.449846 0.26139,0.95845 0.29513,1.96565 0.48996,2.939814 0.51206,2.56028 1.76392,4.834456 2.44985,7.349538 0.21912,0.803441 0.22662,1.659794 0.48997,2.449845 0.23097,0.69292 0.67385,1.296699 0.97994,1.959878 1.54308,3.343341 1.94077,4.87104 3.91975,7.839506 0.90595,1.358929 2.05663,2.545913 2.93981,3.919752 2.08758,3.247344 3.23208,7.052968 5.38966,10.289354 0.5801,0.87014 1.33241,1.61322 1.95988,2.44984 1.59242,2.12323 2.66285,3.93866 4.40973,5.87963 0.77256,0.85841 1.71853,1.55603 2.44984,2.44985 0.74579,0.91152 1.19912,2.04074 1.95988,2.93981 1.04437,1.23426 2.28652,2.28653 3.42978,3.42979 1.63323,1.63323 3.19706,3.33894 4.89969,4.89969 1.10998,1.01748 2.32334,1.91848 3.42979,2.93981 1.01832,0.93999 1.91437,2.0076 2.93981,2.93982 0.77381,0.70346 1.63323,1.30658 2.44985,1.95987 1.14326,0.97994 2.3198,1.92234 3.42978,2.93982 0.85131,0.78037 1.54175,1.73634 2.44985,2.44984 1.38911,1.09145 2.93981,1.95988 4.40972,2.93982 2.14865,1.43244 4.19737,3.01329 6.3696,4.40972 2.9672,1.90749 6.21554,3.23376 9.30941,4.89969 1.15936,0.62427 2.23423,1.40808 3.42978,1.95988 3.11487,1.43763 6.497337,1.78944 9.799387,2.44985 1.012886,0.20257 1.926926,0.77736 2.939815,0.97993 0.320302,0.0641 0.663043,-0.0792 0.979937,0 2.252038,0.56301 0.111167,0.48997 1.469909,0.48997"
         transform="translate(-6.2664474)" /><text
         xml:space="preserve"
         style="font-size:14.1111px;text-align:start;writing-mode:lr-tb;direction:ltr;text-anchor:start;fill:none;stroke:#000000;stroke-width:1;stroke-dasharray:none"
         x="-84.945175"
         y="162.92763"
         id="text1"><tspan
           id="tspan1"
           style="font-style:normal;font-variant:normal;font-weight:normal;font-stretch:normal;font-size:14.1111px;font-family:'Comic Sans MS';-inkscape-font-specification:'Comic Sans MS';stroke-width:1"
           x="-84.945175"
           y="162.92763"
           sodipodi:role="line"> 13  ,    .</tspan></text></g><text
       xml:space="preserve"
       transform="scale(0.26458333)"
       id="text2"
       style="font-size:37.3333px;text-align:start;writing-mode:lr-tb;direction:ltr;white-space:pre;shape-inside:url(#rect2);fill:none;stroke:#000000;stroke-width:3.77953;stroke-dasharray:none" /></g></svg>
