<?xml version="1.0" encoding="UTF-8" standalone="no"?>
<!-- Created with Inkscape (http://www.inkscape.org/) -->

<svg
   width="206.87624"
   height="207.75346"
   viewBox="0 0 54.736004 54.968104"
   version="1.1"
   id="svg1"
   sodipodi:docname="pizza tomatoes.svg"
   inkscape:version="1.4 (86a8ad7, 2024-10-11)"
   xml:space="preserve"
   xmlns:inkscape="http://www.inkscape.org/namespaces/inkscape"
   xmlns:sodipodi="http://sodipodi.sourceforge.net/DTD/sodipodi-0.dtd"
   xmlns:xlink="http://www.w3.org/1999/xlink"
   xmlns="http://www.w3.org/2000/svg"
   xmlns:svg="http://www.w3.org/2000/svg"><sodipodi:namedview
     id="namedview1"
     pagecolor="#ffffff"
     bordercolor="#000000"
     borderopacity="0.25"
     inkscape:showpageshadow="2"
     inkscape:pageopacity="0.0"
     inkscape:pagecheckerboard="0"
     inkscape:deskcolor="#ffffff"
     inkscape:document-units="mm"
     showborder="false"
     inkscape:zoom="2.8477805"
     inkscape:cx="139.05566"
     inkscape:cy="104.29175"
     inkscape:window-width="1920"
     inkscape:window-height="1010"
     inkscape:window-x="2873"
     inkscape:window-y="-6"
     inkscape:window-maximized="1"
     inkscape:current-layer="layer7" /><defs
     id="defs1" /><g
     inkscape:groupmode="layer"
     id="layer7"
     inkscape:label="Layer 6"
     style="display:inline"
     transform="translate(97.337582,-38.129776)"><g
       id="g1059"><g
         id="g40"
         inkscape:tile-cx="-60.676368"
         inkscape:tile-cy="79.496969"
         inkscape:tile-w="20.961146"
         inkscape:tile-h="26.431334"
         inkscape:tile-x0="-71.157202"
         inkscape:tile-y0="66.281269"><path
           style="fill:none;stroke:#000000;stroke-width:0.499999;stroke-dasharray:none;stroke-opacity:1"
           id="path19"
           d="m -50.621347,81.675493 c -0.02684,0.14497 -0.09423,0.277013 -0.169384,0.40218 -0.130254,0.212121 -0.292465,0.402008 -0.445336,0.597768 -0.137726,0.193542 -0.282702,0.38156 -0.409099,0.582821 -0.135847,0.232021 -0.287438,0.452334 -0.457142,0.660665 -0.207094,0.25173 -0.419962,0.498443 -0.637177,0.741444 -0.223369,0.246544 -0.469392,0.471591 -0.709176,0.701979 -0.177453,0.177546 -0.370284,0.337786 -0.563248,0.497774 -0.160761,0.126318 -0.332478,0.237384 -0.497594,0.357754 -0.238119,0.185161 -0.471008,0.376192 -0.716944,0.551037 -0.253381,0.171037 -0.493736,0.359635 -0.73452,0.547635 -0.234275,0.188597 -0.472988,0.371099 -0.718653,0.544525 -0.243391,0.173718 -0.497705,0.331174 -0.747835,0.494827 -0.295103,0.210373 -0.606332,0.393652 -0.928465,0.558887 -0.295854,0.145272 -0.589208,0.295516 -0.881795,0.447231 -0.266285,0.140083 -0.527347,0.289697 -0.787895,0.440086 -0.247819,0.149067 -0.512498,0.266303 -0.770885,0.395238 -0.251515,0.1275 -0.511201,0.237262 -0.771802,0.344521 -0.290934,0.120613 -0.584724,0.234982 -0.882349,0.338085 -0.279469,0.08655 -0.562512,0.161795 -0.845926,0.234355 -0.317912,0.07677 -0.632843,0.162721 -0.944475,0.261829 -0.325316,0.09636 -0.641977,0.218741 -0.962776,0.328602 -0.36463,0.119874 -0.736341,0.217199 -1.109872,0.304908 -0.355206,0.07883 -0.715018,0.134191 -1.073671,0.194506 -0.256913,0.04748 -0.515059,0.07338 -0.776023,0.07888 -0.198564,0.01222 -0.39325,-0.01172 -0.587774,-0.04792 -0.184838,-0.04159 -0.365176,-0.09897 -0.542182,-0.16596 -0.160406,-0.06529 -0.313047,-0.147294 -0.456668,-0.24378 -0.140862,-0.10792 -0.279239,-0.219813 -0.413298,-0.336142 -0.10088,-0.0856 -0.190177,-0.182425 -0.266755,-0.2901 -0.07038,-0.107275 -0.117028,-0.22693 -0.158552,-0.347607 -0.04373,-0.137903 -0.07447,-0.279151 -0.10418,-0.420573 -0.0267,-0.118465 -0.03116,-0.239853 -0.03468,-0.360731 -0.0098,-0.164814 0.0038,-0.327975 0.02275,-0.491463 0.01701,-0.195562 0.05953,-0.387197 0.103294,-0.578128 0.03902,-0.160438 0.09016,-0.318214 0.152638,-0.471048 0.06213,-0.14976 0.131212,-0.296101 0.202565,-0.44163 0.04979,-0.09277 0.06847,-0.193616 0.06945,-0.297587 -0.01693,-0.101235 -0.02627,-0.203316 -0.03776,-0.305253 -0.01738,-0.189121 -0.04013,-0.377663 -0.05399,-0.567107 -0.01296,-0.218128 -0.03214,-0.43574 -0.04169,-0.65408 -0.0068,-0.223906 -0.0084,-0.447709 -0.01942,-0.671475 -0.01506,-0.236326 -0.01479,-0.473244 -0.02622,-0.709684 -0.01789,-0.302596 -0.02413,-0.605636 -0.02838,-0.908672 -0.0091,-0.315592 0.0072,-0.630925 0.01664,-0.946287 0.02058,-0.380879 0.04001,-0.761392 0.04635,-1.14282 0.01209,-0.411769 0.02622,-0.823482 0.0499,-1.234758 0.02186,-0.404251 0.06249,-0.807328 0.107749,-1.209553 0.05291,-0.419571 0.09749,-0.840118 0.144058,-1.260419 0.04244,-0.366472 0.0539,-0.735407 0.06545,-1.103858 0.0071,-0.311864 0.02429,-0.623414 0.04397,-0.934707 0.01754,-0.30829 0.04182,-0.616098 0.05625,-0.924576 0.01119,-0.294875 0.01127,-0.590023 0.01193,-0.885065 0.01056,-0.378643 0.02196,-0.757209 0.02778,-1.135965 0.0053,-0.407966 0.0057,-0.815978 0.0061,-1.22397 0.0059,-0.339278 -0.0096,-0.678215 -0.02064,-1.017204 -0.0099,-0.305777 -0.01188,-0.61172 -0.01315,-0.917628 -0.0011,-0.319982 -7.94e-4,-0.639964 -5.29e-4,-0.959946 -0.0016,-0.336475 0.01389,-0.672756 0.03442,-1.008507 0.0131,-0.268493 0.02768,-0.536728 0.04691,-0.804849 0.01035,-0.14393 0.01707,-0.288097 0.02037,-0.432355 0.0011,-0.06341 0.0013,-0.126826 0.0011,-0.190238 -0.0011,-0.05293 0.01143,-0.05551 -0.06978,0.06559 -0.0046,0.0069 0.01664,5.29e-4 0.02498,7.94e-4 0.07103,0.01929 0.141874,0.04001 0.213206,0.05853 0.17853,0.03728 0.353375,0.08846 0.527177,0.143214 0.196104,0.06033 0.376854,0.156715 0.549116,0.266517 0.197559,0.127048 0.382527,0.271227 0.559676,0.425088 0.17204,0.152836 0.332428,0.317989 0.499168,0.476427 0.216837,0.186751 0.445194,0.359844 0.675558,0.529474 0.250119,0.190688 0.528402,0.337992 0.798412,0.49761 0.252905,0.144465 0.493001,0.309115 0.733126,0.473432 0.215612,0.137049 0.431972,0.272137 0.641173,0.418899 0.229687,0.170823 0.476935,0.315237 0.716965,0.470506 0.251418,0.166483 0.503788,0.331001 0.760775,0.488743 0.323427,0.188981 0.614995,0.424561 0.901928,0.663774 0.267917,0.219019 0.525973,0.449548 0.789149,0.674121 0.261128,0.242517 0.541567,0.462444 0.81199,0.694182 0.291349,0.254966 0.588272,0.503184 0.888717,0.747321 0.272243,0.228092 0.54384,0.456467 0.823822,0.675052 0.291868,0.223049 0.582441,0.447937 0.862354,0.685893 0.294302,0.237061 0.571683,0.493591 0.85276,0.745823 0.253185,0.23186 0.518917,0.449313 0.776378,0.676307 0.229677,0.212146 0.437957,0.445524 0.657333,0.668004 0.22034,0.221102 0.452403,0.429771 0.67799,0.645372 0.215146,0.209166 0.451982,0.394015 0.690679,0.575191 0.192489,0.137562 0.371967,0.29042 0.544541,0.451898 0.115991,0.111942 0.228412,0.228271 0.361043,0.320735 0.09179,0.06626 0.200422,0.09216 0.306662,0.124532 0.167892,0.04961 0.336127,0.09708 0.506942,0.135625 0.197273,0.04253 0.392472,0.09257 0.584795,0.153681 0.163648,0.05395 0.305583,0.143422 0.434462,0.255775 0.09909,0.07603 0.174329,0.175152 0.256495,0.267613 0.07542,0.07706 0.15454,0.148735 0.226176,0.229505 0.08675,0.10283 0.159319,0.216315 0.220554,0.335828 0.05202,0.106717 0.09787,0.216961 0.125934,0.332496 0.02661,0.117753 0.01886,0.23839 0.01209,0.357764 -0.01228,0.108419 -0.0046,0.05421 -0.02326,0.162632 -0.02101,0.122944 0.152868,0.152646 0.173871,0.0297 v 0 c 0.02058,-0.121756 0.01214,-0.06095 0.02551,-0.182401 0.0077,-0.136911 0.01463,-0.275084 -0.01693,-0.409853 -0.03203,-0.128704 -0.08161,-0.252124 -0.140327,-0.370967 -0.06828,-0.132487 -0.148754,-0.258519 -0.245512,-0.372282 -0.07178,-0.08082 -0.150193,-0.153442 -0.22643,-0.229793 -0.08746,-0.09776 -0.167442,-0.202808 -0.272529,-0.283437 -0.147479,-0.127572 -0.3101,-0.2295 -0.496732,-0.290701 -0.197172,-0.06252 -0.397187,-0.114093 -0.599413,-0.157638 -0.16664,-0.03744 -0.330626,-0.08405 -0.494411,-0.132316 -0.0888,-0.02691 -0.180459,-0.04627 -0.257686,-0.100888 -0.126312,-0.08625 -0.22983,-0.200139 -0.340799,-0.304422 -0.177022,-0.165563 -0.361103,-0.322387 -0.558408,-0.463592 -0.233405,-0.177107 -0.465101,-0.357685 -0.675445,-0.562205 -0.22434,-0.214382 -0.455091,-0.4219 -0.674261,-0.641702 -0.222271,-0.225386 -0.433171,-0.461965 -0.666282,-0.676468 -0.257093,-0.226632 -0.522375,-0.443812 -0.775224,-0.675275 -0.282276,-0.253267 -0.560816,-0.510879 -0.856337,-0.748951 -0.281858,-0.23944 -0.574148,-0.466082 -0.868034,-0.69052 -0.279093,-0.217863 -0.549717,-0.445611 -0.821129,-0.672907 -0.299257,-0.243171 -0.595003,-0.490405 -0.885188,-0.744376 -0.270549,-0.231775 -0.551005,-0.451863 -0.812265,-0.694415 -0.263705,-0.224994 -0.522248,-0.455996 -0.7907,-0.675434 -0.293494,-0.244596 -0.591912,-0.485211 -0.922594,-0.678608 -0.255807,-0.157014 -0.506984,-0.320826 -0.757258,-0.486529 -0.238205,-0.154025 -0.483534,-0.297323 -0.711462,-0.466797 -0.209778,-0.147124 -0.426501,-0.282916 -0.642856,-0.420063 -0.243342,-0.16651 -0.486719,-0.333261 -0.742976,-0.479708 -0.264917,-0.156593 -0.538123,-0.300826 -0.78359,-0.487807 -0.224473,-0.165259 -0.446887,-0.333954 -0.658657,-0.515321 -0.168698,-0.1602 -0.330805,-0.327379 -0.505026,-0.481745 -0.183853,-0.159496 -0.375734,-0.309076 -0.580728,-0.440772 -0.185547,-0.117481 -0.379757,-0.221242 -0.590696,-0.285867 -0.17671,-0.05565 -0.354462,-0.107807 -0.535966,-0.145732 -0.08394,-0.02167 -0.166426,-0.05003 -0.252079,-0.06408 -0.0695,-0.0021 -0.142984,0.02733 -0.136912,0.110455 1.78e-4,0.0619 8.2e-5,0.123802 -0.0011,0.18569 -0.0032,0.141399 -0.0098,0.282705 -0.01998,0.423781 -0.01926,0.26874 -0.03393,0.537593 -0.04703,0.806706 -0.02074,0.339321 -0.03646,0.679175 -0.03475,1.019226 -7.7e-5,0.320241 -2.65e-4,0.640484 5.29e-4,0.960723 0.0013,0.30757 0.0033,0.615175 0.01326,0.92261 0.01093,0.337029 0.02643,0.673999 0.02053,1.011314 -2.65e-4,0.407149 -7.94e-4,0.814313 -0.0061,1.221438 -0.0058,0.379527 -0.01736,0.758862 -0.0278,1.13828 -5.29e-4,0.292426 -7.94e-4,0.584957 -0.01172,0.877218 -0.01437,0.307518 -0.03863,0.614358 -0.05609,0.921687 -0.01979,0.313161 -0.03705,0.626578 -0.04423,0.940311 -0.01138,0.363804 -0.02257,0.728099 -0.06446,1.089953 -0.04656,0.420204 -0.09113,0.840653 -0.144026,1.260129 -0.04559,0.405413 -0.08654,0.81168 -0.108561,1.219133 -0.02379,0.413682 -0.03807,0.827794 -0.05018,1.241968 -0.0063,0.380643 -0.02588,0.760354 -0.04629,1.140455 -0.0096,0.317949 -0.02582,0.635873 -0.01672,0.954053 0.0043,0.305072 0.01061,0.61015 0.02857,0.914778 0.01159,0.23645 0.01101,0.473408 0.02622,0.709747 0.01098,0.223457 0.01246,0.446961 0.01937,0.67056 0.0097,0.220065 0.02887,0.439405 0.04199,0.659255 0.0141,0.191751 0.03695,0.382603 0.05464,0.574024 0.01077,0.09492 0.01691,0.190648 0.03665,0.284311 -1.85e-4,0.07765 -0.01304,0.152008 -0.05144,0.221059 -0.07312,0.149153 -0.143783,0.299209 -0.207513,0.452668 -0.06583,0.161755 -0.120243,0.328485 -0.161248,0.498276 -0.04515,0.197223 -0.08883,0.395211 -0.106569,0.597181 -0.01995,0.171934 -0.0338,0.343662 -0.02387,0.516953 0.0039,0.131337 0.0094,0.263147 0.03837,0.391848 0.03124,0.148601 0.06374,0.296997 0.110045,0.441801 0.04722,0.13665 0.100986,0.271831 0.181795,0.39266 0.08513,0.118632 0.183105,0.226336 0.294752,0.320842 0.13971,0.120923 0.283403,0.237847 0.430662,0.349401 0.155051,0.103545 0.319243,0.192429 0.4924,0.262197 0.186788,0.07065 0.377201,0.131037 0.572355,0.1744 0.206367,0.03835 0.413218,0.06317 0.623776,0.05085 0.269489,-0.0058 0.536202,-0.03236 0.801521,-0.08128 0.362365,-0.06095 0.725903,-0.116906 1.084749,-0.196739 0.379201,-0.0891 0.756563,-0.18791 1.126696,-0.309753 0.319559,-0.109482 0.63503,-0.231344 0.959083,-0.327379 0.308415,-0.09811 0.620123,-0.183071 0.934765,-0.259046 0.288132,-0.07379 0.575916,-0.150238 0.859941,-0.238569 0.300744,-0.104299 0.597718,-0.219679 0.891715,-0.341636 0.264535,-0.108889 0.528108,-0.2204 0.783436,-0.349805 0.261554,-0.130559 0.529466,-0.249304 0.780296,-0.400299 0.258247,-0.149069 0.516996,-0.297381 0.780913,-0.436264 0.292359,-0.151606 0.585504,-0.301704 0.881123,-0.446883 0.327583,-0.168146 0.644316,-0.354341 0.944515,-0.56822 0.251862,-0.164798 0.507931,-0.323365 0.752985,-0.498332 0.247978,-0.175067 0.488998,-0.359214 0.72548,-0.549592 0.238715,-0.186386 0.476951,-0.373428 0.728207,-0.542928 0.246417,-0.17536 0.480261,-0.366289 0.718635,-0.552254 0.168029,-0.122574 0.343024,-0.235373 0.506257,-0.364495 0.196249,-0.162759 0.39231,-0.325837 0.572862,-0.50636 0.242999,-0.233489 0.492273,-0.4616 0.718476,-0.711618 0.219028,-0.245031 0.433663,-0.493816 0.642475,-0.747654 0.174088,-0.214069 0.330284,-0.440008 0.469762,-0.678283 0.122955,-0.196287 0.264906,-0.379066 0.398698,-0.567987 0.157385,-0.201559 0.324202,-0.39719 0.457785,-0.61595 0.08642,-0.145632 0.163391,-0.299019 0.192526,-0.467614 0.01765,-0.12347 -0.156977,-0.148415 -0.174617,-0.02495 z" /><path
           style="fill:none;stroke:#000000;stroke-width:0.3;stroke-dasharray:none;stroke-opacity:1"
           id="path173"
           d="m -53.290443,79.212436 c -0.162602,0.159907 -0.324323,0.320712 -0.48527,0.482304 -0.215018,0.21422 -0.443166,0.414652 -0.662466,0.624364 -0.113845,0.108868 -0.206626,0.203657 -0.317672,0.315396 -0.289848,0.289245 -0.560477,0.596226 -0.82669,0.907077 -0.219422,0.257701 -0.453443,0.502785 -0.690783,0.743955 -0.397785,0.382561 -0.831159,0.725054 -1.266682,1.063054 -0.563948,0.430913 -1.151181,0.829878 -1.743694,1.220115 -0.38803,0.250658 -0.771567,0.508521 -1.165169,0.750469 -0.250799,0.154165 -0.292039,0.174924 -0.550394,0.322522 -0.641721,0.35587 -1.308849,0.662654 -1.969133,0.981864 -0.578808,0.281403 -1.166976,0.544166 -1.767829,0.774959 -0.381566,0.147182 -0.772311,0.27137 -1.170538,0.365061 -0.08732,0.02056 -0.175294,0.03816 -0.26294,0.05724 -0.571294,0.109897 -1.149697,0.177414 -1.729484,0.221152 -0.398912,0.02861 -0.799052,0.02654 -1.198708,0.03089 0,0 7.2e-5,1.1e-5 7.2e-5,1.1e-5 v 0 c 0.399693,-0.0043 0.79987,-0.0024 1.198819,-0.03087 0.579787,-0.04374 1.158187,-0.111258 1.729481,-0.221155 0.08765,-0.01908 0.175625,-0.03669 0.26294,-0.05724 0.398224,-0.09369 0.788969,-0.217879 1.170533,-0.365064 0.600844,-0.230796 1.189,-0.493567 1.767805,-0.774964 0.660284,-0.319212 1.327412,-0.625994 1.969135,-0.981864 0.258355,-0.147598 0.299593,-0.168357 0.550389,-0.322522 0.393599,-0.241951 0.777134,-0.499816 1.165164,-0.750469 0.592508,-0.390239 1.179737,-0.789207 1.743684,-1.220118 0.435525,-0.338003 0.868904,-0.680493 1.266698,-1.063056 0.237336,-0.241168 0.471357,-0.486252 0.690774,-0.743958 0.266205,-0.310851 0.536826,-0.617832 0.826672,-0.907074 0.11113,-0.111842 0.203708,-0.206444 0.317648,-0.315399 0.219308,-0.209709 0.447469,-0.410136 0.662485,-0.624364 0.160951,-0.161592 0.322675,-0.3224 0.485288,-0.482298 z" /><path
           style="fill:none;stroke:#000000;stroke-width:0.3;stroke-dasharray:none;stroke-opacity:1"
           id="path174"
           d="m -69.953451,88.081365 c -0.05888,-0.0068 -0.117817,-0.0132 -0.17676,-0.0195 -0.03319,-0.0056 -0.0024,2.2e-4 0.01109,0.0042 0.04983,0.0154 0.09896,0.03261 0.148314,0.04949 0.08759,0.03138 0.177777,0.05587 0.268981,0.07415 0.08546,0.02254 0.17245,0.03562 0.260445,0.04221 0.0727,1.59e-4 0.144857,-0.0097 0.217197,-0.01553 0.05097,-0.0037 0.09924,-0.02707 0.150024,-0.03128 0.01331,-0.0011 0.0267,0.0013 0.04004,0.0019 0,0 6.9e-5,-1.1e-5 6.9e-5,-1.1e-5 v 0 c -0.01341,-5.29e-4 -0.02688,-0.003 -0.04028,-0.0019 -0.05078,0.0042 -0.09905,0.02757 -0.150017,0.03128 -0.07223,0.0058 -0.144287,0.01566 -0.216876,0.01553 -0.088,-0.0066 -0.174987,-0.01966 -0.26045,-0.04221 -0.0912,-0.01828 -0.181388,-0.04277 -0.268981,-0.07415 -0.04935,-0.01688 -0.09848,-0.03409 -0.148307,-0.04949 -0.01347,-0.004 -0.04483,-0.0098 -0.01143,-0.0042 0.05895,0.0063 0.117893,0.01267 0.176787,0.0195 z" /><path
           style="fill:none;stroke:#000000;stroke-width:0.3;stroke-dasharray:none;stroke-opacity:1"
           id="path175"
           d="m -66.355115,88.134102 c -0.0301,0.159818 -0.02421,0.323699 -0.02371,0.485576 -0.0034,0.213805 0.0091,0.42704 0.02622,0.640011 0.02965,0.22252 0.06297,0.445024 0.105328,0.665525 0,0 7.4e-5,-2e-6 7.4e-5,-2e-6 v 0 c -0.04213,-0.220541 -0.07568,-0.442992 -0.105259,-0.665523 -0.01712,-0.212971 -0.0296,-0.426206 -0.02625,-0.640011 -5.29e-4,-0.161877 -0.0064,-0.325758 0.02371,-0.485574 z" /><path
           style="fill:none;stroke:#000000;stroke-width:0.3;stroke-dasharray:none;stroke-opacity:1"
           id="path176"
           d="m -61.458604,85.98187 c 0.102489,0.217342 0.203134,0.435509 0.309007,0.651306 0.09232,0.194794 0.193524,0.385125 0.291851,0.5769 0.01934,0.04903 0.0132,0.02532 0.02053,0.07056 0,0 5e-5,0 5e-5,0 v 0 c -0.0072,-0.04525 -0.0011,-0.02154 -0.02043,-0.07057 -0.0983,-0.191794 -0.199585,-0.38209 -0.291891,-0.576897 -0.105881,-0.215795 -0.206531,-0.433957 -0.309006,-0.651307 z" /><path
           style="fill:none;stroke:#000000;stroke-width:0.3;stroke-dasharray:none;stroke-opacity:1"
           id="path177"
           d="m -57.476207,83.608279 c 0.220478,0.137089 0.428408,0.293347 0.631825,0.454353 0.209357,0.177642 0.416751,0.362969 0.592844,0.574705 0.02761,0.0332 0.05217,0.06883 0.07826,0.103245 0,0 2.6e-5,-2e-6 2.6e-5,-2e-6 v 0 c -0.02606,-0.03442 -0.05057,-0.07005 -0.07817,-0.103251 -0.176008,-0.211807 -0.383511,-0.39705 -0.592836,-0.574707 -0.203425,-0.161007 -0.411361,-0.317257 -0.631833,-0.454356 z" /><path
           style="fill:none;stroke:#000000;stroke-width:0.3;stroke-dasharray:none;stroke-opacity:1"
           id="path178"
           d="m -64.691243,79.252164 c -0.0878,-0.109146 -0.196782,-0.197292 -0.301123,-0.289637 -0.155315,-0.145661 -0.331866,-0.264134 -0.51409,-0.372946 -0.128098,-0.07358 -0.2594,-0.143629 -0.399902,-0.190696 -0.09111,-0.03052 -0.127013,-0.03698 -0.22002,-0.05928 -0.249975,-0.04703 -0.50356,-0.02172 -0.75326,0.01159 -0.27059,0.04749 -0.538478,0.113316 -0.797539,0.205364 -0.06134,0.0218 -0.121666,0.04637 -0.182497,0.06955 -0.25188,0.102643 -0.496829,0.221515 -0.727315,0.366268 -0.129297,0.0812 -0.189043,0.125899 -0.312905,0.213434 -0.251571,0.176133 -0.450654,0.373571 -0.612103,0.636011 -0.03037,0.04936 -0.05644,0.101232 -0.08466,0.15185 -0.125513,0.262482 -0.199816,0.549992 -0.226041,0.839798 -0.0053,0.0588 -0.0058,0.117935 -0.0088,0.176903 1.12e-4,0.265274 0.02859,0.530357 0.09522,0.787516 0.0456,0.176004 0.0772,0.247248 0.140637,0.417274 0.13394,0.329433 0.308695,0.643115 0.520634,0.928953 0.04026,0.05429 0.08386,0.106029 0.125788,0.159043 0.154236,0.177811 0.318749,0.348843 0.500989,0.498449 0.09816,0.08059 0.14701,0.110556 0.252245,0.182523 0.219245,0.139311 0.457094,0.24969 0.707261,0.320704 0.05215,0.01479 0.105224,0.02611 0.157837,0.03917 0.322847,0.07891 0.635447,0.06028 0.961324,0.01844 0.250224,-0.04116 0.497522,-0.101359 0.737169,-0.184671 0.169701,-0.05899 0.218257,-0.0833 0.381952,-0.153707 0.253436,-0.118274 0.495432,-0.263234 0.714158,-0.437959 0.142261,-0.113642 0.170588,-0.146879 0.301244,-0.27299 0.161772,-0.170902 0.310584,-0.357915 0.41556,-0.569737 0.05943,-0.119928 0.06629,-0.155411 0.108662,-0.282655 0.09775,-0.313269 0.089,-0.641318 0.06734,-0.964657 -0.01942,-0.216705 -0.04503,-0.433253 -0.0963,-0.64502 -0.03288,-0.135787 -0.04387,-0.161997 -0.08584,-0.292547 -0.10078,-0.306385 -0.24601,-0.593572 -0.407083,-0.871908 -0.131982,-0.216482 -0.276455,-0.427831 -0.454924,-0.60914 -0.03417,-0.03471 -0.07061,-0.0671 -0.105921,-0.10065 -0.16519,-0.140896 -0.340566,-0.27137 -0.529185,-0.379524 -0.05645,-0.03236 -0.112115,-0.06709 -0.172429,-0.0915 -0.07774,-0.03146 -0.160015,-0.05028 -0.240022,-0.07541 0,0 -1.01e-4,1.3e-5 -1.01e-4,1.3e-5 v 0 c 0.07997,0.02514 0.162208,0.04397 0.239914,0.07542 0.06031,0.02442 0.11598,0.05913 0.172426,0.0915 0.188616,0.108151 0.363993,0.238625 0.529183,0.379516 0.03531,0.03355 0.07175,0.06594 0.10592,0.10065 0.17847,0.181308 0.322946,0.392652 0.454928,0.609137 0.161075,0.278334 0.306308,0.565518 0.407085,0.8719 0.04198,0.130559 0.05296,0.156752 0.08584,0.292547 0.05127,0.211767 0.07687,0.428313 0.0963,0.645017 0.02167,0.323334 0.03042,0.651381 -0.06733,0.964647 -0.04237,0.127252 -0.04922,0.162719 -0.108659,0.282652 -0.104971,0.211823 -0.253775,0.398836 -0.415544,0.569735 -0.130659,0.126111 -0.15898,0.159346 -0.301241,0.272987 -0.218723,0.174723 -0.460719,0.319683 -0.714156,0.437954 -0.163697,0.07041 -0.212248,0.09471 -0.381952,0.153707 -0.239646,0.08331 -0.486945,0.143513 -0.737172,0.184669 -0.325773,0.04182 -0.63822,0.06045 -0.960969,-0.01844 -0.05261,-0.01307 -0.10569,-0.02437 -0.157837,-0.03917 -0.250169,-0.07101 -0.488019,-0.181391 -0.707263,-0.320699 -0.105233,-0.07197 -0.15408,-0.101936 -0.252243,-0.18252 -0.182243,-0.149606 -0.346758,-0.320638 -0.500997,-0.498446 -0.04193,-0.05302 -0.08553,-0.104749 -0.125791,-0.159044 -0.211941,-0.285835 -0.386693,-0.599517 -0.520636,-0.928947 -0.06343,-0.170016 -0.09504,-0.241279 -0.140637,-0.417274 -0.06663,-0.257157 -0.0951,-0.522237 -0.09522,-0.787511 0.0029,-0.05897 0.0035,-0.118102 0.0088,-0.176901 0.02622,-0.289806 0.100523,-0.57731 0.226041,-0.839793 0.02822,-0.05061 0.0543,-0.102489 0.08466,-0.151847 0.161449,-0.26244 0.360535,-0.459872 0.612106,-0.636005 0.123859,-0.08753 0.18361,-0.132233 0.312904,-0.213434 0.230484,-0.144751 0.475435,-0.263623 0.727316,-0.366263 0.06083,-0.02318 0.121155,-0.04776 0.182499,-0.06955 0.259064,-0.09205 0.526954,-0.157872 0.797546,-0.205359 0.249582,-0.03328 0.503037,-0.05862 0.752891,-0.01159 0.09301,0.0223 0.128905,0.02876 0.220019,0.05928 0.140505,0.04706 0.271809,0.117112 0.39991,0.19069 0.182227,0.108813 0.358778,0.227283 0.514096,0.372941 0.104341,0.09235 0.213323,0.180488 0.301128,0.289637 z" /><path
           style="fill:none;stroke:#000000;stroke-width:0.3;stroke-dasharray:none;stroke-opacity:1"
           id="path179"
           d="m -66.761224,80.896565 c -0.03225,-0.207854 -0.03529,-0.419394 -0.03597,-0.629341 0.0051,-0.168005 0.0117,-0.33796 0.05288,-0.501777 0.015,-0.05968 0.04436,-0.144618 0.06401,-0.203755 0.0329,-0.07394 0.06998,-0.208048 0.146434,-0.252127 0.0081,-0.0047 0.01778,-0.0061 0.02668,-0.0092 0.02466,0.007 0.03378,0.0059 0.05191,0.0282 0.06505,0.08013 0.08441,0.238651 0.102682,0.336047 0.04885,0.268115 0.03782,0.540221 0.0263,0.810871 -0.0041,0.08663 -0.0088,0.173223 -0.01421,0.259779 -0.0019,0.02801 -0.0097,0.06266 -5.29e-4,0.08999 0.02792,-0.0044 0.01646,-1.08e-4 0.04937,-0.02524 0.01773,-0.01352 0.03363,-0.02942 0.05201,-0.04204 0.11557,-0.07937 0.221358,-0.121418 0.351925,-0.169826 0.228917,-0.06757 0.459028,-0.06289 0.671224,0.05595 0.03433,0.01923 0.06487,0.04454 0.09731,0.06681 0.09586,0.09714 0.158343,0.217917 0.141447,0.35772 -0.0094,0.0781 -0.02965,0.111159 -0.06019,0.182901 -0.0815,0.177445 -0.242223,0.27872 -0.404492,0.373697 -0.05706,0.03056 -0.114663,0.0601 -0.172559,0.08905 -0.02085,0.01042 -0.04879,0.01955 -0.06439,0.03803 0.0045,0.0038 0.0085,0.0083 0.0136,0.01138 0.154062,0.09462 -0.110029,-0.0774 0.111985,0.06286 0.122074,0.07712 0.233847,0.168216 0.346295,0.258355 0.14247,0.110984 0.27273,0.238844 0.375785,0.387868 0.04902,0.07089 0.0897,0.141862 0.106532,0.22701 0.0052,0.02606 0.0013,0.05314 0.0021,0.07971 -0.0098,0.01826 -0.01463,0.04029 -0.02943,0.0548 -0.0375,0.03673 -0.09119,0.03656 -0.138859,0.0312 -0.126563,-0.01423 -0.244385,-0.07755 -0.35778,-0.130046 -0.276857,-0.142838 -0.536784,-0.316701 -0.784278,-0.505367 -0.0053,-0.0029 -0.148796,-0.123799 -0.153945,-0.11979 -0.0063,0.0049 0.0085,0.03599 0.01527,0.05352 0.0471,0.150908 0.06648,0.317389 -7.94e-4,0.466127 -0.01598,0.0353 -0.03936,0.06675 -0.05904,0.100126 -0.140743,0.174181 -0.317561,0.330185 -0.535438,0.397624 -0.03889,0.01204 -0.0794,0.01805 -0.119094,0.02708 -0.143621,0.0053 -0.296701,-0.02167 -0.39973,-0.13176 -0.06211,-0.06637 -0.0688,-0.104479 -0.102811,-0.187187 -0.04469,-0.206889 -0.02469,-0.420923 0.0013,-0.629111 -0.0027,-0.0041 0.02061,-0.09133 0.01289,-0.09061 -0.01214,0.0011 -0.01871,0.01572 -0.02727,0.02442 -0.126208,0.142046 -0.290337,0.24062 -0.454017,0.33316 -0.191431,0.09853 -0.398571,0.173585 -0.615002,0.183703 -0.01765,-0.004 -0.107718,-0.0057 -0.106961,-0.04551 0.0011,-0.05092 0.101182,-0.133638 0.129252,-0.160668 0.205065,-0.171921 0.434879,-0.312306 0.664014,-0.449577 0.09414,-0.05289 0.190161,-0.104188 0.29374,-0.136031 0.0043,-0.0011 0.0087,-0.0021 0.01297,-0.0033 5.29e-4,-5.29e-4 0.0026,-0.0013 0.0019,-0.0016 -0.01289,-0.0058 -0.02743,-0.0069 -0.04108,-0.01058 -0.03947,-0.01066 -0.07874,-0.02204 -0.118117,-0.03306 -0.198311,-0.05804 -0.394174,-0.133612 -0.572977,-0.238315 -0.03736,-0.02188 -0.07291,-0.04671 -0.109368,-0.07007 -0.142994,-0.109538 -0.24279,-0.237043 -0.273114,-0.418412 -0.01945,-0.116245 -0.0079,-0.142314 0.006,-0.258165 0.01683,-0.04425 0.02944,-0.09035 0.05047,-0.132768 0.09264,-0.186825 0.254124,-0.341704 0.438631,-0.436779 0.04566,-0.02352 0.09479,-0.03963 0.142182,-0.05944 0.0482,-0.01153 0.09551,-0.02779 0.144603,-0.03462 0.14986,-0.02085 0.312386,0.0056 0.438772,0.0937 0.1109,0.07726 0.170873,0.169937 0.252669,0.274214 0,0 1.24e-4,-8e-6 1.24e-4,-8e-6 v 0 c -0.08177,-0.10429 -0.141708,-0.196958 -0.2526,-0.274227 -0.126463,-0.08812 -0.289208,-0.114572 -0.439158,-0.0937 -0.04909,0.0068 -0.0964,0.02307 -0.144606,0.03462 -0.04739,0.01982 -0.09652,0.03591 -0.142181,0.05944 -0.184513,0.09508 -0.345999,0.249962 -0.43864,0.436792 -0.02103,0.04242 -0.03365,0.08852 -0.05048,0.132776 -0.01386,0.115861 -0.0254,0.141912 -0.006,0.25817 0.03032,0.181372 0.130106,0.308885 0.273103,0.418431 0.03645,0.02336 0.07201,0.04819 0.109368,0.07007 0.1788,0.104707 0.37466,0.180282 0.572971,0.238324 0.03937,0.01103 0.07864,0.02241 0.11811,0.03307 0.01365,0.0037 0.02815,0.0048 0.04107,0.01053 7.94e-4,2.65e-4 -0.0013,0.0011 -0.0019,0.0016 -0.0043,0.0011 -0.0086,0.0021 -0.01296,0.0033 -0.103571,0.03186 -0.199594,0.08314 -0.293722,0.136038 -0.229134,0.137277 -0.458949,0.277662 -0.664017,0.449583 -0.0281,0.02705 -0.128293,0.109749 -0.129267,0.160697 -7.94e-4,0.03998 0.08987,0.04159 0.107416,0.04554 0.216429,-0.01013 0.423566,-0.08519 0.614994,-0.183716 0.163682,-0.09254 0.327811,-0.191122 0.454031,-0.333166 0.0085,-0.0086 0.01476,-0.02323 0.0268,-0.02442 0.0077,-7.94e-4 -0.01558,0.08649 -0.01289,0.0906 -0.02596,0.20819 -0.04596,0.42223 -0.0013,0.629121 0.03401,0.08271 0.0407,0.120822 0.102807,0.187201 0.10315,0.110241 0.25641,0.137117 0.400182,0.131767 0.0397,-0.009 0.0802,-0.01503 0.119094,-0.02708 0.217874,-0.06745 0.39469,-0.223457 0.535432,-0.39764 0.01968,-0.03338 0.04306,-0.06483 0.05904,-0.100131 0.0673,-0.148744 0.04791,-0.315228 7.93e-4,-0.466141 -0.0067,-0.01725 -0.0214,-0.0489 -0.01572,-0.05348 0.0059,-0.0047 0.147833,0.117205 0.153943,0.119782 0.247494,0.188669 0.507423,0.362529 0.784278,0.505375 0.113609,0.05259 0.231436,0.115824 0.358232,0.130056 0.04768,0.0053 0.101359,0.0055 0.138862,-0.03122 0.01482,-0.0145 0.0196,-0.03654 0.02942,-0.05481 -7.94e-4,-0.02657 0.003,-0.05364 -0.0021,-0.07971 -0.01685,-0.08515 -0.05753,-0.156128 -0.106555,-0.227018 -0.103064,-0.149024 -0.233323,-0.276884 -0.375796,-0.387871 -0.112443,-0.09014 -0.224213,-0.181234 -0.346282,-0.25836 -0.214087,-0.135266 0.0371,0.02861 -0.111974,-0.06285 -0.005,-0.0031 -0.009,-0.0076 -0.01357,-0.01135 0.01561,-0.01847 0.04355,-0.0276 0.06439,-0.03802 0.05789,-0.02895 0.115491,-0.05849 0.172556,-0.08905 0.162266,-0.09498 0.322993,-0.196257 0.404482,-0.373711 0.03054,-0.07174 0.05075,-0.104815 0.06019,-0.182909 0.01691,-0.139811 -0.0456,-0.260593 -0.141465,-0.357735 -0.03244,-0.02228 -0.06299,-0.04758 -0.09732,-0.06681 -0.212267,-0.118882 -0.442563,-0.123536 -0.671557,-0.05595 -0.130572,0.04841 -0.236361,0.09046 -0.351939,0.169831 -0.01839,0.01262 -0.03429,0.02851 -0.05201,0.04204 -0.03279,0.02503 -0.02143,0.0208 -0.049,0.02524 -0.0092,-0.02732 -0.0013,-0.06198 5.3e-4,-0.08998 0.0054,-0.08655 0.01011,-0.173151 0.01418,-0.259778 0.01154,-0.27065 0.02254,-0.542758 -0.0263,-0.810874 -0.01826,-0.0974 -0.03763,-0.255916 -0.102672,-0.336058 -0.01823,-0.02246 -0.02735,-0.02127 -0.05223,-0.0282 -0.0089,0.0031 -0.01852,0.0045 -0.02668,0.0092 -0.07645,0.04409 -0.113533,0.178194 -0.146436,0.252137 -0.01966,0.05914 -0.04901,0.144069 -0.06401,0.203759 -0.04117,0.163819 -0.04777,0.333772 -0.05288,0.501779 7.94e-4,0.209947 0.0037,0.421487 0.03595,0.629346 z" /><path
           style="fill:none;stroke:#000000;stroke-width:0.3;stroke-dasharray:none;stroke-opacity:1"
           id="path180"
           d="m -56.365727,76.798259 c -0.102055,-0.0636 -0.204155,-0.133911 -0.319582,-0.17167 -0.04637,-0.01516 -0.09439,-0.02471 -0.141586,-0.03706 -0.250328,-0.04869 -0.50686,-0.06276 -0.761077,-0.04162 -0.145854,0.01212 -0.237739,0.03079 -0.380804,0.05513 -0.352708,0.06774 -0.674582,0.229504 -0.989089,0.396451 -0.183023,0.101164 -0.360887,0.213813 -0.523113,0.346266 -0.09354,0.07637 -0.154004,0.135969 -0.242573,0.21895 -0.171516,0.170662 -0.334812,0.351296 -0.466831,0.5549 -0.09046,0.139502 -0.108685,0.187016 -0.182168,0.335365 -0.09847,0.214993 -0.178821,0.439214 -0.222872,0.672026 -0.02265,0.119687 -0.02567,0.178456 -0.03711,0.29778 -0.01786,0.236443 -0.0057,0.474007 0.02782,0.708414 0.04528,0.25341 0.132815,0.495811 0.233513,0.731774 0.137361,0.294296 0.335936,0.550868 0.557745,0.785601 0.179853,0.194101 0.384653,0.310581 0.621413,0.420944 0.264094,0.123532 0.552739,0.167386 0.839745,0.199213 0.260284,0.03252 0.520674,0.01722 0.78054,-0.0078 0.240411,-0.03463 0.480623,-0.07344 0.717933,-0.125479 0.26052,-0.07137 0.499703,-0.200371 0.730237,-0.338203 0.288901,-0.192723 0.536318,-0.438521 0.760508,-0.701927 0.1861,-0.224157 0.3161,-0.482684 0.411575,-0.756142 0.06419,-0.228558 0.09543,-0.464031 0.114763,-0.700058 0.01844,-0.228958 0.0044,-0.45856 -0.01619,-0.68679 -0.01127,-0.07373 -0.02759,-0.193905 -0.0473,-0.264702 -0.01651,-0.05938 -0.03947,-0.116787 -0.0592,-0.175181 0,0 -7.4e-5,3e-6 -7.4e-5,3e-6 v 0 c 0.01968,0.05839 0.04255,0.115808 0.05904,0.17518 0.01974,0.07105 0.03598,0.190754 0.04729,0.264703 0.02058,0.228227 0.03463,0.457829 0.01619,0.686787 -0.01934,0.236021 -0.05057,0.471495 -0.114755,0.70005 -0.09547,0.273458 -0.225465,0.531979 -0.41156,0.756134 -0.224189,0.263406 -0.471601,0.509207 -0.760505,0.701921 -0.230536,0.13783 -0.469717,0.266835 -0.730236,0.338199 -0.237313,0.05204 -0.477523,0.09084 -0.717931,0.125476 -0.259739,0.025 -0.519994,0.04032 -0.780145,0.0078 -0.287007,-0.03182 -0.575652,-0.07568 -0.839748,-0.199205 -0.236757,-0.110363 -0.441558,-0.226843 -0.621414,-0.420939 -0.221811,-0.234727 -0.420391,-0.491297 -0.557744,-0.785593 -0.100698,-0.23596 -0.18823,-0.478361 -0.233508,-0.731771 -0.03352,-0.234405 -0.04568,-0.471964 -0.02783,-0.708406 0.01146,-0.119314 0.01447,-0.178104 0.03711,-0.297781 0.04405,-0.232809 0.124399,-0.45703 0.222867,-0.67202 0.07349,-0.148365 0.09171,-0.195845 0.182171,-0.335362 0.132022,-0.203605 0.295317,-0.384233 0.466836,-0.554895 0.08858,-0.08299 0.149034,-0.142576 0.242575,-0.218948 0.162229,-0.132453 0.34009,-0.245102 0.523113,-0.346263 0.314508,-0.166946 0.636379,-0.328713 0.989087,-0.396446 0.143203,-0.02437 0.234804,-0.04297 0.380801,-0.05512 0.25409,-0.02114 0.51049,-0.007 0.760691,0.04162 0.04719,0.01236 0.09521,0.02191 0.141578,0.03706 0.115427,0.03776 0.217525,0.108072 0.319582,0.171664 z" /><path
           style="fill:none;stroke:#000000;stroke-width:0.3;stroke-dasharray:none;stroke-opacity:1"
           id="path181"
           d="m -57.445446,79.071387 c -0.06769,-0.204965 -0.09871,-0.419206 -0.124484,-0.632725 -0.02204,-0.223054 -0.03243,-0.44841 -0.01656,-0.672327 0.0086,-0.121671 0.0164,-0.15267 0.03573,-0.268544 -0.01278,-0.05424 0.10609,-0.303729 0.179379,-0.181647 0.01569,0.02611 0.02154,0.05699 0.0323,0.08548 0.0066,0.04838 0.01569,0.09649 0.01969,0.145148 0.0096,0.117126 0.0095,0.305475 0.0092,0.4186 -5.29e-4,0.224787 -0.0089,0.449323 -0.01455,0.674013 -0.0034,0.157197 -0.0039,0.171778 -0.0066,0.318241 -2.64e-4,0.01929 -0.0039,0.137162 1.51e-4,0.170508 0.0049,0.04028 0.0072,0.0296 0.03734,0.02082 0.121653,-0.113197 0.238969,-0.232649 0.386334,-0.31319 0.03625,-0.01982 0.07479,-0.03512 0.112181,-0.05268 0.141904,-0.05619 0.308719,-0.114704 0.459179,-0.05135 0.02442,0.01029 0.04618,0.02598 0.06927,0.03897 0.120861,0.102995 0.218657,0.245534 0.235542,0.407464 0.0034,0.03279 8e-6,0.06593 1.4e-5,0.09889 -0.03238,0.207179 -0.165825,0.364207 -0.323004,0.492765 -0.04562,0.03648 -0.09504,0.06751 -0.143904,0.0993 -0.0083,0.0054 -0.02191,0.0071 -0.02474,0.01664 -0.0067,0.02273 0.0555,0.05964 0.05611,0.06012 0.148037,0.09246 0.29773,0.189797 0.416671,0.319276 0.02537,0.02762 0.04749,0.05806 0.07124,0.08708 0.04981,0.08234 0.127423,0.207992 0.03324,0.292084 -0.04563,0.04075 -0.07924,0.03535 -0.136813,0.04251 -0.03024,-0.0042 -0.0611,-0.0051 -0.09072,-0.01244 -0.07469,-0.01857 -0.166693,-0.06149 -0.234016,-0.09429 -0.129987,-0.06334 -0.254225,-0.136715 -0.377971,-0.211227 -0.108466,-0.0653 -0.214916,-0.134565 -0.317976,-0.208177 -0.05634,-0.04024 -0.01741,-0.01617 -0.05421,-0.03812 0.05916,0.08656 0.113186,0.177033 0.143997,0.278405 0.01132,0.03724 0.01736,0.07588 0.02604,0.113821 0.0037,0.03832 0.0113,0.07646 0.01093,0.114957 -0.0013,0.149352 -0.06556,0.303397 -0.181067,0.400835 -0.02772,0.02339 -0.06118,0.03895 -0.09177,0.05843 -0.03491,0.01125 -0.06883,0.02625 -0.104732,0.03376 -0.146005,0.03052 -0.316138,1.8e-5 -0.449168,-0.06501 -0.03287,-0.01606 -0.06244,-0.03815 -0.09366,-0.05722 -0.185677,-0.1567 -0.249346,-0.38803 -0.304895,-0.614516 -0.01177,-0.0613 -0.02209,-0.122862 -0.03353,-0.184224 -0.0032,-0.01704 -0.0021,-0.04438 -0.01794,-0.05451 -0.183631,0.159017 -0.354303,0.333015 -0.531812,0.498962 -0.175514,0.145473 -0.370152,0.323238 -0.580924,0.417557 -0.02008,0.009 -0.04181,0.01378 -0.06272,0.02066 -0.01297,-0.003 -0.02842,-5.29e-4 -0.03885,-0.0089 -0.02769,-0.0218 -0.01474,-0.07345 -0.0076,-0.09646 0.03518,-0.114192 0.12037,-0.208182 0.191572,-0.300609 0.189518,-0.221925 0.402214,-0.423072 0.620069,-0.616802 0.04489,-0.04569 0.09772,-0.0842 0.141081,-0.131514 0.0016,-0.0016 0.02479,-0.02463 0.01461,-0.03489 -0.0053,-0.0054 -0.01405,-0.0056 -0.02109,-0.0084 -0.170034,-0.01542 -0.340437,-0.03681 -0.495427,-0.114096 -0.04946,-0.02466 -0.09488,-0.05672 -0.142322,-0.08508 -0.208833,-0.156173 -0.361553,-0.371125 -0.431945,-0.623091 -0.01048,-0.03749 -0.01609,-0.07616 -0.02413,-0.114242 -0.01865,-0.152884 -0.0097,-0.318965 0.09472,-0.442782 0.02294,-0.02719 0.05204,-0.04851 0.07805,-0.07277 0.03154,-0.02122 0.06107,-0.04579 0.09462,-0.06365 0.173535,-0.0924 0.387972,-0.108981 0.580173,-0.08837 0.06413,0.0069 0.127058,0.02225 0.190588,0.03338 0.06539,0.03259 0.136493,0.05563 0.196177,0.09777 0.147559,0.104195 0.21685,0.21703 0.323946,0.357433 0,0 4.7e-5,-2e-6 4.7e-5,-2e-6 v 0 c -0.106965,-0.140295 -0.176389,-0.253331 -0.323794,-0.357452 -0.05968,-0.04215 -0.130781,-0.06519 -0.196173,-0.09778 -0.06353,-0.01114 -0.126457,-0.02651 -0.190584,-0.03338 -0.192339,-0.02061 -0.406932,-0.0041 -0.580597,0.08838 -0.03355,0.01786 -0.06308,0.04243 -0.09462,0.06365 -0.02604,0.02426 -0.05512,0.04559 -0.07806,0.07278 -0.104452,0.12382 -0.113368,0.289907 -0.09472,0.442799 0.008,0.03808 0.01365,0.07676 0.02413,0.114242 0.07039,0.25197 0.223113,0.466928 0.431948,0.623109 0.04744,0.02836 0.09285,0.06042 0.142317,0.08509 0.154982,0.07729 0.325379,0.0987 0.495406,0.114096 0.007,0.0028 0.01577,0.003 0.02109,0.0083 0.01019,0.01024 -0.01312,0.03328 -0.01458,0.03487 -0.04335,0.04732 -0.09618,0.08583 -0.141063,0.131514 -0.21785,0.193739 -0.430546,0.394883 -0.620062,0.616807 -0.07121,0.09243 -0.156408,0.186426 -0.191584,0.30062 -0.007,0.02278 -0.02011,0.07483 0.0076,0.09649 0.01058,0.0083 0.02622,0.0059 0.03932,0.0089 0.0209,-0.0069 0.04262,-0.0117 0.06272,-0.02066 0.210769,-0.09432 0.405397,-0.27209 0.580908,-0.417563 0.177443,-0.165886 0.34821,-0.339465 0.531355,-0.498956 0.0158,0.01011 0.01476,0.03747 0.01794,0.05449 0.01143,0.06136 0.02175,0.122923 0.03353,0.184224 0.05556,0.226489 0.119227,0.457824 0.304898,0.614535 0.03122,0.01908 0.06079,0.04116 0.09366,0.05722 0.133167,0.0651 0.303493,0.09557 0.449641,0.06501 0.0359,-0.0075 0.06982,-0.02252 0.104733,-0.03376 0.03059,-0.01947 0.06405,-0.03505 0.09177,-0.05843 0.115506,-0.09745 0.179623,-0.251497 0.181057,-0.400857 2.64e-4,-0.03849 -0.0073,-0.07664 -0.01093,-0.114959 -0.0087,-0.03794 -0.01471,-0.07658 -0.02604,-0.113824 -0.03079,-0.101322 -0.08448,-0.192272 -0.144449,-0.278373 0.03681,0.02196 -0.0021,-0.0021 0.0542,0.03812 0.10306,0.07362 0.209515,0.142881 0.317981,0.20818 0.123746,0.07451 0.247984,0.147889 0.377971,0.21123 0.06708,0.03269 0.159517,0.07581 0.234008,0.0943 0.02978,0.0074 0.0608,0.0083 0.0912,0.01244 0.05758,-0.0072 0.09119,-0.0019 0.136816,-0.04253 0.09417,-0.08411 0.01656,-0.209764 -0.03327,-0.292116 -0.02376,-0.02903 -0.04587,-0.05947 -0.07124,-0.08709 -0.118941,-0.129476 -0.268626,-0.226816 -0.416663,-0.319275 -5.29e-4,-5.29e-4 -0.06286,-0.03739 -0.05611,-0.06007 0.0028,-0.0095 0.0164,-0.01122 0.02474,-0.01664 0.04886,-0.03179 0.09828,-0.06282 0.143907,-0.0993 0.157176,-0.128566 0.290618,-0.285604 0.322987,-0.492786 -5e-6,-0.03297 0.0034,-0.06611 -1.5e-5,-0.0989 -0.01688,-0.161933 -0.114692,-0.304478 -0.235554,-0.40748 -0.0231,-0.01299 -0.04485,-0.0287 -0.06927,-0.03898 -0.150564,-0.06341 -0.317558,-0.0049 -0.45956,0.05135 -0.03739,0.01757 -0.07593,0.03287 -0.112181,0.05268 -0.147368,0.08054 -0.264679,0.200001 -0.386347,0.313182 -0.02983,0.0088 -0.03202,0.01937 -0.03694,-0.0208 -0.0041,-0.03335 -5.3e-4,-0.151218 -1.7e-4,-0.170508 0.0026,-0.146736 0.0031,-0.1607 0.0065,-0.318241 0.0057,-0.22469 0.01397,-0.449226 0.01452,-0.674013 2.65e-4,-0.113131 5.29e-4,-0.301472 -0.0092,-0.418603 -0.004,-0.04866 -0.01312,-0.09677 -0.01969,-0.145153 -0.01077,-0.0285 -0.01656,-0.0594 -0.03229,-0.08549 -0.07373,-0.122234 -0.192233,0.127305 -0.179715,0.181658 -0.01931,0.115869 -0.02711,0.146881 -0.03572,0.268547 -0.01585,0.223917 -0.0055,0.449273 0.01656,0.67233 0.02577,0.213519 0.05678,0.42776 0.124473,0.632727 z" /><path
           style="fill:none;stroke:#000000;stroke-width:0.3;stroke-dasharray:none;stroke-opacity:1"
           id="path182"
           d="m -65.9415,69.313728 c -0.17426,-0.03895 -0.353227,-0.04916 -0.531167,-0.05436 -0.18315,7.94e-4 -0.367504,0.01148 -0.546888,0.05092 -0.115364,0.02537 -0.147114,0.04024 -0.258281,0.07917 -0.257517,0.09955 -0.492599,0.245393 -0.715622,0.406302 -0.233407,0.185986 -0.376094,0.418481 -0.512376,0.678953 -0.168841,0.324024 -0.208322,0.678796 -0.241922,1.036479 -0.02106,0.266371 -0.03749,0.533852 -0.01122,0.800544 0.01796,0.182229 0.03105,0.221403 0.0681,0.398357 0.077,0.294425 0.215085,0.564226 0.384114,0.815255 0.1261,0.184155 0.294833,0.331457 0.46024,0.478896 0.172868,0.161472 0.367027,0.29406 0.575956,0.403701 0.214566,0.09881 0.429262,0.160205 0.663273,0.189153 0.201409,0.01521 0.406895,0.0078 0.605719,-0.03017 0.04855,-0.0093 0.09639,-0.02193 0.144586,-0.03289 0.310505,-0.07246 0.591172,-0.220707 0.864976,-0.378724 0.219618,-0.127461 0.418404,-0.285367 0.603221,-0.458592 0.111996,-0.112863 0.220655,-0.230341 0.31405,-0.359354 0.04672,-0.06454 0.08674,-0.12913 0.129659,-0.196168 0.113604,-0.174585 0.20053,-0.363252 0.263284,-0.561403 0.04116,-0.158004 0.07234,-0.319972 0.07302,-0.483841 5.29e-4,-0.113271 -0.009,-0.186217 -0.01947,-0.299146 -0.02593,-0.189968 -0.05016,-0.383315 -0.108421,-0.566859 -0.03646,-0.114867 -0.06173,-0.163425 -0.11082,-0.274056 -0.13131,-0.216678 -0.05796,-0.109585 -0.222015,-0.319937 0,0 -1.14e-4,8e-6 -1.14e-4,8e-6 v 0 c 0.163963,0.210363 0.09064,0.10327 0.221909,0.31994 0.04909,0.110643 0.07435,0.159171 0.110818,0.274053 0.05826,0.183541 0.08251,0.376885 0.108426,0.566851 0.01042,0.11294 0.01995,0.18587 0.01947,0.299143 -7.94e-4,0.16387 -0.03185,0.325834 -0.07301,0.483836 -0.06275,0.198149 -0.149675,0.386815 -0.263279,0.561401 -0.04293,0.06704 -0.08293,0.131619 -0.129659,0.196164 -0.09339,0.129014 -0.202049,0.246489 -0.314045,0.359352 -0.184816,0.173223 -0.383603,0.331126 -0.603215,0.458586 -0.273804,0.158018 -0.554472,0.306266 -0.864973,0.37872 -0.0482,0.01095 -0.09604,0.02363 -0.14459,0.03288 -0.198691,0.03789 -0.40404,0.04538 -0.605316,0.03017 -0.234011,-0.02895 -0.448707,-0.09034 -0.663276,-0.189145 -0.208928,-0.109638 -0.40309,-0.242226 -0.575958,-0.403699 -0.165407,-0.147433 -0.33414,-0.294735 -0.460243,-0.478888 -0.169032,-0.251026 -0.307126,-0.520821 -0.384125,-0.81525 -0.03705,-0.17695 -0.05015,-0.216124 -0.0681,-0.398351 -0.02627,-0.266692 -0.0098,-0.53417 0.01122,-0.800542 0.0336,-0.357682 0.07309,-0.712449 0.241933,-1.036471 0.136287,-0.260469 0.278976,-0.492963 0.512384,-0.678944 0.223025,-0.160907 0.458107,-0.306748 0.715624,-0.406297 0.111167,-0.03893 0.142917,-0.0538 0.258281,-0.07916 0.179255,-0.03941 0.363476,-0.05015 0.546494,-0.05091 0.177937,0.0052 0.356902,0.0154 0.531156,0.05436 z" /><path
           style="fill:none;stroke:#000000;stroke-width:0.3;stroke-dasharray:none;stroke-opacity:1"
           id="path183"
           d="m -66.461494,71.440574 c -0.01982,-0.0096 -0.04084,-0.01709 -0.05943,-0.02892 -0.06165,-0.03927 -0.132625,-0.104045 -0.183774,-0.152435 -0.117952,-0.111588 -0.225621,-0.231746 -0.332127,-0.354065 -0.08455,-0.104024 -0.168502,-0.209632 -0.228703,-0.330176 -0.02201,-0.0441 -0.04935,-0.108731 -0.05465,-0.16024 -0.0019,-0.01707 0.0029,-0.03421 0.0044,-0.05131 0.01093,-0.0087 0.01932,-0.02252 0.03281,-0.02596 0.04764,-0.01217 0.1113,0.01725 0.147603,0.03893 0.133215,0.0796 0.236739,0.20093 0.341122,0.312907 0.1143,0.126921 0.224343,0.258617 0.310684,0.406482 0.0028,0.0024 0.0057,0.0096 0.0085,0.0071 0.0056,-0.0051 0.0052,-0.01421 0.0074,-0.02143 0.0042,-0.014 0.0071,-0.02839 0.01172,-0.04224 0.0075,-0.0222 0.01508,-0.04445 0.02474,-0.0658 0.03793,-0.08377 0.05096,-0.09621 0.103296,-0.175284 0.02635,-0.02845 0.05037,-0.05923 0.07904,-0.08534 0.116793,-0.106373 0.279255,-0.188048 0.441736,-0.17026 0.04175,0.0046 0.08107,0.02196 0.121607,0.03296 0.03333,0.02326 0.06995,0.04239 0.09998,0.06978 0.151754,0.138385 0.144346,0.307393 0.113744,0.491702 -0.01992,0.09016 -0.04818,0.182316 -0.09806,0.261056 -2.65e-4,0.0019 -0.0026,0.0049 -7.94e-4,0.0052 0.01212,0.0016 0.113755,-0.04697 0.115393,-0.04767 0.11009,-0.0468 0.08212,-0.03478 0.201988,-0.08097 0.188854,-0.06767 0.385045,-0.108863 0.585909,-0.112802 0.114797,-0.0024 0.143947,0.0037 0.253238,0.01479 0.03592,0.0072 0.154779,0.01921 0.173474,0.0703 0.01807,0.04944 -0.06538,0.101174 -0.09204,0.123182 -0.209706,0.135446 -0.457761,0.19544 -0.698301,0.250979 -0.09678,0.0177 -0.192742,0.03925 -0.290113,0.05359 -0.02178,0.0032 -0.06611,0.0047 -0.06817,0.01603 -0.0013,0.0067 0.0087,0.0105 0.01307,0.01574 0.09854,0.04816 0.20412,0.08527 0.284128,0.163931 0.06993,0.06875 0.0847,0.108926 0.132874,0.193821 0.05607,0.134289 0.08678,0.28117 0.02745,0.420478 -0.03628,0.08521 -0.05893,0.09545 -0.123317,0.16015 -0.02936,0.01939 -0.05671,0.04226 -0.08808,0.05819 -0.147402,0.07487 -0.329671,0.07835 -0.48972,0.05458 -0.04146,-0.0062 -0.0821,-0.01696 -0.123147,-0.02543 -0.09538,-0.0271 -0.188661,-0.06111 -0.278633,-0.10279 -0.03646,-0.01688 -0.07071,-0.04128 -0.109596,-0.05163 -0.0016,0.0058 -0.0047,0.01151 -0.0047,0.0176 -5.29e-4,0.07495 0.01574,0.15377 0.02434,0.227763 0.01521,0.131146 0.01193,0.105612 0.024,0.244841 0.0094,0.166367 0.0281,0.33669 0.0011,0.502607 -0.0131,0.08016 -0.02516,0.102156 -0.05254,0.174641 -0.01379,0.01678 -0.02516,0.03583 -0.04131,0.05032 -0.07494,0.06723 -0.144891,-0.0016 -0.183068,-0.07035 -0.01503,-0.02711 -0.02439,-0.057 -0.03659,-0.0855 -0.06366,-0.202983 -0.07666,-0.4166 -0.08636,-0.627743 -0.0021,-0.05618 -0.0033,-0.112395 -0.0035,-0.168611 -1e-5,-0.003 0.0016,-0.03419 -0.0027,-0.04118 -0.0019,-0.0031 -0.0066,-0.0033 -0.0099,-0.005 -0.08017,0.01913 -0.15844,0.04444 -0.241826,0.04756 -0.02932,0.0011 -0.05866,-0.0011 -0.08799,-0.0016 -0.198313,-0.02698 -0.402574,-0.09378 -0.55803,-0.224999 -0.03,-0.02532 -0.05505,-0.056 -0.08258,-0.084 -0.02005,-0.0318 -0.04431,-0.0613 -0.06015,-0.09539 -0.06888,-0.148355 -0.06156,-0.330121 0.01281,-0.475366 0.02381,-0.04653 0.05836,-0.08673 0.08754,-0.130099 0.143375,-0.136043 0.290909,-0.218284 0.486214,-0.253973 0.05332,-0.0097 0.107961,-0.0097 0.161941,-0.01458 0,0 -8.5e-5,-1.3e-5 -8.5e-5,-1.3e-5 v 0 c -0.05399,0.0048 -0.108654,0.0048 -0.161983,0.01455 -0.195358,0.03568 -0.342879,0.117896 -0.486291,0.253979 -0.02918,0.04336 -0.06373,0.08357 -0.08755,0.130101 -0.07436,0.145251 -0.08169,0.327025 -0.01281,0.475387 0.01582,0.0341 0.0401,0.0636 0.06015,0.0954 0.02752,0.028 0.05257,0.05867 0.08258,0.084 0.155451,0.131215 0.359709,0.19803 0.55802,0.225012 0.02948,5.29e-4 0.05898,0.0028 0.08844,0.0016 0.08322,-0.0031 0.161394,-0.02823 0.241361,-0.04757 0.0033,0.0016 0.008,0.0019 0.0099,0.005 0.0044,0.007 0.0027,0.03818 0.0027,0.04117 1.99e-4,0.05622 0.0013,0.11243 0.0035,0.168611 0.0097,0.211146 0.0227,0.424765 0.08636,0.627751 0.0122,0.0285 0.02154,0.0584 0.03658,0.0855 0.03825,0.06897 0.10845,0.137721 0.183523,0.07036 0.01617,-0.0145 0.02754,-0.03355 0.04131,-0.05033 0.02738,-0.07249 0.03944,-0.09448 0.05253,-0.174649 0.0271,-0.16592 0.0084,-0.336243 -0.0011,-0.502613 -0.01206,-0.139245 -0.0088,-0.113681 -0.02397,-0.24484 -0.0086,-0.07425 -0.02434,-0.152599 -0.02432,-0.227756 3e-6,-0.006 0.0028,-0.01172 0.0042,-0.01757 0.03889,0.01035 0.07314,0.03474 0.109601,0.05163 0.08997,0.04168 0.183247,0.07569 0.278635,0.102795 0.04105,0.0085 0.08169,0.01929 0.123148,0.02543 0.160189,0.02376 0.342632,0.02035 0.490169,-0.05459 0.03137,-0.01593 0.05872,-0.0388 0.08808,-0.0582 0.06439,-0.06471 0.08703,-0.07495 0.123317,-0.160163 0.05932,-0.139314 0.0286,-0.286202 -0.02747,-0.420494 -0.04818,-0.0849 -0.06294,-0.125074 -0.132874,-0.193829 -0.08,-0.07866 -0.185581,-0.115779 -0.284115,-0.163928 -0.0044,-0.0052 -0.01429,-0.009 -0.01307,-0.01572 0.0021,-0.0113 0.0464,-0.01283 0.06816,-0.01603 0.09737,-0.01434 0.193328,-0.03588 0.29011,-0.05359 0.240543,-0.05554 0.488606,-0.115535 0.698312,-0.250989 0.02668,-0.02201 0.110128,-0.07376 0.09204,-0.123219 -0.01871,-0.05112 -0.137573,-0.06311 -0.173501,-0.07031 -0.109556,-0.01109 -0.138461,-0.01706 -0.253635,-0.01479 -0.200866,0.0039 -0.397057,0.04515 -0.585914,0.112808 -0.119872,0.0462 -0.09189,0.03417 -0.201994,0.08097 -2.64e-4,1.61e-4 -0.103954,0.04914 -0.114974,0.0477 -0.0019,-2.27e-4 5.29e-4,-0.0034 7.94e-4,-0.0052 0.04987,-0.07875 0.07814,-0.170905 0.09805,-0.261067 0.0306,-0.184317 0.038,-0.35333 -0.113755,-0.491723 -0.03003,-0.02739 -0.06666,-0.04652 -0.09999,-0.06979 -0.04066,-0.01098 -0.0801,-0.02838 -0.121973,-0.03296 -0.162491,-0.01775 -0.32493,0.06389 -0.441735,0.170273 -0.02867,0.02611 -0.05269,0.05689 -0.07904,0.08534 -0.05233,0.07908 -0.06537,0.09151 -0.103303,0.175287 -0.0097,0.02135 -0.01725,0.0436 -0.02477,0.06581 -0.0047,0.01384 -0.0076,0.02822 -0.01172,0.04224 -0.0021,0.0072 -0.0016,0.0163 -0.007,0.02143 -0.0027,0.0024 -0.0056,-0.0047 -0.0085,-0.0071 -0.08635,-0.147865 -0.19641,-0.279559 -0.310718,-0.406482 -0.104384,-0.11198 -0.207905,-0.23331 -0.341114,-0.312917 -0.03661,-0.02188 -0.10009,-0.05111 -0.147953,-0.03893 -0.01352,0.0034 -0.02188,0.0173 -0.03281,0.02598 -0.0016,0.01709 -0.0062,0.03424 -0.0044,0.05131 0.0053,0.05152 0.03263,0.116136 0.05465,0.160248 0.0602,0.120541 0.14415,0.226155 0.228706,0.330176 0.106505,0.122322 0.214175,0.24248 0.332121,0.354071 0.05114,0.04838 0.122118,0.11317 0.183763,0.152439 0.01857,0.01183 0.03961,0.01929 0.05942,0.02892 z" /><path
           style="fill:none;stroke:#000000;stroke-width:0.3;stroke-dasharray:none;stroke-opacity:1"
           id="path184"
           d="m -68.89734,84.601591 c -0.03977,0.117235 -0.08267,0.237014 -0.09542,0.361019 -0.0033,0.03243 -0.0028,0.06514 -0.0043,0.09772 0.02045,0.288621 0.19058,0.511992 0.349105,0.742098 0.12908,0.192037 0.281371,0.378203 0.349605,0.603454 0.04373,0.144391 0.0328,0.164795 0.03245,0.313002 -0.05032,0.202639 -0.01561,0.105973 -0.102796,0.290467 0,0 6.9e-5,3e-6 6.9e-5,3e-6 v 0 c 0.08731,-0.184483 0.05256,-0.08781 0.102931,-0.29047 2.65e-4,-0.148215 0.01127,-0.168614 -0.03247,-0.313008 -0.06825,-0.225255 -0.220572,-0.411408 -0.349649,-0.603459 -0.158517,-0.2301 -0.328634,-0.453472 -0.349091,-0.742087 0.0013,-0.03257 7.93e-4,-0.06528 0.0043,-0.09771 0.01275,-0.124 0.05565,-0.243785 0.09541,-0.361016 z" /><path
           style="fill:none;stroke:#000000;stroke-width:0.3;stroke-dasharray:none;stroke-opacity:1"
           id="path185"
           d="m -61.369191,81.202122 c 0.034,0.172222 0.03902,0.347117 0.0031,0.519813 -0.01191,0.05716 -0.03034,0.112758 -0.04551,0.169135 -0.09178,0.330158 -0.315738,0.587126 -0.48999,0.873363 -0.04222,0.06935 -0.07977,0.141431 -0.119658,0.212148 -0.0305,0.07906 -0.06099,0.15811 -0.09149,0.237165 0,0 6.6e-5,3e-6 6.6e-5,3e-6 v 0 c 0.03053,-0.07905 0.06105,-0.158107 0.09158,-0.23716 0.03989,-0.07072 0.07744,-0.142798 0.119661,-0.212145 0.174257,-0.28624 0.398219,-0.543206 0.489992,-0.873369 0.01516,-0.05638 0.03361,-0.111979 0.04551,-0.169137 0.03596,-0.172702 0.03092,-0.347594 -0.0031,-0.519819 z" /><path
           style="fill:none;stroke:#000000;stroke-width:0.3;stroke-dasharray:none;stroke-opacity:1"
           id="path186"
           d="m -68.161947,78.021213 c 0.115308,-0.212476 0.325549,-0.34367 0.528106,-0.462713 0.185727,-0.100669 0.385728,-0.170061 0.578921,-0.254194 0.04819,-0.02098 0.09707,-0.04072 0.143412,-0.06552 0.04697,-0.02514 0.09065,-0.056 0.13597,-0.084 0.110762,-0.105688 0.143531,-0.118417 0.212272,-0.261742 0.02822,-0.05882 0.04411,-0.122801 0.06616,-0.1842 0,0 -4.8e-5,-3e-6 -4.8e-5,-3e-6 v 0 c -0.02207,0.0614 -0.038,0.125373 -0.06624,0.184198 -0.06879,0.143327 -0.101513,0.156025 -0.212291,0.261731 -0.04532,0.028 -0.08899,0.05886 -0.135951,0.084 -0.04633,0.02479 -0.09521,0.04455 -0.143393,0.06553 -0.193191,0.08414 -0.393195,0.153522 -0.578919,0.25419 -0.202557,0.11905 -0.412795,0.250246 -0.528101,0.462722 z" /><path
           style="fill:none;stroke:#000000;stroke-width:0.3;stroke-dasharray:none;stroke-opacity:1"
           id="path187"
           d="m -62.948322,75.286896 c -0.01871,0.0061 -0.03861,0.0093 -0.05611,0.01823 -0.154276,0.07911 -0.296503,0.262713 -0.3869,0.405048 -0.03296,0.0519 -0.05989,0.107389 -0.08984,0.161084 -0.02402,0.05316 -0.04805,0.106312 -0.07208,0.15947 0,0 4.5e-5,2e-6 4.5e-5,2e-6 v 0 c 0.02405,-0.05316 0.04808,-0.106312 0.07211,-0.159469 0.02997,-0.05369 0.05693,-0.109178 0.0899,-0.161079 0.09057,-0.14256 0.232484,-0.325683 0.386911,-0.405037 0.01741,-0.0089 0.0372,-0.01215 0.05581,-0.01823 z" /><path
           style="fill:none;stroke:#000000;stroke-width:0.3;stroke-dasharray:none;stroke-opacity:1"
           id="path188"
           d="m -60.609379,74.48542 c -0.106598,0.196694 -0.195008,0.416176 -0.185901,0.644612 0.0024,0.05906 0.01691,0.116993 0.02537,0.175493 0.01971,0.05787 0.03517,0.11735 0.0591,0.173601 0.07713,0.181337 0.19567,0.343736 0.31079,0.502047 0.02619,0.03602 0.211844,0.284371 0.240155,0.322281 0.104023,0.152326 0.180242,0.314155 0.135845,0.503565 -0.03403,0.145201 -0.09935,0.215265 -0.181851,0.334415 0,0 1.3e-5,0 1.3e-5,0 v 0 c 0.08247,-0.119036 0.14796,-0.189325 0.182004,-0.334415 0.04445,-0.189404 -0.03187,-0.351271 -0.135884,-0.503576 -0.02871,-0.03844 -0.213572,-0.285702 -0.240168,-0.322276 -0.115118,-0.15831 -0.233654,-0.320709 -0.310788,-0.502044 -0.02392,-0.05625 -0.0394,-0.115734 -0.05909,-0.173601 -0.0085,-0.0585 -0.02302,-0.116432 -0.02537,-0.17549 -0.0091,-0.228436 0.07931,-0.447918 0.185918,-0.644604 z" /><path
           style="fill:none;stroke:#000000;stroke-width:0.3;stroke-dasharray:none;stroke-opacity:1"
           id="path189"
           d="m -68.735878,68.616864 c -0.0288,0.252944 -0.0954,0.499599 -0.158457,0.745556 0,0 4e-5,0 4e-5,0 v 0 c 0.06314,-0.245944 0.129797,-0.492596 0.158565,-0.745556 z" /></g><use
         x="0"
         y="0"
         inkscape:tiled-clone-of="#g40"
         xlink:href="#g40"
         id="use41" /><use
         x="0"
         y="0"
         inkscape:tiled-clone-of="#g40"
         xlink:href="#g40"
         transform="rotate(60,-71.126676,65.856118)"
         id="use42" /><use
         x="0"
         y="0"
         inkscape:tiled-clone-of="#g40"
         xlink:href="#g40"
         transform="rotate(120,-70.233121,65.927295)"
         id="use43" /><use
         x="0"
         y="0"
         inkscape:tiled-clone-of="#g40"
         xlink:href="#g40"
         transform="rotate(180,-70.300256,65.560677)"
         id="use44" /><use
         x="0"
         y="0"
         inkscape:tiled-clone-of="#g40"
         xlink:href="#g40"
         transform="rotate(-120,-70.253199,65.329529)"
         id="use45" /><use
         x="0"
         y="0"
         inkscape:tiled-clone-of="#g40"
         xlink:href="#g40"
         transform="rotate(-60,-70.314179,65.344487)"
         id="use46" /></g></g></svg>
