<?xml version="1.0" encoding="UTF-8" standalone="no"?>
<!-- Created with Inkscape (http://www.inkscape.org/) -->

<svg
   width="207.31383"
   height="206.54446"
   viewBox="0 0 54.851784 54.648223"
   version="1.1"
   id="svg1"
   sodipodi:docname="pizza olives.svg"
   inkscape:version="1.4 (86a8ad7, 2024-10-11)"
   xml:space="preserve"
   xmlns:inkscape="http://www.inkscape.org/namespaces/inkscape"
   xmlns:sodipodi="http://sodipodi.sourceforge.net/DTD/sodipodi-0.dtd"
   xmlns:xlink="http://www.w3.org/1999/xlink"
   xmlns="http://www.w3.org/2000/svg"
   xmlns:svg="http://www.w3.org/2000/svg"><sodipodi:namedview
     id="namedview1"
     pagecolor="#ffffff"
     bordercolor="#000000"
     borderopacity="0.25"
     inkscape:showpageshadow="2"
     inkscape:pageopacity="0.0"
     inkscape:pagecheckerboard="0"
     inkscape:deskcolor="#ffffff"
     inkscape:document-units="mm"
     showborder="false"
     inkscape:zoom="2.8477805"
     inkscape:cx="140.46026"
     inkscape:cy="103.58944"
     inkscape:window-width="1920"
     inkscape:window-height="1010"
     inkscape:window-x="2873"
     inkscape:window-y="-6"
     inkscape:window-maximized="1"
     inkscape:current-layer="layer4" /><defs
     id="defs1" /><g
     inkscape:groupmode="layer"
     id="layer4"
     inkscape:label="Layer 3"
     style="display:inline"
     transform="translate(97.696698,-38.359592)"><g
       id="g1031"><g
         id="g17"
         inkscape:tile-cx="-56.00578"
         inkscape:tile-cy="67.541876"
         inkscape:tile-w="26.321739"
         inkscape:tile-h="23.295923"
         inkscape:tile-x0="-69.16665"
         inkscape:tile-y0="55.893921"><path
           style="display:inline;fill:none;stroke:#000000;stroke-width:0.499999;stroke-dasharray:none;stroke-opacity:1"
           id="path16"
           d="m -68.774359,65.52516 c 0.191108,-0.137221 0.392975,-0.256339 0.598638,-0.370052 0.296786,-0.152807 0.598651,-0.294635 0.892683,-0.452842 0.293341,-0.190482 0.590746,-0.372674 0.902168,-0.532196 0.34634,-0.168323 0.694815,-0.332211 1.043731,-0.495112 0.355113,-0.162436 0.709163,-0.32606 1.057823,-0.501934 0.293238,-0.155334 0.598979,-0.284577 0.905825,-0.410112 0.235952,-0.08965 0.464865,-0.195207 0.694446,-0.299661 0.242025,-0.103262 0.497877,-0.167167 0.749795,-0.240859 0.387482,-0.137276 0.770131,-0.289271 1.149932,-0.446577 0.362074,-0.155212 0.712417,-0.33543 1.075521,-0.488285 0.321146,-0.132252 0.647922,-0.251066 0.974106,-0.370383 0.337454,-0.122835 0.675573,-0.243983 1.01197,-0.369681 0.35619,-0.13408 0.705633,-0.28457 1.061567,-0.41929 0.408381,-0.145016 0.81844,-0.284404 1.233479,-0.409115 0.47688,-0.128958 0.95023,-0.270171 1.424324,-0.408937 0.427484,-0.124704 0.858668,-0.236313 1.27949,-0.382453 0.423558,-0.145976 0.847016,-0.29179 1.272241,-0.432927 0.422651,-0.131048 0.848934,-0.249907 1.275546,-0.367252 0.315751,-0.09005 0.632505,-0.177088 0.950418,-0.259212 0.137969,-0.03316 0.276471,-0.06465 0.416263,-0.08921 0.06164,-0.0088 0.01802,-0.0053 -0.07272,-0.08592 0.05908,1.5e-5 0.118597,0.0072 0.177242,4.5e-5 0.0076,-7.94e-4 0.0028,-0.01506 0.0053,-0.02231 0.0024,-0.0068 0.006,-0.01296 0.0089,-0.01953 0.02609,-0.05952 0.05253,-0.118869 0.07839,-0.178501 0.07443,-0.177422 0.182152,-0.33591 0.299463,-0.48717 0.09714,-0.130169 0.217977,-0.235653 0.345585,-0.334359 0.129165,-0.101751 0.277702,-0.168174 0.434528,-0.213807 0.199941,-0.05687 0.407176,-0.08631 0.613376,-0.109942 0.226094,-0.0158 0.45108,-0.0074 0.672094,0.04316 0.161365,0.03028 0.308145,0.09255 0.439894,0.189262 0.1148,0.09952 0.231542,0.197855 0.340794,0.30353 0.130209,0.123293 0.228962,0.273531 0.321395,0.425905 0.106277,0.170254 0.212875,0.338823 0.304212,0.517633 0.104484,0.196956 0.183425,0.405215 0.242708,0.619771 0.05721,0.209513 0.105651,0.4215 0.168563,0.629412 0.04714,0.155742 0.08684,0.314005 0.122455,0.472771 0.03631,0.211844 0.08142,0.421915 0.135506,0.629891 0.06335,0.199554 0.119909,0.40123 0.185753,0.599974 0.076,0.22329 0.129255,0.453623 0.177943,0.684162 0.04016,0.200509 0.07075,0.402508 0.103606,0.60424 0.03378,0.202165 0.05842,0.40563 0.08438,0.608907 0.04195,0.290494 0.08975,0.580077 0.143749,0.868566 0.05507,0.299138 0.09928,0.599908 0.144261,0.900676 0.0489,0.236178 0.0525,0.477898 0.05534,0.718071 -0.0016,0.256553 0.0053,0.513392 -0.0069,0.769723 -0.0195,0.276455 -0.03001,0.55331 -0.03662,0.830332 -0.0052,0.28453 -0.0053,0.569124 -0.0056,0.853694 -2.9e-5,0.328572 1.38e-4,0.657143 2.2e-4,0.985715 0.0078,0.318969 -0.006,0.637138 -0.0208,0.955607 -0.0118,0.335086 -0.05995,0.66535 -0.127664,0.99314 -0.06488,0.304948 -0.107801,0.613671 -0.152156,0.922049 -0.0435,0.248348 -0.0843,0.497721 -0.14028,0.743611 -0.06134,0.284872 -0.109442,0.572275 -0.16357,0.858528 -0.04827,0.267906 -0.141828,0.523454 -0.232106,0.779164 -0.08149,0.280929 -0.175033,0.55804 -0.262192,0.837176 -0.07456,0.252356 -0.170121,0.497549 -0.257767,0.745445 -0.09343,0.28081 -0.209286,0.553786 -0.343919,0.817181 -0.153408,0.27808 -0.302556,0.558464 -0.453276,0.838028 -0.127791,0.252762 -0.292018,0.483015 -0.463259,0.707559 -0.140806,0.171146 -0.302699,0.322752 -0.474737,0.461828 -0.148764,0.122312 -0.301424,0.238554 -0.467566,0.336246 -0.1397,0.07991 -0.292457,0.112905 -0.44803,0.144015 -0.191277,0.03695 -0.385222,0.04708 -0.579392,0.03782 -0.174117,-0.0099 -0.346554,-0.03931 -0.517792,-0.07125 -0.175461,-0.03565 -0.333854,-0.126037 -0.48741,-0.214694 -0.196652,-0.11077 -0.36975,-0.252232 -0.53035,-0.40944 -0.152736,-0.154839 -0.294748,-0.320471 -0.433236,-0.488124 -0.113578,-0.136628 -0.217115,-0.281279 -0.316873,-0.428191 -0.112708,-0.150302 -0.229746,-0.297437 -0.361392,-0.431612 -0.127482,-0.126336 -0.266692,-0.240004 -0.414578,-0.341469 -0.207235,-0.132408 -0.415867,-0.26258 -0.623658,-0.394115 -0.266589,-0.185193 -0.529084,-0.375555 -0.802835,-0.550193 -0.290971,-0.195512 -0.58891,-0.377365 -0.901057,-0.536917 -0.255871,-0.138692 -0.533049,-0.228327 -0.800325,-0.340833 -0.283525,-0.130562 -0.555281,-0.284348 -0.822296,-0.445519 -0.302699,-0.182346 -0.585325,-0.39456 -0.883142,-0.584406 -0.340784,-0.203812 -0.691939,-0.38912 -1.034945,-0.589212 -0.398184,-0.247184 -0.80709,-0.47644 -1.223613,-0.691097 -0.406222,-0.221043 -0.82604,-0.415247 -1.240081,-0.620828 -0.355676,-0.158433 -0.682283,-0.37043 -1.017415,-0.566315 -0.320038,-0.190309 -0.642895,-0.37583 -0.965962,-0.560945 -0.340096,-0.180674 -0.676077,-0.367435 -1.003422,-0.570342 -0.326567,-0.19936 -0.647777,-0.407265 -0.973669,-0.607784 -0.324226,-0.193255 -0.649071,-0.382815 -0.956585,-0.602115 -0.304507,-0.225317 -0.625586,-0.426588 -0.933834,-0.64656 -0.238638,-0.16795 -0.477123,-0.336195 -0.717211,-0.502028 -0.21902,-0.150831 -0.433515,-0.308063 -0.647441,-0.466014 -0.218239,-0.163597 -0.450241,-0.307305 -0.67364,-0.463267 -0.178705,-0.128373 -0.358632,-0.254703 -0.541237,-0.377441 -0.129929,-0.09225 -0.270354,-0.168256 -0.403656,-0.255024 -0.08269,-0.05811 -0.163295,-0.118351 -0.240387,-0.183737 -0.06572,-0.06343 -0.139748,-0.117573 -0.205476,-0.180869 -0.03769,-0.04076 -0.09524,-0.06828 -0.127703,-0.113782 -0.01053,-0.01196 -0.02574,-0.05071 2.64e-4,0.01148 -0.0078,-0.124486 -0.1838,-0.113519 -0.176046,0.01095 v 0 c 0.01119,0.04143 0.01609,0.0642 0.04404,0.09498 0.04251,0.04496 0.09054,0.08455 0.137904,0.124301 0.06895,0.06475 0.14397,0.122561 0.212841,0.187479 0.08289,0.07023 0.169574,0.134993 0.258588,0.197252 0.132879,0.08562 0.271661,0.162184 0.401114,0.253346 0.181774,0.12218 0.360854,0.247968 0.538755,0.375746 0.22229,0.154789 0.452615,0.298074 0.669756,0.460475 0.215439,0.159039 0.431434,0.317379 0.651991,0.469265 0.239419,0.165204 0.477036,0.333121 0.714986,0.500468 0.308335,0.219892 0.629259,0.421415 0.933887,0.646599 0.310851,0.22148 0.638738,0.413671 0.966536,0.608711 0.325731,0.200417 0.646777,0.408223 0.973182,0.607483 0.329094,0.203931 0.66669,0.39197 1.00865,0.573456 0.322633,0.184869 0.645065,0.370136 0.964671,0.560199 0.338638,0.197795 0.668637,0.411917 1.027962,0.572006 0.413263,0.205171 0.832273,0.399026 1.237729,0.619641 0.413829,0.213174 0.819941,0.441123 1.215527,0.686659 0.341022,0.198914 0.690002,0.383371 1.029034,0.585605 0.299087,0.190506 0.582633,0.403961 0.886801,0.586677 0.274352,0.165483 0.553556,0.323471 0.845061,0.457094 0.263353,0.110598 0.536241,0.19912 0.788447,0.335312 0.307242,0.156839 0.600081,0.336259 0.886447,0.528553 0.273965,0.17468 0.536265,0.365678 0.803341,0.550513 0.206023,0.130416 0.412827,0.259567 0.618416,0.390665 0.1388,0.09463 0.268788,0.201663 0.388477,0.319638 0.124677,0.126116 0.234053,0.265856 0.34118,0.406982 0.102937,0.151432 0.209669,0.300588 0.326816,0.441444 0.142566,0.172368 0.288539,0.34281 0.445887,0.501872 0.171373,0.167347 0.356116,0.318032 0.565615,0.436158 0.171083,0.09833 0.347457,0.19694 0.543111,0.235246 0.179183,0.03342 0.359672,0.06384 0.54188,0.07405 0.208528,0.0096 0.416864,-0.0011 0.622233,-0.04106 0.174924,-0.03498 0.346396,-0.075 0.50305,-0.165048 0.173366,-0.102534 0.33369,-0.222948 0.488955,-0.351091 0.182727,-0.148183 0.354963,-0.309364 0.504018,-0.491982 0.176729,-0.231945 0.346089,-0.469898 0.478243,-0.730785 0.151344,-0.280723 0.301151,-0.562245 0.455109,-0.84152 0.137946,-0.270441 0.257249,-0.550386 0.353127,-0.838608 0.08835,-0.24997 0.184689,-0.497213 0.259842,-0.751683 0.08643,-0.277091 0.17957,-0.552062 0.260141,-0.831004 0.09327,-0.264173 0.189312,-0.528354 0.239098,-0.805124 0.05369,-0.284176 0.101505,-0.569471 0.162274,-0.852295 0.05658,-0.250589 0.09903,-0.504401 0.142846,-0.757494 0.04384,-0.304847 0.08617,-0.610052 0.150315,-0.911508 0.06946,-0.336851 0.118872,-0.676291 0.131115,-1.020596 0.01495,-0.321209 0.02869,-0.642135 0.02098,-0.963848 -8.2e-5,-0.328506 -2.49e-4,-0.657016 -2.19e-4,-0.985522 2.35e-4,-0.283218 2.64e-4,-0.56646 0.0055,-0.849638 0.0066,-0.27568 0.01709,-0.551185 0.03648,-0.826299 0.01199,-0.259797 0.0058,-0.520047 0.0071,-0.780061 -0.003,-0.248192 -0.0072,-0.497948 -0.05726,-0.742061 -0.0453,-0.302897 -0.08989,-0.60579 -0.145336,-0.907047 -0.0534,-0.285128 -0.100613,-0.571344 -0.142158,-0.858446 -0.02622,-0.205301 -0.05116,-0.410781 -0.08525,-0.614963 -0.0334,-0.204422 -0.06432,-0.409157 -0.105124,-0.612338 -0.05018,-0.236945 -0.104915,-0.473678 -0.183089,-0.703189 -0.06475,-0.195043 -0.119925,-0.393104 -0.18247,-0.58887 -0.05365,-0.206078 -0.09792,-0.414316 -0.134128,-0.624197 -0.03677,-0.162925 -0.07724,-0.325416 -0.125749,-0.485256 -0.06282,-0.206476 -0.110191,-0.417343 -0.167396,-0.625404 -0.06301,-0.225819 -0.145402,-0.445441 -0.255611,-0.652862 -0.09343,-0.18261 -0.20178,-0.355195 -0.310555,-0.528989 -0.10064,-0.165121 -0.208262,-0.327657 -0.349708,-0.461267 -0.115501,-0.110945 -0.237627,-0.215495 -0.359545,-0.319243 -0.152008,-0.109427 -0.319508,-0.183814 -0.504671,-0.218591 -0.240626,-0.05376 -0.48518,-0.06506 -0.731153,-0.04634 -0.216212,0.02503 -0.433445,0.05597 -0.64304,0.115975 -0.177522,0.05287 -0.346218,0.127902 -0.492631,0.243512 -0.139321,0.107875 -0.27075,0.224012 -0.377084,0.365844 -0.126111,0.163034 -0.241638,0.334061 -0.321849,0.525029 -0.03269,0.07545 -0.07439,0.151299 -0.09776,0.230462 -0.0038,0.0127 -0.01942,0.03203 -0.0081,0.03889 0.05136,0.03108 0.113408,0.03942 0.170111,0.05913 0.01569,-0.07985 -0.06153,-0.148582 -0.13008,-0.125847 -0.144341,0.02543 -0.287388,0.05779 -0.429829,0.09215 -0.318786,0.08241 -0.636447,0.169585 -0.953068,0.259919 -0.429562,0.118157 -0.858796,0.237839 -1.284328,0.369916 -0.426008,0.141396 -0.850241,0.287494 -1.274582,0.433724 -0.417989,0.145375 -0.846561,0.255587 -1.271138,0.379777 -0.474498,0.138888 -0.948261,0.280197 -1.425538,0.4093 -0.418965,0.125929 -0.832943,0.266571 -1.245158,0.413073 -0.355698,0.134654 -0.704964,0.284914 -1.060873,0.419031 -0.335997,0.125601 -0.673762,0.246534 -1.010823,0.369258 -0.328816,0.120303 -0.658241,0.240078 -0.981963,0.37347 -0.36275,0.152826 -0.713008,0.332375 -1.074571,0.487889 -0.373907,0.154951 -0.750737,0.304292 -1.131946,0.440243 -0.259948,0.07605 -0.523894,0.142227 -0.773322,0.2496 -0.227509,0.103529 -0.454318,0.208203 -0.688186,0.29696 -0.311129,0.127294 -0.621091,0.258472 -0.918475,0.415878 -0.347061,0.175069 -0.699521,0.337878 -1.053002,0.499594 -0.350885,0.163822 -0.701339,0.32861 -1.049588,0.497977 -0.312309,0.160272 -0.611537,0.34181 -0.90528,0.533834 -0.294595,0.158581 -0.597265,0.300305 -0.894451,0.453806 -0.209909,0.116088 -0.415975,0.237725 -0.611124,0.377647 -0.103777,0.06919 -0.0059,0.215951 0.09784,0.146765 z" /><path
           style="fill:none;stroke:#000000;stroke-width:0.3;stroke-dasharray:none;stroke-opacity:1"
           id="path109"
           d="m -49.941593,59.667854 c -0.15036,-0.01556 -0.301122,0.0352 -0.438748,0.0902 -0.26303,0.132107 -0.502841,0.30521 -0.738854,0.479819 -0.257207,0.207989 -0.500499,0.433282 -0.733505,0.667925 -0.236796,0.257056 -0.461938,0.525386 -0.669639,0.806511 -0.128442,0.179755 -0.246962,0.369543 -0.326885,0.576458 -0.01797,0.04652 -0.03271,0.09423 -0.04906,0.141343 -0.114676,0.37828 -0.170355,0.770329 -0.210537,1.162476 -0.01733,0.2217 -0.02257,0.445572 0.0055,0.666703 0.01452,0.114712 0.02691,0.158144 0.05168,0.26802 0.03539,0.137006 0.07574,0.281411 0.192307,0.371001 0.05835,0.03092 0.117692,0.01439 0.178113,7.94e-4 0.08972,-0.01905 0.162139,-0.03801 0.241043,-0.08646 0.02238,-0.02204 0.03917,-0.0334 0.04953,-0.06486 0.02946,-0.08945 -0.01056,-0.224465 -0.02688,-0.312243 -0.05107,-0.255201 -0.07473,-0.514506 -0.08076,-0.774364 -0.0033,-0.289361 0.03699,-0.575582 0.100464,-0.857128 0.05753,-0.265375 0.148739,-0.520007 0.259472,-0.767302 0.14577,-0.320046 0.360548,-0.598938 0.58342,-0.868133 0.228983,-0.285361 0.517141,-0.509733 0.815345,-0.717452 0.187036,-0.132167 0.388707,-0.239591 0.598125,-0.331046 0.109757,-0.04929 0.216069,-0.108564 0.311883,-0.181634 0.05808,-0.05901 0.0344,-0.111755 -0.0085,-0.172273 -0.06727,-0.05647 -0.14587,-0.05387 -0.228857,-0.05661 0,0 -1.27e-4,1.9e-5 -1.27e-4,1.9e-5 v 0 c 0.08295,0.0028 0.161494,1.64e-4 0.228743,0.05661 0.04295,0.0605 0.06663,0.113231 0.0086,0.172239 -0.09581,0.07307 -0.202115,0.132342 -0.311869,0.181631 -0.209415,0.09146 -0.411081,0.198884 -0.598112,0.331052 -0.298204,0.207721 -0.586362,0.432093 -0.815345,0.717457 -0.222875,0.269198 -0.437656,0.548092 -0.58343,0.868135 -0.110734,0.247298 -0.201941,0.50193 -0.259472,0.76731 -0.06347,0.281546 -0.103751,0.56777 -0.100465,0.857131 0.006,0.259861 0.02969,0.519166 0.08075,0.774369 0.01633,0.08777 0.05634,0.222785 0.02687,0.312225 -0.01037,0.03146 -0.02715,0.04283 -0.04952,0.06486 -0.0789,0.04845 -0.151318,0.06741 -0.241038,0.08645 -0.06031,0.01357 -0.119446,0.03011 -0.177697,-7.94e-4 -0.116573,-0.08958 -0.15693,-0.233982 -0.19232,-0.370983 -0.02479,-0.109894 -0.03715,-0.153286 -0.05169,-0.268017 -0.02803,-0.221131 -0.02281,-0.445003 -0.0055,-0.6667 0.04018,-0.392147 0.09586,-0.784196 0.210542,-1.162473 0.01635,-0.04711 0.0311,-0.09482 0.04907,-0.141341 0.07993,-0.206912 0.198443,-0.3967 0.326882,-0.576455 0.207701,-0.281126 0.43284,-0.549458 0.669639,-0.806509 0.233006,-0.23464 0.476298,-0.459933 0.733507,-0.667919 0.236014,-0.174612 0.475824,-0.347716 0.738863,-0.479814 0.137501,-0.05494 0.288147,-0.105704 0.438372,-0.09019 z" /><path
           style="fill:none;stroke:#000000;stroke-width:0.3;stroke-dasharray:none;stroke-opacity:1"
           id="path110"
           d="m -56.531478,67.182766 c -0.02832,0.0808 -0.06765,0.172786 -0.04687,0.260498 0.0052,0.02215 0.01601,0.0426 0.024,0.06389 0.124021,0.209981 0.305075,0.378754 0.479814,0.546021 0.160819,0.146994 0.315547,0.301598 0.483579,0.440568 0.106952,0.08846 0.153135,0.118793 0.265229,0.19934 0.239662,0.157885 0.506529,0.265835 0.768395,0.380283 0.261953,0.109627 0.522168,0.222501 0.768662,0.363984 0.139414,0.09113 0.282948,0.177993 0.412382,0.283433 0.08119,0.06613 0.112369,0.100679 0.187436,0.17495 0.193485,0.189794 0.354783,0.407236 0.508326,0.629528 0.175458,0.260948 0.317523,0.542005 0.448148,0.827427 0.07759,0.172429 0.152437,0.346191 0.233606,0.516985 0.02143,0.05307 0.04387,0.104899 0.10581,0.110977 0.06569,-0.0093 0.123989,-0.04513 0.178189,-0.08153 0.05122,-0.03394 0.07394,-0.04292 0.07828,-0.107151 -0.02838,-0.197578 -0.115012,-0.381514 -0.184606,-0.567082 -0.08066,-0.224991 -0.169984,-0.44641 -0.270449,-0.663255 -0.08868,-0.199599 -0.195405,-0.388675 -0.317635,-0.569349 -0.117869,-0.171246 -0.243591,-0.336597 -0.372417,-0.499671 -0.162305,-0.213722 -0.363175,-0.392247 -0.562808,-0.569769 -0.186312,-0.159761 -0.371816,-0.320543 -0.562779,-0.474745 -0.192217,-0.140393 -0.38516,-0.280133 -0.582332,-0.413549 -0.220255,-0.146285 -0.440944,-0.291999 -0.668071,-0.427442 -0.183086,-0.111186 -0.380372,-0.195268 -0.578834,-0.274434 -0.159536,-0.05952 -0.325056,-0.101745 -0.491913,-0.134813 -0.109765,-0.01183 -0.05495,-0.0084 -0.164444,-0.01058 0,0 -1.43e-4,2.1e-5 -1.43e-4,2.1e-5 v 0 c 0.109437,0.0021 0.05465,-0.0013 0.164357,0.01058 0.166857,0.03307 0.332377,0.0753 0.491916,0.134811 0.198461,0.07916 0.39575,0.163242 0.578837,0.274428 0.227128,0.13544 0.447817,0.281154 0.668072,0.427443 0.197173,0.133413 0.390113,0.273153 0.582332,0.413546 0.190966,0.154199 0.376471,0.314984 0.562782,0.474742 0.199637,0.177519 0.400506,0.356044 0.562809,0.569767 0.128826,0.16307 0.254548,0.328422 0.372417,0.499668 0.122229,0.180673 0.228957,0.369745 0.31764,0.569346 0.100468,0.216845 0.189791,0.438264 0.270454,0.663253 0.06959,0.185565 0.156224,0.369498 0.184592,0.567073 -0.0043,0.06422 -0.02706,0.07319 -0.07827,0.10713 -0.05409,0.03632 -0.112247,0.07203 -0.177765,0.08151 -0.06194,-0.0061 -0.08439,-0.05788 -0.105812,-0.110955 -0.08118,-0.170792 -0.156033,-0.344551 -0.233625,-0.516983 -0.13063,-0.285422 -0.272698,-0.566478 -0.448159,-0.827429 -0.153543,-0.222295 -0.314844,-0.439737 -0.508331,-0.629531 -0.07507,-0.07427 -0.106249,-0.108818 -0.187436,-0.174953 -0.129434,-0.105442 -0.272971,-0.192302 -0.412385,-0.283432 -0.246499,-0.141486 -0.506714,-0.25436 -0.768673,-0.363987 -0.261868,-0.114449 -0.528738,-0.222396 -0.768403,-0.380278 -0.112106,-0.08056 -0.158265,-0.110874 -0.265228,-0.19934 -0.168035,-0.13897 -0.322768,-0.293571 -0.48359,-0.440565 -0.174739,-0.167267 -0.355793,-0.33604 -0.479819,-0.546016 -0.008,-0.0213 -0.01876,-0.04175 -0.02402,-0.06389 -0.02077,-0.08771 0.01855,-0.179692 0.04684,-0.260493 z" /><path
           style="fill:none;stroke:#000000;stroke-width:0.3;stroke-dasharray:none;stroke-opacity:1"
           id="path111"
           d="m -62.540252,67.144135 c 2e-6,0.09148 -8e-6,0.182969 -1.6e-5,0.274457 2.22e-4,-0.03372 -8e-5,0.02931 -3e-6,0.02199 5.29e-4,-0.05063 -0.0067,-0.10146 -0.01132,-0.151829 -0.0016,-0.05613 -0.02471,-0.128426 0.01553,-0.175561 0.112694,-0.04506 0.246198,-0.02561 0.363712,-0.01558 0.301059,0.03998 0.596633,0.112789 0.889916,0.190174 0.317254,0.08843 0.629689,0.193953 0.935736,0.315492 0.256196,0.102976 0.510759,0.214196 0.741524,0.367541 0.04339,0.02883 0.08472,0.06066 0.127076,0.09099 0.157628,0.125007 0.306539,0.261892 0.435777,0.416438 0.09248,0.110585 0.112887,0.145233 0.195374,0.263266 0.163718,0.253127 0.289927,0.527883 0.383926,0.813773 0.07556,0.243454 0.123912,0.493668 0.167537,0.744416 0.02484,0.143473 0.03949,0.288391 0.04584,0.433787 -0.0046,0.03408 0.0163,0.09929 -0.009,0.126532 -0.04956,0.01585 -0.105746,0.01048 -0.157538,0.01027 -0.06001,-0.0013 -0.0675,0.01193 -0.104291,-0.04058 -0.06197,-0.123791 -0.0921,-0.261837 -0.130468,-0.394417 -0.04786,-0.16374 -0.114814,-0.320416 -0.1846,-0.47575 -0.08493,-0.188815 -0.191347,-0.366737 -0.293767,-0.546336 -0.109675,-0.195297 -0.236511,-0.379624 -0.379833,-0.551548 -0.148796,-0.15881 -0.30638,-0.308435 -0.451705,-0.470582 -0.103214,-0.111043 -0.211412,-0.219017 -0.33696,-0.305065 -0.08396,-0.05754 -0.119057,-0.07254 -0.208968,-0.119634 -0.186931,-0.09163 -0.383571,-0.159223 -0.586994,-0.202144 -0.18637,-0.03153 -0.374232,-0.03329 -0.561893,-0.01622 -0.17118,0.0154 -0.341434,0.0377 -0.511005,0.06544 -0.09965,0.02273 -0.199684,0.03794 -0.300292,0.01574 0,0 -1.48e-4,2.2e-5 -1.48e-4,2.2e-5 v 0 c 0.100722,0.02228 0.200917,0.007 0.300675,-0.01572 0.169569,-0.02774 0.339823,-0.05003 0.511,-0.06544 0.187511,-0.01707 0.375211,-0.01529 0.561433,0.01622 0.203422,0.04292 0.400066,0.110511 0.586997,0.202137 0.08991,0.04709 0.125013,0.06209 0.20897,0.119631 0.125548,0.08604 0.233749,0.194019 0.336963,0.305059 0.145325,0.162147 0.302906,0.311775 0.451705,0.470583 0.143322,0.171923 0.27016,0.356248 0.379833,0.551542 0.102423,0.179599 0.208833,0.357521 0.293764,0.546333 0.06979,0.155334 0.136739,0.312007 0.184602,0.475747 0.03837,0.132583 0.0685,0.270629 0.130461,0.394428 0.0368,0.05253 0.04426,0.03937 0.104288,0.0406 0.05194,2.12e-4 0.108305,0.0056 0.158007,-0.01029 0.02529,-0.02728 0.0044,-0.09246 0.009,-0.12655 -0.0064,-0.145399 -0.02101,-0.290317 -0.04586,-0.43379 -0.04363,-0.250748 -0.09198,-0.500967 -0.16755,-0.744418 -0.09401,-0.285893 -0.220218,-0.560652 -0.383945,-0.813779 -0.08248,-0.118026 -0.102904,-0.152691 -0.195374,-0.263269 -0.129241,-0.154545 -0.278153,-0.29143 -0.435784,-0.41644 -0.04236,-0.03033 -0.08369,-0.06215 -0.12708,-0.09099 -0.230769,-0.153345 -0.485335,-0.264565 -0.741534,-0.367544 -0.306046,-0.121539 -0.61849,-0.227062 -0.935747,-0.315491 -0.29328,-0.07738 -0.588854,-0.150197 -0.889913,-0.190178 -0.117607,-0.01003 -0.251227,-0.02949 -0.364008,0.01561 -0.04026,0.04715 -0.01722,0.119435 -0.01556,0.175575 0.0046,0.05048 0.01111,0.101105 0.01167,0.151825 7.6e-5,0.0073 -2.25e-4,-0.0557 -3e-6,-0.02199 -1.1e-5,-0.09149 -1.9e-5,-0.182973 -1.6e-5,-0.274458 z" /><path
           style="fill:none;stroke:#000000;stroke-width:0.3;stroke-dasharray:none;stroke-opacity:1"
           id="path112"
           d="m -57.972763,60.987151 c -0.02461,0.167505 -2.65e-4,0.333277 0.03202,0.497639 0.04888,0.25424 0.124439,0.502039 0.212095,0.745275 0.06874,0.182592 0.148757,0.361667 0.253008,0.527069 0.06539,0.103756 0.101777,0.146005 0.17662,0.24276 0.111045,0.122553 0.21736,0.2593 0.357523,0.351211 0.06466,0.0424 0.09233,0.04776 0.163253,0.07313 0.129948,0.04132 0.259202,0.01905 0.38362,-0.02753 0.0658,-0.02932 0.06538,-0.03779 0.0094,-0.08197 -0.120226,-0.0815 -0.209367,-0.191757 -0.29201,-0.309319 -0.132291,-0.21463 -0.229859,-0.447678 -0.343754,-0.672045 -0.09885,-0.202155 -0.222636,-0.391747 -0.320363,-0.594418 -0.05422,-0.11245 -0.08858,-0.20655 -0.133953,-0.322419 -0.05658,-0.154746 -0.09732,-0.31429 -0.137218,-0.473889 0,0 -1.38e-4,2e-6 -1.38e-4,2e-6 v 0 c 0.03985,0.159607 0.08055,0.319156 0.137147,0.473895 0.04536,0.115835 0.07975,0.210005 0.133953,0.322422 0.09772,0.20267 0.221514,0.39226 0.320363,0.594415 0.11389,0.224372 0.211455,0.457417 0.343744,0.67205 0.08264,0.117565 0.171778,0.227825 0.291999,0.309327 0.05592,0.04416 0.05636,0.0526 -0.0094,0.08192 -0.124306,0.04655 -0.253394,0.06884 -0.383233,0.02754 -0.07092,-0.02537 -0.0986,-0.03073 -0.163258,-0.07313 -0.140169,-0.09191 -0.246486,-0.228653 -0.357537,-0.351205 -0.07484,-0.09676 -0.111226,-0.139002 -0.17662,-0.242758 -0.104254,-0.165402 -0.184277,-0.344474 -0.253013,-0.527066 -0.08766,-0.243237 -0.163227,-0.491035 -0.212101,-0.745273 -0.03238,-0.164359 -0.05663,-0.330131 -0.03202,-0.497634 z" /><path
           style="fill:none;stroke:#000000;stroke-width:0.3;stroke-dasharray:none;stroke-opacity:1"
           id="path115"
           d="m -62.974807,65.235854 c -0.01804,-0.124288 -0.0076,-0.250087 0.0061,-0.374203 0.02387,-0.211635 0.09366,-0.413184 0.170194,-0.610582 0.07651,-0.205438 0.163959,-0.406482 0.264617,-0.601189 0.09665,-0.165311 0.187598,-0.336028 0.305718,-0.487534 0.02434,-0.03122 0.05068,-0.06083 0.07602,-0.09124 0.03973,-0.0422 0.122197,-0.132807 0.168023,-0.169611 0.17585,-0.141226 0.389327,-0.223816 0.596667,-0.305776 0.199861,-0.07704 0.40404,-0.142407 0.612267,-0.192569 0.08818,-0.02093 0.08812,-0.02701 0.108001,0.06488 0.0173,0.08828 0.04216,0.174892 0.06854,0.260826 0.0079,0.04873 -0.0024,0.04624 -0.0429,0.06557 -0.01363,0.0065 -0.02679,0.01389 -0.04019,0.02082 -0.143849,0.09395 -0.266639,0.216305 -0.400553,0.323652 -0.11013,0.09074 -0.227309,0.172764 -0.333179,0.268663 -0.08052,0.07294 -0.08243,0.07852 -0.155519,0.157713 -0.139597,0.171413 -0.270383,0.349808 -0.393759,0.533183 -0.123235,0.180676 -0.188711,0.387754 -0.236834,0.598725 -0.03455,0.172789 -0.07288,0.344779 -0.108696,0.517298 -0.01947,0.06384 -0.02455,0.135662 -0.06221,0.192473 -0.06558,0.04989 -0.144833,-0.0071 -0.206666,-0.03683 0,0 -4.5e-5,5e-6 -4.5e-5,5e-6 v 0 c 0.06186,0.02987 0.141269,0.08682 0.20692,0.03684 0.03761,-0.05683 0.04272,-0.128633 0.06218,-0.192482 0.03581,-0.172522 0.07414,-0.344509 0.108685,-0.517298 0.04812,-0.21097 0.113599,-0.418046 0.236834,-0.59872 0.123373,-0.183375 0.254162,-0.36177 0.393758,-0.53318 0.07309,-0.07919 0.075,-0.08478 0.15552,-0.15771 0.10587,-0.0959 0.223052,-0.177927 0.333182,-0.268666 0.133913,-0.107344 0.256706,-0.229704 0.400563,-0.323644 0.01339,-0.0069 0.02658,-0.01431 0.04019,-0.02082 0.04043,-0.01931 0.05079,-0.01685 0.0429,-0.06559 -0.02641,-0.08593 -0.05127,-0.172543 -0.06856,-0.260824 -0.01992,-0.09204 -0.02,-0.08585 -0.108342,-0.0649 -0.208206,0.05019 -0.412371,0.115538 -0.612219,0.192577 -0.207341,0.08196 -0.420825,0.164552 -0.596678,0.305779 -0.04581,0.03679 -0.128302,0.12742 -0.168023,0.169611 -0.02535,0.03041 -0.05168,0.06002 -0.07602,0.09124 -0.118123,0.151506 -0.209068,0.322225 -0.305723,0.487534 -0.100661,0.19471 -0.188111,0.395754 -0.264618,0.601192 -0.07654,0.197398 -0.146343,0.398949 -0.170201,0.610584 -0.01365,0.124116 -0.0241,0.249918 -0.0061,0.374208 z" /><path
           style="fill:none;stroke:#000000;stroke-width:0.3;stroke-dasharray:none;stroke-opacity:1"
           id="path116"
           d="m -66.190457,64.839794 c 0.02577,-0.151816 0.08366,-0.236017 0.200536,-0.332418 0.09403,-0.06748 0.199517,-0.100547 0.314444,-0.0959 0.09188,0.01119 0.177794,0.04203 0.258828,0.08569 0.107125,0.0591 0.202819,0.136467 0.299239,0.211233 0.09024,0.06701 0.156966,0.156102 0.205451,0.256498 0.03647,0.08304 0.02045,0.173741 0.0039,0.259609 -0.02024,0.117864 -0.06785,0.22492 -0.131574,0.325086 -0.05496,0.07967 -0.137631,0.125478 -0.223415,0.165079 -0.07171,0.03254 -0.149439,0.04761 -0.226647,0.06061 -0.102185,0.01056 -0.201192,-0.01138 -0.297667,-0.04293 -0.117409,-0.03632 -0.221684,-0.08521 -0.316013,-0.164238 -0.05527,-0.05158 -0.0881,-0.119758 -0.120615,-0.186679 0,0 -7.2e-5,5e-6 -7.2e-5,5e-6 v 0 c 0.03237,0.06698 0.0652,0.13512 0.120468,0.186696 0.09433,0.07903 0.198604,0.127926 0.316015,0.164242 0.09662,0.03159 0.19576,0.0535 0.298098,0.04293 0.0772,-0.01299 0.154927,-0.02807 0.22664,-0.06062 0.08578,-0.0396 0.168447,-0.08541 0.223395,-0.165092 0.06372,-0.100171 0.111326,-0.207229 0.131567,-0.325091 0.01659,-0.08587 0.03262,-0.176577 -0.0039,-0.259622 -0.04849,-0.100396 -0.115223,-0.189497 -0.205467,-0.256506 -0.09642,-0.07476 -0.192112,-0.152135 -0.299233,-0.211232 -0.08104,-0.04366 -0.16695,-0.0745 -0.258832,-0.0857 -0.115051,-0.0046 -0.220628,0.0283 -0.314764,0.09591 -0.116874,0.09641 -0.174768,0.180615 -0.200546,0.33243 z" /><path
           style="display:inline;fill:none;stroke:#000000;stroke-width:0.3;stroke-dasharray:none;stroke-opacity:1"
           id="path108"
           d="m -48.625521,57.844634 c 0.0038,0.128349 0.01138,0.256939 0.02143,0.385005 0.01,0.138266 0.02723,0.275858 0.04477,0.413338 0.01908,0.168344 0.06485,0.332129 0.103261,0.496734 0.0367,0.155718 0.08088,0.309486 0.121262,0.464293 0.04692,0.172609 0.112254,0.339418 0.17068,0.508305 0.05944,0.174291 0.119766,0.348255 0.17971,0.522377 0.0571,0.160054 0.111027,0.32121 0.161369,0.483513 0.03952,0.121534 0.07615,0.243898 0.111874,0.366588 0.03148,0.105775 0.05327,0.213701 0.07328,0.322114 0.02389,0.133131 0.04688,0.266436 0.07024,0.399669 0.02413,0.113795 0.03419,0.228357 0.04237,0.344022 0.0081,0.09764 0.01307,0.195469 0.01532,0.293407 0.0019,0.11987 0.0019,0.239758 0.0019,0.359638 0.0055,0.113106 -0.0032,0.224335 -0.01886,0.336145 -0.01717,0.114919 -0.03327,0.229526 -0.04382,0.345186 -0.0033,0.06849 -0.01847,0.135289 -0.02805,0.202975 -0.01595,0.07783 -0.02506,0.156689 -0.03885,0.234889 -0.01429,0.08535 -0.01913,0.171717 -0.02156,0.258085 -0.01101,0.09859 -0.01498,0.197845 -0.02548,0.296442 -0.01259,0.11107 -0.0266,0.22202 -0.0423,0.332695 -0.01841,0.119658 -0.02817,0.240369 -0.03944,0.360844 -0.01627,0.172091 -0.02989,0.34425 -0.03823,0.516919 -0.0043,0.166505 0.0038,0.332806 0.0092,0.499174 0.0093,0.178771 0.02569,0.356986 0.03987,0.535397 0.0098,0.151191 0.01492,0.302456 0.03273,0.453001 0.0181,0.165524 0.03249,0.331545 0.04494,0.497602 0.01505,0.210468 0.01752,0.421159 0.0066,0.631804 -0.01228,0.221856 -0.02977,0.44328 -0.0468,0.664792 -0.01116,0.197424 -0.0313,0.394198 -0.05106,0.590907 -0.02212,0.248727 -0.05711,0.496256 -0.09884,0.742405 -0.0452,0.255125 -0.103688,0.507786 -0.161563,0.760294 -0.04535,0.196913 -0.102491,0.390837 -0.159461,0.584628 -0.05417,0.189418 -0.112821,0.377672 -0.181256,0.562436 -0.107945,0.275928 -0.235881,0.543258 -0.36223,0.811046 -0.116248,0.256555 -0.234715,0.512042 -0.358278,0.765159 -0.09318,0.182898 -0.20697,0.354264 -0.317267,0.527084 -0.128135,0.193225 -0.242282,0.395042 -0.360659,0.594244 -0.111448,0.197628 -0.232106,0.389437 -0.359037,0.577392 -0.07644,0.114199 -0.151342,0.229973 -0.21544,0.351631 -0.03178,0.06792 -0.06708,0.133189 -0.106484,0.196916 0.0041,0.01749 -0.04253,0.03917 -0.03839,0.05066 0,0 1.46e-4,-3e-6 1.46e-4,-3e-6 v 0 c -0.0039,-0.01191 0.04286,-0.03287 0.0385,-0.05065 0.0394,-0.06373 0.0747,-0.128993 0.106476,-0.196919 0.0641,-0.121656 0.138999,-0.237429 0.215432,-0.351629 0.126926,-0.187957 0.247583,-0.379767 0.359029,-0.577392 0.118374,-0.199205 0.232526,-0.401018 0.360658,-0.594244 0.110295,-0.172823 0.224092,-0.344186 0.317265,-0.527087 0.123558,-0.253119 0.24202,-0.508606 0.358267,-0.765161 0.126346,-0.267788 0.254283,-0.535118 0.36223,-0.811046 0.06844,-0.184767 0.127085,-0.373018 0.181256,-0.562438 0.05697,-0.193792 0.114107,-0.387715 0.159454,-0.584629 0.05787,-0.25251 0.116363,-0.505172 0.161557,-0.760296 0.04172,-0.24615 0.07672,-0.493678 0.09884,-0.742408 0.01976,-0.196707 0.0399,-0.393483 0.05106,-0.590904 0.01701,-0.221515 0.03451,-0.442939 0.04679,-0.664792 0.01093,-0.210648 0.0085,-0.421339 -0.0066,-0.631809 -0.01244,-0.166058 -0.02685,-0.332076 -0.04493,-0.497602 -0.01781,-0.150543 -0.02289,-0.30181 -0.03273,-0.453001 -0.01418,-0.178411 -0.0306,-0.356624 -0.03987,-0.535395 -0.0054,-0.166368 -0.01347,-0.332666 -0.0092,-0.499174 0.0083,-0.172669 0.02196,-0.344826 0.03823,-0.516919 0.01127,-0.120473 0.02103,-0.241183 0.03945,-0.360841 0.01569,-0.110675 0.02972,-0.221626 0.0423,-0.332695 0.0105,-0.0986 0.01447,-0.19785 0.02548,-0.296445 0.0024,-0.08637 0.0073,-0.172733 0.02156,-0.258082 0.01378,-0.0782 0.02291,-0.157062 0.03885,-0.234889 0.0096,-0.06769 0.02477,-0.134488 0.02804,-0.202975 0.01056,-0.115663 0.02664,-0.230267 0.04382,-0.345186 0.01564,-0.111811 0.02434,-0.223039 0.01886,-0.336148 -3.2e-5,-0.11988 5e-5,-0.239768 -0.0019,-0.359638 -0.0024,-0.09794 -0.0072,-0.195765 -0.01532,-0.293407 -0.0082,-0.115668 -0.01826,-0.23023 -0.04237,-0.344024 -0.02336,-0.133237 -0.04635,-0.266539 -0.07025,-0.399669 -0.02,-0.108413 -0.0418,-0.216342 -0.07328,-0.322117 -0.03573,-0.12269 -0.07236,-0.245055 -0.111879,-0.366591 -0.05035,-0.162301 -0.104273,-0.323453 -0.161383,-0.48351 -0.05994,-0.174122 -0.12028,-0.348086 -0.179716,-0.52238 -0.05842,-0.168884 -0.123758,-0.335693 -0.170682,-0.508302 -0.04038,-0.154805 -0.08457,-0.308573 -0.121267,-0.464291 -0.03841,-0.164605 -0.08419,-0.32839 -0.103259,-0.496734 -0.01754,-0.13748 -0.03477,-0.275069 -0.04478,-0.413335 -0.01008,-0.128066 -0.01765,-0.256656 -0.02143,-0.385005 z" /><path
           style="fill:none;stroke:#000000;stroke-width:0.3;stroke-dasharray:none;stroke-opacity:1"
           id="path117"
           d="m -61.077609,65.061155 c 0.06278,-0.08478 0.133757,-0.163436 0.213521,-0.232429 0.05119,-0.03843 0.103264,-0.08076 0.164074,-0.103529 0.103137,-0.03862 0.216363,-0.05541 0.324014,-0.07547 0.218043,-0.04771 0.434559,-0.02302 0.6506,0.01894 0.122396,0.03193 0.246028,0.06515 0.35951,0.122414 0.07094,0.0358 0.100166,0.05734 0.166494,0.100428 0.139793,0.09651 0.272736,0.208225 0.379109,0.341649 0.02225,0.0279 0.04178,0.05785 0.06267,0.08677 0.1167,0.170183 0.162528,0.368043 0.189187,0.569148 0.01286,0.162568 -4.2e-5,0.329562 -0.06019,0.482684 -0.01206,0.0307 -0.02817,0.05965 -0.04226,0.08947 -0.09248,0.17131 -0.243026,0.298773 -0.394288,0.416846 -0.08564,0.06107 -0.178403,0.113988 -0.278836,0.146738 -0.06703,0.02186 -0.09438,0.02394 -0.164867,0.03631 -0.211223,0.03317 -0.424575,0.04474 -0.638011,0.03633 -0.214469,-0.0089 -0.412996,-0.09361 -0.599483,-0.193723 -0.126603,-0.07325 -0.237831,-0.170524 -0.340725,-0.273801 -0.06511,-0.07282 -0.140494,-0.14395 -0.18093,-0.234493 -1.48e-4,-0.0085 -0.0021,-0.01722 -5.29e-4,-0.02559 0.01291,-0.06094 0.104714,-0.110559 0.151458,-0.143065 0.04319,-0.01884 0.09177,-0.06824 0.139954,-0.07445 0.03241,0.02341 0.05284,0.06382 0.0778,0.09537 0.0763,0.08927 0.168585,0.156266 0.272524,0.209217 0.156956,0.07352 0.325363,0.111873 0.497218,0.126902 0.175358,0.0066 0.347814,-0.02729 0.514607,-0.07845 0.121949,-0.04289 0.195125,-0.113781 0.252433,-0.226957 0.0408,-0.117903 0.05932,-0.242646 0.07778,-0.365723 0.0241,-0.132132 -0.0048,-0.261895 -0.03235,-0.390699 -0.03282,-0.109416 -0.0604,-0.22788 -0.133173,-0.319233 -0.0159,-0.01995 -0.03469,-0.0374 -0.05204,-0.0561 -0.121086,-0.108908 -0.269801,-0.169103 -0.428506,-0.19649 -0.151754,-0.01968 -0.302191,0.0021 -0.449765,0.03731 -0.120724,0.03753 -0.240125,0.08457 -0.350856,0.146082 -0.07193,0.03859 -0.103719,-7.94e-4 -0.168839,-0.03302 0,0 -1.58e-4,1.9e-5 -1.58e-4,1.9e-5 v 0 c 0.06517,0.0324 0.09714,0.0717 0.169222,0.03302 0.110728,-0.06151 0.230124,-0.108559 0.350845,-0.146077 0.147434,-0.03504 0.29772,-0.05697 0.449329,-0.0373 0.158705,0.02738 0.307419,0.08757 0.428506,0.196475 0.01736,0.01871 0.03615,0.03615 0.05204,0.05609 0.07278,0.09135 0.100351,0.209809 0.133175,0.319225 0.02754,0.128799 0.05646,0.258562 0.03236,0.390692 -0.01847,0.123073 -0.03698,0.247817 -0.07778,0.365715 -0.05731,0.11317 -0.130482,0.184049 -0.252426,0.226944 -0.166658,0.05111 -0.338984,0.08497 -0.514204,0.07844 -0.171852,-0.01503 -0.340259,-0.05338 -0.497216,-0.126895 -0.103933,-0.05295 -0.196223,-0.119938 -0.272512,-0.209211 -0.02492,-0.03152 -0.04538,-0.07259 -0.07822,-0.09538 -0.0482,0.0062 -0.09675,0.05561 -0.139952,0.07446 -0.04675,0.03252 -0.138551,0.08213 -0.151466,0.143087 -0.0019,0.0083 2.65e-4,0.01707 5.3e-4,0.02559 0.04043,0.09055 0.115816,0.161674 0.18093,0.234501 0.102893,0.103277 0.214122,0.200556 0.34073,0.273804 0.186489,0.100118 0.385019,0.184853 0.59949,0.193733 0.213575,0.0084 0.427062,-0.0031 0.638416,-0.03634 0.07049,-0.01236 0.09783,-0.01445 0.16487,-0.03632 0.10043,-0.03275 0.193188,-0.08567 0.27882,-0.146743 0.15126,-0.118078 0.301803,-0.245544 0.39428,-0.416856 0.01408,-0.02982 0.03019,-0.05877 0.04225,-0.08947 0.06014,-0.153127 0.07305,-0.320122 0.06018,-0.48269 -0.02666,-0.201112 -0.0725,-0.398973 -0.189201,-0.569158 -0.0209,-0.02892 -0.04043,-0.05887 -0.06267,-0.08677 -0.106376,-0.133424 -0.239321,-0.245139 -0.379114,-0.341651 -0.06633,-0.04309 -0.09555,-0.06463 -0.166497,-0.100431 -0.113482,-0.05727 -0.237119,-0.09049 -0.359521,-0.122415 -0.216114,-0.04197 -0.432721,-0.06665 -0.650838,-0.01894 -0.107653,0.02006 -0.220882,0.03685 -0.324024,0.07547 -0.06081,0.02278 -0.112882,0.06511 -0.164074,0.103532 -0.07976,0.06899 -0.150741,0.147651 -0.213503,0.232431 z" /><path
           style="fill:none;stroke:#000000;stroke-width:0.3;stroke-dasharray:none;stroke-opacity:1"
           id="path118"
           d="m -55.194848,61.282733 c -0.06502,0.04549 -0.119358,0.103695 -0.181096,0.153268 -0.03422,0.02888 -0.03844,0.04001 -0.01976,0.08137 0.06605,0.09866 0.15884,0.153625 0.265034,0.201065 0.11463,0.04104 0.235722,0.06464 0.35787,0.0616 0.07749,-0.0019 0.121237,-0.01125 0.19762,-0.02313 0.223356,-0.04413 0.428588,-0.140419 0.622681,-0.256354 0.14057,-0.08459 0.256222,-0.19952 0.361833,-0.323475 0.114652,-0.139239 0.165904,-0.267086 0.206698,-0.440856 0.02323,-0.147733 0.01685,-0.299551 -0.01228,-0.445934 -0.02976,-0.112835 -0.08144,-0.219917 -0.146142,-0.316749 -0.057,-0.08444 -0.139229,-0.141094 -0.227015,-0.189304 -0.09003,-0.04655 -0.184195,-0.06999 -0.284835,-0.07563 -0.142891,0.0013 -0.280001,0.04122 -0.411895,0.09289 -0.08419,0.04016 -0.160259,0.09271 -0.229392,0.154731 -0.03177,0.03581 -0.05717,0.05147 -0.02823,0.09764 0.08615,0.07748 0.210177,0.09839 0.318857,0.129323 0.169561,0.04379 0.317878,0.132157 0.457417,0.235032 0.140687,0.10546 0.191468,0.210328 0.220432,0.380466 0.01667,0.165772 -0.03521,0.30789 -0.108958,0.452924 -0.08952,0.182705 -0.207219,0.286046 -0.37824,0.388779 -0.103796,0.04969 -0.212537,0.09175 -0.327189,0.107833 -0.08527,0.01196 -0.125024,0.0096 -0.211093,0.01045 -0.226798,-0.01119 -0.361709,-0.106751 -0.530005,-0.246099 0,0 -1.16e-4,10e-6 -1.16e-4,10e-6 v 0 c 0.168386,0.139613 0.303315,0.235019 0.530341,0.246124 0.08607,-7.94e-4 0.125825,0.0016 0.211092,-0.01045 0.114652,-0.01609 0.223393,-0.05814 0.32719,-0.107842 0.171018,-0.102735 0.288715,-0.206084 0.378235,-0.388792 0.07375,-0.145036 0.125624,-0.28716 0.10896,-0.452937 -0.02897,-0.170141 -0.07975,-0.275016 -0.220437,-0.380479 -0.139539,-0.102878 -0.287856,-0.191246 -0.457417,-0.235043 -0.108675,-0.03093 -0.232693,-0.05184 -0.318844,-0.129307 -0.02894,-0.04616 -0.0035,-0.06181 0.02824,-0.09761 0.06913,-0.06202 0.145201,-0.114562 0.229383,-0.15472 0.131755,-0.05162 0.268711,-0.09138 0.411441,-0.09289 0.100642,0.0056 0.194799,0.02907 0.284832,0.07561 0.08778,0.04821 0.170018,0.104857 0.227015,0.189293 0.0647,0.09683 0.116379,0.20391 0.146148,0.316741 0.02914,0.146378 0.0355,0.298193 0.01228,0.445924 -0.04078,0.173773 -0.09203,0.301609 -0.206684,0.440848 -0.105606,0.123952 -0.221255,0.238877 -0.361821,0.323469 -0.19409,0.115935 -0.399319,0.212225 -0.622673,0.256347 -0.07595,0.0118 -0.120242,0.02119 -0.197254,0.02313 -0.122151,0.003 -0.243245,-0.02056 -0.357878,-0.06159 -0.106196,-0.04744 -0.19898,-0.102397 -0.265034,-0.201055 -0.01868,-0.04136 -0.01445,-0.05247 0.01974,-0.08135 0.06173,-0.04958 0.116062,-0.10778 0.181086,-0.153268 z" /><path
           style="fill:none;stroke:#000000;stroke-width:0.3;stroke-dasharray:none;stroke-opacity:1"
           id="path119"
           d="m -55.317765,65.025563 c 0.162885,-0.02315 0.326909,-0.02908 0.49118,-0.02879 0.141005,0.0093 0.275969,0.05241 0.401426,0.115663 0.143031,0.0798 0.218231,0.166452 0.276572,0.317976 0.04764,0.136623 0.01236,0.270568 -0.03602,0.401077 -0.06486,0.144801 -0.152355,0.283374 -0.276743,0.384664 -0.02479,0.02019 -0.05232,0.03679 -0.07847,0.05518 -0.159528,0.08837 -0.337616,0.09541 -0.514557,0.07621 -0.04078,-0.0065 -0.191148,-0.05103 -0.174553,-0.117946 0.003,-0.0122 0.01281,-0.02167 0.01921,-0.03249 0.109034,-0.106103 0.259397,-0.153162 0.400931,-0.199628 0.08069,-0.02577 0.167592,-0.03499 0.242972,-0.07585 0.04168,-0.0226 0.05185,-0.03427 0.08689,-0.06414 0.08598,-0.08659 0.09886,-0.163057 0.08787,-0.280477 -0.0259,-0.11158 -0.0522,-0.229552 -0.121587,-0.323815 -0.0177,-0.02405 -0.03915,-0.04509 -0.05873,-0.06763 -0.109635,-0.103055 -0.248496,-0.121764 -0.390017,-0.148341 0,0 -8.7e-5,1.1e-5 -8.7e-5,1.1e-5 v 0 c 0.141483,0.02658 0.28027,0.04532 0.389874,0.148346 0.01958,0.02254 0.04103,0.04358 0.05873,0.06762 0.06939,0.09426 0.09569,0.212231 0.121584,0.323808 0.01101,0.117412 -0.0019,0.193873 -0.08786,0.280456 -0.03504,0.02987 -0.0452,0.04154 -0.08688,0.06413 -0.07538,0.04085 -0.162277,0.05008 -0.242969,0.07585 -0.141537,0.04647 -0.291905,0.09353 -0.400937,0.199644 -0.0064,0.01085 -0.01617,0.02029 -0.01921,0.0325 -0.01659,0.06694 0.133768,0.11149 0.174561,0.117975 0.177078,0.01921 0.355325,0.0122 0.51498,-0.07622 0.02617,-0.01839 0.05367,-0.03499 0.07847,-0.05518 0.124381,-0.101296 0.211879,-0.239869 0.276717,-0.384675 0.04837,-0.130514 0.08365,-0.264462 0.036,-0.401087 -0.05835,-0.151524 -0.133554,-0.238186 -0.276585,-0.317987 -0.125457,-0.06326 -0.260421,-0.106397 -0.401428,-0.115671 -0.164368,-2.64e-4 -0.328489,0.0056 -0.491469,0.02879 z" /><path
           style="fill:none;stroke:#000000;stroke-width:0.3;stroke-dasharray:none;stroke-opacity:1"
           id="path120"
           d="m -51.110729,65.210464 c 0.05664,-0.157829 0.198263,-0.260313 0.328158,-0.356192 0.166436,-0.110221 0.364831,-0.20909 0.566454,-0.229384 0.0393,-0.0039 0.07898,-0.0013 0.118473,-0.0021 0.186647,0.01265 0.360352,0.08194 0.509801,0.193778 0.02953,0.02209 0.05658,0.04733 0.08487,0.07099 0.167955,0.15132 0.25722,0.354129 0.326064,0.564568 0.05104,0.174635 0.06898,0.354142 0.05914,0.535178 -0.01532,0.102248 -0.02019,0.211029 -0.06645,0.305789 -0.02845,0.05829 -0.06533,0.101497 -0.104262,0.152803 -0.136273,0.165592 -0.298312,0.307096 -0.467976,0.437247 -0.139076,0.103019 -0.298789,0.179528 -0.468662,0.216141 -0.03491,0.0075 -0.07065,0.01058 -0.105971,0.01587 -0.178853,0.01558 -0.321821,-0.01778 -0.462203,-0.129302 -0.05538,-0.04937 -0.09914,-0.108765 -0.132604,-0.174633 -0.0094,-0.02299 -0.01916,-0.02394 0.0016,-0.0379 0.08061,-0.04638 0.176171,-0.06185 0.266039,-0.08169 0.121941,-0.01871 0.245613,-0.01569 0.368512,-0.02294 0.08701,-0.0049 0.175662,-0.0095 0.259352,-0.03624 0.045,-0.01439 0.07641,-0.03137 0.118682,-0.05178 0.13462,-0.06805 0.208647,-0.175974 0.273476,-0.3077 0.06097,-0.139142 0.08965,-0.28765 0.0848,-0.438983 -0.01003,-0.133242 -0.04128,-0.26026 -0.103386,-0.378521 -0.06814,-0.121904 -0.185962,-0.18932 -0.306573,-0.250153 -0.130974,-0.06632 -0.272034,-0.0814 -0.416234,-0.06996 -0.154496,0.02154 -0.241142,0.08311 -0.340215,0.199128 -0.05642,0.07599 -0.105571,0.156975 -0.162692,0.232453 -0.01011,0.01333 -0.01868,0.02815 -0.03092,0.03955 -0.0085,0.0079 -0.02021,0.01164 -0.03034,0.01746 -0.04359,-0.0065 -0.07034,-0.04287 -0.09994,-0.07208 0,0 -1.27e-4,8e-6 -1.27e-4,8e-6 v 0 c 0.02973,0.02939 0.0564,0.06587 0.100304,0.07209 0.01011,-0.0058 0.0218,-0.0095 0.03033,-0.01746 0.01225,-0.0114 0.02082,-0.02622 0.03091,-0.03956 0.05712,-0.07548 0.10627,-0.156458 0.162689,-0.232449 0.09908,-0.116015 0.185719,-0.177581 0.340215,-0.19911 0.144042,-0.01151 0.284961,0.0038 0.415785,0.06996 0.120607,0.06083 0.238424,0.128238 0.306567,0.250137 0.06211,0.118258 0.09335,0.245271 0.103389,0.37851 0.0048,0.151331 -0.02381,0.299837 -0.0848,0.438976 -0.06483,0.13172 -0.138856,0.239636 -0.273473,0.307684 -0.04228,0.02043 -0.07368,0.03738 -0.118681,0.05178 -0.08369,0.02677 -0.172337,0.0313 -0.25935,0.03624 -0.122899,0.0072 -0.246573,0.0042 -0.368512,0.02294 -0.08988,0.01984 -0.185438,0.03531 -0.266052,0.08169 -0.0208,0.01394 -0.01098,0.01495 -0.0016,0.03793 0.03347,0.06587 0.07723,0.125275 0.132606,0.174643 0.140531,0.111636 0.283602,0.144913 0.462645,0.129313 0.03532,-0.0053 0.07105,-0.0084 0.105963,-0.0159 0.169868,-0.03662 0.329579,-0.113128 0.468652,-0.216148 0.169658,-0.130154 0.331697,-0.271653 0.467957,-0.437256 0.03893,-0.05131 0.07581,-0.09451 0.10426,-0.152805 0.04625,-0.09476 0.05112,-0.203546 0.06645,-0.305795 0.0098,-0.181041 -0.0081,-0.360547 -0.05915,-0.535186 -0.06884,-0.210441 -0.158113,-0.413252 -0.326067,-0.564575 -0.02829,-0.02365 -0.05534,-0.0489 -0.08487,-0.071 -0.14954,-0.111906 -0.323342,-0.181208 -0.510109,-0.193786 -0.03949,7.93e-4 -0.07918,-0.0019 -0.118475,0.0021 -0.20162,0.02029 -0.400015,0.119169 -0.566454,0.229389 -0.129895,0.09588 -0.271526,0.198369 -0.328157,0.356206 z" /><path
           style="fill:none;stroke:#000000;stroke-width:0.3;stroke-dasharray:none;stroke-opacity:1"
           id="path121"
           d="m -51.088527,73.635343 c -0.0026,0.115842 0.004,0.23146 0.02556,0.345331 0.0059,0.01722 0.0093,0.03553 0.01765,0.05172 0.05956,0.115374 0.200689,0.16593 0.313394,0.208256 0.192828,0.06319 0.387363,0.07447 0.587951,0.0581 0.152194,-0.02117 0.304202,-0.06617 0.415536,-0.178456 0.02172,-0.02191 0.0388,-0.04798 0.05821,-0.07197 0.06874,-0.11539 0.123132,-0.25753 0.09292,-0.394372 -0.0059,-0.0267 -0.01778,-0.05172 -0.02666,-0.07759 -0.04442,-0.06436 -0.0575,-0.09608 -0.126709,-0.140708 -0.0289,-0.01863 -0.0626,-0.02845 -0.0939,-0.04268 0,0 -1.14e-4,1.3e-5 -1.14e-4,1.3e-5 v 0 c 0.03127,0.01423 0.06494,0.02405 0.09381,0.04269 0.06919,0.04465 0.08225,0.07634 0.126682,0.140698 0.0089,0.02585 0.02077,0.05088 0.02667,0.07758 0.03023,0.136837 -0.02416,0.278966 -0.09289,0.394356 -0.01939,0.024 -0.03648,0.05005 -0.0582,0.07196 -0.111328,0.112281 -0.263331,0.157276 -0.415517,0.178445 -0.200472,0.01635 -0.394883,0.0051 -0.5876,-0.0581 -0.112702,-0.04232 -0.253831,-0.09288 -0.313404,-0.208241 -0.0084,-0.01619 -0.01175,-0.03447 -0.01765,-0.05171 -0.02156,-0.113871 -0.02817,-0.229486 -0.02556,-0.345328 z" /><path
           style="fill:none;stroke:#000000;stroke-width:0.3;stroke-dasharray:none;stroke-opacity:1"
           id="path122"
           d="m -56.192295,70.870664 c -0.004,0.1607 0.03028,0.318103 0.07304,0.471924 0.04097,0.130728 0.09322,0.259027 0.180713,0.36612 0.04901,0.05999 0.07344,0.07601 0.132746,0.126455 0.142428,0.109206 0.307827,0.179869 0.475002,0.241506 0.174164,0.06518 0.360658,0.05955 0.54261,0.04178 0.201551,-0.03572 0.393745,-0.105693 0.576895,-0.195549 0.132143,-0.07673 0.258429,-0.166015 0.367083,-0.274037 0.06955,-0.06915 0.08703,-0.09566 0.147891,-0.17214 0.0891,-0.141169 0.159126,-0.29926 0.174879,-0.467212 0.0026,-0.02703 0.0019,-0.05427 0.0029,-0.0814 -9.3e-5,-0.150183 -0.05909,-0.279757 -0.142061,-0.401206 -0.09994,-0.152667 -0.244652,-0.257038 -0.394832,-0.355211 -0.158784,-0.10074 -0.304919,-0.156758 -0.489484,-0.185436 -0.07539,-0.0085 -0.147672,-0.0037 -0.210302,0.0414 -0.0077,0.0071 -0.02066,0.01587 -0.02204,0.02814 -0.0056,0.04956 0.05501,0.09938 0.08394,0.129384 0.137617,0.113884 0.286538,0.212799 0.429699,0.319354 0.107831,0.08467 0.19971,0.195662 0.247409,0.325798 0.0083,0.02262 0.01307,0.0464 0.01961,0.0696 0.02553,0.147404 5.29e-4,0.249457 -0.05742,0.383577 -0.0594,0.124034 -0.134133,0.241448 -0.238328,0.33288 -0.02379,0.02087 -0.04988,0.03894 -0.07482,0.05841 -0.192516,0.122145 -0.351819,0.130866 -0.571574,0.104429 -0.202033,-0.03309 -0.334682,-0.15367 -0.463857,-0.302583 -0.104338,-0.127963 -0.184216,-0.2731 -0.265721,-0.416034 -0.0382,-0.04876 -0.06339,-0.141861 -0.112572,-0.180752 -0.01175,-0.0093 -0.02577,-0.01521 -0.03867,-0.02281 -0.08493,-0.0281 -0.03772,-0.0163 -0.142648,-0.03108 0,0 -1.24e-4,1.9e-5 -1.24e-4,1.9e-5 v 0 c 0.104817,0.01479 0.05764,0.003 0.142528,0.03108 0.01289,0.0076 0.02693,0.01352 0.03867,0.02281 0.04919,0.03888 0.07438,0.131993 0.112577,0.180748 0.08151,0.142933 0.161388,0.288073 0.265727,0.416039 0.129172,0.148912 0.261821,0.269499 0.463856,0.302598 0.219917,0.02646 0.379392,0.01778 0.572032,-0.104441 0.02495,-0.01947 0.05104,-0.03755 0.07482,-0.05841 0.104193,-0.09144 0.178925,-0.208855 0.238326,-0.332889 0.05807,-0.134125 0.08296,-0.236185 0.05742,-0.383592 -0.0065,-0.0232 -0.0113,-0.04697 -0.01961,-0.0696 -0.0477,-0.130138 -0.139578,-0.241139 -0.247414,-0.325808 -0.143158,-0.106553 -0.292076,-0.20547 -0.429694,-0.319352 -0.02891,-0.02999 -0.08949,-0.07981 -0.08393,-0.129358 0.0013,-0.01225 0.01431,-0.02101 0.02204,-0.02813 0.0625,-0.04503 0.134604,-0.04985 0.209849,-0.04139 0.184565,0.02867 0.330697,0.08468 0.489487,0.185425 0.150178,0.09817 0.294883,0.202539 0.39483,0.355203 0.08297,0.121447 0.14197,0.251013 0.142068,0.401193 -0.0011,0.02713 -2.65e-4,0.05437 -0.0029,0.0814 -0.01574,0.167949 -0.08577,0.326035 -0.174868,0.467201 -0.06086,0.07648 -0.07834,0.102989 -0.147889,0.172138 -0.108651,0.108019 -0.234937,0.1973 -0.367078,0.274032 -0.183147,0.08985 -0.375337,0.159826 -0.576886,0.19554 -0.181833,0.01775 -0.368195,0.02336 -0.542243,-0.04177 -0.167179,-0.06163 -0.332581,-0.132291 -0.475014,-0.241498 -0.05931,-0.05044 -0.08374,-0.06647 -0.132747,-0.12645 -0.0875,-0.10709 -0.139753,-0.235384 -0.180726,-0.366112 -0.04275,-0.15382 -0.07705,-0.311221 -0.07304,-0.471921 z" /><path
           style="fill:none;stroke:#000000;stroke-width:0.3;stroke-dasharray:none;stroke-opacity:1"
           id="path123"
           d="m -48.903736,68.858627 c -0.02185,0.01709 -0.133792,0.159557 -0.07713,0.179522 0.0072,0.0026 0.01482,-0.0038 0.02222,-0.0057 0.06431,-0.07016 0.0049,-0.08987 -0.05751,-0.112443 0,0 -4.5e-5,6e-6 -4.5e-5,6e-6 v 0 c 0.06235,0.0226 0.121582,0.04235 0.05736,0.112413 -0.0073,0.0019 -0.01476,0.0083 -0.02185,0.0057 -0.05666,-0.02013 0.05525,-0.162332 0.07711,-0.179498 z" /><path
           style="fill:none;stroke:#000000;stroke-width:0.3;stroke-dasharray:none;stroke-opacity:1"
           id="path124"
           d="m -51.371981,69.678353 c 0.02761,0.0019 0.06725,-0.02323 0.03579,-0.05233 -0.0084,-0.0078 -0.02053,-0.01011 -0.03078,-0.01516 0,0 -1.09e-4,1.4e-5 -1.09e-4,1.4e-5 v 0 c 0.01024,0.0051 0.02236,0.0074 0.03073,0.01516 0.03122,0.02891 -0.0079,0.05399 -0.03546,0.0523 z" /><path
           style="fill:none;stroke:#000000;stroke-width:0.3;stroke-dasharray:none;stroke-opacity:1"
           id="path127"
           d="m -58.448042,63.076441 c -0.02029,-0.01463 -0.137954,0.116546 -0.0549,0.08789 5.29e-4,-0.02939 0.007,-0.01942 -0.02692,-0.02363 0,0 -8.5e-5,1.3e-5 -8.5e-5,1.3e-5 v 0 c 0.03384,0.0042 0.0273,-0.0057 0.02682,0.0236 -0.08054,0.02835 0.03247,-0.101754 0.05523,-0.08784 z" /><path
           style="fill:none;stroke:#000000;stroke-width:0.3;stroke-dasharray:none;stroke-opacity:1"
           id="path125"
           d="m -57.093156,68.703239 c -0.0074,0.01029 -0.01786,0.07381 0.01624,0.06264 0.02365,-0.0077 0.03108,-0.04412 0.02911,-0.063 -0.0013,-0.01183 -0.01024,-0.02148 -0.01537,-0.03224 -0.01138,-0.0048 -0.02273,-0.0096 -0.03411,-0.01439 0,0 -1.06e-4,1.1e-5 -1.06e-4,1.1e-5 v 0 c 0.01135,0.0048 0.0227,0.0096 0.03406,0.01439 0.0051,0.01074 0.01408,0.0204 0.01529,0.03223 0.0019,0.01834 -0.0054,0.05528 -0.02874,0.06298 -0.03407,0.01125 -0.02368,-0.05235 -0.01627,-0.06262 z" /><path
           style="fill:none;stroke:#000000;stroke-width:0.3;stroke-dasharray:none;stroke-opacity:1"
           id="path126"
           d="m -54.757105,63.624864 c -0.01225,0.02848 -0.04048,0.150387 0.02156,0.149265 0.0078,-1.41e-4 0.01429,-0.0064 0.02143,-0.0096 0.02537,-0.04068 0.01886,-0.04855 -0.01593,-0.07636 0,0 -9.3e-5,8e-6 -9.3e-5,8e-6 v 0 c 0.03466,0.02782 0.04114,0.03574 0.01582,0.07633 -0.007,0.0032 -0.01333,0.0094 -0.02103,0.0096 -0.06206,0.0011 -0.03386,-0.120743 -0.02159,-0.149233 z" /></g><use
         x="0"
         y="0"
         inkscape:tiled-clone-of="#g17"
         xlink:href="#g17"
         id="use23" /><use
         x="0"
         y="0"
         inkscape:tiled-clone-of="#g17"
         xlink:href="#g17"
         transform="rotate(60,-70.431619,64.853657)"
         id="use24" /><use
         x="0"
         y="0"
         inkscape:tiled-clone-of="#g17"
         xlink:href="#g17"
         transform="rotate(120,-70.539074,65.530799)"
         id="use25" /><use
         x="0"
         y="0"
         inkscape:tiled-clone-of="#g17"
         xlink:href="#g17"
         transform="rotate(180,-70.270805,65.637249)"
         id="use26" /><use
         x="0"
         y="0"
         inkscape:tiled-clone-of="#g17"
         xlink:href="#g17"
         transform="rotate(-120,-70.088155,65.762087)"
         id="use27" /><use
         x="0"
         y="0"
         inkscape:tiled-clone-of="#g17"
         xlink:href="#g17"
         transform="rotate(-60,-70.100574,65.568729)"
         id="use28" /></g></g></svg>
