<?xml version="1.0" encoding="UTF-8" standalone="no"?>
<!-- Created with Inkscape (http://www.inkscape.org/) -->

<svg
   width="206.87624"
   height="207.75346"
   viewBox="0 0 54.736004 54.968104"
   version="1.1"
   id="svg1"
   sodipodi:docname="pizza sausage.svg"
   inkscape:version="1.4 (86a8ad7, 2024-10-11)"
   xml:space="preserve"
   xmlns:inkscape="http://www.inkscape.org/namespaces/inkscape"
   xmlns:sodipodi="http://sodipodi.sourceforge.net/DTD/sodipodi-0.dtd"
   xmlns:xlink="http://www.w3.org/1999/xlink"
   xmlns="http://www.w3.org/2000/svg"
   xmlns:svg="http://www.w3.org/2000/svg"><sodipodi:namedview
     id="namedview1"
     pagecolor="#ffffff"
     bordercolor="#000000"
     borderopacity="0.25"
     inkscape:showpageshadow="2"
     inkscape:pageopacity="0.0"
     inkscape:pagecheckerboard="0"
     inkscape:deskcolor="#ffffff"
     inkscape:document-units="mm"
     showborder="false"
     inkscape:zoom="2.8477805"
     inkscape:cx="139.05566"
     inkscape:cy="104.29175"
     inkscape:window-width="1920"
     inkscape:window-height="1010"
     inkscape:window-x="2873"
     inkscape:window-y="-6"
     inkscape:window-maximized="1"
     inkscape:current-layer="layer1" /><defs
     id="defs1" /><g
     inkscape:label="Layer 1"
     inkscape:groupmode="layer"
     id="layer1"
     style="display:inline"
     inkscape:transform-center-x="10.40695"
     inkscape:transform-center-y="-14.021884"
     transform="translate(97.337582,-38.129776)"><g
       id="g904"><g
         id="g2"
         inkscape:transform-center-x="10.40577"
         inkscape:transform-center-y="-13.935259"
         inkscape:tile-cx="-70.31475"
         inkscape:tile-cy="65.567373"
         inkscape:tile-w="21.281784"
         inkscape:tile-h="27.002612"
         inkscape:tile-x0="-91.361407"
         inkscape:tile-y0="38.129775"><g
           id="g1"><path
             style="fill:none;stroke:#000000;stroke-width:0.499999;stroke-dasharray:none;stroke-opacity:1"
             id="path14"
             d="m -87.933939,52.18181 c 0.1984,0.101999 0.368922,0.250999 0.539692,0.392819 0.207415,0.175352 0.403455,0.363447 0.597675,0.553124 0.186722,0.175768 0.388736,0.333182 0.572505,0.512162 0.166534,0.173067 0.332164,0.346895 0.501844,0.51698 0.169949,0.179795 0.353388,0.343628 0.552899,0.489609 0.237152,0.172386 0.47152,0.348289 0.697416,0.535228 0.304075,0.259448 0.622874,0.501057 0.945808,0.736441 0.311791,0.228447 0.61654,0.465458 0.941015,0.675799 0.329784,0.205854 0.651393,0.422873 0.961776,0.656871 0.354198,0.279413 0.73207,0.526671 1.100778,0.786254 0.367001,0.266586 0.737259,0.527746 1.114599,0.779534 0.315439,0.202747 0.619292,0.42232 0.920719,0.645099 0.325628,0.204676 0.644964,0.416163 0.950393,0.65019 0.316426,0.257934 0.643316,0.502129 0.977953,0.735803 0.285936,0.195982 0.555895,0.413449 0.824614,0.632 0.27156,0.219863 0.562435,0.414287 0.851847,0.609523 0.34652,0.24202 0.676233,0.506799 1.01676,0.757119 0.346839,0.247994 0.685172,0.506981 1.018405,0.772874 0.21786,0.186645 0.457073,0.341056 0.705691,0.482431 0.171783,0.09169 0.348043,0.17603 0.511201,0.282776 0.114673,0.07928 0.227322,0.161144 0.348219,0.230833 0.05001,0.03798 0.1002,0.07757 0.143036,0.123708 0.0259,0.0387 0.06574,0.06559 0.09582,0.09967 0.05686,0.06165 0.03209,0.08043 0.17404,-0.07039 0.0109,-0.01159 -0.0099,-0.03025 -0.01492,-0.04537 -0.05013,-0.140851 -0.09136,-0.28471 -0.13824,-0.426693 -0.0409,-0.09802 -0.04769,-0.193257 -0.03925,-0.296879 0.0089,-0.131894 0.02249,-0.262921 0.04559,-0.39312 0.03791,-0.231968 0.06172,-0.466482 0.08393,-0.700492 0.02705,-0.313256 0.02874,-0.627915 0.03141,-0.942097 0.01225,-0.34893 0.02778,-0.697637 0.05224,-1.045919 0.01852,-0.355328 0.04004,-0.710438 0.0594,-1.065731 0.0168,-0.35623 0.02957,-0.712875 0.02162,-1.069478 -0.01,-0.38455 -0.04206,-0.767934 -0.06216,-1.152003 -0.01389,-0.360442 -0.0297,-0.720929 -0.05726,-1.08062 -0.03031,-0.390162 -0.062,-0.780132 -0.08186,-1.171 -0.03683,-0.443662 -0.04549,-0.888818 -0.06735,-1.33326 -0.01987,-0.44586 -0.04907,-0.89104 -0.08587,-1.335796 -0.03653,-0.360328 -0.03941,-0.722575 -0.05845,-1.083874 -0.02447,-0.345921 -0.03395,-0.692417 -0.03929,-1.039069 -0.0049,-0.419909 -0.0048,-0.839859 -0.0049,-1.259792 4e-5,-0.420021 2.14e-4,-0.840044 2.64e-4,-1.260065 0.0058,-0.367146 0.0085,-0.734179 0.0058,-1.101415 -0.0034,-0.330984 -0.0045,-0.661983 -0.0051,-0.992982 -5.29e-4,-0.402079 -5.29e-4,-0.804161 -5.29e-4,-1.206243 0.0064,-0.286562 -0.0034,-0.572291 -0.02111,-0.858208 -0.0173,-0.206497 -0.01296,-0.4142 -0.02948,-0.620617 -0.01624,-0.134162 -0.0254,-0.268983 -0.05207,-0.401577 -0.01111,-0.04834 -0.0222,-0.09694 -0.03893,-0.143716 -7.94e-4,-0.0024 -0.0021,-0.0094 -0.0028,-0.007 -0.008,0.0322 -0.01921,0.06438 -0.01982,0.09756 -1.37e-4,0.0074 0.01191,-0.0086 0.01823,-0.01238 0.0067,-0.004 0.01421,-0.0067 0.02088,-0.0108 0.04973,-0.03046 0.03775,-0.02548 0.08552,-0.07614 0.127016,-0.144545 0.209571,-0.321673 0.303448,-0.488191 0.158634,-0.269131 0.32435,-0.533572 0.465222,-0.812622 0.139637,-0.288814 0.172159,-0.59848 0.16437,-0.914588 -0.0164,-0.279001 -0.09555,-0.543867 -0.210413,-0.796653 -0.119861,-0.231436 -0.287255,-0.434591 -0.461676,-0.626726 -0.131041,-0.125254 -0.264473,-0.253558 -0.419436,-0.349584 -0.106339,-0.06589 -0.161174,-0.08455 -0.277734,-0.135448 -0.339518,-0.119292 -0.694242,-0.17952 -1.050996,-0.216051 -0.364045,-0.03639 -0.727451,0.0046 -1.086556,0.06326 -0.485707,0.09735 -0.967791,0.211011 -1.451206,0.318794 -0.679338,0.140671 -1.344281,0.337428 -2.00031,0.561255 -0.583825,0.214953 -1.162275,0.444453 -1.742464,0.669163 -0.491551,0.192918 -0.978831,0.39497 -1.473375,0.580192 -0.326736,0.124216 -0.656037,0.242691 -0.970039,0.397044 -0.200419,0.102722 -0.389104,0.2242 -0.592336,0.321477 -0.255788,0.141933 -0.511707,0.284022 -0.760852,0.437449 -0.202289,0.140163 -0.416864,0.260138 -0.629258,0.38377 -0.235977,0.129352 -0.450641,0.291351 -0.661527,0.457358 -0.231064,0.203018 -0.469731,0.39469 -0.722133,0.570532 -0.29586,0.186293 -0.579919,0.388715 -0.85104,0.609285 -0.214731,0.177528 -0.411723,0.374978 -0.633577,0.543732 -0.248893,0.17975 -0.485261,0.376008 -0.717309,0.576802 -0.230648,0.211469 -0.438488,0.445011 -0.678585,0.646015 -0.21781,0.177866 -0.439054,0.351179 -0.651623,0.53535 -0.189754,0.178223 -0.372592,0.364143 -0.537888,0.565364 -0.162253,0.213956 -0.367924,0.387887 -0.558091,0.575633 -0.166608,0.161449 -0.31007,0.344175 -0.462547,0.518396 -0.183507,0.20131 -0.303233,0.447135 -0.422841,0.689065 -0.126288,0.277717 -0.253534,0.554894 -0.389173,0.82819 -0.119578,0.219737 -0.221872,0.446109 -0.289158,0.687195 -0.05892,0.232341 -0.08642,0.466521 -0.07664,0.705704 0.01646,0.30452 0.151694,0.528884 0.316103,0.774753 0.139179,0.219014 0.304157,0.414809 0.501489,0.582777 0.170897,0.144896 0.35605,0.271084 0.561464,0.360878 0.207971,0.08133 0.429967,0.120886 0.652529,0.127482 0.167055,0.01019 0.319442,-0.03531 0.473387,-0.09267 0.126995,-0.0468 0.234884,-0.13035 0.350764,-0.197834 0.07912,-0.03593 0.168859,-0.119221 0.250978,-0.144079 0.0067,-0.0021 0.01373,0.0031 0.02058,0.0047 0.124171,-0.01172 0.107587,-0.187336 -0.01659,-0.175607 v 0 c -0.02868,0.0049 -0.0582,0.0063 -0.08604,0.01476 -0.08163,0.02482 -0.178884,0.111141 -0.25832,0.148162 -0.106585,0.06312 -0.20686,0.139189 -0.322969,0.184613 -0.132982,0.04955 -0.262279,0.09168 -0.407226,0.08163 -0.200051,-0.0043 -0.39991,-0.04181 -0.587158,-0.11308 -0.190196,-0.08097 -0.359129,-0.201234 -0.517316,-0.33347 -0.185515,-0.15671 -0.338436,-0.341435 -0.469029,-0.546423 -0.14392,-0.214458 -0.272603,-0.41797 -0.286428,-0.684205 -0.01013,-0.220694 0.01696,-0.436406 0.07039,-0.650941 0.06351,-0.230555 0.163524,-0.445831 0.277191,-0.655928 0.13566,-0.273392 0.263131,-0.550574 0.3893,-0.82845 0.112768,-0.228243 0.224383,-0.461137 0.397497,-0.651114 0.149495,-0.171124 0.290465,-0.350305 0.453713,-0.509002 0.194458,-0.192151 0.404669,-0.37024 0.570513,-0.589262 0.158684,-0.193744 0.335063,-0.372033 0.51703,-0.543933 0.211802,-0.183586 0.432469,-0.356095 0.64943,-0.533482 0.240544,-0.201946 0.450432,-0.434557 0.680691,-0.647806 0.229267,-0.19845 0.462852,-0.392348 0.708832,-0.569915 0.222973,-0.170399 0.422521,-0.36757 0.637964,-0.547185 0.267668,-0.217908 0.548481,-0.417322 0.840576,-0.601398 0.255082,-0.177934 0.496961,-0.371141 0.730382,-0.576648 0.204383,-0.160991 0.412297,-0.318273 0.641162,-0.443508 0.213611,-0.124426 0.429522,-0.245031 0.63301,-0.386019 0.243848,-0.150249 0.494483,-0.289058 0.744559,-0.428559 0.203742,-0.09772 0.393512,-0.218422 0.594019,-0.322294 0.308594,-0.152133 0.632931,-0.267499 0.954002,-0.390115 0.49516,-0.185455 0.98307,-0.387692 1.475214,-0.580896 0.577964,-0.223848 1.15421,-0.452421 1.73573,-0.66671 0.649901,-0.221858 1.308693,-0.416703 1.981729,-0.556027 0.480145,-0.107077 0.958985,-0.219882 1.441336,-0.316889 0.343723,-0.05648 0.69159,-0.09636 1.040128,-0.06185 0.338809,0.03445 0.675547,0.09126 0.998651,0.202366 0.0992,0.04281 0.156842,0.06309 0.247295,0.118481 0.144188,0.08829 0.267423,0.208081 0.389631,0.323432 0.162473,0.178326 0.318447,0.36712 0.431668,0.581202 0.105608,0.230989 0.178554,0.472967 0.19459,0.728139 0.008,0.286953 -0.01953,0.567838 -0.145536,0.830527 -0.139404,0.276743 -0.304586,0.538384 -0.461383,0.805428 -0.08801,0.156136 -0.164799,0.323014 -0.282975,0.459156 -0.05553,0.08058 -0.134152,0.04407 -0.134707,0.184441 0.01339,0.03874 0.02283,0.0787 0.03189,0.118639 0.02564,0.12569 0.03308,0.253767 0.04914,0.380928 0.01712,0.205185 0.01124,0.411906 0.02923,0.617186 0.01752,0.282289 0.02721,0.564362 0.02077,0.847291 1e-5,0.402198 2e-6,0.804397 5.29e-4,1.206595 7.94e-4,0.331327 0.0019,0.662655 0.0051,0.993966 0.0028,0.366778 3.1e-5,0.733348 -0.0058,1.100037 -9e-5,0.42005 -2.65e-4,0.840102 -2.65e-4,1.260152 1.19e-4,0.420822 8e-6,0.841658 0.0049,1.262457 0.0054,0.34885 0.01492,0.697547 0.03951,1.045665 0.01926,0.363035 0.02199,0.727048 0.0588,1.089109 0.03665,0.442802 0.06571,0.886024 0.08548,1.329926 0.02191,0.444532 0.03047,0.889791 0.06736,1.333542 0.01998,0.392383 0.05169,0.783868 0.08215,1.175544 0.02755,0.358256 0.04305,0.71733 0.05698,1.076335 0.02,0.382329 0.05191,0.763974 0.06196,1.146776 0.0081,0.352065 -0.005,0.704189 -0.02141,1.055891 -0.01929,0.354373 -0.04078,0.708565 -0.05923,1.062972 -0.02471,0.351896 -0.04042,0.70422 -0.05266,1.056775 -0.0026,0.309126 -0.0042,0.618722 -0.03063,0.926946 -0.02172,0.229352 -0.04501,0.459203 -0.08205,0.68656 -0.02373,0.135694 -0.0386,0.272168 -0.04769,0.409601 -0.01003,0.126656 -1.82e-4,0.246735 0.04759,0.366297 0.04709,0.142552 0.08849,0.286988 0.138819,0.428413 0.02817,0.07749 0.0043,0.03929 0.171148,-0.02109 0.01024,-0.0037 -0.05172,-0.0462 -0.04334,-0.04946 -0.02745,-0.02426 -0.05723,-0.05399 -0.08734,-0.09124 -0.05515,-0.05813 -0.117959,-0.109958 -0.183563,-0.155757 -0.118202,-0.06788 -0.227592,-0.148828 -0.339942,-0.225761 -0.166571,-0.108014 -0.344749,-0.195948 -0.520266,-0.288298 -0.240638,-0.136819 -0.47222,-0.285975 -0.682865,-0.466977 -0.335058,-0.267332 -0.67523,-0.527751 -1.023946,-0.777118 -0.342453,-0.251711 -0.673923,-0.518115 -1.022585,-0.761222 -0.28506,-0.192294 -0.571656,-0.38367 -0.839195,-0.600141 -0.272063,-0.221268 -0.545468,-0.44133 -0.834935,-0.639781 -0.332547,-0.232143 -0.657236,-0.474943 -0.971672,-0.731208 -0.30629,-0.234511 -0.625872,-0.44754 -0.952812,-0.652013 -0.303705,-0.224451 -0.609867,-0.44565 -0.927653,-0.64997 -0.376124,-0.250965 -0.745146,-0.51132 -1.110962,-0.777039 -0.367151,-0.258482 -0.743455,-0.504642 -1.096145,-0.78288 -0.313753,-0.236461 -0.638706,-0.455999 -0.972039,-0.664049 -0.321874,-0.208415 -0.623663,-0.444058 -0.933048,-0.670319 -0.320074,-0.233183 -0.635939,-0.472676 -0.937252,-0.729795 -0.228679,-0.189116 -0.465727,-0.367327 -0.705779,-0.541737 -0.192317,-0.140343 -0.368405,-0.298665 -0.532098,-0.471768 -0.170291,-0.170696 -0.336423,-0.345234 -0.503684,-0.5188 -0.183814,-0.178816 -0.38503,-0.336939 -0.5723,-0.511961 -0.197617,-0.192982 -0.397139,-0.384302 -0.608242,-0.562645 -0.185833,-0.154225 -0.371642,-0.316433 -0.590428,-0.422261 -0.116785,-0.04379 -0.178719,0.121364 -0.06193,0.165158 z" /></g><path
           style="fill:none;stroke:#000000;stroke-width:0.3;stroke-dasharray:none;stroke-opacity:1"
           id="path30"
           d="m -88.053023,51.792978 c 0.05617,-0.109384 0.118801,-0.215104 0.172699,-0.325628 0.05879,-0.12396 0.132025,-0.239929 0.202314,-0.357468 0.08602,-0.137668 0.201845,-0.249198 0.327639,-0.34984 0.16252,-0.12737 0.310303,-0.270068 0.447026,-0.424468 0.117534,-0.14404 0.244721,-0.278652 0.378156,-0.407866 0.149532,-0.133837 0.318357,-0.242337 0.471517,-0.37211 0.145521,-0.132078 0.283665,-0.272272 0.423632,-0.41025 0.115141,-0.121108 0.241575,-0.229859 0.369501,-0.336986 0.166918,-0.122926 0.319196,-0.262824 0.472935,-0.401421 0.187857,-0.179287 0.390051,-0.341058 0.595892,-0.498819 0.17743,-0.133636 0.356531,-0.265173 0.540848,-0.389191 0.16306,-0.11185 0.326252,-0.223428 0.486497,-0.339313 0.203724,-0.146013 0.403067,-0.298079 0.601694,-0.450916 0.210381,-0.157078 0.443085,-0.280244 0.663213,-0.42264 0.206433,-0.133593 0.397378,-0.289155 0.600496,-0.427373 0.200345,-0.116798 0.403598,-0.228407 0.604189,-0.344935 0.173874,-0.108156 0.35641,-0.200176 0.537784,-0.294698 0.19826,-0.106495 0.387416,-0.228735 0.582636,-0.340609 0.187241,-0.110966 0.376648,-0.217099 0.575263,-0.306337 0.191024,-0.07992 0.379433,-0.16586 0.567518,-0.252426 0.156855,-0.073 0.312885,-0.147823 0.466365,-0.22769 0.210759,-0.116932 0.417187,-0.240861 0.632833,-0.34876 0.272084,-0.138211 0.558628,-0.244285 0.842978,-0.353936 0.241316,-0.103201 0.490646,-0.182187 0.747562,-0.234762 0.194847,-0.03508 0.386532,-0.08497 0.579792,-0.127344 0.185812,-0.04443 0.375957,-0.06553 0.563986,-0.09799 0.17159,-0.02402 0.341262,-0.05851 0.511831,-0.08854 0.153993,-0.03453 0.310036,-0.05333 0.467307,-0.06329 0.138957,-0.0062 0.277712,-0.0053 0.416319,-0.01749 0.127683,-0.01169 0.25571,-0.01839 0.383858,-0.02169 0.142242,-0.0024 0.284514,-0.0024 0.426773,-0.0024 0.117305,4.3e-5 0.234611,1.41e-4 0.351917,1.93e-4 0.08736,-0.006 0.17304,0.0088 0.259133,0.02058 0.06252,0.004 0.123113,0.01291 0.1837,0.02855 0.05649,0.01431 0.111278,0.0329 0.168844,0.04287 0.02891,0.0065 0.06642,-0.003 0.08576,0.02326 0,0 1.38e-4,-1.1e-5 1.38e-4,-1.1e-5 v 0 c -0.01926,-0.02627 -0.05679,-0.01683 -0.08568,-0.02328 -0.05756,-0.01 -0.112347,-0.02856 -0.168841,-0.04287 -0.06059,-0.01564 -0.121179,-0.02455 -0.183703,-0.02855 -0.0861,-0.01177 -0.17178,-0.02658 -0.259135,-0.02058 -0.117449,-5e-5 -0.2349,-1.5e-4 -0.352349,-1.93e-4 -0.142258,1.9e-5 -0.284532,-2.11e-4 -0.426775,0.0024 -0.128148,0.0033 -0.256172,0.01 -0.383855,0.0217 -0.138607,0.01222 -0.277363,0.01127 -0.416319,0.01749 -0.157271,0.01 -0.313314,0.02877 -0.467305,0.0633 -0.170569,0.03003 -0.340241,0.0645 -0.511831,0.08854 -0.188029,0.03246 -0.378174,0.05356 -0.563986,0.09799 -0.193259,0.04237 -0.384945,0.09226 -0.579789,0.127344 -0.256913,0.05258 -0.506243,0.131567 -0.747556,0.234765 -0.284351,0.109654 -0.570897,0.215728 -0.842979,0.353939 -0.215643,0.107902 -0.422071,0.231833 -0.63283,0.348763 -0.15348,0.07986 -0.309507,0.154691 -0.466363,0.22769 -0.188084,0.08657 -0.376494,0.172505 -0.567518,0.252425 -0.198614,0.08924 -0.388022,0.195374 -0.575262,0.306338 -0.19522,0.111876 -0.384373,0.234116 -0.582636,0.340608 -0.181375,0.09452 -0.363911,0.186542 -0.537782,0.294698 -0.200594,0.116528 -0.403847,0.228135 -0.604186,0.344935 -0.203118,0.138221 -0.394066,0.293783 -0.600496,0.427376 -0.220128,0.142394 -0.452829,0.26556 -0.66321,0.422643 -0.198628,0.152837 -0.397968,0.304901 -0.601689,0.450914 -0.160247,0.115884 -0.32344,0.227459 -0.4865,0.339312 -0.184314,0.124018 -0.363413,0.255556 -0.540843,0.389194 -0.20584,0.15776 -0.408032,0.319535 -0.595892,0.498819 -0.153738,0.138597 -0.306017,0.278495 -0.472934,0.40142 -0.127926,0.107128 -0.254358,0.215879 -0.369499,0.336987 -0.139964,0.13798 -0.278109,0.278172 -0.423632,0.41025 -0.153157,0.129775 -0.321985,0.238273 -0.471517,0.37211 -0.133434,0.129214 -0.26062,0.263829 -0.37815,0.407868 -0.136726,0.1544 -0.284507,0.297098 -0.44703,0.424466 -0.125793,0.100645 -0.241622,0.212177 -0.327638,0.349845 -0.07029,0.117541 -0.143526,0.233508 -0.202314,0.357471 -0.0539,0.110524 -0.116523,0.216246 -0.172702,0.325628 z" /><path
           style="fill:none;stroke:#000000;stroke-width:0.3;stroke-dasharray:none;stroke-opacity:1"
           id="path31"
           d="m -87.867341,51.271894 c -0.194868,-0.04911 -0.377404,-0.133879 -0.55881,-0.21822 0,0 -1.03e-4,1.3e-5 -1.03e-4,1.3e-5 v 0 c 0.181345,0.08439 0.363833,0.169151 0.558673,0.218242 z" /><path
           style="fill:none;stroke:#000000;stroke-width:0.3;stroke-dasharray:none;stroke-opacity:1"
           id="path32"
           d="m -83.818115,47.61957 c -0.24515,-0.06475 -0.481431,-0.158218 -0.715238,-0.255315 -0.26861,-0.09702 -0.506357,-0.248301 -0.741394,-0.407088 0,0 -9.2e-5,1.1e-5 -9.2e-5,1.1e-5 v 0 c 0.234981,0.158832 0.472696,0.310094 0.741288,0.407101 0.233804,0.0971 0.47008,0.190561 0.715227,0.255318 z" /><path
           style="fill:none;stroke:#000000;stroke-width:0.3;stroke-dasharray:none;stroke-opacity:1"
           id="path33"
           d="m -79.893013,44.89338 c -0.255411,-0.269777 -0.457039,-0.582369 -0.668809,-0.885827 0,0 -1.08e-4,8e-6 -1.08e-4,8e-6 v 0 c 0.211701,0.303482 0.413289,0.616074 0.668694,0.885835 z" /><path
           style="fill:none;stroke:#000000;stroke-width:0.3;stroke-dasharray:none;stroke-opacity:1"
           id="path34"
           d="m -74.767899,42.962165 c 0.05435,-0.267702 0.110775,-0.534556 0.15241,-0.804613 0.0054,-0.0718 0.01087,-0.143598 0.0163,-0.215398 0,0 -4.2e-5,0 -4.2e-5,0 v 0 c -0.0055,0.0718 -0.01095,0.143598 -0.01643,0.215395 -0.04164,0.270057 -0.09806,0.536911 -0.152406,0.804614 z" /><path
           style="fill:none;stroke:#000000;stroke-width:0.3;stroke-dasharray:none;stroke-opacity:1"
           id="path35"
           d="m -82.87731,47.208961 c -0.130953,0.09497 -0.251751,0.202141 -0.370266,0.311996 -0.109643,0.111213 -0.216479,0.225399 -0.313084,0.348184 -0.08,0.102804 -0.15214,0.212714 -0.210716,0.329134 -0.05874,0.130154 -0.131543,0.253243 -0.195485,0.380836 -0.07465,0.140882 -0.157975,0.276312 -0.215022,0.425656 -0.06353,0.162899 -0.10019,0.333327 -0.130336,0.504963 -0.03964,0.173961 -0.04254,0.351681 -0.03323,0.528841 0.0081,0.17871 0.03522,0.355896 0.06774,0.53159 0.03173,0.18039 0.101364,0.349025 0.178146,0.514101 0.0872,0.183507 0.199393,0.353727 0.306877,0.525733 0.09133,0.148373 0.21726,0.266284 0.347819,0.379116 0.132567,0.109754 0.280921,0.19799 0.42304,0.294452 0.09294,0.05832 0.186616,0.115271 0.278521,0.175242 0.1162,0.06663 0.236495,0.125571 0.356817,0.184287 0.146069,0.06893 0.298792,0.120719 0.45194,0.171032 0.134914,0.04702 0.273934,0.07836 0.413182,0.109149 0.187719,0.04113 0.380089,0.05028 0.5715,0.05742 0.174685,0.0093 0.349051,0.003 0.520999,-0.02945 0.173273,-0.03475 0.345156,-0.07687 0.51627,-0.121091 0.171813,-0.03357 0.31926,-0.08002 0.473427,-0.162238 0.137724,-0.08228 0.267073,-0.17663 0.395211,-0.272801 0.113115,-0.07822 0.226224,-0.156422 0.330668,-0.246044 0.09366,-0.08321 0.176194,-0.177914 0.260787,-0.270116 0.08284,-0.0996 0.170508,-0.195188 0.250518,-0.297132 0.08866,-0.115938 0.143801,-0.251677 0.202801,-0.383977 0.08507,-0.195114 0.178768,-0.386236 0.264046,-0.58125 0.08603,-0.194466 0.132014,-0.401986 0.179152,-0.608208 0.03608,-0.170841 0.04759,-0.345138 0.0539,-0.519189 0.009,-0.155887 -1.45e-4,-0.311084 -0.01222,-0.466429 -0.0056,-0.165862 -0.04396,-0.32694 -0.09264,-0.484745 -0.05265,-0.170485 -0.125386,-0.332074 -0.211669,-0.487876 -0.07662,-0.137753 -0.158943,-0.272616 -0.255746,-0.39714 -0.09287,-0.110111 -0.191275,-0.216069 -0.300191,-0.310406 -0.156099,-0.134824 -0.333581,-0.241745 -0.513673,-0.340972 -0.163949,-0.09508 -0.341257,-0.160678 -0.517234,-0.228994 -0.176821,-0.07359 -0.361431,-0.122901 -0.54714,-0.167642 -0.156762,-0.03158 -0.3156,-0.06093 -0.475278,-0.07258 -0.13084,-0.01238 -0.262049,-0.01924 -0.393383,-0.02312 -0.137779,-0.0059 -0.274571,0.01643 -0.409575,0.04134 -0.149815,0.02941 -0.296706,0.07038 -0.443614,0.111379 -0.123851,0.03474 -0.243263,0.0828 -0.364566,0.125052 -0.119404,0.04177 -0.237223,0.08769 -0.352513,0.139785 -0.163512,0.08468 -0.317264,0.187574 -0.473114,0.285485 -0.04325,0.03018 -0.08649,0.06036 -0.129741,0.09054 0,0 1.42e-4,1.3e-5 1.42e-4,1.3e-5 v 0 c 0.04326,-0.03018 0.08653,-0.06035 0.129797,-0.09053 0.155885,-0.09789 0.309645,-0.200795 0.47317,-0.285478 0.11529,-0.05209 0.233111,-0.09801 0.352513,-0.139782 0.121301,-0.04226 0.240715,-0.09031 0.364566,-0.125053 0.146905,-0.041 0.293796,-0.08197 0.443611,-0.111376 0.134837,-0.02484 0.271466,-0.04717 0.40907,-0.04133 0.131334,0.0039 0.262543,0.01074 0.39338,0.02312 0.159681,0.01164 0.318521,0.041 0.475284,0.07258 0.185709,0.04474 0.370316,0.09404 0.547137,0.167637 0.17598,0.06832 0.35329,0.133909 0.51724,0.228992 0.180091,0.09922 0.357571,0.206142 0.51367,0.340966 0.108915,0.09433 0.207327,0.200292 0.300193,0.310401 0.09681,0.124524 0.179128,0.259384 0.255752,0.397137 0.08628,0.1558 0.159022,0.317386 0.211672,0.48787 0.04868,0.157803 0.08707,0.318879 0.09264,0.484741 0.01209,0.155342 0.02122,0.310539 0.01222,0.466426 -0.0063,0.174048 -0.01781,0.348345 -0.05389,0.519184 -0.04713,0.206219 -0.09311,0.413739 -0.179139,0.608206 -0.08528,0.195011 -0.178978,0.386132 -0.264046,0.581247 -0.059,0.132299 -0.114139,0.268036 -0.202798,0.383971 -0.08001,0.101944 -0.16768,0.197533 -0.250516,0.297132 -0.08459,0.0922 -0.167129,0.186905 -0.260781,0.270114 -0.104444,0.08962 -0.217554,0.167825 -0.33066,0.246044 -0.128138,0.09617 -0.257488,0.190521 -0.395208,0.272798 -0.154165,0.08221 -0.301607,0.128662 -0.473417,0.162235 -0.171114,0.04422 -0.342998,0.08634 -0.516271,0.121089 -0.171828,0.03242 -0.346072,0.03877 -0.520641,0.02945 -0.191411,-0.0071 -0.383781,-0.0163 -0.571498,-0.05742 -0.139247,-0.03078 -0.27827,-0.06213 -0.413181,-0.109149 -0.153151,-0.05031 -0.305874,-0.1021 -0.451943,-0.171029 -0.120324,-0.05872 -0.240617,-0.117658 -0.356817,-0.184285 -0.09191,-0.05997 -0.185581,-0.116919 -0.278527,-0.175239 -0.142121,-0.09646 -0.290475,-0.184697 -0.423045,-0.294452 -0.130558,-0.112829 -0.256489,-0.230738 -0.347824,-0.379108 -0.107487,-0.172006 -0.219678,-0.342225 -0.306884,-0.52573 -0.07678,-0.165076 -0.146413,-0.333711 -0.178147,-0.514099 -0.03252,-0.175693 -0.05963,-0.35288 -0.06775,-0.531587 -0.0093,-0.17716 -0.0064,-0.35488 0.03323,-0.528839 0.03015,-0.171635 0.06681,-0.342064 0.130339,-0.50496 0.05705,-0.149344 0.140369,-0.284773 0.215021,-0.425653 0.06394,-0.127593 0.136748,-0.250685 0.195488,-0.380839 0.05857,-0.116417 0.130715,-0.226327 0.210714,-0.329131 0.09661,-0.12278 0.203438,-0.236969 0.313081,-0.348181 0.118515,-0.109855 0.239313,-0.21703 0.370266,-0.311997 z" /><path
           style="fill:none;stroke:#000000;stroke-width:0.3;stroke-dasharray:none;stroke-opacity:1"
           id="path36"
           d="m -82.608631,48.871494 c -0.111122,0.03948 -0.191068,0.125976 -0.271621,0.207976 -0.0786,0.08029 -0.142063,0.16792 -0.187698,0.270242 -0.04479,0.09229 -0.03852,0.190455 -0.03472,0.289859 0.0044,0.115475 0.02727,0.229894 0.05825,0.34095 0.03818,0.158467 0.124714,0.295119 0.215673,0.427805 0.0822,0.111715 0.190978,0.170289 0.327223,0.181853 0.128572,-0.01146 0.23641,-0.07867 0.333026,-0.159445 0.100663,-0.09766 0.147071,-0.224666 0.176995,-0.358349 0.03812,-0.131038 0.03163,-0.26193 7.94e-4,-0.393079 -0.03672,-0.133111 -0.105087,-0.252362 -0.181941,-0.36573 -0.07401,-0.114229 -0.162356,-0.21861 -0.270361,-0.301578 -0.166106,-0.07986 -0.295892,-0.02225 -0.454454,0.04407 0,0 1.16e-4,1.6e-5 1.16e-4,1.6e-5 v 0 c 0.158518,-0.06628 0.288042,-0.123897 0.454099,-0.04407 0.108011,0.08296 0.196361,0.187341 0.27037,0.30157 0.07685,0.113368 0.145222,0.232613 0.181944,0.365723 0.03088,0.131146 0.03739,0.26203 -7.94e-4,0.393067 -0.02993,0.133678 -0.07633,0.260676 -0.176985,0.358336 -0.09651,0.0807 -0.204235,0.147852 -0.33265,0.159435 -0.136245,-0.01156 -0.245026,-0.07012 -0.327229,-0.181835 -0.09096,-0.132683 -0.177493,-0.269332 -0.21568,-0.427799 -0.03098,-0.111054 -0.05385,-0.22547 -0.05825,-0.340945 -0.0038,-0.0994 -0.01008,-0.197561 0.03471,-0.289851 0.04564,-0.102319 0.109098,-0.189952 0.187695,-0.27024 0.08055,-0.082 0.160499,-0.168492 0.271624,-0.207968 z" /><path
           style="fill:none;stroke:#000000;stroke-width:0.3;stroke-dasharray:none;stroke-opacity:1"
           id="path37"
           d="m -80.562722,47.695921 c -0.12011,-0.01077 -0.231288,0.02779 -0.334277,0.08602 -0.09805,0.08363 -0.145558,0.205227 -0.182657,0.325295 -0.04028,0.128116 -0.02048,0.252214 0.01471,0.378269 0.04088,0.150321 0.129479,0.272508 0.246309,0.372629 0.116181,0.07656 0.227507,0.08425 0.358481,0.04859 0.09546,-0.03919 0.181065,-0.10691 0.221967,-0.20447 0.01064,-0.02535 0.01675,-0.05237 0.02511,-0.07856 0.04293,-0.17926 0.01897,-0.357457 -0.01953,-0.534479 -0.0308,-0.09634 -0.07195,-0.216115 -0.17847,-0.254045 -0.08675,-0.03089 -0.171018,-0.01892 -0.260254,-0.01598 0,0 9.8e-5,1.6e-5 9.8e-5,1.6e-5 v 0 c 0.08919,-0.0029 0.173238,-0.0149 0.259934,0.01598 0.106513,0.03794 0.147677,0.157686 0.178478,0.254029 0.0385,0.177017 0.06247,0.355211 0.01955,0.534469 -0.0084,0.02619 -0.01447,0.0532 -0.02511,0.07855 -0.04089,0.09755 -0.126494,0.165269 -0.221948,0.204457 -0.130876,0.03563 -0.242028,0.02794 -0.358135,-0.04858 -0.116832,-0.100116 -0.205438,-0.222298 -0.246314,-0.372616 -0.03519,-0.126052 -0.055,-0.250147 -0.01471,-0.378261 0.0371,-0.120065 0.0846,-0.241663 0.182657,-0.325284 0.102883,-0.05817 0.213969,-0.09675 0.333952,-0.08601 z" /><path
           style="fill:none;stroke:#000000;stroke-width:0.3;stroke-dasharray:none;stroke-opacity:1"
           id="path38"
           d="m -78.956132,49.797625 c -0.113392,-0.0666 -0.243493,-0.08609 -0.372975,-0.08521 -0.114308,0.0064 -0.201073,0.04157 -0.293574,0.105148 -0.100856,0.0565 -0.173442,0.14455 -0.241276,0.235767 -0.06327,0.09368 -0.08209,0.202756 -0.08318,0.313667 0.0094,0.143986 0.08119,0.268456 0.168101,0.379552 0.07651,0.08837 0.169487,0.153636 0.292163,0.129678 0.0245,-0.0048 0.0475,-0.01535 0.07125,-0.02302 0.157266,-0.06141 0.229113,-0.192961 0.281929,-0.344305 0.04844,-0.180231 0.04893,-0.372258 0.0031,-0.553585 -0.0091,-0.03612 -0.02392,-0.07058 -0.03587,-0.105868 -0.01974,-0.0245 -0.03948,-0.049 -0.05922,-0.0735 0,0 -1.14e-4,8e-6 -1.14e-4,8e-6 v 0 c 0.01971,0.0245 0.03942,0.049 0.05913,0.07349 0.01196,0.03529 0.02673,0.06975 0.03587,0.105867 0.04586,0.181325 0.0454,0.373341 -0.003,0.553575 -0.05281,0.151336 -0.124658,0.282887 -0.281918,0.344286 -0.02376,0.0077 -0.04675,0.0182 -0.07125,0.02302 -0.122508,0.02397 -0.215411,-0.04147 -0.291801,-0.129662 -0.08692,-0.111093 -0.158748,-0.235558 -0.168101,-0.379542 0.0011,-0.110905 0.01992,-0.219985 0.08318,-0.313653 0.06784,-0.09122 0.140425,-0.179263 0.241281,-0.235762 0.0925,-0.06357 0.179268,-0.09872 0.293574,-0.105138 0.129352,-7.93e-4 0.259326,0.01871 0.372602,0.0852 z" /><path
           style="fill:none;stroke:#000000;stroke-width:0.3;stroke-dasharray:none;stroke-opacity:1"
           id="path39"
           d="m -80.470054,51.79705 c -0.02714,-0.110024 -0.08955,-0.191892 -0.187359,-0.247264 -0.128974,-0.04981 -0.253087,-0.0078 -0.368459,0.05448 -0.119814,0.08842 -0.161351,0.165777 -0.172588,0.311835 0.0078,0.148759 0.09664,0.261091 0.202486,0.35715 0.110392,0.06647 0.21445,0.07299 0.328798,0.01561 0.141938,-0.105966 0.145735,-0.249492 0.133535,-0.413896 -0.03671,-0.122251 -0.01183,-0.06623 -0.07195,-0.169243 0,0 -1.08e-4,8e-6 -1.08e-4,8e-6 v 0 c 0.06006,0.10301 0.03521,0.04699 0.07182,0.169235 0.0122,0.164386 0.0084,0.307922 -0.133499,0.413875 -0.114278,0.05734 -0.218074,0.05084 -0.328414,-0.01558 -0.105846,-0.09605 -0.194722,-0.208378 -0.202485,-0.357135 0.01125,-0.146053 0.05277,-0.223401 0.172588,-0.311814 0.115265,-0.06222 0.239212,-0.104254 0.368072,-0.05448 0.09782,0.05537 0.160224,0.137231 0.187378,0.247248 z" /><path
           style="fill:none;stroke:#000000;stroke-width:0.3;stroke-dasharray:none;stroke-opacity:1"
           id="path40"
           d="m -80.984274,50.227163 c -0.08582,0.01979 -0.176456,0.03792 -0.25033,0.08928 -0.04593,0.03193 -0.0611,0.05587 -0.09591,0.0979 -0.07102,0.10268 -0.08772,0.20111 -0.04665,0.318347 0.0401,0.08532 0.11108,0.131151 0.194688,0.166645 0.09575,0.04031 0.194609,0.02424 0.291946,-7.94e-4 0.112279,-0.03573 0.175432,-0.09228 0.213569,-0.203821 0.0185,-0.129866 -0.0431,-0.243851 -0.135194,-0.333926 -0.02413,-0.0236 -0.05302,-0.0418 -0.07953,-0.0627 -0.03436,-0.0053 -0.06873,-0.01056 -0.103089,-0.01585 0,0 -1.14e-4,1.6e-5 -1.14e-4,1.6e-5 v 0 c 0.03432,0.0053 0.06865,0.01058 0.102976,0.01585 0.02651,0.0209 0.05539,0.0391 0.07952,0.0627 0.09209,0.09007 0.153697,0.204044 0.135218,0.333901 -0.03813,0.111536 -0.101264,0.168082 -0.21354,0.203806 -0.09724,0.02498 -0.195945,0.04105 -0.2916,7.94e-4 -0.0836,-0.03549 -0.154585,-0.08132 -0.194688,-0.166629 -0.04107,-0.117232 -0.02437,-0.215654 0.04665,-0.318331 0.03482,-0.04203 0.04999,-0.06596 0.09591,-0.09789 0.07388,-0.05136 0.164515,-0.06949 0.250335,-0.08928 z" /><path
           style="fill:none;stroke:#000000;stroke-width:0.3;stroke-dasharray:none;stroke-opacity:1"
           id="path41"
           d="m -71.565499,43.165254 c -0.120992,0.0071 -0.241054,0.02162 -0.359468,0.04744 -0.12423,0.03226 -0.232135,0.103624 -0.33904,0.171945 -0.149593,0.09017 -0.273132,0.207193 -0.379963,0.344191 -0.116562,0.1567 -0.201538,0.334868 -0.288398,0.509231 -0.06853,0.13553 -0.133697,0.271311 -0.17149,0.418772 -0.04228,0.166166 -0.05222,0.338232 -0.06066,0.50882 -0.0024,0.14166 0.01672,0.282374 0.04669,0.42051 0.03129,0.135554 0.10477,0.253603 0.182899,0.36666 0.07584,0.09573 0.157419,0.191142 0.250438,0.271023 0.05674,0.04872 0.105183,0.07779 0.167519,0.118901 0.164134,0.105481 0.342148,0.186539 0.519213,0.267438 0.11902,0.05492 0.24479,0.08933 0.370192,0.125296 0.05376,0.0177 0.108214,0.03274 0.164173,0.04135 0,0 1.25e-4,-1.8e-5 1.25e-4,-1.8e-5 v 0 c -0.05593,-0.0087 -0.110361,-0.02368 -0.164095,-0.04136 -0.125404,-0.03597 -0.251174,-0.07037 -0.370197,-0.125294 -0.177067,-0.0809 -0.355081,-0.161954 -0.519218,-0.267433 -0.06233,-0.04111 -0.110779,-0.07017 -0.167516,-0.118895 -0.09302,-0.07988 -0.174601,-0.175297 -0.250438,-0.271024 -0.07813,-0.113054 -0.151609,-0.231097 -0.182904,-0.366651 -0.02996,-0.138131 -0.04919,-0.278845 -0.04669,-0.420503 0.0084,-0.170587 0.01839,-0.342654 0.06066,-0.508817 0.03779,-0.14746 0.102962,-0.283239 0.171487,-0.418769 0.08686,-0.174361 0.171836,-0.352531 0.288401,-0.509225 0.106833,-0.136999 0.230375,-0.254014 0.379968,-0.344186 0.106905,-0.06832 0.21481,-0.139677 0.33904,-0.171937 0.11829,-0.0258 0.23822,-0.04029 0.359084,-0.04743 z" /><path
           style="fill:none;stroke:#000000;stroke-width:0.3;stroke-dasharray:none;stroke-opacity:1"
           id="path42"
           d="m -71.796017,44.921929 c -0.111599,-0.07122 -0.237112,-0.0938 -0.367067,-0.09919 -0.132414,-0.0079 -0.22931,0.02747 -0.327621,0.114438 -0.07919,0.108728 -0.09157,0.234474 -0.06855,0.363104 0.03275,0.114657 0.111091,0.202631 0.198297,0.280191 0.06717,0.05279 0.144457,0.09152 0.230309,0.09683 0.07268,0.0019 0.133747,-0.03071 0.190998,-0.07189 0.08179,-0.06674 0.113228,-0.165425 0.146399,-0.261434 0.02381,-0.0808 0.04508,-0.173644 0.01135,-0.255292 -0.0081,-0.0196 -0.02019,-0.03732 -0.03029,-0.05598 -0.0493,-0.06664 -0.113115,-0.10768 -0.184896,-0.145431 0,0 -1.22e-4,1.6e-5 -1.22e-4,1.6e-5 v 0 c 0.07172,0.03777 0.135517,0.07884 0.18479,0.145425 0.01011,0.01865 0.0222,0.03637 0.03029,0.05598 0.03375,0.08165 0.01252,0.174482 -0.01132,0.25528 -0.03317,0.09601 -0.06461,0.194686 -0.146394,0.261422 -0.05713,0.04109 -0.118107,0.07357 -0.190627,0.07188 -0.08585,-0.0053 -0.163144,-0.04403 -0.230314,-0.09682 -0.08721,-0.07755 -0.165547,-0.165526 -0.1983,-0.280178 -0.02302,-0.128625 -0.01064,-0.254368 0.06856,-0.363088 0.09818,-0.08684 0.195001,-0.122295 0.327253,-0.114424 0.129955,0.0054 0.255468,0.02797 0.367069,0.09918 z" /><path
           style="fill:none;stroke:#000000;stroke-width:0.3;stroke-dasharray:none;stroke-opacity:1"
           id="path43"
           d="m -71.301069,48.863334 c -0.136814,0.0094 -0.272061,0.0323 -0.408345,0.04672 -0.149921,0.0072 -0.296336,0.04127 -0.442659,0.07212 -0.139004,0.02228 -0.271544,0.07004 -0.402687,0.119573 -0.17303,0.05667 -0.330481,0.147492 -0.491863,0.229743 -0.185667,0.09623 -0.377434,0.179928 -0.563936,0.274347 -0.198422,0.09836 -0.379857,0.220895 -0.541031,0.372388 -0.126219,0.137869 -0.247919,0.280397 -0.361582,0.428839 -0.118102,0.14745 -0.19476,0.3194 -0.272584,0.489924 -0.07107,0.159623 -0.122031,0.327112 -0.160158,0.497366 -0.03264,0.159941 -0.04669,0.322302 -0.05608,0.484984 -0.0122,0.158054 -0.01492,0.316069 -0.01347,0.474533 0.0031,0.178022 0.06174,0.345956 0.125979,0.50978 0.08524,0.224388 0.203229,0.433179 0.317468,0.643475 0.100619,0.188902 0.223311,0.363961 0.347263,0.537906 0.114234,0.160565 0.25295,0.296905 0.409184,0.415856 0.160123,0.117435 0.339135,0.204253 0.508674,0.306459 0.128535,0.07813 0.262721,0.144828 0.398108,0.209915 0.122378,0.06367 0.25404,0.105759 0.383985,0.150746 0.114329,0.03442 0.229579,0.06675 0.346879,0.08943 0.09614,0.02432 0.19409,0.03828 0.292799,0.0461 0.08567,0.0058 0.171563,0.006 0.257386,0.0062 0.08928,-10e-6 0.178567,-2.19e-4 0.267851,-2.64e-4 0.06552,-0.0053 0.129744,-0.01984 0.194911,-0.02804 0.02895,-0.0037 0.05802,-0.0057 0.08718,-0.0063 0.0026,-2.9e-5 0.0051,-5.6e-5 0.0076,-8.5e-5 0,0 -2.22e-4,-3.4e-5 -2.22e-4,-3.4e-5 v 0 c -0.0026,2.9e-5 -0.0051,5.5e-5 -0.0076,8.4e-5 -0.02916,5.3e-4 -0.05823,0.0026 -0.08717,0.0063 -0.06516,0.0082 -0.129386,0.02275 -0.194908,0.02803 -0.08914,1.06e-4 -0.178286,2.65e-4 -0.267432,2.65e-4 -0.08582,-1.96e-4 -0.17172,-2.65e-4 -0.257387,-0.0062 -0.09871,-0.0078 -0.196662,-0.02178 -0.292799,-0.0461 -0.117303,-0.02267 -0.232552,-0.055 -0.346884,-0.08942 -0.129945,-0.04499 -0.261607,-0.08707 -0.383987,-0.150743 -0.13539,-0.06509 -0.269576,-0.131784 -0.398114,-0.209913 -0.169537,-0.102203 -0.348551,-0.189021 -0.508674,-0.306456 -0.156237,-0.118949 -0.29495,-0.255286 -0.409186,-0.415851 -0.123955,-0.173942 -0.246653,-0.348999 -0.347271,-0.537901 -0.114242,-0.210296 -0.23223,-0.419084 -0.317468,-0.643474 -0.06424,-0.16382 -0.122857,-0.331753 -0.125977,-0.509773 -0.0016,-0.158464 0.0013,-0.316476 0.01347,-0.474533 0.0094,-0.162679 0.02344,-0.32504 0.05609,-0.484981 0.03812,-0.170251 0.08908,-0.337741 0.160152,-0.497361 0.07783,-0.170521 0.154485,-0.342471 0.272584,-0.489921 0.113663,-0.148439 0.235363,-0.290965 0.361583,-0.428834 0.161173,-0.15149 0.342609,-0.274021 0.54103,-0.372383 0.186502,-0.09442 0.378267,-0.178117 0.56393,-0.274349 0.161386,-0.08225 0.318837,-0.173074 0.491869,-0.22974 0.131141,-0.04953 0.263681,-0.09729 0.402685,-0.119568 0.14632,-0.03086 0.292732,-0.06487 0.442656,-0.07212 0.136279,-0.01442 0.271521,-0.03732 0.408331,-0.04672 z" /><path
           style="fill:none;stroke:#000000;stroke-width:0.3;stroke-dasharray:none;stroke-opacity:1"
           id="path44"
           d="m -71.527328,50.138583 c -0.103259,-0.06428 -0.214238,-0.114927 -0.325805,-0.162888 -0.08625,-0.03523 -0.172715,-0.05443 -0.265435,-0.04815 -0.08739,0.0092 -0.151321,0.05798 -0.216088,0.112871 -0.08749,0.07977 -0.132281,0.186148 -0.166902,0.296701 -0.04331,0.146117 -0.05165,0.294982 -0.02384,0.44426 0.02698,0.115014 0.08961,0.211002 0.162126,0.301678 0.0378,0.05725 0.09258,0.08193 0.15557,0.101576 0.07372,0.02 0.144378,0.04158 0.221234,0.04136 0.07859,-0.0089 0.144118,-0.05682 0.204777,-0.104269 0.06737,-0.05717 0.127034,-0.119875 0.172871,-0.19539 0.06309,-0.131471 0.08589,-0.272825 0.09273,-0.41706 -0.01101,-0.158684 -0.0028,-0.07757 -0.0254,-0.243247 0,0 -7.7e-5,0 -7.7e-5,0 v 0 c 0.02244,0.165679 0.01429,0.08457 0.02524,0.243247 -0.0068,0.144233 -0.02963,0.285581 -0.09272,0.41705 -0.04584,0.07551 -0.1055,0.138213 -0.172868,0.195381 -0.06066,0.04745 -0.126183,0.09538 -0.204769,0.104257 -0.07672,2.22e-4 -0.147249,-0.02143 -0.22084,-0.04135 -0.06299,-0.01963 -0.117774,-0.04432 -0.155572,-0.101563 -0.07252,-0.09067 -0.135155,-0.186655 -0.162137,-0.301667 -0.02781,-0.149275 -0.01947,-0.298138 0.02384,-0.444251 0.03462,-0.110554 0.07942,-0.216927 0.166907,-0.296691 0.06477,-0.05489 0.128699,-0.103701 0.216091,-0.112858 0.09258,-0.0063 0.178937,0.01304 0.265054,0.04815 0.111569,0.04796 0.222552,0.0986 0.32581,0.162886 z" /><path
           style="fill:none;stroke:#000000;stroke-width:0.3;stroke-dasharray:none;stroke-opacity:1"
           id="path45"
           d="m -72.810739,52.755807 c -0.07009,-0.0979 -0.178983,-0.148055 -0.290854,-0.181803 -0.09902,-0.02619 -0.203042,-0.02106 -0.303295,-0.0049 -0.08659,0.01442 -0.169801,0.02937 -0.239916,0.08433 -0.09627,0.09195 -0.121264,0.211672 -0.128265,0.339508 0.0043,0.192297 0.05703,0.377741 0.139737,0.550167 0.07147,0.123809 0.1635,0.240818 0.292979,0.307721 0.02431,0.01257 0.05042,0.02141 0.07563,0.03209 0.116384,0.03296 0.239942,0.04577 0.353049,-0.0033 0.08895,-0.05128 0.10029,-0.157308 0.110969,-0.250158 0.0019,-0.158379 -0.0097,-0.318545 -0.0598,-0.46991 -0.01254,-0.03793 -0.02896,-0.07447 -0.04344,-0.111713 -0.06132,-0.139993 -0.152003,-0.183195 -0.281328,-0.247663 0,0 -8e-5,8e-6 -8e-5,8e-6 v 0 c 0.129286,0.06448 0.219861,0.107717 0.281178,0.247663 0.01447,0.03724 0.0309,0.07378 0.04345,0.11171 0.05007,0.15136 0.06172,0.311526 0.05982,0.469903 -0.01066,0.09284 -0.02201,0.19886 -0.110958,0.250137 -0.113007,0.04896 -0.236379,0.0362 -0.352669,0.0033 -0.02522,-0.01069 -0.05129,-0.01953 -0.07562,-0.03209 -0.129482,-0.0669 -0.221509,-0.183904 -0.292986,-0.30771 -0.08271,-0.172424 -0.135412,-0.357862 -0.13974,-0.550156 0.007,-0.127834 0.032,-0.247552 0.128267,-0.339495 0.07012,-0.05495 0.153329,-0.0699 0.239919,-0.08432 0.10014,-0.01614 0.204034,-0.02127 0.302937,0.0049 0.111872,0.03374 0.220769,0.0839 0.29086,0.18179 z" /><path
           style="fill:none;stroke:#000000;stroke-width:0.3;stroke-dasharray:none;stroke-opacity:1"
           id="path46"
           d="m -71.322757,52.768036 c -0.0932,-0.03957 -0.18846,-0.06928 -0.289917,-0.05495 -0.133321,0.05448 -0.222446,0.170148 -0.300199,0.286329 -0.0823,0.12137 -0.112943,0.259498 -0.119608,0.403664 0.0034,0.155115 0.04557,0.305202 0.119079,0.441172 0.04927,0.08639 0.120541,0.1393 0.216214,0.161615 0.0923,0.01421 0.182925,0.01365 0.269232,-0.02365 0.09935,-0.06638 0.122809,-0.186976 0.15412,-0.2944 0,0 -9.8e-5,-2e-6 -9.8e-5,-2e-6 v 0 c -0.03139,0.107381 -0.0549,0.228004 -0.154223,0.29438 -0.0862,0.03724 -0.176646,0.03787 -0.26884,0.02363 -0.09567,-0.0223 -0.166942,-0.07522 -0.216218,-0.1616 -0.07351,-0.135964 -0.11567,-0.286049 -0.119083,-0.441161 0.0067,-0.144163 0.03731,-0.282286 0.119605,-0.403654 0.07775,-0.116175 0.166872,-0.231851 0.300198,-0.286313 0.101307,-0.01442 0.196493,0.0155 0.28956,0.05494 z" /><path
           style="fill:none;stroke:#000000;stroke-width:0.3;stroke-dasharray:none;stroke-opacity:1"
           id="path47"
           d="m -73.641267,50.824577 c -0.13031,-0.03031 -0.23006,0.0027 -0.334295,0.08099 -0.0999,0.09046 -0.15739,0.209164 -0.181258,0.339939 -0.01008,0.124114 0.04877,0.230995 0.141176,0.309386 0.100534,0.06072 0.189854,0.06863 0.301255,0.03927 0.102293,-0.03059 0.159101,-0.09841 0.187182,-0.198154 0.02371,-0.108778 -2.4e-5,-0.219192 -0.04012,-0.320929 -0.04194,-0.0774 -0.108369,-0.139841 -0.183156,-0.185201 -0.05799,-0.01815 -0.02763,-0.01355 -0.09126,-0.01244 0,0 1.51e-4,2.4e-5 1.51e-4,2.4e-5 v 0 c 0.06325,-0.0011 0.03302,-0.0057 0.09088,0.01243 0.07479,0.04535 0.141227,0.107786 0.183171,0.185185 0.04009,0.101732 0.06384,0.212137 0.04013,0.320915 -0.02808,0.09974 -0.08489,0.167548 -0.187172,0.198136 -0.111286,0.02932 -0.200427,0.02141 -0.300873,-0.03926 -0.09241,-0.07838 -0.151276,-0.185259 -0.141182,-0.309364 0.02387,-0.130773 0.08135,-0.249471 0.181253,-0.339929 0.104135,-0.07823 0.20375,-0.111276 0.333933,-0.08099 z" /><path
           style="fill:none;stroke:#000000;stroke-width:0.3;stroke-dasharray:none;stroke-opacity:1"
           id="path48"
           d="m -80.006411,57.998412 c 0.08467,-0.135371 0.18197,-0.26199 0.283485,-0.385003 0.107323,-0.120819 0.231172,-0.225047 0.367787,-0.310909 0.147793,-0.08237 0.305406,-0.142936 0.467008,-0.191606 0.183806,-0.05054 0.363307,-0.114747 0.543089,-0.177726 0.233939,-0.08535 0.480576,-0.123312 0.725998,-0.158332 0.187843,-0.02217 0.37615,-0.01603 0.563171,0.0086 0.16038,0.02516 0.319204,0.0567 0.480801,0.07356 0.165507,0.02508 0.331509,0.04857 0.495665,0.08164 0.196493,0.03007 0.386027,0.08797 0.569637,0.162911 0.17821,0.06689 0.342027,0.158782 0.491146,0.276485 0.110993,0.08952 0.21917,0.182888 0.317598,0.28617 0.106947,0.113999 0.19412,0.244232 0.268422,0.381262 0.07495,0.151625 0.123952,0.313653 0.181581,0.472112 0.04744,0.141023 0.09942,0.280392 0.141812,0.423066 0.04167,0.146347 0.08401,0.292346 0.113747,0.441672 0.04226,0.181496 0.05796,0.367342 0.0681,0.552939 0.0085,0.181962 -0.0082,0.364035 -0.01643,0.545793 -0.0026,0.163709 -0.02331,0.326129 -0.0541,0.486704 -0.037,0.160467 -0.08775,0.317688 -0.140353,0.473676 -0.03621,0.111614 -0.06935,0.224067 -0.116925,0.331486 -0.01974,0.05201 -0.04847,0.09976 -0.06827,0.151643 0,0 1.08e-4,3e-6 1.08e-4,3e-6 v 0 c 0.02,-0.05182 0.04865,-0.09962 0.0684,-0.151636 0.04758,-0.107418 0.08072,-0.219874 0.116922,-0.331488 0.0526,-0.155988 0.103355,-0.313211 0.140351,-0.473681 0.0308,-0.160576 0.05147,-0.322998 0.05409,-0.486707 0.0082,-0.181758 0.02492,-0.363831 0.01643,-0.545793 -0.01013,-0.1856 -0.02585,-0.371445 -0.06811,-0.552942 -0.02974,-0.149328 -0.07208,-0.295328 -0.113753,-0.441674 -0.04238,-0.142674 -0.09437,-0.282043 -0.141811,-0.423069 -0.05763,-0.158459 -0.106632,-0.320487 -0.181586,-0.472114 -0.07431,-0.137031 -0.161475,-0.267266 -0.268425,-0.381267 -0.09843,-0.103283 -0.206608,-0.196647 -0.317604,-0.286174 -0.149119,-0.117702 -0.312938,-0.2096 -0.491153,-0.276487 -0.183608,-0.07495 -0.373145,-0.13285 -0.569638,-0.162917 -0.164155,-0.03307 -0.330157,-0.05656 -0.495668,-0.08164 -0.161596,-0.01685 -0.320423,-0.04839 -0.480803,-0.07356 -0.18714,-0.02466 -0.375573,-0.03078 -0.563536,-0.0086 -0.245422,0.03502 -0.492056,0.07299 -0.725998,0.158337 -0.179779,0.06298 -0.359286,0.127185 -0.543089,0.177723 -0.161602,0.04867 -0.319217,0.109239 -0.467011,0.191611 -0.136612,0.08587 -0.260464,0.190093 -0.367789,0.310915 -0.101516,0.123015 -0.198808,0.249637 -0.283488,0.385006 z" /><path
           style="fill:none;stroke:#000000;stroke-width:0.3;stroke-dasharray:none;stroke-opacity:1"
           id="path49"
           d="m -76.986735,58.845243 c -0.130572,-0.02093 -0.240257,-0.0186 -0.360574,0.03903 -0.104548,0.06436 -0.134128,0.168751 -0.149625,0.283374 -0.0065,0.119727 0.03518,0.230643 0.101024,0.328523 0.09139,0.109677 0.224178,0.166748 0.360817,0.195561 0.142962,0.01336 0.301871,-0.01064 0.411332,-0.112763 0.02141,-0.01998 0.03758,-0.04493 0.05637,-0.06739 0.117549,-0.207674 0.0675,-0.314441 -0.07241,-0.489394 -0.119639,-0.115305 -0.271534,-0.172918 -0.438499,-0.14152 -0.05008,0.0094 -0.09739,0.03 -0.146087,0.04501 0,0 5.8e-5,6e-6 5.8e-5,6e-6 v 0 c 0.04873,-0.015 0.09609,-0.03556 0.146201,-0.04499 0.166801,-0.03139 0.318585,0.02635 0.438094,0.14151 0.139904,0.174937 0.189974,0.281696 0.07243,0.489363 -0.01879,0.02246 -0.03495,0.04741 -0.05636,0.06738 -0.10935,0.102015 -0.2681,0.126098 -0.410933,0.112758 -0.136638,-0.02881 -0.269428,-0.08587 -0.360817,-0.195546 -0.06584,-0.09788 -0.10753,-0.208788 -0.101026,-0.328509 0.0155,-0.114618 0.04508,-0.219004 0.149624,-0.283356 0.120235,-0.05758 0.229709,-0.05996 0.360202,-0.03902 z" /><path
           style="fill:none;stroke:#000000;stroke-width:0.3;stroke-dasharray:none;stroke-opacity:1"
           id="path50"
           d="m -74.886499,60.798336 c -0.04182,-0.08987 -0.105918,-0.182957 -0.203904,-0.217749 -0.02408,-0.0085 -0.05,-0.01048 -0.07499,-0.01572 -0.132646,-0.0075 -0.272124,0.03662 -0.353531,0.147929 -0.01384,0.01892 -0.02273,0.04099 -0.03407,0.06149 -0.05134,0.156207 0.0217,0.26295 0.127058,0.371575 0.103407,0.09646 0.189563,0.16615 0.330033,0.194106 0.118087,0.0075 0.191987,-0.0628 0.249902,-0.15772 0.05559,-0.150577 0.04077,-0.26756 -0.0796,-0.384567 -0.02821,-0.02742 -0.06234,-0.04799 -0.09351,-0.07199 0,0 -9.3e-5,1.1e-5 -9.3e-5,1.1e-5 v 0 c 0.03114,0.024 0.06524,0.04458 0.09341,0.07199 0.120301,0.117039 0.135179,0.233961 0.07958,0.384543 -0.05778,0.0947 -0.131654,0.165119 -0.249491,0.157705 -0.140478,-0.02795 -0.226626,-0.09764 -0.330041,-0.194093 -0.105355,-0.108617 -0.178396,-0.215352 -0.127059,-0.371555 0.01135,-0.02048 0.02024,-0.04257 0.03407,-0.06148 0.08131,-0.111175 0.220642,-0.155453 0.353148,-0.147918 0.025,0.0052 0.05092,0.0072 0.07499,0.01572 0.09799,0.03479 0.162081,0.127871 0.203917,0.217736 z" /><path
           style="fill:none;stroke:#000000;stroke-width:0.3;stroke-dasharray:none;stroke-opacity:1"
           id="path51"
           d="m -74.842956,58.903811 c -0.114044,0.07797 -0.223756,0.187809 -0.275323,0.319122 -0.01042,0.02655 -0.01527,0.05497 -0.02289,0.08245 -0.01019,0.122288 0.0042,0.269743 0.120481,0.340656 0.02141,0.01304 0.04609,0.01969 0.06913,0.02955 0.113821,0.01855 0.256003,1.3e-5 0.335799,-0.09382 0.01326,-0.01561 0.02214,-0.03444 0.03321,-0.05166 0.0048,-0.02217 0.01289,-0.04386 0.01434,-0.06648 0.0081,-0.12591 -0.06068,-0.2554 -0.157829,-0.331123 -0.02463,-0.01918 -0.05313,-0.03278 -0.07969,-0.04918 0,0 -1.24e-4,1.3e-5 -1.24e-4,1.3e-5 v 0 c 0.02655,0.01638 0.05505,0.02998 0.07965,0.04918 0.09709,0.07573 0.16593,0.205242 0.157779,0.331105 -0.0016,0.02262 -0.0096,0.04431 -0.01434,0.06647 -0.01106,0.01722 -0.01995,0.03606 -0.03321,0.05166 -0.0797,0.09372 -0.221694,0.112345 -0.335404,0.09382 -0.02305,-0.0098 -0.04774,-0.01648 -0.06913,-0.02954 -0.11625,-0.0709 -0.130683,-0.21835 -0.120494,-0.340633 0.0076,-0.02748 0.01246,-0.0559 0.02289,-0.08245 0.05156,-0.13131 0.161274,-0.241147 0.275323,-0.319111 z" /><path
           style="fill:none;stroke:#000000;stroke-width:0.3;stroke-dasharray:none;stroke-opacity:1"
           id="path52"
           d="m -76.501235,57.426928 c -0.125145,-0.121367 -0.298215,-0.158287 -0.466143,-0.171225 -0.218496,0.0024 -0.39661,0.119941 -0.552162,0.262602 -0.147843,0.152413 -0.130344,0.267922 -0.032,0.44165 0.161224,0.188558 0.310798,0.21767 0.548736,0.20946 0.130312,-0.01678 0.317455,-0.04116 0.39869,-0.162113 0.01349,-0.02011 0.01876,-0.04463 0.02815,-0.06696 0.014,-0.172479 -0.07269,-0.279641 -0.23327,-0.343167 -0.05177,-0.02048 -0.107868,-0.02759 -0.161801,-0.04138 0,0 -1.13e-4,1.3e-5 -1.13e-4,1.3e-5 v 0 c 0.0539,0.01378 0.109971,0.0209 0.161708,0.04139 0.160549,0.06354 0.247248,0.170664 0.233256,0.343138 -0.0094,0.0223 -0.01466,0.04685 -0.02815,0.06695 -0.08123,0.120947 -0.268369,0.145333 -0.398674,0.1621 -0.237746,0.0082 -0.387276,-0.02109 -0.548343,-0.209442 -0.09834,-0.17372 -0.115838,-0.289216 0.032,-0.441621 0.155437,-0.142552 0.333449,-0.260199 0.551778,-0.262591 0.167926,0.01294 0.341003,0.04985 0.466151,0.171212 z" /><path
           style="fill:none;stroke:#000000;stroke-width:0.3;stroke-dasharray:none;stroke-opacity:1"
           id="path53"
           d="m -84.623052,54.502864 c 0.211442,-0.08718 0.434687,-0.143528 0.658347,-0.189156 0.260572,-0.06173 0.528042,-0.07617 0.794798,-0.06961 0.20339,-0.0031 0.390435,0.06784 0.57055,0.154787 0.145309,0.07563 0.2769,0.173386 0.392329,0.289197 0.102571,0.11185 0.168593,0.247266 0.218898,0.38889 0.05182,0.164293 0.09178,0.332036 0.124066,0.501179 0.03558,0.170209 0.02617,0.340389 0.0088,0.511696 -0.01283,0.166574 -0.0623,0.325522 -0.09878,0.487294 0,0 9.3e-5,3e-6 9.3e-5,3e-6 v 0 c 0.03675,-0.16173 0.08601,-0.320718 0.0989,-0.487294 0.01744,-0.17131 0.02682,-0.341492 -0.0088,-0.511702 -0.03229,-0.169145 -0.07226,-0.336888 -0.124071,-0.501184 -0.05031,-0.141626 -0.11633,-0.277045 -0.218906,-0.388895 -0.115435,-0.115814 -0.247028,-0.213574 -0.39234,-0.289203 -0.180115,-0.08695 -0.36716,-0.157906 -0.570553,-0.154794 -0.266875,-0.0065 -0.534458,0.0078 -0.795142,0.06961 -0.223662,0.04563 -0.446913,0.101981 -0.658354,0.189158 z" /><path
           style="fill:none;stroke:#000000;stroke-width:0.3;stroke-dasharray:none;stroke-opacity:1"
           id="path54"
           d="m -82.766706,54.899763 c -0.06567,-0.116229 -0.177377,-0.171405 -0.297019,-0.217694 -0.153812,-0.04133 -0.248065,-0.03775 -0.392411,0.02745 -0.09049,0.05113 -0.180531,0.128352 -0.194971,0.238435 -0.003,0.0231 5.29e-4,0.0466 7.93e-4,0.0699 0.06606,0.203616 0.194276,0.264544 0.393841,0.30012 0.104179,-5.29e-4 0.23355,-0.0271 0.243178,-0.155964 0.0057,-0.07662 -0.02729,-0.118629 -0.0599,-0.184489 -0.03031,-0.02183 -0.06062,-0.04365 -0.09094,-0.06548 0,0 -9.5e-5,1.1e-5 -9.5e-5,1.1e-5 v 0 c 0.03027,0.02183 0.06053,0.04365 0.0908,0.06548 0.03261,0.06585 0.06562,0.107862 0.0599,0.18447 -0.0096,0.128659 -0.138665,0.155265 -0.242744,0.155945 -0.199557,-0.03557 -0.327785,-0.09649 -0.393843,-0.300093 -2.49e-4,-0.02331 -0.0038,-0.04679 -7.94e-4,-0.06989 0.01445,-0.110077 0.104489,-0.187293 0.194974,-0.238416 0.144293,-0.06517 0.238223,-0.06877 0.392007,-0.02744 0.119642,0.04628 0.231359,0.101454 0.297037,0.217678 z" /><path
           style="fill:none;stroke:#000000;stroke-width:0.3;stroke-dasharray:none;stroke-opacity:1"
           id="path55"
           d="m -85.78362,50.913162 c -0.173035,0.04067 -0.316148,0.138639 -0.448651,0.252722 -0.125246,0.116424 -0.240869,0.24544 -0.329671,0.392043 -0.02484,0.05505 -0.03533,0.08345 0.0054,0.130329 0.06291,0.06808 0.138464,0.118232 0.228102,0.142311 0.01312,-0.0026 0.02769,-0.0013 0.0394,-0.0077 0.0877,-0.04849 0.131606,-0.185941 0.165549,-0.268772 0.0474,-0.115668 0.06898,-0.184777 0.108937,-0.302225 0.01484,-0.04128 0.02969,-0.08256 0.04453,-0.123844 0,0 -7.1e-5,-3e-6 -7.1e-5,-3e-6 v 0 c -0.01487,0.04128 -0.02974,0.08256 -0.0446,0.123841 -0.0399,0.117224 -0.06165,0.186783 -0.108961,0.302223 -0.03402,0.08302 -0.07784,0.22006 -0.165557,0.268753 -0.01159,0.0064 -0.02604,0.0051 -0.03904,0.0077 -0.08964,-0.02408 -0.165198,-0.07422 -0.228108,-0.142301 -0.04068,-0.04687 -0.0302,-0.07527 -0.0054,-0.130307 0.0888,-0.146601 0.20442,-0.275614 0.329668,-0.392036 0.132501,-0.11408 0.275614,-0.21204 0.448643,-0.252717 z" /><path
           style="fill:none;stroke:#000000;stroke-width:0.3;stroke-dasharray:none;stroke-opacity:1"
           id="path56"
           d="m -84.798923,52.788428 c -0.147709,0.05755 -0.29686,0.143793 -0.371546,0.290713 -0.01484,0.0292 -0.02196,0.06172 -0.03294,0.09258 -0.0016,0.02973 -0.0075,0.05958 -0.0045,0.08919 0.0068,0.06561 0.07711,0.240202 0.170627,0.211085 0.02106,-0.0066 0.03547,-0.02625 0.0532,-0.03937 0.0336,-0.07227 0.07206,-0.175067 0.0208,-0.25151 -0.01352,-0.02019 -0.04037,-0.02703 -0.06056,-0.04053 0,0 -9e-5,8e-6 -9e-5,8e-6 v 0 c 0.02013,0.01352 0.04695,0.02037 0.06044,0.04053 0.05121,0.07647 0.01283,0.179189 -0.0208,0.251487 -0.01762,0.01312 -0.03187,0.03281 -0.05283,0.03936 -0.09349,0.02921 -0.163851,-0.1455 -0.170643,-0.211059 -0.0031,-0.02961 0.003,-0.05946 0.0045,-0.08919 0.01098,-0.03086 0.0181,-0.06337 0.03294,-0.09257 0.07469,-0.146915 0.22384,-0.233159 0.371546,-0.2907 z" /><path
           style="fill:none;stroke:#000000;stroke-width:0.3;stroke-dasharray:none;stroke-opacity:1"
           id="path57"
           d="m -79.690086,54.040357 c -0.05466,0.304318 -0.0852,0.612851 -0.125973,0.919392 -0.0122,0.119896 -0.03827,0.240417 -0.03932,0.361482 -1.59e-4,0.01849 -2.65e-4,0.07492 0.02392,0.09091 0.0099,0.0065 0.02358,0.0021 0.03538,0.0032 0.129535,-0.06828 0.267155,-0.181988 0.351438,-0.302482 0.01918,-0.02744 0.03345,-0.05803 0.05018,-0.08704 0.07621,-0.215458 0.02551,-0.376441 -0.06312,-0.5764 -0.05628,-0.119139 -0.13234,-0.192529 -0.230161,-0.276066 0,0 -1.17e-4,1.1e-5 -1.17e-4,1.1e-5 v 0 c 0.09773,0.08354 0.17381,0.156995 0.230063,0.276066 0.08863,0.199948 0.139351,0.360923 0.06315,0.576379 -0.01672,0.02901 -0.03098,0.05959 -0.05017,0.08703 -0.08593,0.122857 -0.219919,0.232043 -0.351076,0.302469 -0.0118,-0.0011 -0.02548,0.0033 -0.03538,-0.0032 -0.02432,-0.01598 -0.02408,-0.07243 -0.02392,-0.0909 0.0011,-0.121063 0.02712,-0.241586 0.0393,-0.361479 0.04077,-0.306543 0.07131,-0.615074 0.125961,-0.919393 z" /><path
           style="fill:none;stroke:#000000;stroke-width:0.3;stroke-dasharray:none;stroke-opacity:1"
           id="path58"
           d="m -76.138595,52.246974 c -0.120864,0.05029 -0.219249,0.139874 -0.312973,0.229044 -0.03073,0.02928 -0.05849,0.04918 -0.06154,0.09194 -0.0044,0.13507 -0.0026,0.269243 0.03023,0.400817 0.0739,0.147125 0.150628,-0.02212 0.159798,-0.105079 0.0037,-0.03377 -0.0019,-0.06793 -0.0026,-0.101896 -0.03065,-0.138105 -0.0092,-0.07265 -0.06274,-0.196903 0,0 -9.6e-5,2e-6 -9.6e-5,2e-6 v 0 c 0.05349,0.124254 0.03206,0.0588 0.06261,0.196901 7.94e-4,0.03396 0.0063,0.06812 0.0026,0.101891 -0.0092,0.08269 -0.08555,0.252153 -0.15938,0.105079 -0.03287,-0.131572 -0.03464,-0.265742 -0.03022,-0.400809 0.003,-0.04275 0.03081,-0.06266 0.06153,-0.09193 0.09371,-0.08917 0.1921,-0.178747 0.312959,-0.229036 z" /><path
           style="fill:none;stroke:#000000;stroke-width:0.3;stroke-dasharray:none;stroke-opacity:1"
           id="path59"
           d="m -76.003668,49.399253 c -0.0031,0.107273 -0.04086,0.226825 -0.006,0.332467 0.007,0.02119 0.02064,0.03958 0.03096,0.05937 0.01929,0.0176 0.03619,0.03823 0.05785,0.05281 0.14315,0.0964 0.356902,0.111472 0.52388,0.128844 0.178383,0.01088 0.27695,-0.003 0.358635,-0.16965 0.03436,-0.08099 0.05934,-0.143592 -0.01355,-0.207844 -0.170067,-0.09946 -0.388713,-0.05129 -0.572733,-0.0276 0,0 6.6e-5,8e-6 6.6e-5,8e-6 v 0 c 0.183935,-0.02365 0.40246,-0.0718 0.57245,0.02761 0.0729,0.06423 0.04793,0.126836 0.01357,0.207817 -0.0816,0.166446 -0.180049,0.180504 -0.358265,0.169635 -0.166978,-0.01738 -0.380732,-0.03244 -0.523888,-0.128834 -0.02167,-0.01458 -0.03856,-0.03521 -0.05784,-0.05281 -0.01032,-0.01979 -0.02397,-0.03817 -0.03096,-0.05936 -0.03489,-0.105642 0.0029,-0.225192 0.006,-0.332467 z" /><path
           style="fill:none;stroke:#000000;stroke-width:0.3;stroke-dasharray:none;stroke-opacity:1"
           id="path60"
           d="m -73.508959,47.453171 c -0.204298,-0.02318 -0.41048,-0.01228 -0.615363,-0.0039 -0.186462,0.0037 -0.185414,0.0096 -0.271584,0.178901 -0.07681,0.210823 -0.153884,0.429908 -0.170659,0.655357 0.0046,0.01482 0.005,0.03169 0.01376,0.04449 0.07754,0.112996 0.286541,-0.09906 0.332655,-0.142915 0.105981,-0.114644 0.205706,-0.234624 0.309732,-0.351012 0,0 -6.6e-5,-5e-6 -6.6e-5,-5e-6 v 0 c -0.104098,0.116358 -0.203872,0.236323 -0.309851,0.351004 -0.04603,0.04377 -0.25481,0.255778 -0.332277,0.142923 -0.0088,-0.01281 -0.0092,-0.02965 -0.01376,-0.04448 0.01675,-0.225449 0.09383,-0.444535 0.170651,-0.65535 0.08618,-0.169328 0.08514,-0.175201 0.271592,-0.178882 0.204756,-0.0084 0.410808,-0.01926 0.614979,0.0039 z" /><path
           style="fill:none;stroke:#000000;stroke-width:0.3;stroke-dasharray:none;stroke-opacity:1"
           id="path61"
           d="m -76.002038,45.483769 c -0.240088,0.03522 -0.466481,0.129627 -0.683913,0.23372 -0.109196,0.06084 -0.249037,0.135194 -0.273109,0.271872 -0.0047,0.02669 -0.0036,0.05408 -0.0053,0.08112 0.01484,0.128371 0.01082,0.279607 0.08324,0.393544 0.0088,0.01381 0.02175,0.02445 0.03262,0.03666 0.01482,0.0036 0.02919,0.01098 0.04445,0.0109 0.117604,-5.29e-4 0.225642,-0.115599 0.287562,-0.201826 0.02871,-0.03998 0.05173,-0.08374 0.07759,-0.125617 0.06098,-0.123071 0.126026,-0.243826 0.194066,-0.363087 0,0 -5.3e-5,-3e-6 -5.3e-5,-3e-6 v 0 c -0.06809,0.119253 -0.133246,0.239974 -0.194196,0.36308 -0.02588,0.04187 -0.04888,0.08564 -0.07759,0.125613 -0.06175,0.08599 -0.169834,0.201176 -0.287192,0.201817 -0.01527,8.2e-5 -0.02963,-0.0072 -0.04445,-0.01087 -0.01087,-0.01222 -0.02384,-0.02286 -0.03262,-0.03666 -0.07243,-0.113929 -0.06841,-0.265168 -0.08325,-0.393533 0.0019,-0.02704 5.29e-4,-0.05443 0.0054,-0.08112 0.02408,-0.13667 0.163909,-0.211023 0.273102,-0.271856 0.21734,-0.10405 0.443611,-0.198366 0.683567,-0.233712 z" /><path
           style="fill:none;stroke:#000000;stroke-width:0.3;stroke-dasharray:none;stroke-opacity:1"
           id="path62"
           d="m -73.884011,44.073608 c -0.14823,-0.03466 -0.301816,-0.02569 -0.451951,-0.01048 -0.101113,0.01453 -0.103764,-0.0078 -0.152998,0.08343 -0.03154,0.08749 -0.07705,0.185645 -0.05455,0.279636 0.0456,0.0967 0.15758,0.131754 0.2512,0.166788 0.0045,0.0013 0.07272,0.02313 0.08187,0.02368 0.08604,0.0053 0.101553,-0.107556 0.116859,-0.165817 0.01524,-0.129397 0.0099,-0.06545 0.01635,-0.191799 0,0 -4.5e-5,0 -4.5e-5,0 v 0 c -0.0066,0.126341 -0.0013,0.0624 -0.01651,0.191794 -0.01519,0.05779 -0.03077,0.171082 -0.116464,0.165798 -0.0092,-5.29e-4 -0.07739,-0.0223 -0.08187,-0.02368 -0.09361,-0.03503 -0.205595,-0.07008 -0.251198,-0.166772 -0.02252,-0.09398 0.02299,-0.192133 0.05455,-0.27962 0.04923,-0.09117 0.0519,-0.06889 0.152998,-0.08341 0.150011,-0.01521 0.303459,-0.02418 0.451564,0.01048 z" /><path
           style="fill:none;stroke:#000000;stroke-width:0.3;stroke-dasharray:none;stroke-opacity:1"
           id="path63"
           d="m -79.597426,45.410048 c 0.06003,0.09855 0.165404,0.146704 0.276354,0.09881 0.02175,-0.0094 0.04046,-0.02466 0.06069,-0.037 0.01236,-0.01794 0.02894,-0.03358 0.03705,-0.05378 0.02566,-0.06394 -0.0081,-0.13217 -0.06279,-0.168077 -0.01894,-0.01244 -0.04067,-0.02384 -0.06333,-0.02484 -0.02725,-0.0013 -0.05314,0.01236 -0.0797,0.01852 0,0 7.9e-5,10e-6 7.9e-5,10e-6 v 0 c 0.02648,-0.0062 0.05227,-0.01971 0.07943,-0.01852 0.02265,0.0011 0.04437,0.01238 0.06332,0.02484 0.05465,0.0359 0.08845,0.104111 0.0628,0.16805 -0.0081,0.02019 -0.02469,0.03585 -0.03703,0.05377 -0.02024,0.01233 -0.03894,0.02758 -0.06069,0.03699 -0.11081,0.04796 -0.216093,-5.29e-4 -0.276045,-0.09879 z" /><path
           style="fill:none;stroke:#000000;stroke-width:0.3;stroke-dasharray:none;stroke-opacity:1"
           id="path64"
           d="m -77.557081,44.559129 c 0.311539,-0.01593 0.623374,-0.02209 0.934521,-0.0457 0.09751,-0.01738 0.265748,-0.0071 0.352232,-0.06845 0.0309,-0.02193 0.03242,-0.04402 0.04377,-0.0773 0.0076,-0.09208 -0.01106,-0.181541 -0.05666,-0.261577 -0.01199,-0.0046 -0.02323,-0.01206 -0.03593,-0.01363 -0.102844,-0.01273 -0.224319,0.02508 -0.320948,0.04996 -0.115951,0.02986 -0.280196,0.0793 -0.392723,0.112368 -0.07117,0.02254 -0.142333,0.0451 -0.213501,0.06765 0,0 1.25e-4,1.6e-5 1.25e-4,1.6e-5 v 0 c 0.07119,-0.02254 0.142388,-0.04509 0.213582,-0.06764 0.112458,-0.03305 0.276849,-0.08252 0.39274,-0.112366 0.0964,-0.02482 0.217879,-0.0627 0.320513,-0.04996 0.0127,0.0016 0.02394,0.0091 0.03593,0.0136 0.0456,0.08003 0.0643,0.169484 0.05666,0.261559 -0.01135,0.03327 -0.01288,0.05536 -0.04377,0.07728 -0.08648,0.06136 -0.254672,0.05105 -0.352182,0.06845 -0.311144,0.0236 -0.622977,0.02978 -0.934511,0.0457 z" /><path
           style="fill:none;stroke:#000000;stroke-width:0.3;stroke-dasharray:none;stroke-opacity:1"
           id="path65"
           d="m -74.418956,56.052013 c 0.06374,0.159758 0.186295,0.182409 0.342257,0.19358 0.138602,-0.0043 0.260305,-0.05778 0.365006,-0.145725 0.0274,-0.02764 0.08984,-0.09676 0.04743,-0.139943 -0.03752,-0.0382 -0.09122,-0.0301 -0.138623,-0.03386 -0.04007,0.008 -0.08014,0.01595 -0.120206,0.02392 0,0 9e-5,1.3e-5 9e-5,1.3e-5 v 0 c 0.03998,-0.008 0.07995,-0.01593 0.119931,-0.02389 0.04738,0.0038 0.101071,-0.0043 0.138583,0.03384 0.04242,0.04316 -0.02,0.112284 -0.0474,0.139919 -0.104592,0.08786 -0.226181,0.14133 -0.364638,0.145717 -0.155956,-0.01116 -0.278521,-0.03381 -0.342267,-0.193561 z" /><path
           style="fill:none;stroke:#000000;stroke-width:0.3;stroke-dasharray:none;stroke-opacity:1"
           id="path66"
           d="m -71.531408,57.856463 c -0.13386,-0.01765 -0.268258,7.94e-4 -0.400962,0.01908 -0.06398,0.01717 -0.110504,0.0779 -0.103069,0.146828 0.0016,0.0159 0.0089,0.03073 0.01328,0.04609 0.0122,0.01299 0.02127,0.02987 0.0366,0.03896 0.103238,0.0613 0.257175,-0.03703 0.330634,-0.104767 0.0245,-0.0226 0.04226,-0.05156 0.06339,-0.07734 0.01016,-0.0209 0.02032,-0.04182 0.03049,-0.06273 0,0 -7.4e-5,-2e-6 -7.4e-5,-2e-6 v 0 c -0.01021,0.0209 -0.02043,0.04181 -0.03062,0.06272 -0.02114,0.02577 -0.03889,0.05474 -0.0634,0.07733 -0.07336,0.06765 -0.227113,0.165992 -0.330245,0.104775 -0.01532,-0.0091 -0.02439,-0.02598 -0.0366,-0.03896 -0.0044,-0.01537 -0.01156,-0.03019 -0.01328,-0.04608 -0.0074,-0.06892 0.03911,-0.129643 0.103074,-0.146804 0.132585,-0.01812 0.266859,-0.0367 0.400598,-0.01908 z" /><path
           style="fill:none;stroke:#000000;stroke-width:0.3;stroke-dasharray:none;stroke-opacity:1"
           id="path67"
           d="m -72.652656,60.331759 c -0.151868,0.09591 -0.263081,0.242753 -0.360479,0.390824 -0.01606,0.02732 -0.134154,0.206357 -0.07834,0.236022 0.0127,0.0067 0.02855,0.0034 0.04283,0.0051 0.02275,-0.006 0.04708,-0.0077 0.06829,-0.01789 0.12872,-0.06194 0.251663,-0.198991 0.29592,-0.33481 0.0104,-0.03189 0.01064,-0.06623 0.01596,-0.09934 -0.0011,-0.0271 -0.0021,-0.0542 -0.003,-0.0813 0,0 -1.05e-4,3e-6 -1.05e-4,3e-6 v 0 c 0.0011,0.0271 0.0019,0.05419 0.003,0.08129 -0.0053,0.03311 -0.0056,0.06745 -0.01601,0.09933 -0.04432,0.135916 -0.167161,0.272706 -0.295899,0.334795 -0.02109,0.01016 -0.04529,0.01193 -0.06794,0.01789 -0.01429,-0.0016 -0.03013,0.0016 -0.04283,-0.0051 -0.05582,-0.02964 0.06227,-0.208698 0.07832,-0.236001 0.0974,-0.148068 0.208608,-0.294912 0.360473,-0.390818 z" /><path
           style="fill:none;stroke:#000000;stroke-width:0.3;stroke-dasharray:none;stroke-opacity:1"
           id="path68"
           d="m -71.830114,62.647663 c -0.07784,-0.04922 -0.172202,-0.0885 -0.253746,-0.02225 -0.01696,0.01378 -0.02977,0.03201 -0.04465,0.04801 -0.04428,0.06605 -0.106667,0.184256 -0.0815,0.268089 0.004,0.01342 0.01439,0.02403 0.02159,0.03605 0.01614,5.29e-4 0.03284,0.0057 0.0484,0.0013 0.09786,-0.02692 0.156075,-0.131423 0.178937,-0.222437 0.0088,-0.03483 0.006,-0.07157 0.009,-0.107347 0,0 -1.12e-4,0 -1.12e-4,0 v 0 c -0.003,0.03578 -2.64e-4,0.07252 -0.009,0.107339 -0.02283,0.09071 -0.08095,0.195474 -0.178565,0.222419 -0.01556,0.0043 -0.03227,-7.94e-4 -0.04841,-0.0013 -0.0072,-0.01201 -0.01757,-0.02262 -0.02159,-0.03604 -0.02516,-0.08383 0.03722,-0.202033 0.08149,-0.268076 0.0149,-0.01601 0.02769,-0.03423 0.04465,-0.04801 0.08148,-0.0662 0.175617,-0.02694 0.253399,0.02225 z" /></g><use
         x="0"
         y="0"
         inkscape:tiled-clone-of="#g2"
         xlink:href="#g2"
         id="use6"
         inkscape:transform-center-x="62.116411"
         inkscape:transform-center-y="34.284081" /><use
         x="0"
         y="0"
         inkscape:tiled-clone-of="#g2"
         xlink:href="#g2"
         transform="rotate(60,-70.079623,65.974625)"
         id="use7"
         inkscape:transform-center-x="24.597128"
         inkscape:transform-center-y="34.804933" /><use
         x="0"
         y="0"
         inkscape:tiled-clone-of="#g2"
         xlink:href="#g2"
         transform="rotate(120,-70.110774,65.870955)"
         id="use8"
         inkscape:transform-center-x="6.4972021"
         inkscape:transform-center-y="49.250718" /><use
         x="0"
         y="0"
         inkscape:tiled-clone-of="#g2"
         xlink:href="#g2"
         transform="rotate(180,-70.352637,65.613827)"
         id="use9"
         inkscape:transform-center-x="-5.6480688"
         inkscape:transform-center-y="62.154597" /><use
         x="0"
         y="0"
         inkscape:tiled-clone-of="#g2"
         xlink:href="#g2"
         transform="rotate(-120,-70.222865,65.700141)"
         id="use10"
         inkscape:transform-center-x="0.5692571"
         inkscape:transform-center-y="61.633744" /><use
         x="0"
         y="0"
         inkscape:tiled-clone-of="#g2"
         xlink:href="#g2"
         transform="rotate(-60,-70.093094,65.555087)"
         id="use11"
         inkscape:transform-center-x="-12.632775"
         inkscape:transform-center-y="47.187958" /></g></g></svg>
