<?xml version="1.0" encoding="UTF-8" standalone="no"?>
<!-- Created with Inkscape (http://www.inkscape.org/) -->

<svg
   width="201.98865"
   height="206.10849"
   viewBox="0 0 53.44283 54.532871"
   version="1.1"
   id="svg1"
   sodipodi:docname="pizza broccoli.svg"
   inkscape:version="1.4 (86a8ad7, 2024-10-11)"
   xml:space="preserve"
   xmlns:inkscape="http://www.inkscape.org/namespaces/inkscape"
   xmlns:sodipodi="http://sodipodi.sourceforge.net/DTD/sodipodi-0.dtd"
   xmlns:xlink="http://www.w3.org/1999/xlink"
   xmlns="http://www.w3.org/2000/svg"
   xmlns:svg="http://www.w3.org/2000/svg"><sodipodi:namedview
     id="namedview1"
     pagecolor="#ffffff"
     bordercolor="#000000"
     borderopacity="0.25"
     inkscape:showpageshadow="2"
     inkscape:pageopacity="0.0"
     inkscape:pagecheckerboard="0"
     inkscape:deskcolor="#ffffff"
     inkscape:document-units="mm"
     showborder="false"
     inkscape:zoom="2.8477805"
     inkscape:cx="138.35336"
     inkscape:cy="102.18484"
     inkscape:window-width="1920"
     inkscape:window-height="1010"
     inkscape:window-x="2873"
     inkscape:window-y="-6"
     inkscape:window-maximized="1"
     inkscape:current-layer="layer5" /><defs
     id="defs1" /><g
     inkscape:groupmode="layer"
     id="layer5"
     inkscape:label="Layer 4"
     style="display:inline"
     transform="translate(97.186655,-38.675757)"><g
       id="g1024"><g
         id="g28"
         inkscape:transform-center-x="13.749873"
         inkscape:transform-center-y="-1.4864367"
         inkscape:tile-cx="-70.31029"
         inkscape:tile-cy="65.431195"
         inkscape:tile-w="26.251777"
         inkscape:tile-h="23.254492"
         inkscape:tile-x0="-97.186653"
         inkscape:tile-y0="52.317411"><path
           style="fill:none;stroke:#000000;stroke-width:0.499999;stroke-dasharray:none;stroke-opacity:1"
           id="path17"
           d="m -94.514029,74.698134 c -0.257233,-0.431866 -0.491905,-0.87649 -0.725887,-1.321213 -0.09311,-0.179877 -0.174169,-0.365593 -0.247213,-0.554415 -0.05285,-0.124201 -0.128889,-0.236123 -0.18809,-0.357503 -0.08002,-0.165915 -0.151614,-0.335486 -0.222501,-0.505441 -0.07604,-0.189982 -0.135464,-0.386059 -0.203848,-0.578901 -0.056,-0.157226 -0.100021,-0.317785 -0.143063,-0.47889 -0.0418,-0.171389 -0.06708,-0.346644 -0.09098,-0.521335 -0.02225,-0.215797 -0.05345,-0.430533 -0.07906,-0.645949 -0.02747,-0.21201 -0.06168,-0.423034 -0.09014,-0.634894 -0.02167,-0.19603 -0.03891,-0.392575 -0.06291,-0.588346 -0.03373,-0.222517 -0.04365,-0.44727 -0.05041,-0.671904 -0.0037,-0.251785 -0.02429,-0.502975 -0.04958,-0.753393 -0.02617,-0.251838 -0.03323,-0.504939 -0.0516,-0.757378 -0.02117,-0.264025 -0.02727,-0.528912 -0.03115,-0.793654 0.0011,-0.285507 -0.0098,-0.570704 -0.0099,-0.856176 0.0016,-0.278379 0.0046,-0.556744 0.0062,-0.835126 0.0039,-0.256318 -0.0044,-0.512858 0.0066,-0.769001 0.01164,-0.232669 0.02819,-0.464769 0.05733,-0.695925 0.03094,-0.278487 0.05764,-0.557297 0.103576,-0.833824 0.04922,-0.301829 0.10442,-0.602641 0.159218,-0.903507 0.06875,-0.301871 0.132189,-0.605171 0.211138,-0.904592 0.06513,-0.252756 0.13735,-0.503695 0.201345,-0.756724 0.05092,-0.222356 0.114202,-0.441106 0.176043,-0.660556 0.06847,-0.266901 0.146225,-0.530884 0.224668,-0.794986 0.07399,-0.242647 0.143421,-0.486712 0.20646,-0.732438 0.05512,-0.202332 0.104794,-0.40635 0.164804,-0.607309 0.06132,-0.213315 0.122856,-0.426582 0.181827,-0.640561 0.05336,-0.197893 0.110516,-0.394526 0.172392,-0.589936 0.06156,-0.199232 0.143658,-0.390393 0.241099,-0.574437 0.09436,-0.184449 0.201951,-0.359966 0.319378,-0.530381 0.116533,-0.160774 0.237194,-0.317947 0.373878,-0.46209 0.130325,-0.127696 0.271346,-0.241967 0.419835,-0.347517 0.128024,-0.08079 0.267393,-0.138477 0.408826,-0.19086 0.112207,-0.04285 0.222573,-0.08662 0.342289,-0.101168 0.103942,-0.01013 0.20855,-1.38e-4 0.30978,0.02458 0.09812,0.02178 0.186192,0.0712 0.277857,0.110207 0.121047,0.0542 0.248301,0.0949 0.376751,0.127567 0.112628,0.02987 0.22194,0.06993 0.332301,0.106812 0.11517,0.03932 0.227478,0.08736 0.336814,0.140755 0.09313,0.04588 0.176337,0.106702 0.261414,0.165325 0.109363,0.07448 0.197249,0.174821 0.292002,0.26615 0.122777,0.10301 0.217736,0.230288 0.304519,0.363651 0.08476,0.128278 0.136742,0.272762 0.178779,0.419577 0.03993,0.139866 0.08468,0.281167 0.161843,0.405386 0.10273,0.123008 0.260303,0.173654 0.405265,0.229579 0.277585,0.105696 0.551056,0.221636 0.824376,0.337778 0.271857,0.120719 0.549127,0.228393 0.824428,0.34082 0.188429,0.08814 0.376841,0.176797 0.560356,0.274855 0.162549,0.09172 0.329158,0.17585 0.497229,0.256918 0.195945,0.0877 0.395615,0.165989 0.589227,0.258913 0.168325,0.08701 0.324302,0.193326 0.496162,0.273622 0.219208,0.08918 0.436383,0.183705 0.656432,0.270798 0.181483,0.06408 0.355811,0.143878 0.524571,0.23594 0.138064,0.07669 0.280968,0.143772 0.417808,0.222737 0.148646,0.08711 0.303128,0.163769 0.451067,0.252108 0.137028,0.08513 0.259845,0.190214 0.391176,0.283435 0.148095,0.102986 0.307099,0.188618 0.466278,0.272899 0.173564,0.08821 0.346072,0.178215 0.515853,0.273502 0.165304,0.10032 0.329909,0.201626 0.491283,0.308171 0.189363,0.143293 0.387634,0.271844 0.594315,0.388477 0.184775,0.0962 0.359111,0.210971 0.532337,0.326282 0.181366,0.122899 0.351591,0.260895 0.529934,0.388085 0.188103,0.127662 0.383706,0.24325 0.571651,0.371227 0.194071,0.139017 0.388027,0.277942 0.584964,0.412927 0.255209,0.17154 0.515321,0.335153 0.769115,0.508857 0.25046,0.18333 0.500986,0.366588 0.748514,0.553866 0.216257,0.168161 0.449876,0.312181 0.668168,0.477371 0.165627,0.126778 0.328621,0.256977 0.497139,0.379929 0.246637,0.16719 0.502338,0.320175 0.750094,0.485635 0.295312,0.186237 0.584242,0.382362 0.878657,0.569923 0.251664,0.155712 0.501137,0.314751 0.742858,0.485574 0.209555,0.147986 0.413856,0.303008 0.635997,0.431831 0.218377,0.121296 0.433004,0.250275 0.63877,0.392007 0.172919,0.116081 0.346872,0.230457 0.530445,0.329073 0.145886,0.06958 0.285552,0.150699 0.425836,0.230669 0.108239,0.05914 0.213839,0.122986 0.318313,0.188505 0.02771,0.02101 0.04252,0.04428 0.06438,0.07014 0.02074,0.02022 0.04459,0.03679 0.07077,0.04907 0.05251,0.03637 0.01175,-0.161827 -0.06348,-0.09283 -0.03885,0.0249 -0.07872,0.05427 -0.118809,0.07979 -0.112413,0.04929 -0.227869,0.09097 -0.341762,0.136615 -0.160343,0.07424 -0.319013,0.15277 -0.475186,0.235431 -0.20832,0.110882 -0.419129,0.215966 -0.636448,0.307991 -0.284154,0.122066 -0.561078,0.259895 -0.841229,0.390644 -0.246375,0.118586 -0.509871,0.192011 -0.766535,0.283567 -0.275987,0.09862 -0.540991,0.223991 -0.810403,0.33858 -0.298527,0.128627 -0.60053,0.24888 -0.899245,0.377049 -0.266128,0.12745 -0.531561,0.256273 -0.797718,0.383728 -0.344575,0.157499 -0.68934,0.314169 -1.041612,0.453753 -0.366321,0.149749 -0.733944,0.296407 -1.098902,0.449524 -0.302016,0.131395 -0.611568,0.244176 -0.91758,0.365625 -0.225155,0.09004 -0.454485,0.168886 -0.684744,0.244716 -0.278223,0.07777 -0.547611,0.181726 -0.81283,0.295444 -0.289811,0.1382 -0.585806,0.261898 -0.88552,0.37678 -0.282681,0.106678 -0.556332,0.236133 -0.840677,0.338167 -0.241826,0.09191 -0.490378,0.163623 -0.736457,0.24285 -0.243549,0.07193 -0.481248,0.161319 -0.726054,0.22883 -0.266281,0.06765 -0.521898,0.169231 -0.779293,0.263822 -0.240567,0.09088 -0.479573,0.186018 -0.720627,0.275574 -0.252505,0.09543 -0.49998,0.202425 -0.746609,0.311888 -0.251624,0.130109 -0.519448,0.216183 -0.788948,0.299667 -0.252206,0.07928 -0.500242,0.170797 -0.742653,0.276196 -0.233702,0.0951 -0.472057,0.178271 -0.709938,0.262276 -0.268399,0.09854 -0.541282,0.183708 -0.809977,0.281461 -0.258083,0.08987 -0.514223,0.185018 -0.772057,0.275556 -0.146002,0.05226 -0.288756,0.113091 -0.434393,0.166253 -0.09728,0.04011 -0.147889,0.08614 -0.179856,0.188077 -0.0078,0.0807 -0.03743,0.154808 -0.07536,0.225533 -0.0385,0.06511 -0.09839,0.112843 -0.159149,0.15625 -0.101201,0.06584 -0.202885,0.128746 -0.309978,0.184475 -0.115948,0.0746 -0.238736,0.133419 -0.363887,0.190376 -0.195545,0.08731 -0.384786,0.187955 -0.582602,0.270288 -0.163996,0.0707 -0.333769,0.0839 -0.508862,0.06513 -0.104868,-0.009 -0.2037,-0.04578 -0.300779,-0.08416 -0.05109,-0.01394 -0.09308,-0.03901 -0.13576,-0.06855 -0.04111,-0.02909 -0.08299,-0.05614 -0.127905,-0.07903 -0.03281,-0.0094 -0.05531,-0.03259 -0.08374,-0.05055 -0.0068,-0.0029 -0.01365,-0.0058 -0.0205,-0.0087 -0.03565,-0.01506 0.01553,0.0074 0.01614,0.0065 0.0062,-0.0091 -0.04137,-0.03562 -0.04951,-0.04052 -0.02975,-0.01704 -0.0636,-0.02106 -0.09719,-0.02281 0.05734,0.01423 -0.03564,-0.03023 -0.04726,-0.03824 -0.04708,-0.0304 -0.07986,-0.07506 -0.12196,-0.111435 -0.09643,-0.0791 -0.208301,0.05727 -0.111871,0.136374 v 0 c 0.04903,0.03536 0.07979,0.09396 0.135986,0.121825 0.04307,0.02815 0.08602,0.05441 0.136318,0.06765 0.01786,7.94e-4 0.01333,-0.0011 0.02019,7.94e-4 -0.0266,-0.03799 0.03607,0.04948 0.05669,0.04421 -0.0019,-0.0019 -0.008,-0.0075 -0.0058,-0.0059 0.02906,0.02186 0.05577,0.04946 0.09267,0.05809 0.03799,0.01918 0.07279,0.0423 0.107503,0.06689 0.05359,0.03692 0.108373,0.06852 0.171156,0.08745 0.111898,0.04422 0.226518,0.0849 0.347255,0.09555 0.204433,0.02096 0.4039,0.0042 0.595146,-0.07777 0.199424,-0.08338 0.390686,-0.184066 0.587769,-0.272542 0.12791,-0.05825 0.25372,-0.11829 0.372237,-0.194445 0.114755,-0.05973 0.223838,-0.127252 0.332058,-0.198118 0.08197,-0.06004 0.161133,-0.126066 0.211333,-0.216183 0.04304,-0.08134 0.08044,-0.167632 0.08935,-0.260244 0.0096,-0.04701 0.02424,-0.0485 0.0707,-0.07058 0.144923,-0.05298 0.287052,-0.113368 0.432311,-0.165504 0.258461,-0.09076 0.515228,-0.18613 0.773933,-0.276228 0.268152,-0.0976 0.540551,-0.182467 0.808397,-0.280895 0.241808,-0.08539 0.484092,-0.169976 0.721569,-0.266853 0.236437,-0.102929 0.478475,-0.192024 0.724479,-0.269452 0.276061,-0.08552 0.550387,-0.174133 0.808308,-0.306935 0.243308,-0.107987 0.487407,-0.213625 0.73651,-0.307772 0.240826,-0.08956 0.479684,-0.184464 0.720021,-0.275351 0.252823,-0.09293 0.503849,-0.192927 0.765413,-0.259364 0.247132,-0.06838 0.487326,-0.157985 0.733147,-0.230946 0.247965,-0.07985 0.498417,-0.152162 0.742104,-0.244777 0.28535,-0.102896 0.560511,-0.231727 0.844116,-0.339445 0.301836,-0.115765 0.600064,-0.24013 0.891926,-0.37938 0.260469,-0.111845 0.525166,-0.213672 0.798478,-0.290015 0.233558,-0.07701 0.46623,-0.156912 0.694624,-0.248299 0.307049,-0.121917 0.617701,-0.235021 0.920742,-0.366916 0.363873,-0.152683 0.730419,-0.298884 1.095653,-0.448201 0.356023,-0.141169 0.704585,-0.299318 1.052803,-0.45864 0.263964,-0.126418 0.527283,-0.254029 0.791089,-0.380719 0.29854,-0.128117 0.600397,-0.248251 0.898744,-0.376836 0.266179,-0.113278 0.528032,-0.237125 0.800645,-0.334766 0.261813,-0.09352 0.530643,-0.168482 0.781841,-0.289857 0.278228,-0.129884 0.553284,-0.266726 0.835449,-0.388072 0.221956,-0.09413 0.437462,-0.201189 0.650234,-0.31455 0.150564,-0.07994 0.303869,-0.15522 0.458219,-0.227557 0.124058,-0.04976 0.250822,-0.09345 0.371237,-0.151792 0.04902,-0.03154 0.0962,-0.06563 0.143764,-0.09913 0.07766,-0.07277 0.04445,-0.05727 0.0086,-0.199975 -1.72e-4,-7.93e-4 0.0066,0.0026 0.0075,0.0029 -5.29e-4,-2.64e-4 -0.01177,-0.0063 -0.01495,-0.0092 -0.02326,-0.0315 -0.06224,-0.07165 -0.09916,-0.09873 -0.106574,-0.06682 -0.214283,-0.13195 -0.324667,-0.192307 -0.141608,-0.08072 -0.282596,-0.162615 -0.429837,-0.232881 -0.178004,-0.09525 -0.346104,-0.206788 -0.51381,-0.318931 -0.209696,-0.144137 -0.427945,-0.275955 -0.650423,-0.399373 -0.217789,-0.125685 -0.416983,-0.278902 -0.622562,-0.423225 -0.244083,-0.172355 -0.495757,-0.333168 -0.749874,-0.490281 -0.293394,-0.186798 -0.58117,-0.382378 -0.875466,-0.567843 -0.245777,-0.164047 -0.49915,-0.316135 -0.744107,-0.481454 -0.167772,-0.122285 -0.329821,-0.25209 -0.494741,-0.378151 -0.218525,-0.16484 -0.451475,-0.30965 -0.668073,-0.477298 -0.249756,-0.188957 -0.502505,-0.373911 -0.755314,-0.55876 -0.253762,-0.173678 -0.513779,-0.337367 -0.769014,-0.508791 -0.197094,-0.135091 -0.391155,-0.27419 -0.585433,-0.413245 -0.186926,-0.127201 -0.381175,-0.242525 -0.568503,-0.369033 -0.179916,-0.128254 -0.351459,-0.267681 -0.534633,-0.391324 -0.176881,-0.117617 -0.354811,-0.234799 -0.543385,-0.33306 -0.203181,-0.114538 -0.397571,-0.24139 -0.583795,-0.382048 -0.164936,-0.10887 -0.333132,-0.212478 -0.50219,-0.314817 -0.171087,-0.09585 -0.34471,-0.186801 -0.519596,-0.275539 -0.152459,-0.0807 -0.304875,-0.162494 -0.446837,-0.260938 -0.135284,-0.09564 -0.261157,-0.20448 -0.402844,-0.291028 -0.148833,-0.08854 -0.303718,-0.166203 -0.4533,-0.253418 -0.138141,-0.07949 -0.281993,-0.147728 -0.421441,-0.224774 -0.175125,-0.09542 -0.355918,-0.178485 -0.54414,-0.2451 -0.216913,-0.0857 -0.4308,-0.179199 -0.646972,-0.266737 -0.171516,-0.07919 -0.325464,-0.188015 -0.494194,-0.27269 -0.193535,-0.0928 -0.392838,-0.171619 -0.588897,-0.258754 -0.165909,-0.08001 -0.33035,-0.163071 -0.490786,-0.253648 -0.188912,-0.100756 -0.382616,-0.192331 -0.576738,-0.282546 -0.274537,-0.112104 -0.551032,-0.219478 -0.82213,-0.339863 -0.275185,-0.116933 -0.550531,-0.233632 -0.830006,-0.340058 -0.110032,-0.04223 -0.231044,-0.07957 -0.319968,-0.159914 -0.07162,-0.107136 -0.102473,-0.238073 -0.140997,-0.359262 -0.04736,-0.163494 -0.105878,-0.324226 -0.200517,-0.467082 -0.09425,-0.144296 -0.197511,-0.282269 -0.329932,-0.394378 -0.101802,-0.09791 -0.196446,-0.205092 -0.314381,-0.284414 -0.09242,-0.06344 -0.183078,-0.129005 -0.284194,-0.178601 -0.116414,-0.05648 -0.235643,-0.107911 -0.358228,-0.149493 -0.11454,-0.03806 -0.227888,-0.07982 -0.344815,-0.110471 -0.11987,-0.03014 -0.23849,-0.06844 -0.351327,-0.119036 -0.100999,-0.04236 -0.197755,-0.09679 -0.30612,-0.119433 -0.122042,-0.02795 -0.247187,-0.0416 -0.372248,-0.02788 -0.133024,0.01722 -0.257119,0.06176 -0.381593,0.110799 -0.155813,0.0579 -0.309366,0.122151 -0.449685,0.212479 -0.157769,0.112202 -0.30756,0.233926 -0.445688,0.369978 -0.14278,0.150918 -0.269481,0.314928 -0.391062,0.483309 -0.121315,0.176096 -0.232453,0.357545 -0.330076,0.548037 -0.102108,0.193513 -0.188701,0.39425 -0.253312,0.603615 -0.06254,0.197535 -0.120309,0.396306 -0.174287,0.596336 -0.05859,0.212807 -0.119866,0.424868 -0.180808,0.637014 -0.06048,0.2032 -0.111075,0.409313 -0.166629,0.613894 -0.06241,0.243596 -0.131387,0.485484 -0.204687,0.726022 -0.07867,0.264895 -0.156633,0.529688 -0.225356,0.797372 -0.06225,0.220993 -0.125913,0.441304 -0.177282,0.665186 -0.06371,0.252484 -0.136027,0.502788 -0.200898,0.754994 -0.07998,0.303858 -0.144693,0.611531 -0.214103,0.917919 -0.05496,0.301784 -0.110321,0.603517 -0.159698,0.906267 -0.04614,0.278828 -0.07364,0.55985 -0.104571,0.840663 -0.02961,0.236006 -0.0468,0.472943 -0.05855,0.710488 -0.01077,0.258308 -0.0031,0.516962 -0.0067,0.775438 -0.0016,0.278757 -0.0045,0.557504 -0.0062,0.836261 2.14e-4,0.286292 0.01093,0.572307 0.01,0.858636 0.0039,0.26815 0.01016,0.536446 0.0316,0.803871 0.01849,0.254082 0.02553,0.508841 0.05203,0.762309 0.0249,0.24629 0.04519,0.493337 0.04877,0.740979 0.007,0.230047 0.01725,0.460214 0.05165,0.68811 0.02424,0.196405 0.04117,0.393658 0.06316,0.590317 0.02837,0.210968 0.06236,0.421119 0.0898,0.63223 0.02577,0.21645 0.05704,0.432226 0.07946,0.649057 0.02498,0.181954 0.05136,0.36449 0.09532,0.542928 0.04426,0.165632 0.08974,0.330655 0.147233,0.492323 0.06949,0.195837 0.129685,0.395028 0.207295,0.587841 0.07225,0.173188 0.145281,0.345972 0.226846,0.515038 0.05726,0.116763 0.129027,0.225271 0.182052,0.343691 0.07561,0.195069 0.159266,0.38703 0.255598,0.572852 0.235829,0.448223 0.472393,0.896329 0.731766,1.331529 0.06537,0.106222 0.215591,0.01378 0.150223,-0.09245 z"
           inkscape:label="path17" /><path
           style="fill:none;stroke:#000000;stroke-width:0.3;stroke-dasharray:none;stroke-opacity:1"
           id="path128"
           d="m -90.108674,54.946917 c -0.07148,0.105053 -0.126931,0.219263 -0.186579,0.331081 -0.0545,0.110419 -0.121099,0.213508 -0.200429,0.307578 -0.10327,0.112591 -0.187609,0.239797 -0.273802,0.365369 -0.09672,0.14578 -0.194379,0.290898 -0.284787,0.440708 -0.08576,0.145661 -0.156104,0.299493 -0.228838,0.451845 -0.103452,0.198363 -0.181782,0.407559 -0.252034,0.619509 -0.06866,0.21023 -0.142605,0.418594 -0.212254,0.628504 -0.05443,0.164092 -0.100801,0.330594 -0.141237,0.498626 -0.04426,0.175937 -0.07555,0.354568 -0.106437,0.533215 -0.0397,0.211053 -0.07105,0.423357 -0.102042,0.635801 -0.02283,0.165053 -0.05032,0.329375 -0.0729,0.494475 -0.02786,0.15925 -0.04141,0.320455 -0.05491,0.48142 -0.01519,0.220109 -0.03127,0.440142 -0.04831,0.660111 -0.02495,0.22437 -0.04706,0.448927 -0.06716,0.673778 -0.01786,0.21404 -0.03694,0.427963 -0.04816,0.642472 -0.01762,0.200059 -0.02283,0.400912 -0.03646,0.601199 -0.01315,0.164923 -0.01887,0.330216 -0.03158,0.49516 -0.01423,0.170466 -0.01696,0.341582 -0.01934,0.512537 -0.0019,0.190791 -0.0016,0.38159 -0.0016,0.572389 1.09e-4,0.226296 1.67e-4,0.452591 2.04e-4,0.678889 -0.0024,0.242899 0.0058,0.485646 0.01114,0.728446 0.0061,0.224589 0.01042,0.449215 0.01273,0.673873 0.0011,0.192799 0.0131,0.385331 0.02008,0.577977 0.01349,0.164851 0.01918,0.3302 0.03068,0.495154 0.01132,0.178551 0.02994,0.356476 0.04685,0.534551 0.01474,0.20946 0.03933,0.417991 0.05908,0.626986 0.02209,0.170791 0.03181,0.342778 0.05315,0.513612 0.02199,0.171177 0.05104,0.341333 0.07869,0.511661 0.03031,0.200004 0.07043,0.398217 0.110069,0.596517 0.03606,0.182189 0.07318,0.364191 0.107198,0.546785 0.03642,0.187963 0.07106,0.376253 0.112819,0.563155 0.03264,0.161962 0.07239,0.322263 0.112326,0.482537 0.03923,0.159744 0.08564,0.317589 0.130723,0.475744 0.0479,0.157067 0.08819,0.316296 0.135419,0.473546 0.03402,0.119497 0.07794,0.235858 0.114157,0.354605 0.01852,0.0532 0.03836,0.105876 0.06072,0.157544 0.006,0.01553 0.01037,0.03152 0.01606,0.04714 0,0 1.41e-4,-5e-6 1.41e-4,-5e-6 v 0 c -0.0056,-0.01564 -0.01,-0.03164 -0.01596,-0.04714 -0.02236,-0.05166 -0.0422,-0.104341 -0.06073,-0.157538 -0.03622,-0.118748 -0.08014,-0.235111 -0.11416,-0.354608 -0.04723,-0.157247 -0.08753,-0.316476 -0.135424,-0.473543 -0.04509,-0.158155 -0.09149,-0.316003 -0.13072,-0.475745 -0.03994,-0.160274 -0.07969,-0.320574 -0.112332,-0.482536 -0.04176,-0.186899 -0.0764,-0.375193 -0.112818,-0.563155 -0.03402,-0.182595 -0.07114,-0.364596 -0.107201,-0.546786 -0.03964,-0.198297 -0.07976,-0.396509 -0.11007,-0.596516 -0.02764,-0.170325 -0.05671,-0.340484 -0.07869,-0.511659 -0.02135,-0.170834 -0.03107,-0.342821 -0.05316,-0.513612 -0.01974,-0.208994 -0.04434,-0.417523 -0.05908,-0.626986 -0.01691,-0.178072 -0.03552,-0.355999 -0.04685,-0.534548 -0.01151,-0.164954 -0.0172,-0.330306 -0.03068,-0.495154 -0.007,-0.192646 -0.0191,-0.385178 -0.02008,-0.577977 -0.0024,-0.224658 -0.0066,-0.449284 -0.01275,-0.673873 -0.0053,-0.2428 -0.01341,-0.485547 -0.01114,-0.728446 -3.5e-5,-0.226298 -9.3e-5,-0.452593 -1.99e-4,-0.678889 -3.4e-5,-0.190799 -1.56e-4,-0.381598 0.0016,-0.572389 0.0024,-0.170955 0.0051,-0.342069 0.01934,-0.512537 0.01273,-0.164941 0.01844,-0.330237 0.03157,-0.49516 0.0136,-0.200287 0.01881,-0.401137 0.03645,-0.601197 0.01122,-0.214511 0.03029,-0.428434 0.04816,-0.642472 0.02011,-0.22485 0.04221,-0.449408 0.06716,-0.673777 0.01704,-0.219972 0.03312,-0.440002 0.04831,-0.660112 0.01349,-0.160964 0.02706,-0.322169 0.05491,-0.481419 0.02259,-0.1651 0.05006,-0.329423 0.0729,-0.494475 0.03099,-0.212445 0.06234,-0.424749 0.102042,-0.635799 0.03089,-0.178647 0.06218,-0.357277 0.106437,-0.533217 0.04043,-0.168029 0.0868,-0.334532 0.141229,-0.498624 0.06965,-0.209909 0.143587,-0.418274 0.212249,-0.628504 0.07025,-0.21195 0.148582,-0.421143 0.252034,-0.619509 0.07274,-0.152349 0.143079,-0.306181 0.228841,-0.451839 0.09041,-0.14981 0.188063,-0.294931 0.284779,-0.440709 0.0862,-0.125571 0.170537,-0.252775 0.273804,-0.365366 0.07933,-0.09407 0.14592,-0.197164 0.200416,-0.307583 0.05965,-0.111818 0.115099,-0.226031 0.186582,-0.331078 z" /><path
           style="fill:none;stroke:#000000;stroke-width:0.3;stroke-dasharray:none;stroke-opacity:1"
           id="path129"
           d="m -91.694938,57.754353 c -0.139764,-0.04737 -0.270849,-0.116356 -0.402799,-0.181608 -0.189122,-0.09549 -0.376375,-0.194947 -0.567886,-0.285541 0,0 -1.08e-4,1.1e-5 -1.08e-4,1.1e-5 v 0 c 0.191439,0.09068 0.3787,0.190063 0.56779,0.285551 0.13195,0.06526 0.263038,0.134242 0.402802,0.18161 z" /><path
           style="fill:none;stroke:#000000;stroke-width:0.3;stroke-dasharray:none;stroke-opacity:1"
           id="path130"
           d="m -92.352287,63.533493 c -0.108443,0.01376 -0.217927,0.01035 -0.326557,0.0011 -0.139385,-0.01519 -0.279432,-0.02204 -0.419521,-0.02625 -0.175604,-0.01045 -0.351221,-0.02019 -0.526764,-0.03163 -0.132813,-0.0118 -0.06788,-0.0068 -0.194765,-0.01519 0,0 -8.7e-5,1.1e-5 -8.7e-5,1.1e-5 v 0 c 0.126769,0.0084 0.06188,0.0034 0.194653,0.01519 0.175544,0.01146 0.351161,0.02117 0.526765,0.03163 0.140086,0.0042 0.280133,0.01103 0.419518,0.02622 0.108759,0.0092 0.218379,0.01262 0.326951,-0.0011 z" /><path
           style="fill:none;stroke:#000000;stroke-width:0.3;stroke-dasharray:none;stroke-opacity:1"
           id="path131"
           d="m -92.523957,68.262459 c -0.146894,0.055 -0.302935,0.08112 -0.456719,0.109112 -0.183366,0.03928 -0.369498,0.05834 -0.55627,0.07111 0,0 1.06e-4,1.6e-5 1.06e-4,1.6e-5 v 0 c 0.186804,-0.01273 0.372962,-0.03182 0.556358,-0.0711 0.153786,-0.02799 0.309829,-0.05411 0.456721,-0.109116 z" /><path
           style="fill:none;stroke:#000000;stroke-width:0.3;stroke-dasharray:none;stroke-opacity:1"
           id="path132"
           d="m -91.533672,73.239267 c -0.134723,0.06095 -0.257887,0.144478 -0.384617,0.220106 -0.14886,0.08941 -0.303972,0.168283 -0.452472,0.258189 -0.05805,0.03924 -0.03083,0.02005 -0.08188,0.05722 0,0 1.16e-4,1.1e-5 1.16e-4,1.1e-5 v 0 c 0.05111,-0.03715 0.02384,-0.01799 0.08198,-0.05721 0.148492,-0.08991 0.303599,-0.168788 0.452454,-0.258188 0.12673,-0.07563 0.249893,-0.15916 0.384619,-0.220107 z" /><path
           style="fill:none;stroke:#000000;stroke-width:0.3;stroke-dasharray:none;stroke-opacity:1"
           id="path133"
           d="m -89.891438,64.859968 c 0.08324,0.03058 0.168855,0.04844 0.257506,0.04396 0.07394,-0.0092 0.125341,-0.0557 0.165783,-0.115031 0.03215,-0.0615 0.04045,-0.127897 0.04219,-0.196119 -0.0092,-0.09603 -0.04683,-0.182439 -0.09191,-0.266341 -0.06544,-0.119694 -0.168497,-0.208425 -0.273174,-0.292679 -0.08068,-0.06537 -0.175575,-0.108844 -0.255543,-0.174916 -0.0069,-0.0063 -0.02508,-0.02122 -0.02952,-0.03112 -0.01881,-0.04187 0.01106,-0.104331 0.02413,-0.142478 0.05972,-0.14191 0.125257,-0.282115 0.216093,-0.406832 0.09006,-0.117252 0.193019,-0.223276 0.304806,-0.31973 0.106764,-0.0836 0.188237,-0.110898 0.321653,-0.120989 0.07753,-2.64e-4 0.180806,-0.0041 0.254503,0.02323 0.05451,0.02021 0.08744,0.04905 0.134046,0.08274 0.138988,0.108919 0.196276,0.269262 0.231537,0.435989 0.01982,0.126476 0.0081,0.253582 -0.01114,0.379164 -0.0016,0.0097 -0.0033,0.01931 -0.0051,0.02894 -0.01834,0.09889 0.01733,-0.07754 0.01823,-0.08137 0.02453,-0.104108 0.07097,-0.192622 0.143764,-0.270275 0.06606,-0.0628 0.133575,-0.07746 0.221967,-0.07105 0.111138,0.0078 0.204724,0.05924 0.289047,0.128426 0.08167,0.07936 0.147307,0.177472 0.17848,0.287891 0.0067,0.02365 0.01029,0.04805 0.01543,0.07207 0.02222,0.123288 0.01802,0.234196 -0.02614,0.3512 -0.0471,0.09601 -0.104425,0.186823 -0.1754,0.266867 -0.06164,0.07417 -0.128288,0.141118 -0.206351,0.197747 -0.03619,0.02905 -0.09559,0.04627 -0.0097,0.05416 0.106384,0.0074 0.181965,0.06001 0.256614,0.132199 0.102365,0.101362 0.140039,0.236775 0.15543,0.375904 0.0073,0.127865 -0.03584,0.203941 -0.134089,0.281223 -0.09623,0.06924 -0.210992,0.0622 -0.323569,0.06541 -0.113935,0.0085 -0.227589,1.51e-4 -0.341268,-0.0071 -0.100962,-0.007 -0.198112,-0.03015 -0.292203,-0.06663 -0.03495,-0.01302 -0.07094,-0.0227 -0.106794,-0.03276 -0.0059,-0.0016 -0.0118,-0.0034 -0.0177,-0.0052 -0.0035,-0.0011 -0.008,-0.0061 -0.01042,-0.0033 -0.0034,0.0039 -2.41e-4,0.01037 -2.64e-4,0.01556 0.03061,0.07891 0.05975,0.146198 0.07726,0.230653 0.01775,0.133284 -0.0024,0.254241 -0.06809,0.371203 -0.04706,0.07912 -0.124132,0.111696 -0.210397,0.129611 -0.09976,0.01865 -0.198527,0.01077 -0.297675,-0.0055 -0.132863,-0.02601 -0.251565,-0.08637 -0.360534,-0.164764 -0.103161,-0.08058 -0.192535,-0.175929 -0.278003,-0.274518 -0.0055,-0.0062 -0.07561,-0.0911 -0.07781,-0.09058 -0.0056,0.0013 -0.0093,0.0066 -0.014,0.0099 -0.04335,0.06562 -0.08686,0.130133 -0.142425,0.186137 -0.09451,0.08027 -0.192461,0.06545 -0.305525,0.04455 -0.125622,-0.03236 -0.202137,-0.09536 -0.274813,-0.200186 -0.07985,-0.124047 -0.101772,-0.267581 -0.106272,-0.412136 0.0051,-0.114882 0.04417,-0.22124 0.09225,-0.324086 0,0 -1.32e-4,-5e-6 -1.32e-4,-5e-6 v 0 c -0.0482,0.102817 -0.0872,0.20919 -0.09234,0.324091 0.0045,0.14456 0.02643,0.288097 0.106265,0.412149 0.07268,0.104836 0.149185,0.167836 0.274812,0.200208 0.113196,0.02093 0.211391,0.03576 0.30599,-0.04457 0.05557,-0.05601 0.09907,-0.120518 0.142428,-0.186135 0.0045,-0.0033 0.0081,-0.0086 0.01352,-0.0099 0.0021,-5.29e-4 0.07233,0.0842 0.07781,0.09057 0.08547,0.09859 0.174847,0.193944 0.278008,0.274523 0.108966,0.0784 0.227669,0.138772 0.360532,0.164775 0.0993,0.01627 0.198229,0.02413 0.298141,0.0055 0.08627,-0.01791 0.163338,-0.05051 0.210391,-0.129633 0.0658,-0.116967 0.08585,-0.237929 0.06808,-0.371218 -0.01752,-0.08445 -0.04664,-0.151741 -0.07725,-0.230648 -3.2e-5,-0.0052 -0.0034,-0.01156 -9.8e-5,-0.01553 0.0024,-0.0028 0.0069,0.0024 0.01042,0.0033 0.0059,0.0019 0.01177,0.0035 0.0177,0.0052 0.03585,0.01005 0.07184,0.01974 0.106788,0.03276 0.09409,0.03649 0.191244,0.05965 0.292206,0.06664 0.113832,0.0073 0.227642,0.01569 0.341731,0.0071 0.11258,-0.0032 0.22734,0.0038 0.323567,-0.06543 0.09825,-0.07729 0.141377,-0.153382 0.134072,-0.281244 -0.0154,-0.139134 -0.05307,-0.274556 -0.155432,-0.375923 -0.07465,-0.07219 -0.150228,-0.124764 -0.256609,-0.132212 -0.08593,-0.0079 -0.02651,-0.02503 0.0097,-0.05411 0.07806,-0.05663 0.144708,-0.123584 0.206351,-0.197752 0.07097,-0.08005 0.128304,-0.170855 0.175398,-0.266875 0.04416,-0.117009 0.04836,-0.22792 0.02611,-0.35121 -0.0051,-0.02402 -0.0087,-0.04843 -0.01542,-0.07207 -0.03118,-0.110421 -0.09681,-0.208537 -0.17848,-0.287904 -0.08432,-0.06919 -0.177909,-0.120689 -0.289047,-0.128439 -0.08858,-0.0064 -0.156157,0.0081 -0.222385,0.07107 -0.07279,0.07766 -0.11924,0.166174 -0.143767,0.270285 -7.93e-4,0.0039 -0.03611,0.180189 -0.01781,0.08138 0.0019,-0.0096 0.0034,-0.01929 0.0051,-0.02894 0.01921,-0.125585 0.03096,-0.252693 0.01114,-0.379172 -0.03526,-0.16673 -0.09255,-0.327078 -0.231542,-0.436001 -0.04659,-0.03368 -0.07954,-0.06254 -0.134041,-0.08275 -0.07382,-0.02738 -0.177252,-0.02352 -0.254905,-0.02323 -0.133418,0.01011 -0.214894,0.0374 -0.321656,0.120999 -0.111789,0.09646 -0.214747,0.202483 -0.304811,0.319736 -0.09083,0.124719 -0.156374,0.264927 -0.216096,0.406836 -0.01307,0.03816 -0.04292,0.100616 -0.02413,0.142502 0.0044,0.0099 0.02262,0.02482 0.02952,0.03112 0.07997,0.06607 0.174863,0.109546 0.255551,0.174916 0.104677,0.08425 0.207732,0.17298 0.273174,0.292672 0.04508,0.0839 0.08267,0.170304 0.09192,0.266329 -0.0019,0.06822 -0.01003,0.134607 -0.04217,0.196109 -0.04043,0.05933 -0.09183,0.105802 -0.165759,0.115018 -0.08854,0.0045 -0.174064,-0.01344 -0.257202,-0.04396 z" /><path
           style="fill:none;stroke:#000000;stroke-width:0.3;stroke-dasharray:none;stroke-opacity:1"
           id="path134"
           d="m -85.258824,60.450877 c -0.124944,0.11819 -0.280064,0.183851 -0.441637,0.234487 -0.180962,0.05003 -0.366102,0.08253 -0.553649,0.09078 -0.218609,-0.01201 -0.334547,-0.100208 -0.469688,-0.262773 -0.0117,-0.02125 -0.02671,-0.04096 -0.0351,-0.06371 -0.04599,-0.124733 0.05559,-0.20215 0.147103,-0.262919 0.07771,-0.03914 0.159462,-0.07076 0.2417,-0.09921 0.05456,-0.01696 -0.0044,-0.0031 -0.02535,-0.0031 -0.07567,-0.01114 -0.156647,-0.02117 -0.223007,-0.06252 -0.01852,-0.01154 -0.03486,-0.0263 -0.0523,-0.03944 -0.10093,-0.08989 -0.170338,-0.207235 -0.210674,-0.335291 -0.01765,-0.0887 -0.0084,-0.193661 0.04035,-0.27265 0.01111,-0.01799 0.0259,-0.03345 0.03885,-0.05017 0.111488,-0.101557 0.252286,-0.159491 0.396452,-0.197157 0.0306,-0.0071 0.06152,-0.01294 0.09277,-0.01627 0.0029,-2.65e-4 0.02273,0.0019 0.01916,-0.0043 -0.04082,-0.04514 -0.05463,-0.106074 -0.06819,-0.163624 -0.02516,-0.09929 0.01638,-0.184711 0.07465,-0.262466 0.0853,-0.106501 0.208063,-0.160782 0.336304,-0.196014 0.11874,-0.02511 0.233148,-0.01151 0.325943,0.0721 0.01998,0.01802 0.03677,0.03927 0.05515,0.0589 0.08584,0.108392 0.150241,0.231244 0.205827,0.35727 0.03312,0.06844 0.03768,0.0438 0.05541,-0.01027 0.01881,-0.06135 0.03501,-0.126746 0.06832,-0.182396 0.02553,-0.04266 0.04656,-0.06044 0.0808,-0.0961 0.144709,-0.10731 0.327911,-0.13075 0.502859,-0.142603 0.136149,-5.29e-4 0.254077,0.0074 0.371459,0.08006 0.07752,0.05919 0.07705,0.115512 0.05167,0.203195 -0.02719,0.07286 -0.06874,0.138432 -0.110628,0.203454 -0.0356,0.05393 -0.06348,0.11245 -0.09115,0.170714 -1.54e-4,5.29e-4 -0.0083,0.02231 -0.0013,0.02532 0.02241,0.0099 0.0489,-0.0031 0.07322,-0.006 0.07808,-0.0092 0.06905,-0.007 0.153956,-0.01021 0.144581,0.0011 0.304995,0.01558 0.418311,0.116909 0.01929,0.01725 0.03402,0.03897 0.05104,0.05845 0.06565,0.103849 0.0925,0.224616 0.0623,0.34525 -0.0058,0.02315 -0.01519,0.04526 -0.02278,0.06789 -0.04696,0.119253 -0.14941,0.186629 -0.260609,0.239332 -0.08352,0.03727 -0.172908,0.03084 -0.258871,0.0067 -0.108365,-0.04189 -0.183912,-0.127596 -0.25877,-0.21241 -0.09455,-0.122648 -0.205261,-0.231013 -0.325369,-0.32828 -0.127968,-0.09868 -0.264615,-0.14782 -0.423405,-0.166211 -0.05763,-0.0016 -0.127264,0.0047 -0.171923,0.04725 -0.02564,0.02442 -0.03407,0.04957 -0.04918,0.08083 -0.04913,0.157821 -0.02561,0.293894 0.03132,0.445064 0.03675,0.09291 0.105738,0.167013 0.154443,0.252931 0.02622,0.04627 0.03433,0.07131 0.05364,0.119912 0.04114,0.09752 0.03624,0.196326 0.02355,0.298537 -0.01,0.05801 -0.02421,0.115144 -0.03696,0.172572 0,0 1.61e-4,2e-6 1.61e-4,2e-6 v 0 c 0.01288,-0.05741 0.02702,-0.114559 0.03701,-0.172572 0.0127,-0.102213 0.0176,-0.201027 -0.02355,-0.298547 -0.01931,-0.0486 -0.02742,-0.07365 -0.05364,-0.119918 -0.0487,-0.08592 -0.117692,-0.160014 -0.154445,-0.252925 -0.05693,-0.151165 -0.08046,-0.287229 -0.03132,-0.445045 0.01511,-0.03126 0.02352,-0.0564 0.04918,-0.08082 0.04454,-0.04239 0.113988,-0.04888 0.171484,-0.04724 0.158787,0.01839 0.295434,0.06752 0.423402,0.166198 0.120105,0.09727 0.230815,0.205629 0.325366,0.328276 0.07486,0.08482 0.150408,0.170524 0.258774,0.212424 0.08608,0.02418 0.175678,0.03061 0.259304,-0.0067 0.111199,-0.05271 0.213644,-0.120092 0.260599,-0.23935 0.0076,-0.02262 0.01699,-0.04474 0.02278,-0.06789 0.03019,-0.12064 0.0033,-0.241411 -0.06231,-0.345266 -0.01701,-0.01947 -0.03175,-0.04121 -0.05103,-0.05846 -0.113419,-0.10143 -0.273992,-0.115824 -0.418693,-0.116919 -0.08446,0.0031 -0.07624,0.0011 -0.153963,0.01021 -0.02418,0.0029 -0.05053,0.0158 -0.07282,0.006 -0.0069,-0.003 0.0013,-0.02474 0.0013,-0.02532 0.02767,-0.05826 0.05555,-0.116777 0.09115,-0.170712 0.04189,-0.06502 0.08343,-0.130593 0.110625,-0.203459 0.02537,-0.08769 0.02585,-0.144024 -0.05167,-0.203221 -0.117504,-0.07271 -0.235559,-0.08055 -0.37184,-0.08007 -0.174953,0.01185 -0.358159,0.0353 -0.50287,0.142615 -0.03424,0.03566 -0.05527,0.05345 -0.0808,0.0961 -0.03332,0.05565 -0.04952,0.121045 -0.06833,0.182402 -0.0177,0.05393 -0.0218,0.07879 -0.05501,0.01027 -0.0556,-0.126023 -0.12,-0.24888 -0.205836,-0.357274 -0.01839,-0.01963 -0.03517,-0.0409 -0.05515,-0.05891 -0.09287,-0.08369 -0.207489,-0.09723 -0.326321,-0.07211 -0.128243,0.03524 -0.25101,0.08952 -0.336309,0.196027 -0.05826,0.07776 -0.09983,0.163193 -0.07465,0.262483 0.01355,0.05755 0.02736,0.118491 0.06818,0.163629 0.0036,0.0061 -0.0164,0.004 -0.01916,0.0043 -0.03125,0.0033 -0.06216,0.0092 -0.09276,0.01627 -0.144166,0.03767 -0.284964,0.09561 -0.396452,0.197171 -0.01294,0.01672 -0.02774,0.03217 -0.03885,0.05017 -0.04873,0.07899 -0.058,0.183954 -0.04035,0.272663 0.04034,0.128059 0.109744,0.245404 0.210675,0.335304 0.01744,0.01315 0.03376,0.0279 0.05229,0.03945 0.06646,0.04143 0.147612,0.05149 0.223415,0.06254 0.02114,-2.7e-5 0.07922,-0.01389 0.02495,0.003 -0.08223,0.02845 -0.163986,0.06008 -0.241692,0.09922 -0.09152,0.06078 -0.193093,0.138205 -0.147111,0.262948 0.0084,0.02275 0.02339,0.04248 0.0351,0.06372 0.135276,0.162729 0.251246,0.250878 0.470072,0.262789 0.187542,-0.0083 0.372673,-0.04076 0.553633,-0.09079 0.16157,-0.05064 0.316682,-0.1163 0.441621,-0.234495 z" /><path
           style="fill:none;stroke:#000000;stroke-width:0.3;stroke-dasharray:none;stroke-opacity:1"
           id="path135"
           d="m -90.827901,64.853896 c 0.112688,0.0061 0.222493,0.02487 0.330679,0.05656 0.110455,0.03282 0.221347,0.06335 0.334044,0.08749 0.09713,0.01728 0.196152,0.03038 0.294968,0.02664 0.03287,-0.0026 0.06408,-0.008 0.09689,-0.0047 0,0 1.24e-4,-1.9e-5 1.24e-4,-1.9e-5 v 0 c -0.03292,-0.0033 -0.06423,0.0019 -0.0972,0.0047 -0.09869,0.0038 -0.197591,-0.0094 -0.294606,-0.02663 -0.112699,-0.02413 -0.223597,-0.05466 -0.334058,-0.08749 -0.10819,-0.03169 -0.217995,-0.05046 -0.330689,-0.05656 z" /><path
           style="fill:none;stroke:#000000;stroke-width:0.3;stroke-dasharray:none;stroke-opacity:1"
           id="path136"
           d="m -87.651562,70.517358 c -0.101815,-0.102688 -0.196565,-0.214035 -0.274392,-0.336056 -0.08684,-0.138993 -0.129201,-0.296751 -0.167965,-0.454109 -0.01431,-0.08391 -0.0346,-0.157369 0.0056,-0.235942 0.03673,-0.05074 0.09559,-0.116547 0.159174,-0.133014 0.0122,-0.0031 0.02511,-0.0021 0.03767,-0.0031 0.09784,0.01699 0.163153,0.09646 0.220695,0.171119 0.05028,0.08013 0.02143,0.02088 0.0077,-0.024 -0.02133,-0.08291 -0.03419,-0.172297 -0.0097,-0.256334 0.0067,-0.02283 0.01733,-0.04431 0.02601,-0.06647 0.09186,-0.194151 0.237795,-0.249772 0.431845,-0.308639 0.15071,-0.03531 0.320146,-0.02924 0.456531,0.05293 0.02511,0.01513 0.04651,0.03573 0.06977,0.0536 0.01873,0.02056 0.0406,0.03868 0.05622,0.0617 0.07289,0.107402 0.07597,0.24475 0.08662,0.369133 0.0019,0.01143 0.0011,0.04881 0.02246,0.05413 0.02138,0.0053 0.146846,-0.08155 0.167074,-0.09373 0.100552,-0.05519 0.211725,-0.09567 0.326265,-0.109051 0.07296,-0.0085 0.101685,-0.0034 0.173308,0.0013 0.152204,0.02748 0.235365,0.07574 0.312036,0.210248 0.04246,0.09346 0.05315,0.191413 0.03453,0.291487 -0.03342,0.129037 -0.102957,0.240511 -0.183014,0.345154 -0.05739,0.07154 -0.115846,0.142028 -0.181515,0.206155 -0.0027,0.0044 -0.0071,0.0083 -0.008,0.01336 -0.0044,0.02307 0.07178,0.0706 0.08372,0.08198 0.01656,0.0158 0.03137,0.03332 0.04706,0.04998 0.07965,0.106283 0.156395,0.228547 0.17449,0.36331 0.0032,0.02379 0.0019,0.04794 0.0029,0.07191 -0.01701,0.156417 -0.06719,0.237795 -0.194011,0.32747 -0.08888,0.05296 -0.187778,0.07047 -0.289661,0.06693 -0.0053,-5.29e-4 -0.03581,-0.0042 -0.04378,-0.0019 -0.02098,0.0064 -0.01513,0.09755 -0.01561,0.11017 -0.0064,0.117359 -0.04089,0.237106 -0.134874,0.31492 -0.02008,0.01664 -0.04335,0.02899 -0.06502,0.04349 -0.117144,0.058 -0.253719,0.0876 -0.384826,0.07149 -0.02148,-0.0026 -0.04241,-0.0087 -0.06362,-0.01307 -0.135559,-0.04485 -0.169881,-0.112535 -0.208151,-0.242575 -0.02671,-0.105434 -0.02109,-0.144529 0.04229,-0.233667 0.07223,-0.09318 0.155258,-0.177099 0.230929,-0.267369 0.08381,-0.08961 0.120668,-0.160552 0.148428,-0.279104 0.01924,-0.126733 -0.006,-0.215418 -0.05808,-0.329652 -0.05254,-0.0992 -0.117639,-0.180107 -0.224242,-0.22121 -0.100327,-0.03025 -0.177519,0.02037 -0.255476,0.07792 -0.07677,0.06072 -0.139885,0.136348 -0.215736,0.198091 -0.08259,0.05423 -0.166918,0.03876 -0.256313,0.01312 -0.148785,-0.0574 -0.190306,-0.128492 -0.253629,-0.270044 -0.0479,-0.125881 -0.02111,-0.06287 -0.08089,-0.188823 0,0 -1.3e-4,5e-6 -1.3e-4,5e-6 v 0 c 0.05964,0.125974 0.03288,0.06296 0.08078,0.188828 0.06332,0.141558 0.104839,0.212654 0.253625,0.270066 0.0895,0.02566 0.174103,0.04115 0.256794,-0.01315 0.07584,-0.06175 0.138956,-0.137369 0.215728,-0.198088 0.07783,-0.05746 0.154839,-0.108117 0.255005,-0.07791 0.106603,0.04109 0.171699,0.121999 0.22424,0.221192 0.0521,0.114231 0.07733,0.202906 0.05809,0.329636 -0.02776,0.118549 -0.06461,0.189489 -0.148418,0.279093 -0.07567,0.09027 -0.158695,0.174194 -0.230926,0.267369 -0.06338,0.08915 -0.06901,0.128249 -0.0423,0.233688 0.03827,0.130046 0.07259,0.197742 0.20815,0.242602 0.02122,0.0043 0.04214,0.01042 0.06363,0.01307 0.131268,0.01609 0.267981,-0.01339 0.385273,-0.0715 0.02167,-0.0145 0.04494,-0.02686 0.06502,-0.04349 0.09399,-0.07782 0.128429,-0.197577 0.134869,-0.314936 5.29e-4,-0.01273 -0.0054,-0.103645 0.01561,-0.110138 0.0078,-0.0024 0.03845,0.0013 0.04334,0.0019 0.102041,0.0035 0.201083,-0.01384 0.29011,-0.06695 0.12682,-0.08969 0.176977,-0.171072 0.193998,-0.327491 -0.0011,-0.02397 2.64e-4,-0.04813 -0.0029,-0.07191 -0.0181,-0.134765 -0.09484,-0.257032 -0.174496,-0.36332 -0.01569,-0.01667 -0.0305,-0.03419 -0.04706,-0.04998 -0.01191,-0.01135 -0.08806,-0.05892 -0.08371,-0.08195 0.0011,-0.0051 0.0053,-0.0089 0.008,-0.01336 0.06567,-0.06413 0.124124,-0.13462 0.181512,-0.206158 0.08006,-0.104645 0.149588,-0.216122 0.18301,-0.345162 0.0186,-0.100081 0.0079,-0.198041 -0.03454,-0.291499 -0.07667,-0.134517 -0.159837,-0.182785 -0.312044,-0.21027 -0.07171,-0.0048 -0.100716,-0.0099 -0.173691,-0.0013 -0.114541,0.01339 -0.225716,0.05386 -0.326268,0.109056 -0.01984,0.01193 -0.145881,0.09893 -0.166677,0.09374 -0.02148,-0.0054 -0.02048,-0.04259 -0.02246,-0.05411 -0.01066,-0.124383 -0.01373,-0.261739 -0.08663,-0.369144 -0.01564,-0.02302 -0.03748,-0.04113 -0.05622,-0.0617 -0.02326,-0.01786 -0.04465,-0.03847 -0.06977,-0.05361 -0.136477,-0.08224 -0.306088,-0.08824 -0.456898,-0.05293 -0.194054,0.05887 -0.339995,0.114501 -0.431853,0.308655 -0.0087,0.02217 -0.01934,0.04364 -0.02601,0.06647 -0.02453,0.08404 -0.01167,0.173434 0.0097,0.256344 0.01371,0.04478 0.04308,0.104188 -0.0073,0.024 -0.05762,-0.07476 -0.123021,-0.154353 -0.221065,-0.171136 -0.01257,0.0011 -0.02548,-2.3e-5 -0.03767,0.0031 -0.06359,0.01648 -0.122439,0.08228 -0.159179,0.133025 -0.04019,0.07858 -0.0199,0.152045 -0.0056,0.235958 0.03877,0.157358 0.08112,0.315118 0.167968,0.454115 0.07783,0.122023 0.172577,0.23337 0.274394,0.33606 z" /><path
           style="fill:none;stroke:#000000;stroke-width:0.3;stroke-dasharray:none;stroke-opacity:1"
           id="path137"
           d="m -81.435947,65.066139 c 0.08356,0.04958 0.160401,0.110374 0.228095,0.179949 0.06159,0.06934 0.06699,0.132659 0.04508,0.218609 -0.04648,0.09921 -0.109247,0.189659 -0.161616,0.285906 -0.07072,0.138285 -0.128264,0.28261 -0.205057,0.417711 -0.07731,0.122256 -0.127908,0.144595 -0.263972,0.178409 -0.129196,0.02777 -0.260554,0.02564 -0.391316,0.01368 -0.106138,-0.0089 -0.222364,-0.03137 -0.29441,-0.119002 -0.0149,-0.0181 -0.024,-0.04027 -0.03601,-0.06041 -0.06084,-0.131649 -0.04135,-0.271767 -0.01736,-0.409432 0.0013,-0.04908 0.02917,-0.107418 0.02175,-0.156583 -7.94e-4,-5.29e-4 -0.0013,-0.0024 -0.0021,-0.0019 -0.01061,0.006 -0.01677,0.01762 -0.02527,0.0263 -0.03523,0.03599 -0.07273,0.07 -0.109128,0.104775 -0.08312,0.07379 -0.163306,0.159052 -0.272386,0.193535 -0.01873,0.0059 -0.03837,0.0084 -0.05755,0.01259 -0.123984,0.01228 -0.216395,-0.02705 -0.311727,-0.102237 -0.08462,-0.07988 -0.169212,-0.171667 -0.218054,-0.279078 -0.01098,-0.02413 -0.01828,-0.04979 -0.02742,-0.07468 -0.03533,-0.123788 -0.04785,-0.256844 -0.01709,-0.383336 0.0058,-0.02368 0.015,-0.04636 0.02249,-0.06955 0.05886,-0.137057 0.15998,-0.244726 0.285202,-0.323135 0.07857,-0.0525 0.171537,-0.06619 0.258847,-0.09515 0.04797,-0.01717 -0.01961,-0.03487 -0.03588,-0.04172 -0.01365,-0.0057 -0.02688,-0.01246 -0.04032,-0.01868 -0.112438,-0.05964 -0.194276,-0.155561 -0.271016,-0.254434 -0.07077,-0.09999 -0.128709,-0.21572 -0.122229,-0.341735 0.0016,-0.0287 0.0082,-0.05689 0.01225,-0.08534 0.02989,-0.149696 0.08922,-0.263377 0.215527,-0.353504 0.02416,-0.01722 0.05066,-0.0309 0.07599,-0.04635 0.154045,-0.07894 0.325268,-0.09725 0.495715,-0.09961 0.152921,0.0035 0.30294,0.03065 0.437354,0.105206 0.01823,0.01765 0.05482,0.03276 0.0654,0.05888 0.0079,0.01955 -0.0213,-0.0098 -0.03007,-0.02122 -0.03681,-0.07676 -0.04767,-0.166367 -0.0278,-0.249687 0.0054,-0.02265 0.01437,-0.04431 0.02154,-0.06646 0.05222,-0.116472 0.132529,-0.214852 0.257878,-0.25441 0.0226,-0.0071 0.0463,-0.01005 0.06945,-0.01505 0.147841,-0.01662 0.283538,0.04197 0.412731,0.106444 0.13774,0.07751 0.160288,0.159409 0.193313,0.303665 0.01249,0.05535 0.01942,0.111607 0.0268,0.167764 0.0011,7.94e-4 0.0021,0.0026 0.0035,0.0024 0.01328,-0.0033 0.06411,-0.03651 0.07241,-0.04101 0.07114,-0.03852 0.03781,-0.0209 0.115551,-0.06052 0.169683,-0.08107 0.352095,-0.12464 0.53734,-0.150633 0.124275,-0.01344 0.248131,-0.0048 0.357587,0.0584 0.04619,0.03375 0.0806,0.07628 0.0992,0.130156 0.01577,0.0513 -0.0052,0.101492 -0.01805,0.151104 -0.02661,0.08381 -0.07369,0.158313 -0.120851,0.231714 -0.04602,0.07629 -0.100801,0.147428 -0.157962,0.215723 -0.05756,0.07609 -0.119538,0.131029 -0.209433,0.164203 -0.133779,0.03064 -0.259467,-0.0227 -0.383564,-0.06673 -0.114284,-0.04012 -0.227282,-0.08639 -0.345715,-0.113448 -0.06066,-0.01386 -0.09013,-0.01572 -0.150842,-0.02281 -0.151492,-0.0083 -0.209867,0.01521 -0.319574,0.115337 -0.08866,0.09597 -0.131868,0.193993 -0.14051,0.323633 0.0011,0.117888 0.06318,0.206751 0.166174,0.262758 0.02922,0.01588 0.06092,0.02669 0.09139,0.04003 0.150826,0.04611 0.07405,0.02548 0.230386,0.06159 0,0 1.08e-4,-1.3e-5 1.08e-4,-1.3e-5 v 0 c -0.156239,-0.03612 -0.0795,-0.0155 -0.230285,-0.0616 -0.03046,-0.01333 -0.06217,-0.02416 -0.09138,-0.04003 -0.102992,-0.056 -0.165087,-0.144854 -0.166164,-0.262737 0.0087,-0.129632 0.05186,-0.227653 0.14051,-0.323614 0.109514,-0.09993 0.167915,-0.123664 0.319125,-0.115324 0.06071,0.0071 0.09019,0.0089 0.150844,0.02281 0.118433,0.02705 0.231428,0.07332 0.345712,0.113443 0.124246,0.0441 0.250082,0.09742 0.384022,0.06673 0.08989,-0.03318 0.151863,-0.08813 0.209423,-0.164217 0.05716,-0.0683 0.111935,-0.139432 0.157959,-0.215725 0.04716,-0.0734 0.09424,-0.14791 0.120854,-0.231719 0.01288,-0.04962 0.0338,-0.09981 0.01804,-0.15112 -0.0186,-0.05388 -0.05301,-0.09642 -0.0992,-0.13017 -0.109577,-0.06328 -0.23359,-0.07187 -0.358,-0.05841 -0.185248,0.02601 -0.367662,0.06956 -0.537347,0.150641 -0.07771,0.0396 -0.04445,0.02201 -0.115554,0.06052 -0.0079,0.0043 -0.05911,0.03769 -0.07198,0.04101 -0.0013,2.65e-4 -0.0024,-0.0016 -0.0035,-0.0024 -0.0074,-0.05616 -0.01434,-0.112419 -0.02682,-0.167767 -0.03303,-0.144261 -0.05557,-0.226171 -0.193315,-0.303681 -0.129334,-0.06455 -0.265136,-0.123118 -0.413139,-0.106449 -0.02315,0.005 -0.04686,0.0079 -0.06945,0.01508 -0.125354,0.03957 -0.205663,0.137951 -0.257889,0.254428 -0.0072,0.02215 -0.01614,0.0438 -0.02156,0.06646 -0.01987,0.08333 -0.009,0.172937 0.02779,0.249706 0.0088,0.01146 0.03841,0.04066 0.03052,0.02119 -0.01058,-0.02611 -0.04718,-0.04124 -0.06542,-0.05889 -0.134538,-0.07462 -0.284705,-0.101727 -0.437766,-0.105214 -0.17045,0.0024 -0.341675,0.02066 -0.495718,0.09962 -0.02532,0.01545 -0.05184,0.02912 -0.07599,0.04635 -0.126312,0.09013 -0.185648,0.203819 -0.215538,0.35352 -0.0041,0.02845 -0.0108,0.05664 -0.01228,0.08535 -0.0065,0.126018 0.05146,0.241752 0.122227,0.341746 0.07674,0.09888 0.158575,0.194794 0.27101,0.254447 0.01344,0.0062 0.02667,0.01294 0.04032,0.01871 0.01625,0.0069 0.08383,0.02453 0.03588,0.04166 -0.08731,0.02897 -0.180271,0.04266 -0.258832,0.09516 -0.125222,0.07841 -0.226343,0.186087 -0.28521,0.323149 -0.0075,0.02318 -0.01675,0.04588 -0.02249,0.06955 -0.03076,0.126495 -0.01823,0.259554 0.01709,0.383347 0.0091,0.0249 0.01643,0.05054 0.02741,0.07468 0.04884,0.107416 0.133435,0.199205 0.218051,0.279085 0.0955,0.07533 0.187981,0.114552 0.312182,0.102251 0.01918,-0.0042 0.03883,-0.0067 0.05755,-0.01259 0.109077,-0.03449 0.189257,-0.119758 0.272381,-0.193545 0.0364,-0.03477 0.0739,-0.06879 0.10913,-0.104775 0.0084,-0.0086 0.01442,-0.02019 0.02482,-0.0263 7.94e-4,-5.29e-4 0.0016,0.0013 0.0021,0.0019 0.0074,0.04916 -0.02035,0.107503 -0.02172,0.156578 -0.02397,0.137668 -0.04347,0.277791 0.01736,0.409448 0.01201,0.02014 0.02111,0.04231 0.03601,0.06042 0.07204,0.08763 0.188269,0.110154 0.294409,0.119015 0.130906,0.01198 0.26242,0.0141 0.391756,-0.01368 0.136062,-0.03382 0.186661,-0.05616 0.263953,-0.178427 0.07678,-0.135107 0.134324,-0.279429 0.205042,-0.417711 0.05237,-0.09625 0.115141,-0.186701 0.161613,-0.285912 0.02191,-0.08596 0.01651,-0.149283 -0.0451,-0.218628 -0.0677,-0.06957 -0.144544,-0.130362 -0.228105,-0.179951 z" /><path
           style="fill:none;stroke:#000000;stroke-width:0.3;stroke-dasharray:none;stroke-opacity:1"
           id="path138"
           d="m -75.099044,63.983388 c -0.114229,0.138662 -0.189092,0.300027 -0.251473,0.467026 -0.0533,0.151289 -0.0743,0.308433 -0.03173,0.464183 0.03935,0.08716 0.06628,0.113292 0.156863,0.0709 0.06374,-0.04428 0.116708,-0.101962 0.178943,-0.148256 0.03877,-0.02884 0.05489,-0.03583 0.09644,-0.05849 0.122672,-0.04712 0.169669,-0.01 0.230669,0.09532 0.03964,0.06892 0.06165,0.183552 0.124825,0.235667 0.01085,0.0089 0.02492,0.01304 0.03737,0.01955 0.01561,0.0013 0.03127,0.0058 0.0468,0.0038 0.106315,-0.01342 0.210452,-0.140047 0.265504,-0.220607 0.02387,-0.03491 0.043,-0.07283 0.0645,-0.109241 0,0 -9.3e-5,-6e-6 -9.3e-5,-6e-6 v 0 c -0.02154,0.03641 -0.04073,0.07432 -0.06461,0.109234 -0.05486,0.08022 -0.159141,0.207171 -0.265104,0.220591 -0.01553,0.0019 -0.0312,-0.0026 -0.0468,-0.0038 -0.01246,-0.0065 -0.02653,-0.01061 -0.03737,-0.01955 -0.06318,-0.0521 -0.0852,-0.166746 -0.12483,-0.235662 -0.06107,-0.105428 -0.108244,-0.142491 -0.23105,-0.09533 -0.04155,0.02267 -0.05766,0.02965 -0.09644,0.05849 -0.06224,0.04629 -0.115205,0.103976 -0.178949,0.148251 -0.09045,0.04232 -0.117136,0.01619 -0.156487,-0.07088 -0.04258,-0.155741 -0.02159,-0.312885 0.03171,-0.464171 0.06238,-0.167 0.137242,-0.328367 0.251479,-0.467022 z" /><path
           style="fill:none;stroke:#000000;stroke-width:0.3;stroke-dasharray:none;stroke-opacity:1"
           id="path139"
           d="m -77.698131,68.313244 c -0.09091,0.04106 -0.190613,0.0646 -0.290909,0.05416 -0.02522,-0.0026 -0.04982,-0.0095 -0.07473,-0.01421 -0.120206,-0.04116 -0.202568,-0.119232 -0.243279,-0.238924 -0.01479,-0.03805 0.0094,-0.07435 0.0076,-0.11139 -0.01704,-0.01889 -0.146661,0.0098 -0.168185,0.01135 -0.03021,0.0021 -0.06055,0.0019 -0.09082,0.0028 -0.151805,-2.65e-4 -0.316045,-0.02915 -0.405236,-0.166855 -0.01495,-0.02307 -0.02297,-0.04996 -0.03446,-0.07494 -0.03645,-0.205269 0.05031,-0.293023 0.206624,-0.406307 0.06523,-0.04848 0.13766,-0.08355 0.210021,-0.119272 0.02487,-0.01228 0.02326,-0.0043 0.0205,-0.02114 -0.0702,-0.02862 -0.144608,-0.04686 -0.206552,-0.09361 -0.01437,-0.01085 -0.02648,-0.02437 -0.03972,-0.03654 -0.008,-0.01572 -0.01982,-0.03002 -0.02397,-0.04716 -0.03167,-0.130387 0.138766,-0.273722 0.220877,-0.34788 0.113644,-0.09444 0.243983,-0.171915 0.386329,-0.214468 0.08413,-0.02516 0.111635,-0.02439 0.196791,-0.03369 0.099,-0.0024 0.208873,0.0043 0.289134,0.07092 0.05257,0.04366 0.05767,0.06977 0.08891,0.130553 0.05912,0.156067 0.0613,0.325787 0.118406,0.482182 0.0089,0.01453 0.01532,0.03098 0.0268,0.04361 0.05449,0.05997 0.14337,0.03548 0.20333,-0.0016 0.01958,-0.01215 0.03613,-0.02862 0.0542,-0.04293 0.07889,-0.07125 0.131627,-0.16518 0.207737,-0.239237 0.05502,-0.05353 0.102564,-0.08686 0.163489,-0.13332 0.08487,-0.0521 0.260781,-0.166775 0.36766,-0.129697 0.01323,0.0046 0.02323,0.01566 0.03485,0.02349 0.0065,0.01281 0.01508,0.02479 0.01955,0.03844 0.02643,0.08074 2.65e-4,0.235421 -0.0036,0.323784 -0.01048,0.152239 0.06318,0.267351 0.117115,0.402072 0.01069,0.02671 0.0195,0.05415 0.02924,0.08122 0,0 9.3e-5,-5e-6 9.3e-5,-5e-6 v 0 c -0.0097,-0.02707 -0.01852,-0.05451 -0.02919,-0.08122 -0.05384,-0.134725 -0.127529,-0.249859 -0.117041,-0.402066 0.0039,-0.08837 0.03001,-0.243046 0.0036,-0.323794 -0.0045,-0.01365 -0.01304,-0.02564 -0.01955,-0.03845 -0.01161,-0.0078 -0.02162,-0.01894 -0.03485,-0.02352 -0.107357,-0.03707 -0.282847,0.07738 -0.368091,0.129707 -0.06092,0.04646 -0.108474,0.07979 -0.163491,0.133326 -0.07611,0.07406 -0.128852,0.167984 -0.207743,0.239233 -0.01807,0.01431 -0.03461,0.03078 -0.0542,0.04292 -0.0599,0.03714 -0.14845,0.06163 -0.202896,0.0019 -0.01148,-0.01262 -0.01786,-0.02907 -0.0268,-0.0436 -0.05711,-0.156395 -0.0593,-0.326117 -0.118411,-0.482184 -0.03124,-0.06079 -0.03634,-0.0869 -0.08891,-0.130567 -0.08038,-0.06675 -0.190416,-0.07321 -0.289542,-0.07093 -0.08516,0.0093 -0.112662,0.0085 -0.196792,0.0337 -0.142348,0.04256 -0.272687,0.120031 -0.386331,0.214479 -0.08212,0.07417 -0.252558,0.217503 -0.220893,0.347906 0.0042,0.01714 0.01598,0.03144 0.02397,0.04717 0.01323,0.01217 0.02535,0.02569 0.03972,0.03654 0.06194,0.04675 0.136332,0.06502 0.206541,0.09359 0.0028,0.01683 0.0044,0.0088 -0.02048,0.02111 -0.07235,0.03572 -0.144778,0.0708 -0.210003,0.119276 -0.156316,0.113292 -0.243078,0.201055 -0.206629,0.406334 0.01148,0.02498 0.01953,0.05187 0.03446,0.07495 0.08928,0.137856 0.253716,0.16663 0.405656,0.16687 0.03027,-0.0011 0.06061,-5.29e-4 0.09082,-0.0028 0.02148,-0.0016 0.150693,-0.03018 0.167756,-0.01138 0.0019,0.03704 -0.02233,0.07335 -0.0075,0.111395 0.04071,0.1197 0.123076,0.197778 0.243284,0.238945 0.02492,0.0047 0.04951,0.01159 0.07474,0.01421 0.100428,0.01042 0.200247,-0.01302 0.291277,-0.05416 z" /><path
           style="fill:none;stroke:#000000;stroke-width:0.3;stroke-dasharray:none;stroke-opacity:1"
           id="path140"
           d="m -89.860651,69.120805 c -0.09147,-0.06705 -0.188685,-0.137025 -0.300024,-0.166431 -0.02498,-0.0066 -0.05078,-0.0095 -0.07618,-0.01429 -0.13575,-0.01918 -0.252997,0.02612 -0.361331,0.103381 -0.07757,0.05866 -0.113289,0.140642 -0.140324,0.231114 -0.03385,0.139766 -0.03432,0.283855 -0.02973,0.426643 0.0036,0.163108 0.01945,0.325334 0.03791,0.487302 0.01265,0.178091 0.0789,0.337169 0.168717,0.488984 0.07114,0.103423 0.168418,0.20901 0.303239,0.215958 0.02088,0.0011 0.04165,-0.0039 0.06247,-0.0058 0.01863,-0.01085 0.03905,-0.0191 0.05592,-0.03252 0.129945,-0.10345 0.156144,-0.323038 0.18341,-0.474173 0.03645,-0.220112 0.02991,-0.447903 -0.04358,-0.660382 -0.01606,-0.04646 -0.03812,-0.09063 -0.05718,-0.135942 -0.03415,-0.03929 -0.06829,-0.07858 -0.102434,-0.11787 0,0 -1.19e-4,1.1e-5 -1.19e-4,1.1e-5 v 0 c 0.03411,0.03929 0.06823,0.07858 0.102336,0.117869 0.01905,0.04531 0.04111,0.08948 0.05718,0.135938 0.0735,0.212473 0.08005,0.440261 0.0436,0.660371 -0.02726,0.151127 -0.05346,0.370721 -0.183412,0.474157 -0.01688,0.01341 -0.03728,0.02167 -0.05592,0.03251 -0.02069,0.0019 -0.04132,0.0069 -0.06207,0.0058 -0.134826,-0.007 -0.232105,-0.112498 -0.303249,-0.21594 -0.08982,-0.151812 -0.156057,-0.310888 -0.168714,-0.488976 -0.01847,-0.161965 -0.03434,-0.324194 -0.03791,-0.487299 -0.0046,-0.142785 -0.0041,-0.286875 0.02973,-0.426638 0.02704,-0.09047 0.06275,-0.172445 0.140327,-0.2311 0.108207,-0.07716 0.225343,-0.122529 0.360942,-0.10337 0.0254,0.0048 0.0512,0.0077 0.07618,0.01426 0.111337,0.0294 0.208553,0.09937 0.300022,0.166423 z" /><path
           style="fill:none;stroke:#000000;stroke-width:0.3;stroke-dasharray:none;stroke-opacity:1"
           id="path141"
           d="m -90.936237,61.165975 c -0.110464,0.0013 -0.223986,0.03042 -0.3076,0.106481 -0.01844,0.01678 -0.03336,0.03702 -0.05003,0.05553 -0.09885,0.140579 -0.09173,0.311645 -0.0825,0.475502 0.02029,0.146581 0.0444,0.323601 0.132845,0.447823 0.01341,0.01884 0.03158,0.03378 0.04737,0.05067 0.07294,0.04727 0.166626,0.06696 0.246867,0.02154 0.05184,-0.02935 0.0717,-0.06378 0.108365,-0.109501 0.09369,-0.163054 0.143129,-0.360632 0.11925,-0.549544 -0.0055,-0.04366 -0.0195,-0.08583 -0.02926,-0.128739 -0.05002,-0.08478 -0.077,-0.166367 -0.183613,-0.199773 -0.05083,-0.01593 -0.106508,-0.0024 -0.159763,-0.0035 0,0 -5.8e-5,10e-6 -5.8e-5,10e-6 v 0 c 0.05321,0.0011 0.108836,-0.01244 0.15962,0.0035 0.106622,0.03343 0.133567,0.11497 0.183602,0.199758 0.0098,0.04291 0.02376,0.08508 0.02927,0.128736 0.02389,0.188907 -0.02553,0.386479 -0.119237,0.549534 -0.03666,0.04571 -0.05652,0.08014 -0.108358,0.10949 -0.08016,0.04538 -0.173651,0.02569 -0.246515,-0.02151 -0.01579,-0.01688 -0.03397,-0.03183 -0.04738,-0.05066 -0.08844,-0.124214 -0.112562,-0.301238 -0.132853,-0.447815 -0.0092,-0.163854 -0.01635,-0.334915 0.0825,-0.47549 0.01667,-0.01852 0.0316,-0.03876 0.05004,-0.05552 0.08352,-0.07598 0.196921,-0.104971 0.307273,-0.106471 z" /><path
           style="fill:none;stroke:#000000;stroke-width:0.3;stroke-dasharray:none;stroke-opacity:1"
           id="path142"
           d="m -88.384905,58.208375 c -0.104355,-0.06893 -0.222602,-0.110498 -0.348465,-0.112265 -0.03226,-5.3e-4 -0.06444,0.0035 -0.09666,0.0052 -0.03495,0.0098 -0.07133,0.01548 -0.104859,0.02938 -0.144653,0.06002 -0.284523,0.188455 -0.364316,0.322371 -0.0182,0.03055 -0.03094,0.06404 -0.0464,0.09605 -0.04675,0.188933 -0.02318,0.386916 0.06067,0.562509 0.0176,0.03683 0.03966,0.07134 0.05949,0.107006 0.139949,0.214534 0.325099,0.381447 0.529579,0.532188 0.11493,0.06822 0.245891,0.116149 0.381106,0.08617 0.07241,-0.01606 0.10391,-0.03919 0.167527,-0.07418 0.02281,-0.02207 0.04809,-0.04187 0.06846,-0.06622 0.130995,-0.156599 0.165603,-0.369776 0.19045,-0.56515 0.01082,-0.200919 1.48e-4,-0.409686 -0.110673,-0.584711 -0.01934,-0.03054 -0.04364,-0.05763 -0.06546,-0.08644 -0.129437,-0.13148 -0.294444,-0.25096 -0.487786,-0.251524 -0.04394,-1.27e-4 -0.08731,0.01008 -0.130969,0.01511 0,0 8.5e-5,1.3e-5 8.5e-5,1.3e-5 v 0 c 0.04357,-0.005 0.08685,-0.01524 0.130712,-0.01511 0.193328,5.29e-4 0.358325,0.120042 0.487754,0.251508 0.02183,0.02881 0.04613,0.0559 0.06546,0.08644 0.110824,0.175016 0.121497,0.383783 0.110686,0.584697 -0.02484,0.195376 -0.05946,0.408538 -0.19045,0.565137 -0.02037,0.02434 -0.04563,0.04415 -0.06845,0.06622 -0.06371,0.03504 -0.09501,0.05807 -0.167513,0.07418 -0.135083,0.03001 -0.265975,-0.01805 -0.380788,-0.08616 -0.204486,-0.150738 -0.389636,-0.317645 -0.529585,-0.532182 -0.01984,-0.03567 -0.04191,-0.07018 -0.05949,-0.107003 -0.08384,-0.175591 -0.107418,-0.373565 -0.06067,-0.562496 0.01548,-0.03202 0.0282,-0.06551 0.0464,-0.09605 0.07979,-0.133913 0.219665,-0.262345 0.364318,-0.32236 0.03353,-0.01392 0.06991,-0.01958 0.104865,-0.02938 0.03212,-0.0019 0.06419,-0.0057 0.09635,-0.0052 0.125863,0.0019 0.244108,0.04333 0.348464,0.112258 z" /><path
           style="fill:none;stroke:#000000;stroke-width:0.3;stroke-dasharray:none;stroke-opacity:1"
           id="path143"
           d="m -84.423773,61.769309 c -0.158192,-0.0528 -0.326318,-0.03778 -0.48836,-0.01537 -0.160271,0.034 -0.318061,0.0839 -0.457226,0.172276 -0.08078,0.05131 -0.120177,0.08799 -0.193786,0.149071 -0.153313,0.144066 -0.291338,0.307269 -0.393867,0.491779 -0.01995,0.03589 -0.03703,0.07329 -0.05554,0.109942 -0.06353,0.138983 -0.104336,0.284382 -0.102841,0.438044 0.0011,0.09794 0.01119,0.13626 0.02723,0.233108 0.04198,0.201142 0.138808,0.385647 0.291039,0.525328 0.02567,0.02355 0.0541,0.04386 0.08115,0.0658 0.114742,0.08175 0.250113,0.133591 0.392906,0.12767 0.03123,-0.0013 0.0621,-0.0072 0.09315,-0.01077 0.243623,-0.05755 0.418669,-0.189471 0.603639,-0.350501 0.140761,-0.128313 0.283133,-0.25721 0.401822,-0.406969 0.07269,-0.09172 0.08334,-0.115216 0.143952,-0.213323 0.06676,-0.124582 0.122275,-0.257323 0.149432,-0.396708 0.01577,-0.08091 0.01333,-0.107318 0.01606,-0.189611 -0.01143,-0.159182 -0.03692,-0.326377 -0.126312,-0.462897 -0.01749,-0.02673 -0.03952,-0.05021 -0.05929,-0.07532 -0.02596,-0.02085 -0.04984,-0.0446 -0.0779,-0.06252 -0.172275,-0.110054 -0.388601,-0.104415 -0.582792,-0.07519 -0.07459,0.01122 -0.147672,0.03085 -0.221507,0.04628 0,0 8e-5,1e-5 8e-5,1e-5 v 0 c 0.07385,-0.01543 0.146949,-0.03504 0.221554,-0.04627 0.194096,-0.02922 0.410268,-0.0348 0.582451,0.07519 0.02806,0.01791 0.05194,0.04168 0.0779,0.06252 0.01977,0.02511 0.04178,0.04859 0.05929,0.07532 0.08939,0.136517 0.114883,0.303704 0.126315,0.462886 -0.0027,0.08228 -2.64e-4,0.108706 -0.01606,0.189605 -0.02715,0.139383 -0.08267,0.272124 -0.149423,0.396703 -0.0606,0.0981 -0.07125,0.121605 -0.143942,0.213321 -0.118686,0.149759 -0.261056,0.278653 -0.401817,0.406966 -0.184968,0.161025 -0.360013,0.292946 -0.603634,0.350491 -0.03093,0.0036 -0.06168,0.0095 -0.09279,0.01077 -0.142796,0.0059 -0.278175,-0.04592 -0.39292,-0.127656 -0.02705,-0.02193 -0.05549,-0.04225 -0.08116,-0.0658 -0.152233,-0.139676 -0.249062,-0.324178 -0.291046,-0.525317 -0.01603,-0.09685 -0.02627,-0.13516 -0.02723,-0.233106 -0.0016,-0.153659 0.03931,-0.299056 0.102838,-0.438039 0.01852,-0.03665 0.0356,-0.07405 0.05554,-0.10994 0.102529,-0.184509 0.240554,-0.34771 0.393867,-0.491773 0.0736,-0.06108 0.113006,-0.09777 0.193788,-0.149069 0.139166,-0.08838 0.296953,-0.138268 0.457227,-0.17227 0.161949,-0.02241 0.329954,-0.03743 0.488053,0.01535 z" /><path
           style="fill:none;stroke:#000000;stroke-width:0.3;stroke-dasharray:none;stroke-opacity:1"
           id="path144"
           d="m -84.090641,66.768471 c -0.109122,-0.06887 -0.234821,-0.112249 -0.361699,-0.134609 -0.04014,-0.0071 -0.08086,-0.01042 -0.121288,-0.01561 -0.186565,-0.01524 -0.376002,-0.003 -0.557014,0.04704 -0.116244,0.03212 -0.165904,0.05819 -0.276267,0.105973 -0.195548,0.09742 -0.393613,0.222838 -0.51866,0.407607 -0.0177,0.02614 -0.03064,0.05523 -0.04597,0.08284 -0.0079,0.02905 -0.01971,0.05731 -0.02363,0.08715 -0.02432,0.185465 0.07933,0.356206 0.171683,0.506722 0.117437,0.178379 0.271555,0.289152 0.476787,0.347723 0.04003,0.01143 0.08127,0.0181 0.121909,0.02712 0.29646,0.03659 0.565055,-0.04545 0.834374,-0.160253 0.184886,-0.09041 0.31917,-0.202993 0.401722,-0.395549 0.0164,-0.03827 0.02724,-0.07871 0.04086,-0.118062 0.03553,-0.150458 0.07295,-0.345996 -0.02588,-0.483749 -0.07768,-0.108291 -0.136474,-0.108852 -0.257455,-0.155368 -0.0822,0.0019 -0.164402,0.0037 -0.246605,0.0056 0,0 5.3e-5,8e-6 5.3e-5,8e-6 v 0 c 0.08212,-0.0019 0.164229,-0.0037 0.246345,-0.0056 0.120968,0.04651 0.179753,0.04707 0.257432,0.155353 0.09882,0.137745 0.06141,0.333274 0.02588,0.483732 -0.01363,0.03935 -0.02445,0.07979 -0.04086,0.118057 -0.08255,0.192548 -0.216829,0.305128 -0.401707,0.395539 -0.269181,0.11475 -0.537702,0.196811 -0.834011,0.16025 -0.04064,-0.009 -0.08188,-0.01569 -0.121912,-0.02712 -0.205232,-0.05857 -0.359349,-0.169336 -0.47679,-0.347713 -0.09235,-0.150511 -0.196001,-0.321246 -0.171677,-0.506709 0.0039,-0.02984 0.01577,-0.05809 0.02363,-0.08714 0.01532,-0.02761 0.02827,-0.05669 0.04596,-0.08284 0.125048,-0.184772 0.323107,-0.310184 0.518655,-0.407601 0.110368,-0.04779 0.160015,-0.07386 0.276265,-0.105971 0.180906,-0.04998 0.370231,-0.06228 0.556686,-0.04704 0.04043,0.0052 0.08114,0.0085 0.121285,0.01561 0.126881,0.02236 0.252576,0.06574 0.361711,0.134602 z" /><path
           style="fill:none;stroke:#000000;stroke-width:0.3;stroke-dasharray:none;stroke-opacity:1"
           id="path145"
           d="m -77.904133,63.502029 c -0.147063,0.0084 -0.278627,0.08471 -0.381444,0.187428 -0.02861,0.02858 -0.05315,0.06098 -0.07972,0.09147 -0.02318,0.03361 -0.04912,0.06546 -0.06953,0.10082 -0.07337,0.127167 -0.125058,0.288806 -0.12541,0.43674 -7.4e-5,0.03151 0.0065,0.06268 0.0098,0.09402 0.01027,0.02707 0.01596,0.05635 0.03078,0.08122 0.04264,0.07157 0.118132,0.109328 0.200068,0.104402 0.07991,-0.0048 0.105013,-0.02619 0.176572,-0.06094 0.02953,-0.02408 0.06157,-0.04534 0.08858,-0.07222 0.100944,-0.10043 0.206581,-0.264721 0.172154,-0.415523 -0.0082,-0.03596 -0.03203,-0.06647 -0.04804,-0.0997 -0.0403,-0.01815 -0.07703,-0.04907 -0.120891,-0.05445 -0.139457,-0.01712 -0.257096,0.04414 -0.382797,0.08948 0,0 3.7e-5,6e-6 3.7e-5,6e-6 v 0 c 0.125434,-0.04523 0.24338,-0.106556 0.382564,-0.08946 0.04386,0.0054 0.08058,0.03629 0.120875,0.05443 0.01601,0.03323 0.03983,0.06373 0.04804,0.09969 0.03443,0.150792 -0.07119,0.31508 -0.17213,0.415507 -0.02701,0.02687 -0.05905,0.04814 -0.08858,0.07221 -0.07118,0.03457 -0.09675,0.05615 -0.176202,0.06094 -0.08193,0.0049 -0.157437,-0.03282 -0.200083,-0.10438 -0.01482,-0.02487 -0.02053,-0.05415 -0.03078,-0.08122 -0.0033,-0.03134 -0.0099,-0.06251 -0.0098,-0.09402 2.65e-4,-0.147931 0.05203,-0.30957 0.125402,-0.436731 0.0204,-0.03536 0.04635,-0.06721 0.06953,-0.10082 0.02657,-0.03049 0.05111,-0.06288 0.07972,-0.09147 0.102735,-0.102635 0.234194,-0.178872 0.381127,-0.187418 z" /><path
           style="fill:none;stroke:#000000;stroke-width:0.3;stroke-dasharray:none;stroke-opacity:1"
           id="path146"
           d="m -73.378295,66.022997 c -0.103952,-0.09219 -0.229277,-0.133853 -0.368363,-0.130527 -0.05109,0.0013 -0.101769,0.0096 -0.152654,0.01431 -0.266113,0.04584 -0.526407,0.143134 -0.738148,0.314582 -0.0339,0.02745 -0.06391,0.05937 -0.09586,0.08906 -0.113112,0.126328 -0.182152,0.271055 -0.145307,0.443823 0.0056,0.02635 0.01707,0.05114 0.02559,0.07671 0.01328,0.0209 0.02381,0.04383 0.03986,0.06271 0.06979,0.08216 0.177559,0.111297 0.281398,0.100492 0.03096,-0.0032 0.06119,-0.01138 0.09179,-0.01709 0.21818,-0.06774 0.403209,-0.209029 0.533939,-0.39619 0.02551,-0.03653 0.04569,-0.07651 0.06854,-0.114768 0.03345,-0.08466 0.09658,-0.192448 0.02966,-0.280075 -0.01625,-0.02127 -0.04279,-0.03215 -0.06419,-0.04822 0,0 -5.3e-5,6e-6 -5.3e-5,6e-6 v 0 c 0.02138,0.01606 0.04791,0.02695 0.06413,0.04822 0.0668,0.08761 0.0037,0.195456 -0.02976,0.280056 -0.02283,0.03826 -0.04302,0.07824 -0.06853,0.114769 -0.13072,0.187161 -0.315738,0.328443 -0.533916,0.396179 -0.0306,0.0057 -0.06084,0.01386 -0.09179,0.01709 -0.103701,0.01082 -0.211355,-0.01844 -0.281041,-0.100473 -0.01603,-0.01886 -0.02657,-0.0418 -0.03986,-0.0627 -0.0085,-0.02556 -0.01998,-0.05034 -0.02558,-0.07671 -0.03685,-0.17276 0.03219,-0.317484 0.145299,-0.443807 0.03195,-0.02968 0.06196,-0.06161 0.09586,-0.08905 0.211741,-0.171447 0.472035,-0.268737 0.738148,-0.314574 0.05077,-0.0048 0.101335,-0.0131 0.152318,-0.01431 0.139075,-0.0033 0.2644,0.03834 0.36835,0.130514 z" /></g><use
         x="0"
         y="0"
         inkscape:tiled-clone-of="#g28"
         xlink:href="#g28"
         id="use29"
         inkscape:transform-center-x="65.457234"
         inkscape:transform-center-y="46.632756" /><use
         x="0"
         y="0"
         inkscape:tiled-clone-of="#g28"
         xlink:href="#g28"
         transform="rotate(60,-70.432991,65.776122)"
         id="use30"
         inkscape:transform-center-x="42.398629"
         inkscape:transform-center-y="34.488592" /><use
         x="0"
         y="0"
         inkscape:tiled-clone-of="#g28"
         xlink:href="#g28"
         transform="rotate(120,-70.17302,65.634326)"
         id="use31"
         inkscape:transform-center-x="1.8779331"
         inkscape:transform-center-y="34.737017" /><use
         x="0"
         y="0"
         inkscape:tiled-clone-of="#g28"
         xlink:href="#g28"
         transform="rotate(180,-70.46524,65.756375)"
         id="use32"
         inkscape:transform-center-x="-19.960498"
         inkscape:transform-center-y="49.605627" /><use
         x="0"
         y="0"
         inkscape:tiled-clone-of="#g28"
         xlink:href="#g28"
         transform="rotate(-120,-70.364265,65.95787)"
         id="use33"
         inkscape:transform-center-x="-35.513881"
         inkscape:transform-center-y="61.74979" /><use
         x="0"
         y="0"
         inkscape:tiled-clone-of="#g28"
         xlink:href="#g28"
         transform="rotate(-60,-70.150749,66.083946)"
         id="use34"
         inkscape:transform-center-x="-33.605174"
         inkscape:transform-center-y="61.501365" /></g></g></svg>
