<?xml version="1.0" encoding="UTF-8" standalone="no"?>
<!-- Created with Inkscape (http://www.inkscape.org/) -->

<svg
   width="202.78839"
   height="207.38744"
   viewBox="0 0 53.654429 54.871259"
   version="1.1"
   id="svg1"
   sodipodi:docname="pizza bacon.svg"
   inkscape:version="1.4 (86a8ad7, 2024-10-11)"
   xml:space="preserve"
   xmlns:inkscape="http://www.inkscape.org/namespaces/inkscape"
   xmlns:sodipodi="http://sodipodi.sourceforge.net/DTD/sodipodi-0.dtd"
   xmlns:xlink="http://www.w3.org/1999/xlink"
   xmlns="http://www.w3.org/2000/svg"
   xmlns:svg="http://www.w3.org/2000/svg"><sodipodi:namedview
     id="namedview1"
     pagecolor="#ffffff"
     bordercolor="#000000"
     borderopacity="0.25"
     inkscape:showpageshadow="2"
     inkscape:pageopacity="0.0"
     inkscape:pagecheckerboard="0"
     inkscape:deskcolor="#ffffff"
     inkscape:document-units="mm"
     showborder="false"
     inkscape:zoom="2.8477805"
     inkscape:cx="138.35336"
     inkscape:cy="103.23829"
     inkscape:window-width="1920"
     inkscape:window-height="1010"
     inkscape:window-x="2873"
     inkscape:window-y="-6"
     inkscape:window-maximized="1"
     inkscape:current-layer="layer3" /><defs
     id="defs1" /><g
     inkscape:groupmode="layer"
     id="layer3"
     inkscape:label="Layer 2"
     style="display:inline"
     transform="translate(97.132661,-38.386689)"><g
       id="g905"><g
         id="g11"
         inkscape:transform-center-x="-11.706529"
         inkscape:transform-center-y="-13.19201"
         inkscape:tile-cx="-70.263989"
         inkscape:tile-cy="65.357775"
         inkscape:tile-w="23.173406"
         inkscape:tile-h="24.975888"
         inkscape:tile-x0="-70.144207"
         inkscape:tile-y0="39.676808"
         style="display:inline"><path
           style="fill:none;stroke:#000000;stroke-width:0.499999;stroke-dasharray:none;stroke-opacity:1"
           id="path15"
           d="m -69.654723,64.251326 c -0.01926,-0.200904 -0.02799,-0.40258 -0.0352,-0.604211 0.0041,-0.159731 -0.02548,-0.31742 -0.02785,-0.47671 0.0074,-0.203105 0.01103,-0.406448 0.02336,-0.609314 0.01987,-0.306462 0.04701,-0.612394 0.07362,-0.918348 0.02822,-0.324509 0.04786,-0.649607 0.07221,-0.974405 0.03291,-0.445807 0.07354,-0.890902 0.115157,-1.335952 0.03627,-0.381 0.100854,-0.758042 0.176853,-1.132824 0.07802,-0.357651 0.146203,-0.717444 0.214892,-1.076995 0.06864,-0.439983 0.146674,-0.878533 0.207192,-1.319733 0.06489,-0.432409 0.125873,-0.865426 0.181682,-1.299099 0.05941,-0.445831 0.131971,-0.889659 0.192691,-1.335313 0.0649,-0.519969 0.172521,-1.033171 0.273547,-1.54695 0.0921,-0.504377 0.221967,-1.000066 0.365233,-1.491953 0.155409,-0.519044 0.296268,-1.04253 0.428607,-1.5679 0.127085,-0.496432 0.256167,-0.992132 0.372377,-1.491244 0.09523,-0.432647 0.202406,-0.862465 0.30217,-1.29408 0.08648,-0.36971 0.174869,-0.739643 0.297984,-1.099119 0.07985,-0.237157 0.146622,-0.4786 0.198459,-0.723376 0.02667,-0.125608 0.05529,-0.249153 0.01712,-0.374264 -0.0086,-0.01627 -0.01593,-0.03331 -0.02588,-0.04879 -0.03001,-0.04662 -0.04718,-0.05879 -0.0823,-0.101571 -0.06065,-0.07389 -0.114266,-0.15318 -0.168296,-0.231902 -0.151366,-0.22348 -0.263774,-0.470014 -0.362419,-0.720384 -0.08969,-0.240381 -0.126658,-0.491982 -0.149407,-0.745995 -0.01585,-0.219937 0.02302,-0.432988 0.08557,-0.642562 0.045,-0.181017 0.151125,-0.330581 0.272616,-0.468024 0.129755,-0.160586 0.31953,-0.234463 0.501857,-0.317603 0.161856,-0.08155 0.332396,-0.138052 0.508066,-0.179565 0.158176,-0.03542 0.320217,-0.01524 0.479282,0.0019 0.210574,0.01693 0.417679,0.05863 0.625549,0.09417 0.166127,0.02709 0.33396,0.03981 0.501423,0.05492 0.23609,0.01736 0.469749,0.05622 0.704498,0.08525 0.211473,0.02008 0.421526,0.05242 0.631142,0.08631 0.224726,0.04343 0.445572,0.102774 0.666567,0.161705 0.263047,0.07658 0.532654,0.127212 0.796923,0.198549 0.284308,0.0807 0.571352,0.149587 0.852781,0.240273 0.276537,0.08462 0.54252,0.198295 0.814424,0.296063 0.281819,0.09177 0.560084,0.193347 0.838116,0.295733 0.190296,0.07107 0.383415,0.134028 0.573886,0.204661 0.290672,0.100769 0.571553,0.225467 0.850533,0.354428 0.277248,0.132458 0.551341,0.272176 0.822589,0.416544 0.262041,0.137705 0.50705,0.304424 0.756624,0.462838 0.234151,0.156591 0.470789,0.308853 0.709779,0.457872 0.180343,0.09739 0.345503,0.216262 0.508021,0.340098 0.155154,0.119227 0.299067,0.25223 0.445966,0.381318 0.260641,0.207735 0.517464,0.420232 0.769456,0.638376 0.241004,0.201525 0.48242,0.402968 0.730477,0.595812 0.22919,0.166333 0.461495,0.327935 0.689589,0.4958 0.188048,0.14519 0.363641,0.305126 0.530863,0.473628 0.193688,0.2061 0.401444,0.398045 0.606396,0.592728 0.229002,0.23277 0.4451,0.477771 0.667692,0.716677 0.198805,0.189433 0.36718,0.407151 0.561903,0.600249 0.217067,0.180465 0.437208,0.355627 0.64471,0.547413 0.160957,0.147629 0.311717,0.306162 0.446942,0.47766 0.143108,0.204845 0.284605,0.410818 0.427906,0.615558 0.125682,0.187537 0.248835,0.377222 0.363119,0.571971 0.102458,0.170127 0.155189,0.356574 0.186164,0.55091 0.02225,0.198467 0.03054,0.399341 0.01987,0.598813 -0.0092,0.179589 -0.02648,0.355875 -0.07377,0.529505 -0.0476,0.169733 -0.123777,0.327031 -0.222609,0.472284 -0.09783,0.123725 -0.212508,0.230667 -0.328946,0.336265 -0.128146,0.128801 -0.278606,0.226941 -0.432999,0.320492 -0.231825,0.148426 -0.483346,0.253931 -0.744254,0.338341 -0.250092,0.08013 -0.507056,0.130577 -0.768123,0.155107 -0.193296,0.02204 -0.386537,0.04318 -0.577871,0.07886 -0.235447,0.03571 -0.449051,0.146772 -0.649086,0.27073 -0.283684,0.206158 -0.581848,0.389305 -0.879809,0.573719 -0.315528,0.191937 -0.607673,0.418373 -0.915619,0.621729 -0.266631,0.151024 -0.540216,0.290483 -0.814472,0.427228 -0.324687,0.170101 -0.663993,0.3092 -0.998861,0.457385 -0.330186,0.149614 -0.649724,0.320855 -0.97255,0.485336 -0.266202,0.127397 -0.535834,0.247094 -0.796316,0.386069 -0.290473,0.164762 -0.567566,0.350766 -0.857613,0.516205 -0.317079,0.173522 -0.638894,0.338119 -0.956625,0.510416 -0.232947,0.127465 -0.476837,0.233418 -0.71887,0.34218 -0.258596,0.108098 -0.506809,0.23721 -0.749795,0.376447 -0.298148,0.164454 -0.593246,0.33452 -0.893548,0.495022 -0.278167,0.153299 -0.565068,0.289248 -0.851627,0.425733 -0.251796,0.106466 -0.498187,0.224422 -0.743077,0.345755 -0.299974,0.143997 -0.590643,0.305805 -0.880438,0.469005 -0.301514,0.17748 -0.604904,0.351264 -0.916811,0.50985 -0.2447,0.127098 -0.490169,0.25292 -0.730951,0.387326 -0.235887,0.135348 -0.478057,0.25895 -0.71515,0.392155 -0.222105,0.123568 -0.439523,0.255262 -0.659495,0.382534 -0.170728,0.09924 -0.35256,0.175829 -0.530963,0.259409 -0.130125,0.05578 -0.253847,0.124941 -0.376513,0.195273 -0.109493,0.07638 -0.224316,0.143615 -0.345496,0.199792 -0.166407,0.07347 -0.332105,0.148616 -0.499096,0.220816 -0.148963,0.05884 -0.281977,0.145629 -0.414896,0.233129 -0.110739,0.07563 -0.216829,0.158118 -0.321937,0.241372 -0.08568,0.06028 -0.164939,0.12872 -0.246692,0.194058 -0.05006,0.04264 -0.110811,0.06916 -0.165614,0.104752 -0.05268,0.0343 -0.115083,0.04665 -0.172611,0.07095 -0.06211,0.02784 -0.126334,0.05014 -0.189659,0.07488 -0.04086,0.01966 -0.08251,0.03621 -0.126357,0.04771 -0.04061,0.0033 -0.09785,0.105114 -0.06522,0.04998 -0.0013,7.94e-4 -0.0029,7.94e-4 -0.0043,0.0013 -0.1187,0.0383 -0.06453,0.206166 0.05417,0.167865 v 0 c 0.01027,-0.0034 0.02043,-0.0071 0.03012,-0.01196 0.02572,-0.01376 0.10958,-0.08207 0.03039,-0.03669 0.05042,-0.01344 0.09915,-0.03141 0.146124,-0.05422 0.06438,-0.02596 0.130328,-0.0481 0.193733,-0.07655 0.06742,-0.02888 0.141353,-0.04257 0.201671,-0.08666 0.05728,-0.04044 0.125912,-0.06464 0.177678,-0.113583 0.08157,-0.06519 0.160583,-0.133508 0.246121,-0.193601 0.101031,-0.08009 0.203041,-0.159414 0.309398,-0.232304 0.124346,-0.08191 0.248288,-0.163851 0.387911,-0.218551 0.168521,-0.07293 0.335788,-0.148704 0.503727,-0.222901 0.125232,-0.05888 0.245536,-0.126783 0.35864,-0.206615 0.118398,-0.06802 0.237903,-0.134774 0.363601,-0.188556 0.182914,-0.08586 0.369432,-0.164407 0.544412,-0.266435 0.219324,-0.12691 0.436115,-0.258204 0.657561,-0.381434 0.23695,-0.133144 0.478991,-0.25668 0.714759,-0.391935 0.238712,-0.133409 0.482287,-0.257937 0.724892,-0.384096 0.314108,-0.159761 0.619794,-0.334558 0.923414,-0.513384 0.287078,-0.161682 0.575,-0.322033 0.872188,-0.464643 0.244079,-0.120936 0.489691,-0.238384 0.740625,-0.344564 0.289009,-0.137684 0.578368,-0.274823 0.85893,-0.429422 0.301805,-0.161382 0.598482,-0.332184 0.898115,-0.497551 0.237934,-0.136451 0.481049,-0.262821 0.734369,-0.368583 0.246036,-0.110562 0.493893,-0.218398 0.730668,-0.34802 0.318815,-0.172955 0.641842,-0.337971 0.959946,-0.512262 0.288567,-0.164709 0.564557,-0.349314 0.85327,-0.513808 0.259406,-0.138597 0.52832,-0.257207 0.793316,-0.384506 0.319966,-0.163031 0.636659,-0.332774 0.963856,-0.4812 0.337339,-0.149302 0.679125,-0.289489 1.006213,-0.460843 0.280562,-0.140015 0.560732,-0.282303 0.832948,-0.437888 0.30647,-0.20246 0.597395,-0.427594 0.911239,-0.618927 0.298119,-0.184518 0.596611,-0.367601 0.880327,-0.574043 0.180641,-0.113501 0.374874,-0.214672 0.588208,-0.247015 0.186031,-0.035 0.374065,-0.05485 0.562004,-0.07663 0.273881,-0.02604 0.543581,-0.0787 0.805942,-0.162931 0.273696,-0.08899 0.537869,-0.199683 0.781262,-0.355279 0.163973,-0.09942 0.323551,-0.204428 0.460065,-0.340681 0.126799,-0.115001 0.251399,-0.232087 0.356494,-0.368006 0.109141,-0.161803 0.194358,-0.336396 0.246833,-0.525126 0.05,-0.185854 0.07031,-0.374336 0.07966,-0.566473 0.01061,-0.211924 0.003,-0.425212 -0.02188,-0.635969 -0.03508,-0.215757 -0.09461,-0.423246 -0.208216,-0.612198 -0.116824,-0.198683 -0.24221,-0.392483 -0.370703,-0.583777 -0.145277,-0.207555 -0.288464,-0.416541 -0.434067,-0.623837 -0.141401,-0.178281 -0.29754,-0.344228 -0.465577,-0.497784 -0.206068,-0.190376 -0.423799,-0.365395 -0.6404,-0.543293 -0.193569,-0.190786 -0.359111,-0.408009 -0.556874,-0.595064 -0.225044,-0.241517 -0.44337,-0.489352 -0.675261,-0.72432 -0.203703,-0.193501 -0.410229,-0.384234 -0.602703,-0.589116 -0.173685,-0.174879 -0.356055,-0.340913 -0.551487,-0.491416 -0.226851,-0.16695 -0.457776,-0.327827 -0.685895,-0.493009 -0.245652,-0.190881 -0.484592,-0.390451 -0.723281,-0.589907 -0.251679,-0.217826 -0.507981,-0.430281 -0.768466,-0.637511 -0.149985,-0.131794 -0.296955,-0.267539 -0.455491,-0.389117 -0.166886,-0.127159 -0.336611,-0.249203 -0.521602,-0.349475 -0.238599,-0.14876 -0.474798,-0.300839 -0.708591,-0.457126 -0.253402,-0.160774 -0.502172,-0.329978 -0.768289,-0.46963 -0.274207,-0.145817 -0.551146,-0.287184 -0.83143,-0.420934 -0.283146,-0.130863 -0.568267,-0.257331 -0.863227,-0.359706 -0.190608,-0.07064 -0.383807,-0.133766 -0.574257,-0.204798 -0.278471,-0.102495 -0.557117,-0.204343 -0.839385,-0.296193 -0.27377,-0.0984 -0.541549,-0.21294 -0.820031,-0.297974 -0.284189,-0.09144 -0.573887,-0.16142 -0.860997,-0.2427 -0.264517,-0.07101 -0.53404,-0.122425 -0.797329,-0.198657 -0.226695,-0.06043 -0.453277,-0.121227 -0.683866,-0.165401 -0.211783,-0.03423 -0.424014,-0.06688 -0.637662,-0.08723 -0.236696,-0.0292 -0.472279,-0.06846 -0.710327,-0.08587 -0.162816,-0.01461 -0.325969,-0.02699 -0.487508,-0.0531 -0.211505,-0.03612 -0.422243,-0.0784 -0.636481,-0.09569 -0.179018,-0.01916 -0.360882,-0.0391 -0.538629,0.0019 -0.18688,0.04417 -0.368384,0.104484 -0.540692,0.190738 -0.204901,0.09347 -0.415424,0.181274 -0.561051,0.361526 -0.137758,0.157023 -0.257146,0.328732 -0.309317,0.534369 -0.06832,0.231105 -0.110254,0.466328 -0.09216,0.708575 0.02442,0.270764 0.06497,0.538935 0.161018,0.794962 0.103843,0.262609 0.221929,0.521163 0.381095,0.755488 0.08041,0.116986 0.165203,0.230236 0.255066,0.339741 0.04033,0.08599 -0.01799,0.193178 -0.02289,0.280432 -0.0502,0.237842 -0.115343,0.47235 -0.192786,0.702789 -0.12473,0.365289 -0.215435,0.740786 -0.30294,1.11647 -0.09974,0.431523 -0.206902,0.861248 -0.302107,1.293802 -0.115964,0.498086 -0.244829,0.992751 -0.371631,1.488165 -0.13177,0.52329 -0.272134,1.044678 -0.426913,1.561661 -0.144698,0.496932 -0.275834,0.997717 -0.368954,1.507241 -0.101692,0.517168 -0.209909,1.03377 -0.275246,1.557168 -0.06077,0.44609 -0.133463,0.890342 -0.192865,1.336614 -0.05573,0.433195 -0.116695,0.865722 -0.181488,1.297652 -0.06003,0.43815 -0.137719,0.87363 -0.205695,1.310592 -0.06856,0.358902 -0.13661,0.718045 -0.214506,1.075042 -0.07724,0.380937 -0.142748,0.764201 -0.179604,1.151456 -0.04172,0.446127 -0.08244,0.892302 -0.11543,1.339186 -0.02429,0.324101 -0.04391,0.648499 -0.07204,0.972315 -0.02672,0.307501 -0.05401,0.614987 -0.07396,0.922999 -0.01244,0.207491 -0.01662,0.415451 -0.02365,0.623191 0.0034,0.160367 0.03082,0.319019 0.02793,0.479769 0.0074,0.205383 0.0163,0.410811 0.03596,0.61545 0.01241,0.124108 0.187925,0.106556 0.175514,-0.01754 z" /><path
           style="fill:none;stroke:#000000;stroke-width:0.3;stroke-dasharray:none;stroke-opacity:1"
           id="path69"
           d="m -65.946741,43.365777 c 0.124388,-0.0028 0.249189,-0.0028 0.373345,0.0058 0.158785,0.01545 0.317995,0.02379 0.477422,0.02844 0.167114,0.0048 0.329184,0.04854 0.490831,0.08705 0.148495,0.02703 0.29541,0.06231 0.444352,0.08674 0.19013,0.03336 0.380881,0.06521 0.56869,0.11003 0.191188,0.04959 0.381119,0.102698 0.568698,0.164608 0.178409,0.0514 0.353232,0.110339 0.524539,0.181909 0.150914,0.06617 0.299255,0.137824 0.450996,0.202128 0.142796,0.0586 0.283038,0.123034 0.422344,0.189418 0.150984,0.07442 0.296825,0.158919 0.445648,0.23759 0.224563,0.110983 0.450451,0.219179 0.675423,0.329446 0.239557,0.12245 0.483733,0.235424 0.725316,0.353748 0.192854,0.101418 0.382436,0.209497 0.566967,0.325398 0.173183,0.114342 0.357807,0.206732 0.545095,0.295087 0.202753,0.09898 0.395817,0.215601 0.584933,0.338191 0.171146,0.124126 0.348152,0.239069 0.532492,0.34255 0.188534,0.102968 0.371877,0.214961 0.558358,0.32149 0.177067,0.09827 0.358746,0.187772 0.5339,0.289476 0.149252,0.09022 0.293357,0.189275 0.431499,0.295717 0.109574,0.08594 0.213762,0.178813 0.32839,0.258011 0.15498,0.101197 0.315883,0.192029 0.468691,0.296732 0.148413,0.104151 0.285528,0.222568 0.424394,0.338749 0.133935,0.11181 0.259519,0.232222 0.398606,0.337728 0.162144,0.127023 0.310948,0.269779 0.45889,0.412763 0.15997,0.141562 0.297895,0.305154 0.446823,0.457803 0.143431,0.138374 0.283888,0.27927 0.409401,0.434237 0.107645,0.14319 0.211068,0.289605 0.303178,0.443293 0.112921,0.201242 0.241784,0.392004 0.374766,0.580311 0.124129,0.168807 0.240094,0.342445 0.336907,0.528381 0.08343,0.152069 0.163785,0.305779 0.244367,0.459375 0.07533,0.133638 0.138586,0.273558 0.201348,0.413379 0.05119,0.111326 0.09875,0.224126 0.151254,0.334968 0.06316,0.12786 0.1329,0.252627 0.201562,0.377682 0.05592,0.102214 0.126135,0.195789 0.190889,0.292516 0.04231,0.06101 0.07336,0.129751 0.09581,0.200392 0.01347,0.03363 0.03347,0.06351 0.04574,0.09763 5.29e-4,0.0109 0.0065,0.01945 0.01087,0.02894 0,0 1.14e-4,-5e-6 1.14e-4,-5e-6 v 0 c -0.0042,-0.0096 -0.01037,-0.01805 -0.01074,-0.02894 -0.01228,-0.03412 -0.03228,-0.064 -0.04576,-0.09763 -0.02246,-0.07064 -0.05351,-0.139393 -0.09582,-0.200398 -0.06476,-0.09673 -0.134975,-0.190301 -0.190892,-0.292515 -0.06866,-0.125053 -0.138403,-0.24982 -0.201562,-0.377679 -0.0525,-0.110842 -0.10006,-0.223642 -0.151257,-0.334968 -0.06276,-0.139819 -0.126021,-0.279742 -0.201351,-0.41338 -0.08058,-0.153596 -0.160938,-0.307306 -0.244366,-0.459375 -0.09682,-0.185936 -0.212781,-0.359574 -0.336913,-0.528383 -0.132979,-0.188307 -0.261844,-0.379069 -0.374763,-0.580308 -0.09211,-0.153691 -0.195533,-0.300109 -0.303184,-0.443299 -0.125515,-0.154967 -0.265975,-0.295862 -0.409411,-0.434237 -0.148928,-0.152649 -0.286853,-0.316243 -0.446828,-0.457806 -0.147942,-0.142981 -0.296746,-0.285739 -0.458891,-0.412763 -0.139088,-0.105505 -0.264673,-0.225914 -0.39861,-0.337727 -0.138869,-0.116182 -0.275985,-0.234599 -0.424397,-0.338749 -0.152808,-0.104706 -0.313711,-0.195535 -0.468691,-0.296733 -0.114628,-0.0792 -0.218816,-0.172066 -0.32839,-0.258008 -0.138142,-0.106445 -0.282253,-0.205494 -0.431504,-0.29572 -0.175154,-0.101706 -0.356833,-0.191212 -0.5339,-0.289478 -0.186484,-0.106529 -0.369827,-0.218522 -0.558361,-0.32149 -0.18434,-0.103481 -0.361347,-0.218421 -0.532492,-0.342548 -0.189117,-0.122592 -0.382183,-0.239218 -0.584936,-0.338193 -0.187288,-0.08835 -0.371909,-0.180745 -0.545094,-0.295084 -0.184534,-0.115904 -0.374119,-0.223978 -0.566976,-0.325401 -0.241583,-0.118322 -0.485757,-0.231299 -0.725316,-0.353748 -0.224969,-0.110265 -0.45086,-0.218461 -0.67542,-0.329443 -0.14882,-0.07867 -0.294661,-0.163174 -0.445646,-0.237593 -0.139305,-0.06638 -0.279548,-0.130821 -0.422343,-0.189418 -0.151744,-0.0643 -0.300085,-0.135959 -0.451001,-0.202129 -0.171307,-0.07157 -0.346131,-0.130513 -0.524542,-0.181909 -0.187582,-0.06191 -0.377515,-0.115014 -0.568703,-0.16461 -0.187812,-0.04482 -0.378563,-0.07667 -0.568693,-0.110032 -0.148942,-0.02442 -0.29586,-0.05971 -0.444354,-0.08673 -0.16165,-0.03851 -0.323723,-0.08227 -0.49084,-0.08705 -0.159432,-0.0047 -0.318645,-0.01299 -0.477438,-0.02844 -0.124245,-0.0086 -0.249137,-0.0086 -0.373615,-0.0058 z" /><path
           style="fill:none;stroke:#000000;stroke-width:0.3;stroke-dasharray:none;stroke-opacity:1"
           id="path70"
           d="m -65.301502,43.337215 c -0.05512,-0.188061 -0.116594,-0.37396 -0.166119,-0.563618 -0.07726,-0.312396 -0.126023,-0.630518 -0.173281,-0.948489 0,0 -7.9e-5,3e-6 -7.9e-5,3e-6 v 0 c 0.04722,0.317971 0.09591,0.6361 0.173183,0.948491 0.04953,0.189659 0.110998,0.375555 0.166111,0.563618 z" /><path
           style="fill:none;stroke:#000000;stroke-width:0.3;stroke-dasharray:none;stroke-opacity:1"
           id="path71"
           d="m -60.682261,44.837434 c 0.04633,-0.241144 0.09449,-0.481743 0.147238,-0.721593 0,0 -5.5e-5,0 -5.5e-5,0 v 0 c -0.05287,0.239832 -0.101029,0.480436 -0.14736,0.721588 z" /><path
           style="fill:none;stroke:#000000;stroke-width:0.3;stroke-dasharray:none;stroke-opacity:1"
           id="path72"
           d="m -56.249805,47.292331 c 0.05516,-0.219906 0.134573,-0.43211 0.218644,-0.642274 0.05969,-0.142951 0.02891,-0.07256 0.09222,-0.211206 0,0 -8.7e-5,-5e-6 -8.7e-5,-5e-6 v 0 c -0.06342,0.138628 -0.03261,0.06824 -0.09231,0.211204 -0.08407,0.210169 -0.163483,0.422372 -0.218654,0.642276 z" /><path
           style="fill:none;stroke:#000000;stroke-width:0.3;stroke-dasharray:none;stroke-opacity:1"
           id="path73"
           d="m -52.530758,50.650041 c 0.238384,-0.05229 0.448985,-0.167653 0.653992,-0.295679 0,0 -5.8e-5,-6e-6 -5.8e-5,-6e-6 v 0 c -0.205052,0.128011 -0.415703,0.243348 -0.654109,0.295664 z" /><path
           style="fill:none;stroke:#000000;stroke-width:0.3;stroke-dasharray:none;stroke-opacity:1"
           id="path74"
           d="m -67.88478,58.416856 c 0.0049,0.20301 0.03234,0.404056 0.06797,0.603665 0.03664,0.195054 0.129157,0.367128 0.233495,0.533091 0.123328,0.198395 0.309475,0.339362 0.49393,0.476742 0.216744,0.154318 0.412959,0.333589 0.582935,0.537969 0.123201,0.150662 0.206081,0.3268 0.263562,0.511506 0.02307,0.06935 0.05014,0.141343 0.103539,0.193236 0.08553,0.05272 0.233485,-0.05279 0.306634,-0.09089 0.239496,-0.141592 0.497218,-0.246327 0.752729,-0.354537 0.20152,-0.09469 0.398761,-0.201136 0.581139,-0.329279 0.01881,-0.02053 0.04498,-0.04328 0.05294,-0.07206 0.02008,-0.0727 -0.03494,-0.157837 -0.06476,-0.218869 -0.05716,-0.09613 -0.11321,-0.194749 -0.185333,-0.280842 -0.02461,-0.02937 -0.106733,-0.113247 -0.133075,-0.14047 -0.129151,-0.139488 -0.280276,-0.254838 -0.429464,-0.371483 -0.117964,-0.09465 -0.229092,-0.196016 -0.32331,-0.314504 -0.09205,-0.112123 -0.15321,-0.244544 -0.21804,-0.373267 -0.07425,-0.163528 -0.11874,-0.335936 -0.146431,-0.512667 -0.01659,-0.156792 -0.02633,-0.314203 -0.06975,-0.466463 -0.03392,-0.112273 -0.05671,-0.140256 -0.175275,-0.123574 -0.192371,0.0624 -0.375928,0.147611 -0.568111,0.211699 -0.282887,0.0848 -0.558752,0.190013 -0.834753,0.294489 -0.179908,0.0672 -0.09203,0.03128 -0.263776,0.1074 0,0 8.5e-5,10e-6 8.5e-5,10e-6 v 0 c 0.171886,-0.07608 0.08396,-0.04017 0.263916,-0.107384 0.276,-0.104473 0.551866,-0.209687 0.834755,-0.294486 0.192186,-0.06409 0.375743,-0.149302 0.568119,-0.211693 0.118282,-0.0168 0.141004,0.01175 0.174802,0.123547 0.04342,0.152254 0.05318,0.309666 0.06976,0.466458 0.02769,0.176733 0.07218,0.349147 0.146425,0.512678 0.06483,0.128719 0.125995,0.261143 0.218044,0.373268 0.09422,0.118491 0.205345,0.219856 0.32331,0.314511 0.149188,0.116644 0.300318,0.231992 0.429466,0.37148 0.02633,0.0272 0.108485,0.111109 0.133078,0.140465 0.07212,0.08609 0.128177,0.184713 0.185338,0.280839 0.02981,0.06102 0.08485,0.146158 0.06476,0.218847 -0.0079,0.02877 -0.03411,0.05153 -0.05292,0.07205 -0.182353,0.128162 -0.379595,0.234588 -0.581107,0.329279 -0.255508,0.108212 -0.513233,0.212948 -0.752731,0.354539 -0.07302,0.03803 -0.220888,0.143516 -0.306282,0.09089 -0.05341,-0.05188 -0.08047,-0.123878 -0.103547,-0.193225 -0.05749,-0.184709 -0.14037,-0.36085 -0.263576,-0.511511 -0.169984,-0.20438 -0.366199,-0.383654 -0.582948,-0.537972 -0.184454,-0.137377 -0.370605,-0.278342 -0.493932,-0.476737 -0.104341,-0.16596 -0.196861,-0.338032 -0.233503,-0.533085 -0.03564,-0.19961 -0.06305,-0.400653 -0.06798,-0.603663 z" /><path
           style="fill:none;stroke:#000000;stroke-width:0.3;stroke-dasharray:none;stroke-opacity:1"
           id="path75"
           d="m -67.749737,59.089477 c 0.255268,-0.215043 0.550217,-0.377738 0.839769,-0.541385 0.161568,-0.08919 0.323448,-0.176932 0.489739,-0.256924 0,0 -3.5e-5,-2e-6 -3.5e-5,-2e-6 v 0 c -0.166341,0.07994 -0.328242,0.167701 -0.489825,0.256913 -0.289555,0.16365 -0.584507,0.326347 -0.83978,0.541388 z" /><path
           style="fill:none;stroke:#000000;stroke-width:0.3;stroke-dasharray:none;stroke-opacity:1"
           id="path76"
           d="m -67.434711,59.528646 c 0.263094,-0.204552 0.544084,-0.382765 0.830213,-0.552797 0.05012,-0.02834 0.100242,-0.05669 0.150365,-0.08503 0,0 -3.4e-5,-3e-6 -3.4e-5,-3e-6 v 0 c -0.05015,0.02834 -0.100307,0.05668 -0.150461,0.08502 -0.286134,0.170029 -0.567124,0.34825 -0.830228,0.552797 z" /><path
           style="fill:none;stroke:#000000;stroke-width:0.3;stroke-dasharray:none;stroke-opacity:1"
           id="path77"
           d="m -66.70092,60.184622 c 0.166976,-0.191191 0.35067,-0.366199 0.547766,-0.525833 0.129466,-0.103153 0.268513,-0.191384 0.414134,-0.269438 0,0 -9e-5,-8e-6 -9e-5,-8e-6 v 0 c -0.145661,0.07802 -0.28471,0.166269 -0.414189,0.269433 -0.197093,0.159636 -0.380788,0.334645 -0.547762,0.525835 z" /><path
           style="fill:none;stroke:#000000;stroke-width:0.3;stroke-dasharray:none;stroke-opacity:1"
           id="path78"
           d="m -66.428148,60.529657 c 0.201086,-0.192066 0.420981,-0.363649 0.645102,-0.527812 0.133686,-0.09525 0.06984,-0.05025 0.19141,-0.135191 0,0 -2.7e-5,-3e-6 -2.7e-5,-3e-6 v 0 c -0.121634,0.08494 -0.05775,0.03994 -0.191516,0.135181 -0.224131,0.164155 -0.444026,0.335751 -0.64512,0.527815 z" /><path
           style="fill:none;stroke:#000000;stroke-width:0.3;stroke-dasharray:none;stroke-opacity:1"
           id="path79"
           d="m -67.108736,51.32085 c -0.07784,0.30348 -0.194794,0.594908 -0.297437,0.890432 -0.07501,0.209632 -0.145624,0.420766 -0.19241,0.638624 -0.0019,0.02376 -0.0079,0.05379 0.0016,0.07768 0.0191,0.04847 0.1378,0.07834 0.179382,0.09413 0.233765,0.07458 0.4504,0.184676 0.661953,0.30726 0.25037,0.165227 0.52573,0.278188 0.812776,0.360958 0.270341,0.07523 0.542478,0.02704 0.812972,-0.01781 0.324723,-0.0531 0.625695,-0.194878 0.923108,-0.329752 0.224223,-0.104416 0.44623,-0.213268 0.66223,-0.333772 0.03373,-0.03276 0.107935,-0.03928 0.131776,-0.08438 0.0098,-0.01847 0.0048,-0.03326 0.0033,-0.05367 -0.02861,-0.189039 -0.03086,-0.380859 -0.03586,-0.571611 0.0027,-0.318897 0.01111,-0.637725 0.03065,-0.956042 -0.0016,-0.141571 0.03449,-0.284578 0.02455,-0.426101 -0.006,-0.06038 -0.05722,-0.04712 -0.103894,-0.04017 -0.100156,0.02527 -0.200287,0.05021 -0.301128,0.07264 -0.172624,0.02331 -0.333417,0.08496 -0.494599,0.147341 -0.270002,0.113331 -0.541411,0.223208 -0.816432,0.323778 -0.32934,0.122413 -0.683382,0.129136 -1.030301,0.119936 -0.260755,-0.0011 -0.51376,-0.04954 -0.760013,-0.131776 -0.104021,-0.02848 -0.200279,-0.09935 -0.308351,-0.114821 -0.01662,-0.0024 -0.03355,0.0013 -0.05032,0.0019 0,0 9.8e-5,1.6e-5 9.8e-5,1.6e-5 v 0 c 0.01669,-5.29e-4 0.03354,-0.0042 0.05008,-0.0019 0.108037,0.01553 0.204274,0.08635 0.308276,0.114829 0.246256,0.08224 0.499264,0.130691 0.760021,0.131784 0.347062,0.0092 0.701249,0.0026 1.030724,-0.119944 0.275022,-0.100573 0.546434,-0.210449 0.816438,-0.323778 0.161185,-0.06238 0.32198,-0.124032 0.494602,-0.147336 0.100843,-0.02244 0.200975,-0.04739 0.301135,-0.07264 0.04656,-0.0069 0.09746,-0.02008 0.103437,0.04014 0.0099,0.14152 -0.02617,0.28453 -0.02453,0.426098 -0.01955,0.318318 -0.02797,0.637146 -0.03065,0.956043 0.005,0.190751 0.0072,0.382574 0.03585,0.571611 0.0016,0.0204 0.0065,0.03519 -0.0033,0.05365 -0.02384,0.04509 -0.09802,0.05162 -0.131739,0.08438 -0.215987,0.120512 -0.437994,0.229351 -0.66221,0.333771 -0.29741,0.134872 -0.598373,0.276646 -0.923094,0.329748 -0.270401,0.04484 -0.542425,0.09303 -0.812673,0.01781 -0.287049,-0.08277 -0.562409,-0.195725 -0.812776,-0.360955 -0.211553,-0.122584 -0.428183,-0.23268 -0.661945,-0.307263 -0.04157,-0.0158 -0.160274,-0.04565 -0.179377,-0.09411 -0.0094,-0.02389 -0.0035,-0.05393 -0.0016,-0.07767 0.04676,-0.217861 0.11738,-0.42899 0.192382,-0.638622 0.102639,-0.295529 0.219593,-0.586957 0.297444,-0.890434 z" /><path
           style="fill:none;stroke:#000000;stroke-width:0.3;stroke-dasharray:none;stroke-opacity:1"
           id="path80"
           d="m -66.597288,51.653651 c -0.06394,0.253987 -0.12718,0.508151 -0.185201,0.763598 -0.0572,0.241067 -0.112948,0.48333 -0.184655,0.720611 0,0 6.1e-5,0 6.1e-5,0 v 0 c 0.07182,-0.237252 0.127545,-0.479531 0.184716,-0.720608 0.05801,-0.255448 0.121256,-0.509609 0.185187,-0.763598 z" /><path
           style="fill:none;stroke:#000000;stroke-width:0.3;stroke-dasharray:none;stroke-opacity:1"
           id="path81"
           d="m -66.222231,51.785956 c -0.04587,0.201943 -0.08378,0.40554 -0.126839,0.608084 -0.06705,0.305393 -0.137236,0.609883 -0.189198,0.918305 0,0 5.6e-5,3e-6 5.6e-5,3e-6 v 0 c 0.05209,-0.308404 0.122187,-0.612913 0.189248,-0.918306 0.04306,-0.202543 0.08096,-0.40614 0.126834,-0.608083 z" /><path
           style="fill:none;stroke:#000000;stroke-width:0.3;stroke-dasharray:none;stroke-opacity:1"
           id="path82"
           d="m -65.135254,51.699982 c -0.07171,0.261927 -0.09015,0.53416 -0.106455,0.804024 -0.01574,0.351504 -0.01738,0.703437 -0.01849,1.055227 -3.7e-5,0.03652 -7.4e-5,0.07303 -1.11e-4,0.109548 0,0 4.2e-5,0 4.2e-5,0 v 0 c 5e-5,-0.03652 9.8e-5,-0.07303 1.48e-4,-0.109548 0.0013,-0.35179 0.0027,-0.703723 0.01852,-1.055224 0.0163,-0.269867 0.03474,-0.5421 0.106466,-0.804022 z" /><path
           style="fill:none;stroke:#000000;stroke-width:0.3;stroke-dasharray:none;stroke-opacity:1"
           id="path83"
           d="m -64.37291,51.449078 c 0.01132,0.300635 0.04977,0.599218 0.08342,0.897937 0.02806,0.277159 0.06298,0.553554 0.09584,0.830168 0,0 6.9e-5,0 6.9e-5,0 v 0 c -0.03282,-0.27662 -0.06773,-0.553014 -0.09581,-0.83017 -0.03366,-0.298717 -0.0721,-0.5973 -0.0834,-0.897935 z" /><path
           style="fill:none;stroke:#000000;stroke-width:0.3;stroke-dasharray:none;stroke-opacity:1"
           id="path84"
           d="m -66.246565,46.404357 c -0.06993,0 -0.139861,0 -0.209793,0 0.171566,-0.0037 0.342694,0.0027 0.513749,0.01545 0.04177,0.01368 0.114213,-0.0076 0.151501,0.02453 0.01421,0.01225 0.01572,0.03476 0.01937,0.05081 0.0078,0.263019 0.01191,0.526433 0.01897,0.789614 -0.0054,0.214305 0.01085,0.431739 -0.02257,0.644411 -0.0079,0.01013 -0.01288,0.0236 -0.02381,0.03043 -0.05512,0.03443 -0.153307,7.4e-5 -0.207518,-0.01159 -0.205549,-0.04426 0.01304,-0.0013 -0.214648,-0.04454 -0.138359,-0.02238 -0.277164,-0.0245 -0.416772,-0.0222 0,0 9e-5,1.4e-5 9e-5,1.4e-5 v 0 c 0.139502,-0.0024 0.278199,-1.33e-4 0.416454,0.02223 0.227563,0.04323 0.0092,2.64e-4 0.214646,0.04454 0.05437,0.01172 0.152726,0.04612 0.207965,0.01159 0.01093,-0.0068 0.01587,-0.02029 0.02381,-0.03044 0.03335,-0.212677 0.01712,-0.430109 0.02252,-0.644413 -0.0071,-0.263184 -0.01117,-0.526598 -0.01894,-0.789618 -0.0037,-0.01606 -0.0051,-0.03857 -0.01934,-0.05083 -0.03728,-0.03216 -0.109744,-0.01085 -0.151511,-0.02453 -0.171167,-0.01275 -0.342413,-0.01921 -0.514094,-0.01543 0.06993,0 0.139864,0 0.209796,0 z" /><path
           style="fill:none;stroke:#000000;stroke-width:0.3;stroke-dasharray:none;stroke-opacity:1"
           id="path85"
           d="m -62.805844,47.324967 c 0.139743,-0.0094 0.274709,0.01503 0.409231,0.04976 0.02826,0.0082 0.05698,0.015 0.08477,0.02471 0.05609,0.01955 0.128953,0.05398 0.18288,0.07759 0.110398,0.04833 0.220652,0.09339 0.334087,0.134133 0.26752,0.09415 0.549738,0.09501 0.829537,0.09726 0.395182,-0.0041 0.788983,-0.03909 1.183357,-0.06044 0.218575,-0.01302 0.437499,-0.01836 0.655619,0.0031 0.08041,0.0088 0.0775,0.0016 0.08839,0.08719 0.0291,0.257387 0.06178,0.514342 0.08546,0.772306 0.02495,0.253915 0.04524,0.508251 0.062,0.762828 0.0016,0.0098 0.0094,0.121383 -0.0024,0.125036 -0.01453,0.0045 -0.05648,-0.01884 -0.06283,-0.02177 -0.106739,-0.06388 -0.200041,-0.1476 -0.310335,-0.205959 -0.03185,-0.01685 -0.06524,-0.03061 -0.09785,-0.04592 -0.252156,-0.109919 -0.527331,-0.136663 -0.799182,-0.147622 -0.317532,-0.0047 -0.629327,0.05783 -0.938819,0.120965 -0.298772,0.06884 -0.597889,0.131947 -0.902409,0.168743 -0.307644,0.03932 -0.616521,0.02867 -0.922906,-0.01331 -0.166076,-0.03009 -0.327141,-0.0816 -0.454173,-0.195715 -0.05098,-0.04926 -0.04254,-0.06317 -0.02811,-0.132252 0.07018,-0.27813 0.13774,-0.556901 0.200438,-0.83688 0.06436,-0.296198 0.135895,-0.590878 0.226917,-0.880078 0.02297,-0.07303 0.0498,-0.144238 0.06637,-0.218996 0,0 -1.04e-4,-3e-6 -1.04e-4,-3e-6 v 0 c -0.01672,0.07473 -0.04357,0.14595 -0.0665,0.218993 -0.09102,0.289201 -0.162552,0.58388 -0.226909,0.880079 -0.0627,0.279982 -0.130262,0.558752 -0.200456,0.836882 -0.01445,0.06909 -0.02289,0.08301 0.02811,0.132276 0.127035,0.114117 0.288105,0.165634 0.454187,0.195728 0.30653,0.04199 0.615566,0.05262 0.923356,0.01331 0.304522,-0.03679 0.603636,-0.0999 0.902409,-0.168743 0.309345,-0.06311 0.620993,-0.1256 0.938374,-0.120962 0.271851,0.01095 0.547023,0.0377 0.799176,0.147614 0.03262,0.01529 0.066,0.02907 0.09785,0.04592 0.110294,0.05836 0.2036,0.142073 0.310335,0.205962 0.0071,0.0033 0.0483,0.02633 0.06328,0.02175 0.01177,-0.0036 0.0042,-0.115131 0.0024,-0.125045 -0.01678,-0.254576 -0.03707,-0.508915 -0.06202,-0.76283 -0.02368,-0.257961 -0.05637,-0.514917 -0.08545,-0.772306 -0.01087,-0.08568 -0.008,-0.07842 -0.08841,-0.08722 -0.21822,-0.02143 -0.437245,-0.01609 -0.65592,-0.0031 -0.394283,0.02135 -0.787996,0.0563 -1.183087,0.06044 -0.2798,-0.0021 -0.562015,-0.0031 -0.829535,-0.09725 -0.113435,-0.04074 -0.22369,-0.0858 -0.334087,-0.134134 -0.05391,-0.0236 -0.126802,-0.05804 -0.182877,-0.07759 -0.02779,-0.0097 -0.05652,-0.01648 -0.08477,-0.02471 -0.134615,-0.03477 -0.269672,-0.05914 -0.409509,-0.04977 z" /><path
           style="fill:none;stroke:#000000;stroke-width:0.3;stroke-dasharray:none;stroke-opacity:1"
           id="path86"
           d="m -62.475781,47.544376 c -0.06462,0.296396 -0.09665,0.598654 -0.140796,0.898511 -0.02394,0.146413 -0.0401,0.294175 -0.07128,0.439283 0,0 5.8e-5,0 5.8e-5,0 v 0 c 0.03126,-0.145098 0.04746,-0.292857 0.07136,-0.439283 0.04413,-0.299855 0.07615,-0.602115 0.140774,-0.898509 z" /><path
           style="fill:none;stroke:#000000;stroke-width:0.3;stroke-dasharray:none;stroke-opacity:1"
           id="path87"
           d="m -61.065629,47.804908 c 0.0089,0.262417 0.02429,0.524378 0.04337,0.786228 0.0024,0.03389 0.005,0.06778 0.0075,0.101666 0,0 5e-5,0 5e-5,0 v 0 c -0.0024,-0.03389 -0.0049,-0.06778 -0.0074,-0.101666 -0.01902,-0.261853 -0.03453,-0.523811 -0.04335,-0.786228 z" /><path
           style="fill:none;stroke:#000000;stroke-width:0.3;stroke-dasharray:none;stroke-opacity:1"
           id="path88"
           d="m -60.648317,47.877179 c 0.03536,0.182581 0.05726,0.367197 0.08135,0.551492 0,0 6.9e-5,-2e-6 6.9e-5,-2e-6 v 0 c -0.02403,-0.184301 -0.04591,-0.368914 -0.08129,-0.551493 z" /><path
           style="fill:none;stroke:#000000;stroke-width:0.3;stroke-dasharray:none;stroke-opacity:1"
           id="path89"
           d="m -59.386779,47.911276 c 0.05591,0.387278 0.07596,0.778767 0.114647,1.168032 0,0 5.3e-5,-3e-6 5.3e-5,-3e-6 v 0 c -0.03856,-0.38927 -0.05869,-0.780751 -0.114562,-1.168032 z" /><path
           style="fill:none;stroke:#000000;stroke-width:0.3;stroke-dasharray:none;stroke-opacity:1"
           id="path90"
           d="m -61.039686,53.703479 c -0.05419,0.236365 -0.08555,0.477631 -0.120333,0.717486 -0.04715,0.312449 -0.07831,0.626475 -0.09597,0.941877 -0.02352,0.3004 3.4e-5,0.600469 0.02503,0.899832 0.02975,0.311237 0.04381,0.623589 0.06706,0.93531 0.0093,0.12369 0.01871,0.247375 0.02848,0.371031 -0.0016,0.03787 0.03731,0.02437 0.06569,0.02371 0.155853,0.01201 0.311846,0.02156 0.468183,0.01953 0.240432,-0.0013 0.478827,-0.03182 0.7171,-0.06056 0.252823,-0.02585 0.505021,-0.05727 0.758021,-0.08143 0.09762,-0.0065 0.195209,-0.01929 0.290041,-0.04379 0.0035,-0.0021 0.01749,-0.0096 0.019,-0.01566 0.0084,-0.03403 -0.02125,-0.118247 -0.02853,-0.148232 -0.04672,-0.233458 -0.07478,-0.470345 -0.104495,-0.706462 -0.05815,-0.370922 -0.07959,-0.745355 -0.09246,-1.120089 -0.01535,-0.389552 -0.0093,-0.779037 0.0036,-1.168493 0.0079,-0.199038 0.02869,-0.397039 0.06668,-0.59255 0.01188,-0.05277 0.02199,-0.08544 -0.03701,-0.102315 -0.113483,-0.01714 -0.227984,-2.64e-4 -0.341884,0.0021 -0.183248,-0.0019 -0.363882,-0.02671 -0.547288,-0.01868 -0.224269,0.01352 -0.447913,0.03472 -0.671894,0.05196 -0.105508,0.0028 -0.208941,0.01484 -0.312192,0.03551 0,0 1.24e-4,1.9e-5 1.24e-4,1.9e-5 v 0 c 0.103288,-0.02064 0.206756,-0.03272 0.312293,-0.03549 0.223983,-0.01725 0.447627,-0.03844 0.671896,-0.05196 0.183407,-0.0081 0.364038,0.01688 0.547291,0.01868 0.113747,-0.0024 0.228089,-0.01921 0.341418,-0.0021 0.05901,0.01685 0.04888,0.04951 0.03701,0.10228 -0.03798,0.195514 -0.05881,0.393514 -0.06667,0.592555 -0.01294,0.389456 -0.01892,0.778941 -0.0036,1.168493 0.01286,0.374734 0.03429,0.74917 0.09245,1.120092 0.02971,0.236117 0.05777,0.473006 0.104487,0.706464 0.0073,0.02997 0.03691,0.1142 0.02854,0.148212 -0.0016,0.0061 -0.01551,0.01344 -0.019,0.01564 -0.09482,0.0245 -0.192395,0.0373 -0.290002,0.0438 -0.252997,0.02416 -0.505193,0.05558 -0.758013,0.08143 -0.238275,0.02874 -0.47667,0.0592 -0.717105,0.06056 -0.15634,0.0021 -0.31233,-0.0076 -0.468188,-0.01953 -0.02835,7.94e-4 -0.06682,0.01408 -0.06532,-0.02365 -0.0098,-0.123655 -0.01915,-0.247343 -0.02851,-0.37103 -0.02326,-0.311722 -0.03734,-0.624073 -0.06708,-0.935313 -0.02498,-0.29936 -0.04854,-0.599429 -0.02503,-0.899829 0.01765,-0.315399 0.04882,-0.629425 0.09597,-0.941874 0.03477,-0.239858 0.06614,-0.481124 0.120338,-0.717487 z" /><path
           style="fill:none;stroke:#000000;stroke-width:0.3;stroke-dasharray:none;stroke-opacity:1"
           id="path91"
           d="m -60.684899,54.920152 c -0.07469,-0.02209 -0.150479,-0.04048 -0.227473,-0.05237 -0.0094,-0.0087 -0.106865,2.02e-4 -0.05545,-0.01217 0.219401,-0.01455 0.440873,-0.0059 0.660551,0.0029 0.280609,0.0096 0.560761,0.01132 0.839401,-0.02556 0.08006,-0.0155 0.160168,-0.02721 0.241523,-0.03147 0,0 -9.6e-5,-1.6e-5 -9.6e-5,-1.6e-5 v 0 c -0.08138,0.0043 -0.161517,0.01595 -0.241601,0.03146 -0.27853,0.03685 -0.558567,0.03515 -0.839065,0.02556 -0.21979,-0.0089 -0.441378,-0.01749 -0.66089,-0.0029 -0.05136,0.01252 0.04596,0.0035 0.05545,0.01222 0.07701,0.01188 0.152813,0.03028 0.227521,0.05236 z" /><path
           style="fill:none;stroke:#000000;stroke-width:0.3;stroke-dasharray:none;stroke-opacity:1"
           id="path92"
           d="m -61.066952,55.674357 c 0.227436,-0.01445 0.456081,-0.0044 0.683871,-0.0016 0.267957,0.01122 0.535628,0.03031 0.803916,0.0291 0.147449,0.0034 0.295423,-0.02249 0.442433,-0.0092 0,0 5.9e-5,-8e-6 5.9e-5,-8e-6 v 0 c -0.147085,-0.01328 -0.295117,0.01252 -0.442638,0.0092 -0.268192,0.0013 -0.535768,-0.01788 -0.803627,-0.0291 -0.227891,-0.003 -0.456633,-0.01297 -0.684167,0.0016 z" /><path
           style="fill:none;stroke:#000000;stroke-width:0.3;stroke-dasharray:none;stroke-opacity:1"
           id="path93"
           d="m -60.998758,56.969998 c 0.274905,-0.01294 0.550561,-0.01707 0.825823,-0.02201 0.291393,-0.0066 0.583856,-0.01088 0.874355,-0.03663 0.05269,0.006 0.191164,-0.04659 0.235254,-0.02201 0,0 1.09e-4,-1.3e-5 1.09e-4,-1.3e-5 v 0 c -0.04396,-0.02461 -0.182933,0.02796 -0.235538,0.02199 -0.290486,0.02577 -0.582938,0.03005 -0.87432,0.03663 -0.275268,0.0049 -0.550929,0.0091 -0.825839,0.02201 z" /><path
           style="fill:none;stroke:#000000;stroke-width:0.3;stroke-dasharray:none;stroke-opacity:1"
           id="path94"
           d="m -57.046402,50.967658 c -0.01431,0.223044 0.02655,0.458869 0.07134,0.676907 0.04698,0.197173 0.09943,0.396132 0.19455,0.576599 0.05644,0.107082 0.102548,0.165819 0.171834,0.264054 0.162496,0.218506 0.322265,0.439653 0.459079,0.67532 0.0888,0.159536 0.15096,0.329665 0.20742,0.502462 0.02029,0.06517 0.04005,0.130559 0.0569,0.196718 0.0032,0.009 0.0032,0.0182 0.0028,0.02757 -0.0026,0.01733 0.0019,0.03117 0.0091,0.04681 0.01228,0.01916 0.0098,0.04905 0.02622,0.06498 0.0653,-0.0032 0.127953,-0.03864 0.186373,-0.0647 0.06333,-0.02825 0.126886,-0.056 0.190317,-0.08402 0.188103,-0.07868 0.368808,-0.172971 0.541041,-0.281908 0.106505,-0.07024 0.198213,-0.156943 0.277918,-0.255873 0.03493,-0.04534 0.05362,-0.09803 0.06293,-0.153802 -0.01191,-0.0948 -0.07064,-0.178769 -0.115588,-0.261112 -0.09287,-0.171583 -0.201459,-0.333058 -0.321876,-0.486299 -0.131615,-0.160666 -0.296792,-0.287618 -0.460153,-0.413809 -0.127757,-0.09915 -0.233492,-0.221165 -0.301017,-0.36899 -0.01736,-0.03801 -0.03077,-0.0777 -0.04616,-0.116547 -0.08011,-0.229803 -0.123468,-0.470291 -0.182512,-0.706006 -0.02487,-0.06502 -0.02958,-0.191497 -0.108051,-0.223827 -0.01177,-0.0048 -0.02495,-0.005 -0.03744,-0.0075 -0.149661,-2.64e-4 -0.297592,0.03763 -0.442912,0.07019 -0.144553,0.03528 -0.07232,0.01437 -0.216567,0.06315 0,0 1.09e-4,1.4e-5 1.09e-4,1.4e-5 v 0 c 0.144375,-0.04874 0.0721,-0.02784 0.216693,-0.06313 0.145164,-0.03252 0.292942,-0.07043 0.442437,-0.07018 0.01246,0.0024 0.02566,0.0026 0.03743,0.0075 0.07848,0.03231 0.0832,0.158806 0.108059,0.223809 0.05905,0.235714 0.102407,0.476205 0.182515,0.706009 0.01537,0.03885 0.0288,0.07854 0.04616,0.116551 0.06752,0.147828 0.173257,0.269846 0.301017,0.369001 0.163361,0.126188 0.328538,0.253138 0.460152,0.413801 0.120418,0.153241 0.229003,0.314714 0.321874,0.486293 0.04495,0.08235 0.103664,0.166301 0.115602,0.261099 -0.0093,0.05577 -0.02799,0.108453 -0.06292,0.153789 -0.0797,0.09893 -0.171405,0.185634 -0.277908,0.255868 -0.172233,0.108934 -0.352936,0.203227 -0.541038,0.281906 -0.06343,0.02803 -0.126987,0.05578 -0.190321,0.08402 -0.05831,0.02601 -0.120816,0.06131 -0.185962,0.0647 -0.01646,-0.0159 -0.01394,-0.04582 -0.02622,-0.06497 -0.0073,-0.01564 -0.01172,-0.02947 -0.0091,-0.0468 5.29e-4,-0.0094 5.29e-4,-0.01855 -0.0028,-0.02758 -0.01685,-0.06616 -0.03661,-0.131549 -0.05691,-0.196718 -0.05647,-0.1728 -0.118644,-0.342927 -0.207446,-0.502465 -0.136822,-0.235667 -0.296601,-0.456811 -0.459097,-0.675323 -0.06929,-0.09823 -0.115398,-0.156972 -0.171837,-0.264051 -0.09512,-0.180464 -0.147571,-0.379423 -0.194556,-0.576593 -0.04479,-0.218033 -0.08567,-0.453867 -0.07135,-0.676902 z" /><path
           style="fill:none;stroke:#000000;stroke-width:0.3;stroke-dasharray:none;stroke-opacity:1"
           id="path95"
           d="m -56.882797,51.869331 c 0.215721,-0.07939 0.423667,-0.19124 0.64764,-0.245938 0,0 -5.9e-5,-8e-6 -5.9e-5,-8e-6 v 0 c -0.22402,0.05463 -0.431982,0.166548 -0.647731,0.245928 z" /><path
           style="fill:none;stroke:#000000;stroke-width:0.3;stroke-dasharray:none;stroke-opacity:1"
           id="path96"
           d="m -56.596327,52.350749 c 0.175088,-0.10182 0.335666,-0.225976 0.505024,-0.336691 0,0 -8.8e-5,-7e-6 -8.8e-5,-7e-6 v 0 c -0.169407,0.110667 -0.329978,0.23486 -0.505084,0.336682 z" /><path
           style="fill:none;stroke:#000000;stroke-width:0.3;stroke-dasharray:none;stroke-opacity:1"
           id="path97"
           d="m -55.922558,53.471831 c 0.216334,-0.138748 0.448689,-0.251397 0.67346,-0.376087 0.103952,-0.05841 0.05418,-0.03305 0.148598,-0.07751 0,0 -4.5e-5,-3e-6 -4.5e-5,-3e-6 v 0 c -0.09453,0.04443 -0.04471,0.01908 -0.148725,0.07749 -0.224766,0.124699 -0.45712,0.237348 -0.673457,0.376092 z" /><path
           style="fill:none;stroke:#000000;stroke-width:0.3;stroke-dasharray:none;stroke-opacity:1"
           id="path98"
           d="m -66.348847,54.783764 c -0.133771,-0.01217 -0.223555,0.03083 -0.295905,0.142717 -0.04304,0.105402 -0.01887,0.200747 0.05248,0.285223 0.05235,0.05 0.138988,0.07788 0.193124,0.01244 0.01111,-0.01344 0.01775,-0.03005 0.02663,-0.04507 0.01418,-0.04001 0.03092,-0.07653 0.03034,-0.120374 -0.0011,-0.07286 -0.03377,-0.169029 -0.09958,-0.209418 -0.02024,-0.01241 -0.04585,-0.01244 -0.06877,-0.01865 0,0 -1.08e-4,1.3e-5 -1.08e-4,1.3e-5 v 0 c 0.02289,0.0062 0.04847,0.0062 0.06868,0.01868 0.06579,0.0404 0.0986,0.136543 0.09957,0.209399 5.29e-4,0.04385 -0.01617,0.08036 -0.03033,0.120367 -0.0089,0.01503 -0.01551,0.03162 -0.02663,0.04506 -0.05408,0.06537 -0.140443,0.03752 -0.192749,-0.01244 -0.07135,-0.08447 -0.09553,-0.179808 -0.05249,-0.285202 0.07224,-0.11171 0.161959,-0.154869 0.295547,-0.142701 z" /><path
           style="fill:none;stroke:#000000;stroke-width:0.3;stroke-dasharray:none;stroke-opacity:1"
           id="path99"
           d="m -67.499954,61.556598 c -0.101656,-0.06762 -0.175541,-0.08936 -0.286009,-0.02808 -0.08552,0.07047 -0.07778,0.141078 -0.02979,0.232267 0.03166,0.052 0.109945,0.133826 0.181464,0.09979 0.01252,-0.006 0.02035,-0.01886 0.03053,-0.02829 0.04207,-0.08458 0.01572,-0.180364 -0.0472,-0.248563 -0.01812,-0.01963 -0.0363,-0.04508 -0.06254,-0.05016 -0.02978,-0.0058 -0.05905,0.01394 -0.08857,0.0209 0,0 3.4e-5,6e-6 3.4e-5,6e-6 v 0 c 0.02944,-0.007 0.05862,-0.02665 0.08832,-0.0209 0.02622,0.0051 0.04442,0.03051 0.06253,0.05015 0.06292,0.06819 0.08928,0.16396 0.04723,0.248534 -0.01019,0.0094 -0.01802,0.0223 -0.03052,0.02829 -0.07129,0.0341 -0.149614,-0.04801 -0.181126,-0.09977 -0.04798,-0.09118 -0.05573,-0.161785 0.02979,-0.232243 0.110416,-0.06124 0.184031,-0.03952 0.285671,0.02808 z" /><path
           style="fill:none;stroke:#000000;stroke-width:0.3;stroke-dasharray:none;stroke-opacity:1"
           id="path100"
           d="m -63.067506,57.53737 c -0.146674,-0.03753 -0.281419,0.04085 -0.384649,0.138804 -0.03569,0.04734 -0.08411,0.134072 -0.03054,0.189118 0.0075,0.0077 0.01876,0.01519 0.02942,0.01347 0.01408,-0.0024 0.0236,-0.01601 0.0354,-0.024 0.05329,-0.08084 0.06383,-0.191132 0.01535,-0.278553 -0.01027,-0.0185 -0.02829,-0.03144 -0.04245,-0.04716 0,0 -9.8e-5,8e-6 -9.8e-5,8e-6 v 0 c 0.01413,0.01572 0.03212,0.02868 0.04236,0.04716 0.04842,0.08744 0.03795,0.197678 -0.01535,0.278529 -0.01167,0.008 -0.02106,0.02172 -0.03503,0.024 -0.01064,0.0019 -0.02191,-0.0057 -0.02942,-0.01347 -0.05358,-0.05503 -0.0052,-0.141769 0.03053,-0.189098 0.103132,-0.09785 0.237784,-0.176273 0.384329,-0.138798 z" /><path
           style="fill:none;stroke:#000000;stroke-width:0.3;stroke-dasharray:none;stroke-opacity:1"
           id="path101"
           d="m -61.886387,54.246388 c -0.120658,0.01177 -0.21617,0.07331 -0.251791,0.195278 -0.0063,0.02164 -0.006,0.0447 -0.009,0.06705 0.0036,0.02495 0.0154,0.116559 0.06489,0.107116 0.05608,-0.01069 0.0517,-0.102626 0.05333,-0.139144 -0.02074,-0.08634 -0.01828,-0.103354 -0.104444,-0.125111 0,0 -7.1e-5,1.1e-5 -7.1e-5,1.1e-5 v 0 c 0.08611,0.02178 0.08354,0.03884 0.104293,0.1251 -0.0016,0.03611 0.0027,0.128431 -0.05292,0.139123 -0.04947,0.0095 -0.06134,-0.08217 -0.06491,-0.107095 0.003,-0.02236 0.0027,-0.0454 0.009,-0.06704 0.03558,-0.121809 0.130968,-0.183399 0.251475,-0.19526 z" /><path
           style="fill:none;stroke:#000000;stroke-width:0.3;stroke-dasharray:none;stroke-opacity:1"
           id="path102"
           d="m -59.704416,50.874985 c -0.105405,0.02315 -0.195091,0.08195 -0.262724,0.165851 -0.01598,0.01982 -0.0326,0.04005 -0.0424,0.06355 -0.009,0.02162 -0.0086,0.04607 -0.01294,0.0691 0.0065,0.02119 0.0079,0.0448 0.01966,0.06362 0.05794,0.09259 0.156149,0.05044 0.205155,-0.02246 0.01167,-0.01738 0.01728,-0.03813 0.0259,-0.0572 0.0011,-0.06767 0.01217,-0.04035 -0.02299,-0.08534 0,0 -10e-5,8e-6 -10e-5,8e-6 v 0 c 0.03502,0.045 0.02402,0.01768 0.02286,0.08532 -0.0086,0.01908 -0.01423,0.03983 -0.0259,0.0572 -0.03527,0.05248 -0.0946,0.09687 -0.158943,0.0635 -0.0182,-0.0094 -0.03496,-0.02363 -0.04584,-0.04102 -0.01177,-0.01881 -0.0131,-0.04241 -0.01966,-0.06361 0.0043,-0.02305 0.0039,-0.04747 0.01294,-0.0691 0.0098,-0.02349 0.02643,-0.04372 0.0424,-0.06354 0.06763,-0.0839 0.157321,-0.14269 0.262725,-0.165841 z" /><path
           style="fill:none;stroke:#000000;stroke-width:0.3;stroke-dasharray:none;stroke-opacity:1"
           id="path103"
           d="m -65.322052,44.413103 c -0.07283,0.07816 -0.143407,0.18727 -0.114041,0.299696 0.0042,0.01588 0.01365,0.02983 0.02048,0.04474 0.06838,0.08953 0.09541,-0.0302 0.09044,-0.08624 -0.0016,-0.01736 -0.0076,-0.034 -0.01138,-0.051 -0.02556,-0.05528 -0.04167,-0.07035 -0.100553,-0.07637 0,0 -7.6e-5,1.3e-5 -7.6e-5,1.3e-5 v 0 c 0.05884,0.006 0.07488,0.02114 0.100422,0.07636 0.0038,0.01699 0.0098,0.03365 0.01138,0.051 0.0049,0.05581 -0.0217,0.1758 -0.0901,0.08624 -0.0068,-0.01492 -0.01635,-0.02887 -0.0205,-0.04474 -0.02937,-0.112424 0.04122,-0.22153 0.114046,-0.299682 z" /><path
           style="fill:none;stroke:#000000;stroke-width:0.3;stroke-dasharray:none;stroke-opacity:1"
           id="path104"
           d="m -61.711987,45.973351 c -0.09748,0.0519 -0.212159,0.172659 -0.149924,0.29354 0.01011,0.01963 0.03055,0.03191 0.04583,0.04786 0.09077,0.08703 0.282122,-0.142299 0.143499,-0.155618 -0.02596,-0.0024 -0.05141,0.0086 -0.07712,0.01289 0,0 5.8e-5,7e-6 5.8e-5,7e-6 v 0 c 0.02564,-0.0043 0.05106,-0.01537 0.07695,-0.01289 0.13833,0.01331 -0.05259,0.24252 -0.143227,0.155594 -0.01527,-0.01595 -0.03572,-0.02822 -0.04584,-0.04785 -0.06225,-0.120872 0.05245,-0.24163 0.149923,-0.293518 z" /><path
           style="fill:none;stroke:#000000;stroke-width:0.3;stroke-dasharray:none;stroke-opacity:1"
           id="path105"
           d="m -56.188316,49.234309 c -0.108717,0.01873 -0.222414,0.09241 -0.194304,0.219353 0.0049,0.02207 0.01855,0.04121 0.02782,0.06181 0.0182,0.09571 0.216742,0.0076 0.143008,-0.0561 -0.0099,-0.0085 -0.02453,-0.0089 -0.03677,-0.01339 0,0 -7.9e-5,8e-6 -7.9e-5,8e-6 v 0 c 0.01225,0.0045 0.02687,0.0049 0.03672,0.01339 0.04012,0.03474 -0.01503,0.08669 -0.04744,0.09538 -0.05078,0.01363 -0.05903,-0.0092 -0.09529,-0.03928 -0.0093,-0.02061 -0.02294,-0.03974 -0.02782,-0.0618 -0.02809,-0.126814 0.0854,-0.200456 0.193997,-0.219329 z" /><path
           style="fill:none;stroke:#000000;stroke-width:0.3;stroke-dasharray:none;stroke-opacity:1"
           id="path106"
           d="m -65.602976,49.493376 c -0.0393,0.029 -0.08152,0.05477 -0.107884,0.09817 -0.02426,0.03995 -0.05401,0.147238 0.0077,0.177067 0.01315,0.0063 0.02913,-0.0024 0.0437,-0.0036 0.02728,-0.01617 0.08111,-0.09765 0.03313,-0.12255 -0.0149,-0.0077 -0.03352,0.0013 -0.05028,0.0021 0,0 5.9e-5,1e-5 5.9e-5,1e-5 v 0 c 0.01669,-7.94e-4 0.03525,-0.0098 0.05006,-0.0021 0.0479,0.02495 -0.0059,0.106344 -0.03316,0.122513 -0.01445,0.0013 -0.03031,0.0099 -0.04335,0.0036 -0.06169,-0.02992 -0.03208,-0.137001 -0.0078,-0.177048 0.02638,-0.0434 0.06859,-0.06918 0.10789,-0.09817 z" /><path
           style="fill:none;stroke:#000000;stroke-width:0.3;stroke-dasharray:none;stroke-opacity:1"
           id="path107"
           d="m -55.593982,48.47867 c 0.03577,0.0554 0.148444,0.15813 0.214466,0.08327 0.0073,-0.0083 0.0068,-0.02096 0.01019,-0.03143 -0.0131,-0.05336 -0.04999,-0.03191 -0.08889,-0.01722 0,0 3.7e-5,5e-6 3.7e-5,5e-6 v 0 c 0.03886,-0.01468 0.07556,-0.03606 0.08865,0.01723 -0.0034,0.01048 -0.0029,0.02312 -0.01019,0.03142 -0.06558,0.07499 -0.178592,-0.02812 -0.214138,-0.08326 z" /></g><use
         x="0"
         y="0"
         inkscape:tiled-clone-of="#g11"
         xlink:href="#g11"
         id="use12"
         inkscape:transform-center-x="39.966781"
         inkscape:transform-center-y="34.873188"
         style="display:inline" /><use
         x="0"
         y="0"
         inkscape:tiled-clone-of="#g11"
         xlink:href="#g11"
         transform="rotate(60,-70.464231,65.19676)"
         id="use13"
         inkscape:transform-center-x="20.692937"
         inkscape:transform-center-y="50.052785"
         style="display:inline" /><use
         x="0"
         y="0"
         inkscape:tiled-clone-of="#g11"
         xlink:href="#g11"
         transform="rotate(120,-70.358929,65.612656)"
         id="use14"
         inkscape:transform-center-x="8.0317047"
         inkscape:transform-center-y="62.113055"
         style="display:inline" /><use
         x="0"
         y="0"
         inkscape:tiled-clone-of="#g11"
         xlink:href="#g11"
         transform="rotate(180,-70.344609,65.775864)"
         id="use15"
         inkscape:transform-center-x="12.253508"
         inkscape:transform-center-y="61.257206"
         style="display:inline" /><use
         x="0"
         y="0"
         inkscape:tiled-clone-of="#g11"
         xlink:href="#g11"
         transform="rotate(-120,-69.997922,65.637735)"
         id="use16"
         inkscape:transform-center-x="-2.5568665"
         inkscape:transform-center-y="46.077608"
         style="display:inline" /><use
         x="0"
         y="0"
         inkscape:tiled-clone-of="#g11"
         xlink:href="#g11"
         transform="rotate(-60,-69.856686,65.581394)"
         id="use17"
         inkscape:transform-center-x="-23.979853"
         inkscape:transform-center-y="34.017338"
         style="display:inline" /></g></g></svg>
