<?xml version="1.0" encoding="UTF-8" standalone="no"?>
<!-- Created with Inkscape (http://www.inkscape.org/) -->

<svg
   width="203.53607"
   height="206.37648"
   viewBox="0 0 53.852252 54.603777"
   version="1.1"
   id="svg1"
   sodipodi:docname="pizza mushrooms.svg"
   inkscape:version="1.4 (86a8ad7, 2024-10-11)"
   xml:space="preserve"
   xmlns:inkscape="http://www.inkscape.org/namespaces/inkscape"
   xmlns:sodipodi="http://sodipodi.sourceforge.net/DTD/sodipodi-0.dtd"
   xmlns:xlink="http://www.w3.org/1999/xlink"
   xmlns="http://www.w3.org/2000/svg"
   xmlns:svg="http://www.w3.org/2000/svg"><sodipodi:namedview
     id="namedview1"
     pagecolor="#ffffff"
     bordercolor="#000000"
     borderopacity="0.25"
     inkscape:showpageshadow="2"
     inkscape:pageopacity="0.0"
     inkscape:pagecheckerboard="0"
     inkscape:deskcolor="#ffffff"
     inkscape:document-units="mm"
     showborder="false"
     inkscape:zoom="2.8477805"
     inkscape:cx="138.00221"
     inkscape:cy="103.9406"
     inkscape:window-width="1920"
     inkscape:window-height="1010"
     inkscape:window-x="2873"
     inkscape:window-y="-6"
     inkscape:window-maximized="1"
     inkscape:current-layer="layer6" /><defs
     id="defs1" /><g
     inkscape:groupmode="layer"
     id="layer6"
     inkscape:label="Layer 5"
     style="display:inline"
     transform="translate(97.102645,-38.233513)"><g
       id="g982"><g
         id="g34"
         inkscape:transform-center-x="1.8966559"
         inkscape:transform-center-y="-0.46501245"
         inkscape:tile-cx="-80.133272"
         inkscape:tile-cy="79.936236"
         inkscape:tile-w="22.490096"
         inkscape:tile-h="25.220786"
         inkscape:tile-x0="-93.236492"
         inkscape:tile-y0="66.861299"><path
           style="fill:none;stroke:#000000;stroke-width:0.499999;stroke-dasharray:none;stroke-opacity:1"
           id="path18"
           d="m -92.781423,81.271792 c -0.01688,-0.131805 -0.02914,-0.263589 -0.02019,-0.396277 0.0075,-0.105598 -0.01601,-0.21144 -0.0072,-0.316688 0.01294,-0.103815 0.02093,-0.207621 0.03957,-0.310613 0.02646,-0.101931 0.05467,-0.201525 0.09896,-0.297201 0.04795,-0.112662 0.102674,-0.222687 0.170315,-0.324869 0.07666,-0.0902 0.166042,-0.168984 0.248385,-0.25436 0.09536,-0.125783 0.215686,-0.225112 0.342543,-0.317426 0.141777,-0.09811 0.297262,-0.174667 0.454144,-0.2453 0.129776,-0.05233 0.26144,-0.100177 0.397933,-0.131472 0.181767,-0.03936 0.367187,-0.01722 0.549852,0.0024 0.159065,0.01842 0.321316,0.03745 0.471826,0.09492 0.06592,0.02318 0.120463,0.06819 0.18229,0.09964 0.05215,0.02601 0.10408,0.02839 0.160565,0.0204 0.129114,-0.05413 0.240403,-0.143997 0.358167,-0.218879 0.190283,-0.116168 0.374713,-0.241176 0.55943,-0.36589 0.195146,-0.138737 0.374377,-0.298074 0.562199,-0.446452 0.271405,-0.192236 0.55648,-0.364056 0.832488,-0.549519 0.227923,-0.160996 0.467892,-0.303212 0.706623,-0.44727 0.238077,-0.126579 0.458459,-0.278717 0.673605,-0.440367 0.24125,-0.187852 0.478224,-0.380368 0.733883,-0.548511 0.303009,-0.174439 0.57703,-0.389532 0.848704,-0.607975 0.354129,-0.269864 0.723357,-0.519435 1.098886,-0.758383 0.317203,-0.202287 0.634688,-0.404133 0.952497,-0.60547 0.274635,-0.163034 0.536361,-0.345832 0.801092,-0.52405 0.238268,-0.15509 0.491676,-0.284361 0.73288,-0.43476 0.278059,-0.182854 0.550056,-0.374264 0.829384,-0.555168 0.259385,-0.155545 0.514096,-0.318859 0.774034,-0.473448 0.241445,-0.147166 0.496969,-0.268859 0.747842,-0.398655 0.266525,-0.138171 0.511077,-0.31382 0.759592,-0.481251 0.232122,-0.151511 0.464338,-0.301921 0.708406,-0.433647 0.25508,-0.134337 0.496848,-0.291764 0.736222,-0.451919 0.233206,-0.163311 0.471948,-0.318219 0.706821,-0.479046 0.238908,-0.168053 0.477078,-0.336553 0.722505,-0.495044 0.335548,-0.198995 0.666309,-0.406153 0.994807,-0.616566 0.321038,-0.208923 0.664734,-0.378883 1.001072,-0.561009 0.239501,-0.132586 0.489927,-0.243052 0.739035,-0.355902 0.218757,-0.09553 0.438083,-0.18991 0.65936,-0.279485 0.06992,-0.01995 0.129328,-0.06392 0.19635,-0.09 0.04096,-0.02088 0.07112,-0.05316 0.09002,-0.09453 0.02864,-0.08153 -0.01146,-0.0583 -0.168293,-0.02297 -2.38e-4,5.3e-5 -2.65e-4,0.03912 -5.29e-4,0.07412 0.0024,0.157562 -2.65e-4,0.314502 -0.01222,0.471628 -0.02318,0.238207 -0.01471,0.477792 0.0031,0.715997 0.02816,0.311869 0.0392,0.624832 0.04649,0.937768 0.004,0.304675 0.02593,0.608724 0.03757,0.913169 0.0092,0.335055 0.0145,0.670349 0.0063,1.005449 -0.02358,0.419372 -0.05072,0.838599 -0.09279,1.256556 -0.04006,0.379638 -0.07416,0.759788 -0.129397,1.137582 -0.07297,0.412326 -0.137406,0.826185 -0.211241,1.238361 -0.06199,0.398856 -0.139695,0.795006 -0.203869,1.193477 -0.06274,0.399603 -0.121428,0.799896 -0.174522,1.200904 -0.05265,0.397806 -0.07898,0.798793 -0.09258,1.199666 -0.0079,0.43625 -0.02482,0.872222 -0.03283,1.308489 -7.94e-4,0.436507 -0.01228,0.872553 -0.0284,1.308711 -0.006,0.393438 -0.02998,0.785857 -0.06042,1.178028 -0.0376,0.380145 -0.08691,0.759153 -0.137287,1.137798 -0.05539,0.416999 -0.105291,0.834655 -0.170006,1.250363 -0.09064,0.472855 -0.168447,0.947917 -0.265284,1.419574 -0.09803,0.43665 -0.20782,0.870545 -0.320464,1.303623 -0.07566,0.275789 -0.143698,0.554093 -0.196963,0.835131 -0.0217,0.121489 -0.03544,0.244242 -0.04098,0.367498 -0.0082,0.07214 0.02045,0.127143 0.06898,0.178002 0.09389,0.102187 0.17113,0.217749 0.248769,0.332316 0.129064,0.181113 0.214577,0.385884 0.275743,0.598469 0.05304,0.199583 0.03567,0.329025 -0.02529,0.522116 -0.09956,0.263919 -0.277545,0.482264 -0.446354,0.703842 -0.142076,0.190267 -0.321041,0.342005 -0.508329,0.485073 -0.211783,0.140542 -0.437634,0.191614 -0.686419,0.216943 -0.250724,0.01868 -0.502499,-0.0066 -0.749739,-0.04801 -0.21042,-0.05964 -0.426164,-0.086 -0.642411,-0.112903 -0.27368,-0.02246 -0.545502,-0.05844 -0.816991,-0.09922 -0.268555,-0.03641 -0.534725,-0.08779 -0.802762,-0.127436 -0.262128,-0.04734 -0.525293,-0.08661 -0.789521,-0.120507 -0.331947,-0.02895 -0.661099,-0.08002 -0.987198,-0.147675 -0.409699,-0.08661 -0.800613,-0.235151 -1.19027,-0.38467 -0.357439,-0.146976 -0.723826,-0.270184 -1.083514,-0.411215 -0.290396,-0.115276 -0.589029,-0.207362 -0.881618,-0.316585 -0.232783,-0.08289 -0.458925,-0.182904 -0.674905,-0.302884 -0.159345,-0.09096 -0.316314,-0.185428 -0.479679,-0.269161 -0.216797,-0.105428 -0.434411,-0.209182 -0.651695,-0.313634 -0.231145,-0.115975 -0.463764,-0.229076 -0.693285,-0.348263 -0.274539,-0.134332 -0.533268,-0.296252 -0.788969,-0.462857 -0.189524,-0.124558 -0.372033,-0.259167 -0.56312,-0.381336 -0.201663,-0.114252 -0.39219,-0.24601 -0.58746,-0.370422 -0.233889,-0.152781 -0.455486,-0.323712 -0.67981,-0.490135 -0.215918,-0.145238 -0.424947,-0.299646 -0.623575,-0.467723 -0.150657,-0.130355 -0.287449,-0.275434 -0.429377,-0.415057 -0.141882,-0.131228 -0.296632,-0.248094 -0.4524,-0.362236 -0.182068,-0.136681 -0.351256,-0.287144 -0.511934,-0.448109 -0.1762,-0.180303 -0.345988,-0.366389 -0.523293,-0.545642 -0.168566,-0.180099 -0.33822,-0.35914 -0.515837,-0.530373 -0.119452,-0.127574 -0.245515,-0.248608 -0.367401,-0.37378 -0.116162,-0.126566 -0.240382,-0.245776 -0.353626,-0.37497 -0.09596,-0.10441 -0.18774,-0.21246 -0.284181,-0.316481 -0.108879,-0.116292 -0.221081,-0.229396 -0.333383,-0.342366 -0.104727,-0.114371 -0.201811,-0.235934 -0.29468,-0.360087 -0.08991,-0.108802 -0.15032,-0.236082 -0.21658,-0.359497 -0.05364,-0.101772 -0.09661,-0.208219 -0.134897,-0.316505 -0.02421,-0.08013 -0.05713,-0.157076 -0.08427,-0.236168 -0.0065,-0.04994 -0.03202,-0.0935 -0.0485,-0.14002 -0.01072,-0.0263 -0.01016,-0.05449 -0.01103,-0.08243 7.93e-4,2.65e-4 0.0019,5.3e-4 0.0027,7.94e-4 0.02725,-0.121713 -0.14488,-0.160245 -0.172127,-0.03853 v 0 c -0.0024,0.0145 -0.0046,0.02898 -0.0069,0.04347 0.0016,0.04746 0.0044,0.09516 0.0226,0.139687 0.01759,0.04442 0.03939,0.08624 0.04642,0.134315 0.0274,0.07956 0.06045,0.156983 0.08477,0.237625 0.04129,0.116764 0.08796,0.231453 0.145804,0.341165 0.07048,0.131164 0.135461,0.26603 0.230812,0.381801 0.09798,0.130564 0.199911,0.258758 0.310745,0.37868 0.110863,0.111522 0.221641,0.223163 0.329142,0.33795 0.0954,0.102843 0.186105,0.209745 0.281022,0.312978 0.115564,0.131204 0.241241,0.253145 0.359798,0.38164 0.123275,0.126392 0.250426,0.248925 0.371314,0.377672 0.176644,0.170225 0.345128,0.348445 0.512845,0.52742 0.177514,0.179441 0.34739,0.365832 0.523885,0.546238 0.16714,0.16729 0.343154,0.323725 0.532506,0.465759 0.148931,0.109067 0.296913,0.220702 0.432938,0.345686 0.145076,0.142716 0.284935,0.290994 0.439168,0.42399 0.201557,0.170404 0.413253,0.32753 0.632391,0.47471 0.227696,0.168904 0.452634,0.34237 0.690158,0.497255 0.195247,0.124267 0.385585,0.256169 0.58723,0.370274 0.190703,0.12179 0.372562,0.256452 0.561805,0.380489 0.260562,0.169762 0.52433,0.334574 0.803987,0.471617 0.231156,0.11997 0.465354,0.233955 0.698143,0.350692 0.215966,0.103786 0.432244,0.206918 0.647731,0.311669 0.161727,0.08269 0.316749,0.176691 0.474565,0.266435 0.22388,0.123767 0.45757,0.228246 0.698728,0.313857 0.291711,0.108818 0.589335,0.200832 0.878911,0.315547 0.360101,0.141134 0.726834,0.264618 1.084696,0.411673 0.398561,0.152935 0.798606,0.304298 1.217684,0.392713 0.33055,0.06837 0.664091,0.120648 1.000549,0.149911 0.26312,0.03371 0.525137,0.07292 0.786164,0.120041 0.267909,0.03955 0.533921,0.09107 0.802352,0.127379 0.27296,0.04098 0.546264,0.07727 0.821422,0.09983 0.213876,0.02658 0.426996,0.05301 0.635159,0.111844 0.262885,0.04363 0.530405,0.07029 0.796912,0.04948 0.285189,-0.02995 0.533725,-0.08976 0.775359,-0.252243 0.199728,-0.15267 0.389903,-0.315611 0.541541,-0.518332 0.181253,-0.237911 0.37048,-0.473602 0.474438,-0.758225 0.02741,-0.08883 0.04675,-0.137459 0.05909,-0.228192 0.01797,-0.132091 -0.0011,-0.267288 -0.03276,-0.395515 -0.06705,-0.230069 -0.159419,-0.452041 -0.299161,-0.648359 -0.08379,-0.123582 -0.167506,-0.24805 -0.269582,-0.357603 -0.02379,-0.02172 -0.01892,0.0051 -0.01797,-0.0459 0.0051,-0.11489 0.01799,-0.229301 0.03808,-0.342556 0.05235,-0.277172 0.119867,-0.55154 0.194358,-0.823521 0.113403,-0.436039 0.223956,-0.872898 0.32254,-1.312556 0.09736,-0.474435 0.175779,-0.952259 0.26679,-1.427924 0.06485,-0.417002 0.115075,-0.835925 0.170561,-1.254226 0.05077,-0.381838 0.100565,-0.764032 0.138298,-1.147402 0.03063,-0.394544 0.05473,-0.789345 0.06083,-1.185162 0.01617,-0.437247 0.0278,-0.874389 0.02849,-1.311986 0.008,-0.435364 0.02492,-0.870437 0.03276,-1.305791 0.01323,-0.395118 0.03938,-0.790355 0.09115,-1.182454 0.05287,-0.399378 0.111331,-0.798042 0.173807,-1.19602 0.06396,-0.397457 0.141587,-0.792573 0.203351,-1.190419 0.07413,-0.414044 0.138956,-0.829749 0.212148,-1.243957 0.05553,-0.380415 0.09014,-0.763159 0.130366,-1.145429 0.04244,-0.422404 0.07004,-0.846076 0.09362,-1.269915 0.0082,-0.33878 0.0031,-0.677746 -0.0063,-1.016476 -0.01162,-0.303573 -0.03344,-0.606748 -0.03749,-0.910548 -0.0074,-0.315994 -0.01855,-0.632018 -0.04694,-0.946941 -0.01746,-0.229375 -0.02553,-0.460121 -0.0031,-0.689501 0.01207,-0.161285 0.01524,-0.322398 0.01273,-0.484122 5.9e-5,-0.01463 8.2e-5,-0.02925 1.75e-4,-0.04387 5.8e-5,-0.009 0.0089,-0.02429 2.65e-4,-0.02701 -0.08492,-0.02695 -0.201232,0.02556 -0.170347,-0.05008 0.0046,-1.38e-4 -0.0011,-0.0047 0.0069,-2.07e-4 -0.06709,0.02719 -0.127601,0.06851 -0.197162,0.09033 -0.223486,0.09049 -0.445027,0.185775 -0.665954,0.282316 -0.252907,0.114575 -0.507087,0.226864 -0.750244,0.361463 -0.34012,0.184205 -0.687639,0.356174 -1.012219,0.567587 -0.328674,0.210552 -0.659683,0.417708 -0.99536,0.616923 -0.246743,0.159375 -0.486304,0.328653 -0.726467,0.497679 -0.234354,0.160472 -0.47258,0.315031 -0.705268,0.477994 -0.234722,0.157128 -0.471805,0.311586 -0.721976,0.443327 -0.248965,0.1347 -0.486333,0.287663 -0.723109,0.442545 -0.242872,0.163656 -0.481783,0.335529 -0.74209,0.470874 -0.253955,0.131413 -0.512588,0.254672 -0.756968,0.403728 -0.261808,0.155818 -0.518525,0.320129 -0.779732,0.476985 -0.278493,0.180369 -0.549783,0.371046 -0.826868,0.553567 -0.242848,0.151611 -0.498454,0.281207 -0.738023,0.438094 -0.263354,0.177334 -0.523733,0.35919 -0.796978,0.521364 -0.317908,0.201404 -0.635495,0.40331 -0.952799,0.60566 -0.380979,0.242478 -0.755608,0.495681 -1.114716,0.769734 -0.267341,0.214958 -0.536814,0.426733 -0.835181,0.59812 -0.258522,0.170437 -0.499023,0.364299 -0.742845,0.554818 -0.210365,0.15812 -0.425807,0.306787 -0.65877,0.430358 -0.241181,0.145547 -0.483573,0.289306 -0.713883,0.451892 -0.279717,0.188037 -0.568989,0.361736 -0.843444,0.557512 -0.184364,0.145674 -0.36046,0.301868 -0.551553,0.438668 -0.183388,0.123831 -0.366466,0.247981 -0.555421,0.363263 -0.100584,0.06405 -0.198131,0.133077 -0.299799,0.195088 -0.01069,0.0024 -0.03151,0.0024 -0.04693,-0.0063 -0.06837,-0.02984 -0.123952,-0.08756 -0.19808,-0.106407 -0.165257,-0.06031 -0.34013,-0.08705 -0.51461,-0.105003 -0.20229,-0.02156 -0.407403,-0.04353 -0.608406,0.0013 -0.147569,0.03451 -0.290463,0.08499 -0.430626,0.142513 -0.167873,0.07583 -0.334176,0.157951 -0.485587,0.263596 -0.134641,0.09845 -0.263755,0.204036 -0.365548,0.337479 -0.08993,0.09325 -0.188897,0.178281 -0.26897,0.280148 -0.07152,0.110083 -0.13221,0.226709 -0.18301,0.347798 -0.05004,0.109315 -0.08344,0.222983 -0.112297,0.339579 -0.01974,0.109538 -0.02875,0.219925 -0.042,0.330372 -0.0058,0.10572 0.0094,0.210855 0.0072,0.316722 -0.0093,0.14491 0.0026,0.288899 0.02159,0.432779 0.01765,0.123474 0.192254,0.09853 0.174617,-0.02495 z" /><path
           style="fill:none;stroke:#000000;stroke-width:0.3;stroke-dasharray:none;stroke-opacity:1"
           id="path147"
           d="m -79.570187,75.045146 c 0.09313,0.03505 0.182824,0.08014 0.250547,0.154241 0.0475,0.07348 0.02961,0.154916 0.01061,0.234434 -0.02135,0.07803 -0.04217,0.153972 -0.09139,0.219229 -0.04934,0.06349 -0.123174,0.08178 -0.198461,0.09676 -0.116411,0.01717 -0.23364,0.02596 -0.351221,0.0205 -0.144415,-0.01754 -0.257442,-0.107698 -0.366159,-0.196958 -0.13434,-0.126436 -0.27236,-0.248587 -0.425667,-0.351502 -0.08704,-0.04977 -0.180695,-0.09746 -0.281181,-0.11299 -0.06086,-0.0094 -0.09383,-0.0045 -0.15498,-0.0013 -0.13653,0.01995 -0.266755,0.07094 -0.364545,0.171442 -0.02188,0.02249 -0.03996,0.04841 -0.05995,0.07262 -0.104145,0.137178 -0.150016,0.302448 -0.17485,0.470103 -0.01394,0.126961 0.02307,0.218237 0.08971,0.322419 0.06187,0.08881 0.149109,0.151945 0.233881,0.2168 0.08713,0.06234 0.188775,0.09754 0.290952,0.126365 0.126809,0.03303 0.256278,0.03836 0.38618,0.02796 0.114583,-0.01434 0.22683,-0.04116 0.340048,-0.06288 0.09675,-0.02728 0.195609,-0.02983 0.294987,-0.03466 0.06281,-5.29e-4 0.125357,0.0019 0.18661,0.01609 0.0419,0.0098 0.08078,0.0292 0.116737,0.05246 0.03275,0.0289 0.06733,0.0549 0.09895,0.08516 0.02408,0.03225 0.0489,0.04412 0.04595,0.08722 -0.01461,0.0529 -0.05278,0.09526 -0.08637,0.137216 0,0 1.67e-4,1.3e-5 1.67e-4,1.3e-5 v 0 c 0.03365,-0.04193 0.07184,-0.0843 0.08644,-0.137226 0.0029,-0.04313 -0.02185,-0.05499 -0.04596,-0.08725 -0.03163,-0.03026 -0.0662,-0.05626 -0.09896,-0.08516 -0.03595,-0.02326 -0.07484,-0.04264 -0.116736,-0.05247 -0.0614,-0.01421 -0.12409,-0.01669 -0.18705,-0.01609 -0.09938,0.0048 -0.198237,0.0074 -0.294987,0.03466 -0.113218,0.02172 -0.225464,0.04854 -0.340045,0.06288 -0.129762,0.0104 -0.25908,0.0051 -0.385749,-0.02795 -0.10218,-0.02882 -0.203827,-0.06402 -0.290952,-0.126357 -0.08477,-0.06485 -0.172006,-0.127982 -0.233878,-0.216792 -0.06666,-0.104177 -0.103659,-0.195445 -0.08972,-0.322403 0.02482,-0.167653 0.0707,-0.332917 0.17485,-0.47009 0.01998,-0.02421 0.03806,-0.05012 0.05995,-0.07261 0.09779,-0.100505 0.228023,-0.151482 0.36455,-0.171426 0.06106,-0.0032 0.09371,-0.008 0.15453,0.0013 0.100484,0.01553 0.194144,0.06321 0.281181,0.112985 0.15331,0.102909 0.29133,0.225062 0.425667,0.351496 0.10872,0.08926 0.221747,0.17943 0.366162,0.196974 0.117732,0.0054 0.235109,-0.0033 0.351668,-0.0205 0.07529,-0.01497 0.149114,-0.03328 0.198451,-0.09677 0.04921,-0.06526 0.07,-0.141211 0.09136,-0.219239 0.019,-0.07952 0.03688,-0.160964 -0.01061,-0.23445 -0.06773,-0.0741 -0.157438,-0.119189 -0.250576,-0.154244 z" /><path
           style="fill:none;stroke:#000000;stroke-width:0.3;stroke-dasharray:none;stroke-opacity:1"
           id="path148"
           d="m -80.108233,75.431242 c 0.0052,-0.139663 0.04249,-0.273614 0.08646,-0.405271 0.04185,-0.116829 0.10531,-0.220289 0.193435,-0.307154 0.07742,-0.07254 0.163036,-0.104193 0.264903,-0.125402 0.131038,-0.01656 0.25758,0.0217 0.378516,0.06802 0.168359,0.0745 0.274394,0.221345 0.374414,0.368885 0.123068,0.171513 0.174035,0.375327 0.212823,0.579334 0.0309,0.198702 0.03842,0.399672 0.02614,0.600107 -0.0075,0.143256 -0.03567,0.285885 -0.08411,0.421055 -0.02651,0.07398 -0.0528,0.125429 -0.0861,0.195951 -0.0731,0.137493 -0.154357,0.271711 -0.267025,0.380208 -0.09035,0.08068 -0.196271,0.132017 -0.311039,0.166751 -0.1314,0.03168 -0.266136,0.048 -0.400629,0.05985 -0.128839,0.0093 -0.253445,-0.01836 -0.37174,-0.06738 -0.131365,-0.06655 -0.209121,-0.186166 -0.27501,-0.312742 -0.05035,-0.09537 -0.07494,-0.199234 -0.09574,-0.304068 0,0 -1.59e-4,3e-6 -1.59e-4,3e-6 v 0 c 0.02069,0.104857 0.04529,0.208706 0.09564,0.304075 0.06589,0.126579 0.143643,0.2462 0.275011,0.312761 0.118459,0.0491 0.243221,0.07675 0.372237,0.06739 0.134493,-0.01185 0.269229,-0.02818 0.400629,-0.05986 0.114766,-0.03474 0.220684,-0.08608 0.311028,-0.166764 0.112663,-0.108503 0.193916,-0.242721 0.26701,-0.380217 0.03329,-0.07053 0.05958,-0.121965 0.08609,-0.195956 0.04843,-0.135173 0.07663,-0.277801 0.0841,-0.421057 0.01225,-0.200438 0.0047,-0.40141 -0.02617,-0.600115 -0.0388,-0.204007 -0.08976,-0.407826 -0.212836,-0.57934 -0.100023,-0.147542 -0.206058,-0.294388 -0.374417,-0.368895 -0.121058,-0.04637 -0.247708,-0.08462 -0.378876,-0.06802 -0.101867,0.02122 -0.187486,0.05287 -0.264903,0.125413 -0.08813,0.08687 -0.151583,0.190333 -0.193434,0.307162 -0.04397,0.13166 -0.08125,0.265613 -0.08646,0.405276 z" /><path
           style="fill:none;stroke:#000000;stroke-width:0.3;stroke-dasharray:none;stroke-opacity:1"
           id="path149"
           d="m -79.167836,80.948196 c -0.07424,0.100248 -0.146917,0.206457 -0.191987,0.323704 -0.01035,0.02689 -0.01722,0.05498 -0.02585,0.08248 -0.02876,0.131302 -0.02685,0.267208 0.0264,0.392266 0.01029,0.02418 0.02384,0.04688 0.03575,0.07033 0.09247,0.140399 0.234273,0.231254 0.372719,0.320736 0.13439,0.08383 0.275468,0.164402 0.383474,0.282104 0.0649,0.08236 0.05645,0.136872 0.03755,0.23554 -0.03781,0.158258 -0.122446,0.250587 -0.245441,0.350949 -0.160869,0.114837 -0.356983,0.133744 -0.548581,0.142658 -0.146199,-0.0013 -0.302202,-0.0073 -0.427067,-0.09351 -0.01942,-0.01339 -0.03613,-0.03032 -0.05419,-0.04547 -0.01416,-0.01786 -0.03072,-0.03405 -0.04246,-0.05358 -0.06955,-0.115649 -0.07613,-0.258416 -0.07377,-0.388871 0.01855,-0.181663 0.05176,-0.361262 0.07136,-0.54288 0.0104,-0.14237 0.0056,-0.284202 -0.02736,-0.423201 -0.03382,-0.121899 -0.102119,-0.228711 -0.22071,-0.282244 -0.02697,-0.01217 -0.05595,-0.01926 -0.08392,-0.0289 -0.13685,-0.0132 -0.0671,-0.01466 -0.20919,0.0066 0,0 1.29e-4,1.8e-5 1.29e-4,1.8e-5 v 0 c 0.141732,-0.02125 0.0721,-0.01976 0.208831,-0.0066 0.02797,0.0096 0.05695,0.01672 0.08392,0.02889 0.118594,0.05353 0.186888,0.160329 0.220712,0.282226 0.03291,0.138996 0.03777,0.280826 0.02736,0.423193 -0.01961,0.181618 -0.0528,0.361217 -0.07136,0.542882 -0.0024,0.130461 0.0042,0.27323 0.07376,0.388885 0.01175,0.01953 0.02831,0.03572 0.04246,0.05359 0.01807,0.01516 0.03479,0.03208 0.05419,0.04548 0.124992,0.0863 0.281175,0.09212 0.427511,0.09352 0.191601,-0.0089 0.387718,-0.02783 0.548587,-0.142672 0.122994,-0.100369 0.207624,-0.192701 0.245438,-0.350967 0.01889,-0.09868 0.02735,-0.153196 -0.03756,-0.235558 -0.108014,-0.117703 -0.249095,-0.198279 -0.383487,-0.28211 -0.138444,-0.08948 -0.280247,-0.180329 -0.372722,-0.320725 -0.01191,-0.02344 -0.02545,-0.04613 -0.03575,-0.07032 -0.05326,-0.12505 -0.05517,-0.260955 -0.02641,-0.392252 0.0086,-0.02749 0.01551,-0.05558 0.02585,-0.08247 0.04507,-0.117247 0.117747,-0.223456 0.191992,-0.323699 z" /><path
           style="fill:none;stroke:#000000;stroke-width:0.3;stroke-dasharray:none;stroke-opacity:1"
           id="path150"
           d="m -79.954979,81.96387 c -0.0849,0.09353 -0.196591,0.155332 -0.320413,0.180049 -0.02743,0.0055 -0.05546,0.0074 -0.08319,0.01103 -0.208976,0.0029 -0.329742,-0.07343 -0.4841,-0.202552 -0.114641,-0.11703 -0.214728,-0.257204 -0.25169,-0.419621 -0.0073,-0.03201 -0.0099,-0.06491 -0.0149,-0.09736 -0.02291,-0.237881 0.06265,-0.457226 0.162012,-0.668036 0.08033,-0.148227 0.170479,-0.292748 0.293963,-0.409302 0.08146,-0.07689 0.10977,-0.09038 0.202946,-0.153265 0.154937,-0.09171 0.326694,-0.152649 0.503618,-0.18524 0.105757,-0.01947 0.171413,-0.0226 0.277892,-0.03176 0.185962,-0.0081 0.381619,0.0089 0.554339,0.08478 0.02663,0.0117 0.05119,0.02764 0.07679,0.04145 0.150444,0.107738 0.248295,0.262773 0.320645,0.429903 0.0561,0.146859 0.07355,0.300857 0.06364,0.456718 -0.01672,0.137353 -0.09767,0.245025 -0.183626,0.348112 -0.07795,0.07658 -0.03791,0.0389 -0.120184,0.112985 0,0 9.7e-5,8e-6 9.7e-5,8e-6 v 0 c 0.08241,-0.07407 0.04232,-0.03638 0.120328,-0.112974 0.08596,-0.103092 0.166886,-0.210775 0.183602,-0.348131 0.0099,-0.155861 -0.0075,-0.309864 -0.06365,-0.456729 -0.07235,-0.167132 -0.170204,-0.32217 -0.320649,-0.429913 -0.02559,-0.01381 -0.05016,-0.02976 -0.07679,-0.04146 -0.172844,-0.07595 -0.368641,-0.0929 -0.554733,-0.08479 -0.106484,0.0092 -0.17213,0.01228 -0.277889,0.03176 -0.176925,0.03259 -0.348684,0.09353 -0.503621,0.185248 -0.09318,0.06289 -0.121484,0.07637 -0.202949,0.153268 -0.123484,0.116557 -0.213633,0.26108 -0.293965,0.40931 -0.09936,0.210812 -0.184926,0.430163 -0.162018,0.668047 0.005,0.03246 0.0076,0.06535 0.0149,0.09737 0.03696,0.16242 0.137046,0.302596 0.251688,0.419632 0.154543,0.129281 0.275288,0.205534 0.484507,0.202562 0.02773,-0.0037 0.05576,-0.0056 0.08319,-0.01103 0.123823,-0.02471 0.235506,-0.08653 0.320406,-0.180062 z" /><path
           style="fill:none;stroke:#000000;stroke-width:0.3;stroke-dasharray:none;stroke-opacity:1"
           id="path151"
           d="m -73.911718,81.951718 c -0.08992,0.04593 -0.188971,0.06762 -0.288997,0.07495 -0.130961,7.93e-4 -0.174612,-0.0656 -0.23087,-0.172649 -0.04789,-0.106518 -0.07128,-0.221734 -0.113596,-0.330274 -0.02941,-0.07542 -0.0416,-0.09376 -0.079,-0.164753 -0.06097,-0.09954 -0.139837,-0.191307 -0.242178,-0.250397 -0.05855,-0.03381 -0.09641,-0.04319 -0.15966,-0.06458 -0.02684,-0.0053 -0.05323,-0.01397 -0.08052,-0.01582 -0.178401,-0.01207 -0.341733,0.06925 -0.494467,0.149558 -0.135747,0.07863 -0.263181,0.181436 -0.33389,0.325195 -0.01201,0.02445 -0.01961,0.05085 -0.0294,0.07627 -0.03203,0.204952 0.0279,0.316368 0.165061,0.461806 0.116324,0.110501 0.265575,0.14962 0.420005,0.169511 0.108217,0.0091 0.217368,0.01212 0.323789,0.03584 0.078,0.01738 0.09003,0.02461 0.164433,0.05202 0.08668,0.04316 0.192339,0.08243 0.243305,0.171916 0.03316,0.05822 0.03049,0.09166 0.03851,0.156795 -0.0081,0.11055 0.0019,0.05693 -0.02871,0.161012 0,0 1.08e-4,5e-6 1.08e-4,5e-6 v 0 c 0.03062,-0.104082 0.02077,-0.05045 0.02883,-0.16102 -0.008,-0.06513 -0.0053,-0.09859 -0.03851,-0.156805 -0.05097,-0.0895 -0.156625,-0.128768 -0.24331,-0.171929 -0.0744,-0.0274 -0.08644,-0.03463 -0.164436,-0.05202 -0.106418,-0.02373 -0.21557,-0.0267 -0.323787,-0.03583 -0.154429,-0.0199 -0.303681,-0.059 -0.420007,-0.169495 -0.137166,-0.145428 -0.197099,-0.256838 -0.165069,-0.461782 0.0098,-0.02543 0.01738,-0.05182 0.02941,-0.07627 0.07071,-0.143753 0.198147,-0.246549 0.333891,-0.325183 0.15253,-0.0802 0.315854,-0.161632 0.494033,-0.149548 0.02729,0.0019 0.05368,0.01056 0.08052,0.01582 0.06324,0.02138 0.101108,0.03077 0.159658,0.06458 0.102341,0.05909 0.18121,0.150849 0.242178,0.250386 0.0374,0.07099 0.04959,0.08933 0.079,0.16475 0.04233,0.10854 0.0657,0.223756 0.113596,0.330277 0.05641,0.107344 0.100044,0.173442 0.231317,0.172672 0.100021,-0.0073 0.199073,-0.02902 0.288981,-0.07496 z" /><path
           style="fill:none;stroke:#000000;stroke-width:0.3;stroke-dasharray:none;stroke-opacity:1"
           id="path152"
           d="m -74.825822,82.468669 c -0.07739,0.09944 -0.13381,0.21759 -0.153839,0.342826 -0.0043,0.02662 -0.0044,0.05373 -0.0066,0.0806 0.0092,0.182239 0.103468,0.309951 0.235672,0.426251 0.14296,0.109183 0.262906,0.125193 0.437608,0.117041 0.190793,-0.02305 0.37344,-0.08986 0.539392,-0.185279 0.151641,-0.0978 0.274392,-0.231839 0.380376,-0.376357 0.114398,-0.163335 0.193995,-0.345241 0.249565,-0.535871 0.0458,-0.182782 0.06487,-0.370531 0.05516,-0.558461 -0.01868,-0.183269 -0.09948,-0.296373 -0.228192,-0.421177 -0.131001,-0.10168 -0.282832,-0.16495 -0.45067,-0.163124 -0.04839,5.29e-4 -0.09648,0.0078 -0.144714,0.01172 -0.175242,0.02281 -0.33187,0.09914 -0.489091,0.174083 0,0 7.5e-5,8e-6 7.5e-5,8e-6 v 0 c 0.157278,-0.07494 0.313975,-0.151226 0.489259,-0.174054 0.04807,-0.0039 0.09599,-0.01119 0.144219,-0.01172 0.167836,-0.0019 0.319662,0.06143 0.450662,0.163108 0.128712,0.124796 0.209519,0.237897 0.228196,0.421156 0.0097,0.18793 -0.0093,0.375673 -0.05515,0.558453 -0.05557,0.190627 -0.135163,0.372528 -0.249553,0.535866 -0.105978,0.144515 -0.228727,0.278553 -0.380365,0.376346 -0.165946,0.09542 -0.348588,0.162237 -0.539379,0.185272 -0.174506,0.0082 -0.29441,-0.008 -0.437195,-0.117026 -0.132204,-0.116292 -0.226497,-0.244001 -0.23568,-0.426233 0.0021,-0.02687 0.0024,-0.05398 0.0066,-0.0806 0.02003,-0.125233 0.07644,-0.243385 0.153844,-0.342815 z" /><path
           style="fill:none;stroke:#000000;stroke-width:0.3;stroke-dasharray:none;stroke-opacity:1"
           id="path153"
           d="m -73.808192,74.907975 c 0.0263,0.117343 0.09416,0.180327 0.189838,0.246716 0.02267,0.0117 0.04477,0.02463 0.06806,0.03504 0.01765,0.0079 0.146873,0.05594 0.160515,0.06097 0.08546,0.03151 0.171006,0.06258 0.256114,0.09503 0.126267,0.04899 0.246232,0.125791 0.325292,0.238342 0.01595,0.0227 0.02823,0.04779 0.04235,0.07169 0.05334,0.103925 0.08828,0.216437 0.06104,0.333393 -0.0045,0.01934 -0.01249,0.03768 -0.01871,0.05652 -0.04648,0.109839 -0.134125,0.17512 -0.241929,0.217779 -0.108853,0.03885 -0.222226,0.03408 -0.332918,0.0073 -0.1236,-0.03792 -0.219868,-0.119991 -0.311195,-0.207815 -0.09988,-0.09655 -0.211365,-0.175524 -0.33774,-0.232746 -0.07625,-0.03278 -0.158396,-0.06925 -0.243819,-0.05305 -0.02567,0.0049 -0.04959,0.01643 -0.07438,0.02466 0,0 7.7e-5,8e-6 7.7e-5,8e-6 v 0 c 0.02482,-0.0082 0.0488,-0.01976 0.07449,-0.02463 0.08525,-0.01619 0.167285,0.02037 0.243382,0.05305 0.126376,0.05722 0.237863,0.136191 0.337741,0.232738 0.09133,0.08783 0.187595,0.169902 0.311197,0.207825 0.110832,0.02679 0.224417,0.03154 0.333404,-0.0073 0.107802,-0.04267 0.195443,-0.107958 0.241917,-0.2178 0.0062,-0.01884 0.01421,-0.03719 0.01871,-0.05652 0.02723,-0.116967 -0.0077,-0.229478 -0.06107,-0.333409 -0.0141,-0.02389 -0.02641,-0.04898 -0.04235,-0.07169 -0.07906,-0.112554 -0.19903,-0.189357 -0.325303,-0.238353 -0.08511,-0.03245 -0.170658,-0.06352 -0.256114,-0.09502 -0.0136,-0.005 -0.142904,-0.05309 -0.160514,-0.06097 -0.02328,-0.01042 -0.04537,-0.02336 -0.06806,-0.03504 -0.09568,-0.06638 -0.163555,-0.129361 -0.189847,-0.246703 z" /><path
           style="fill:none;stroke:#000000;stroke-width:0.3;stroke-dasharray:none;stroke-opacity:1"
           id="path154"
           d="m -73.857892,76.228344 c -0.06772,0.08488 -0.144041,0.177332 -0.247348,0.220329 -0.01958,0.0081 -0.04085,0.0114 -0.06128,0.01712 -0.138959,0.02652 -0.261408,-0.04076 -0.379002,-0.105858 -0.136054,-0.07378 -0.239848,-0.16792 -0.342755,-0.281786 -0.116633,-0.156403 -0.123991,-0.329309 -0.116789,-0.516858 0.0195,-0.228608 0.09435,-0.444778 0.19364,-0.649854 0.09053,-0.181054 0.208828,-0.328766 0.360641,-0.461354 0.104478,-0.0773 0.227052,-0.111739 0.353782,-0.13104 0.03255,-0.0049 0.06516,-0.01164 0.09809,-0.01175 0.03902,-1.21e-4 0.07768,0.0074 0.116517,0.01109 0.175848,0.04064 0.382424,0.09064 0.516364,0.221507 0.02151,0.02103 0.03788,0.04676 0.05682,0.07013 0.08866,0.174675 0.06411,0.363077 0.03052,0.548145 0,0 9.5e-5,3e-6 9.5e-5,3e-6 v 0 c 0.03366,-0.185084 0.05827,-0.373454 -0.03042,-0.548161 -0.01894,-0.02339 -0.0353,-0.04911 -0.05682,-0.07014 -0.13394,-0.130865 -0.340518,-0.180869 -0.516368,-0.221517 -0.03897,-0.0037 -0.07776,-0.01119 -0.116907,-0.01109 -0.03293,1.03e-4 -0.06553,0.0068 -0.09809,0.01175 -0.126735,0.01929 -0.249309,0.05374 -0.35379,0.131048 -0.151813,0.132593 -0.270113,0.280305 -0.360643,0.461362 -0.09929,0.205081 -0.174152,0.421253 -0.193643,0.649864 -0.0072,0.187555 1.53e-4,0.360463 0.116784,0.516874 0.102907,0.113869 0.206695,0.208015 0.342752,0.281792 0.117747,0.06518 0.240294,0.132442 0.379434,0.105862 0.02043,-0.0057 0.0417,-0.009 0.06127,-0.01712 0.103304,-0.04301 0.179615,-0.135467 0.24733,-0.220337 z" /><path
           style="fill:none;stroke:#000000;stroke-width:0.3;stroke-dasharray:none;stroke-opacity:1"
           id="path155"
           d="m -73.954303,71.482261 c 0.03974,-0.07267 0.09184,-0.147481 0.169611,-0.183591 0.02233,-0.01037 0.0465,-0.01625 0.06975,-0.02437 0.186714,-0.04296 0.348329,-0.01788 0.530471,0.0291 0.139343,0.03233 0.273698,0.08852 0.416129,0.107262 0.02519,0.0033 0.05066,0.0041 0.07599,0.0062 0.117367,0.0021 0.237435,-0.01495 0.323445,-0.102421 0.01617,-0.01643 0.02923,-0.03562 0.04385,-0.05343 0.08258,-0.135964 0.106529,-0.251827 0.100708,-0.408699 -0.0089,-0.131254 -0.07188,-0.241567 -0.15468,-0.340016 -0.08845,-0.08219 -0.205248,-0.118322 -0.321416,-0.140626 -0.118015,-0.02344 -0.231286,0.01019 -0.343951,0.04216 -0.149989,0.04275 -0.301717,0.07816 -0.454575,0.108913 -0.151119,0.03388 -0.304763,0.01781 -0.456541,-7.94e-4 0,0 -1.03e-4,1.6e-5 -1.03e-4,1.6e-5 v 0 c 0.151881,0.01873 0.305641,0.03479 0.456869,7.94e-4 0.152858,-0.03075 0.304586,-0.06617 0.454575,-0.108913 0.11252,-0.03192 0.225632,-0.06559 0.343498,-0.04216 0.116165,0.0223 0.232955,0.05843 0.321408,0.14061 0.0828,0.09844 0.145748,0.208751 0.154686,0.34 0.0058,0.156863 -0.01812,0.272727 -0.1007,0.408683 -0.01463,0.01781 -0.0277,0.037 -0.04385,0.05342 -0.0859,0.08736 -0.205793,0.104584 -0.323019,0.102412 -0.02535,-0.0021 -0.0508,-0.0029 -0.076,-0.0062 -0.142435,-0.01873 -0.276796,-0.07492 -0.416144,-0.107256 -0.182221,-0.047 -0.344035,-0.07206 -0.530818,-0.02909 -0.02326,0.0081 -0.0474,0.014 -0.06974,0.02437 -0.07777,0.03612 -0.129868,0.110929 -0.169606,0.183599 z" /><path
           style="fill:none;stroke:#000000;stroke-width:0.3;stroke-dasharray:none;stroke-opacity:1"
           id="path156"
           d="m -73.436244,70.511291 c -0.01482,-0.116764 -0.04922,-0.226608 -0.106479,-0.329221 -0.0793,-0.125188 -0.211074,-0.178628 -0.346463,-0.221562 -0.159827,-0.04321 -0.327152,-0.03406 -0.484453,0.01603 -0.03387,0.0108 -0.06644,0.02527 -0.09966,0.03792 -0.169553,0.07938 -0.299215,0.214635 -0.387401,0.378682 -0.01868,0.03476 -0.03331,0.07155 -0.04996,0.107323 -0.07872,0.213016 -0.099,0.442793 -0.07416,0.668025 0.0054,0.04896 0.01537,0.09732 0.02304,0.145976 0.05531,0.228957 0.138589,0.46567 0.298109,0.644787 0.02786,0.03128 0.06052,0.05794 0.09078,0.0869 0.03221,0.02323 0.06229,0.04975 0.09665,0.06966 0.128053,0.07421 0.285488,0.109005 0.432591,0.108005 0.03275,-2.25e-4 0.06533,-0.0048 0.098,-0.0073 0.09731,-0.01958 0.194257,-0.04469 0.269912,-0.113797 0.05667,-0.05176 0.114366,-0.139668 0.146315,-0.207695 0.01992,-0.04244 0.0323,-0.08804 0.04845,-0.132057 0,0 -9.3e-5,-2e-6 -9.3e-5,-2e-6 v 0 c -0.01619,0.04402 -0.02863,0.0896 -0.04859,0.132045 -0.03201,0.06808 -0.08959,0.155877 -0.146312,0.207688 -0.07566,0.0691 -0.17259,0.09421 -0.269898,0.113786 -0.03253,0.0024 -0.06496,0.0071 -0.09758,0.0073 -0.147106,0.0011 -0.304543,-0.03379 -0.432599,-0.107992 -0.03436,-0.0199 -0.06443,-0.04644 -0.09665,-0.06966 -0.03026,-0.02897 -0.06292,-0.05562 -0.09078,-0.0869 -0.159525,-0.179112 -0.24281,-0.415822 -0.298114,-0.644776 -0.0077,-0.04866 -0.01765,-0.09701 -0.02304,-0.145976 -0.02484,-0.22523 -0.0046,-0.455002 0.07417,-0.668015 0.01667,-0.03577 0.03128,-0.07256 0.04997,-0.10732 0.08819,-0.164047 0.217847,-0.299294 0.387403,-0.378669 0.03322,-0.01265 0.06579,-0.02713 0.09966,-0.03791 0.157181,-0.05006 0.324342,-0.05924 0.484047,-0.01603 0.135387,0.04293 0.26716,0.09637 0.346461,0.221546 0.05726,0.102608 0.09168,0.212453 0.1065,0.329211 z" /><path
           style="fill:none;stroke:#000000;stroke-width:0.3;stroke-dasharray:none;stroke-opacity:1"
           id="path157"
           d="m -87.068828,79.704 c 0.0021,0.08995 -0.0041,0.183015 0.01757,0.27128 0.0055,0.02241 0.01421,0.04392 0.0213,0.06588 0.04871,0.129937 0.119031,0.248214 0.243311,0.317897 0.02585,0.0145 0.05387,0.02466 0.08081,0.037 0.110895,0.03149 0.237352,0.0695 0.349155,0.01979 0.01445,-0.0064 0.02731,-0.0159 0.04096,-0.02384 0.0082,-0.01111 0.01926,-0.02061 0.02458,-0.03335 0.0317,-0.07596 -0.02066,-0.183788 -0.05049,-0.251984 -0.05421,-0.115681 -0.112326,-0.229153 -0.172511,-0.341813 -0.05047,-0.09641 -0.08502,-0.200718 -0.107233,-0.307059 -0.01418,-0.07954 0.01601,-0.153549 0.03497,-0.229042 0,0 -1.14e-4,-3e-6 -1.14e-4,-3e-6 v 0 c -0.01913,0.07547 -0.04928,0.149487 -0.03509,0.22905 0.02223,0.106344 0.05676,0.210659 0.107235,0.307067 0.06018,0.112657 0.118298,0.226129 0.172511,0.34181 0.02982,0.06819 0.08219,0.176004 0.0505,0.251958 -0.0053,0.01275 -0.01638,0.02223 -0.02458,0.03334 -0.01365,0.0079 -0.02652,0.01744 -0.04096,0.02384 -0.111697,0.04965 -0.237961,0.01167 -0.348753,-0.01979 -0.02694,-0.01233 -0.05497,-0.02252 -0.08081,-0.037 -0.124283,-0.06968 -0.194609,-0.187947 -0.243316,-0.317884 -0.0071,-0.02196 -0.0158,-0.04347 -0.0213,-0.06587 -0.02172,-0.08827 -0.01556,-0.181327 -0.01757,-0.271278 z" /><path
           style="fill:none;stroke:#000000;stroke-width:0.3;stroke-dasharray:none;stroke-opacity:1"
           id="path158"
           d="m -87.095967,79.930568 c -0.08718,-0.0088 -0.17554,-0.01304 -0.260556,-0.03597 -0.0577,-0.01556 -0.09507,-0.03208 -0.150405,-0.05391 -0.137514,-0.06966 -0.226187,-0.176123 -0.25182,-0.331502 -0.0055,-0.03357 -0.0042,-0.06793 -0.0063,-0.101891 0.01614,-0.210394 0.09039,-0.362225 0.243274,-0.507947 0.03201,-0.03051 0.06711,-0.05762 0.100661,-0.08644 0.166878,-0.120089 0.370877,-0.213156 0.58076,-0.21237 0.04021,1.51e-4 0.08006,0.0076 0.120094,0.01143 0.168352,0.03255 0.337299,0.101388 0.442836,0.243726 0.01598,0.02156 0.02709,0.04636 0.04063,0.06954 0.07772,0.19286 0.01778,0.298955 -0.07219,0.473551 0,0 1.06e-4,5e-6 1.06e-4,5e-6 v 0 c 0.09014,-0.174596 0.150024,-0.280643 0.07228,-0.473567 -0.01355,-0.02318 -0.02463,-0.04798 -0.04063,-0.06955 -0.105543,-0.14234 -0.274495,-0.21118 -0.442849,-0.243737 -0.04016,-0.0038 -0.08013,-0.0113 -0.120465,-0.01143 -0.209884,-7.93e-4 -0.413885,0.09229 -0.580763,0.212381 -0.03356,0.02881 -0.06865,0.05592 -0.100664,0.08644 -0.152884,0.145727 -0.227142,0.297563 -0.243284,0.507963 0.0021,0.03396 7.94e-4,0.06832 0.0063,0.101893 0.02564,0.155385 0.11429,0.261853 0.251807,0.331521 0.05533,0.02183 0.09271,0.03835 0.150405,0.05392 0.08502,0.02294 0.173379,0.02717 0.260559,0.03598 z" /><path
           style="fill:none;stroke:#000000;stroke-width:0.3;stroke-dasharray:none;stroke-opacity:1"
           id="path159"
           d="m -84.29613,77.679829 c 0.215725,0.05147 0.396939,0.187328 0.566113,0.324332 0.101563,0.100883 0.207145,0.210796 0.240639,0.356201 0.03324,0.144301 0.01855,0.297463 0.01413,0.442859 0,0 4e-5,0 4e-5,0 v 0 c 0.0044,-0.145145 0.01918,-0.298778 -0.01397,-0.442867 -0.03346,-0.14541 -0.139118,-0.255331 -0.240657,-0.356209 -0.16918,-0.137001 -0.35039,-0.272862 -0.566116,-0.324339 z" /><path
           style="fill:none;stroke:#000000;stroke-width:0.3;stroke-dasharray:none;stroke-opacity:1"
           id="path160"
           d="m -84.401587,81.221428 c -0.153501,0.131607 -0.261221,0.31165 -0.305983,0.50908 -0.01275,0.05628 -0.01664,0.114215 -0.02495,0.17132 0.0029,0.06955 0.0059,0.139089 0.0088,0.208632 0,0 1.3e-5,0 1.3e-5,0 v 0 c -0.0029,-0.06954 -0.0058,-0.139086 -0.0087,-0.208629 0.0083,-0.05711 0.0122,-0.115039 0.02495,-0.171318 0.04477,-0.197427 0.152484,-0.377468 0.30599,-0.509066 z" /><path
           style="fill:none;stroke:#000000;stroke-width:0.3;stroke-dasharray:none;stroke-opacity:1"
           id="path161"
           d="m -80.016886,78.648847 c 0.149876,-0.127531 0.339884,-0.180684 0.52651,-0.228293 0.18996,-0.03441 0.380169,-0.01749 0.562991,0.04553 0.06876,0.02371 0.132837,0.05926 0.199255,0.08888 0,0 6.4e-5,-8e-6 6.4e-5,-8e-6 v 0 c -0.0664,-0.02963 -0.13045,-0.06519 -0.199189,-0.08889 -0.182893,-0.06306 -0.373229,-0.07994 -0.563272,-0.04553 -0.186629,0.04761 -0.376637,0.100767 -0.526515,0.228301 z" /><path
           style="fill:none;stroke:#000000;stroke-width:0.3;stroke-dasharray:none;stroke-opacity:1"
           id="path162"
           d="m -76.47628,79.110868 c -0.03901,0.03359 -0.06286,0.05046 -0.09307,0.09856 -0.143275,0.228147 -0.169249,0.499671 -0.200502,0.760301 0,0 8e-5,0 8e-5,0 v 0 c 0.03128,-0.260612 0.05732,-0.532156 0.200591,-0.760288 0.03021,-0.0481 0.05406,-0.06497 0.09307,-0.09856 z" /><path
           style="fill:none;stroke:#000000;stroke-width:0.3;stroke-dasharray:none;stroke-opacity:1"
           id="path163"
           d="m -77.476762,71.524777 c -0.03736,0.191178 -0.03374,0.388678 -0.03874,0.582618 0,0 5.5e-5,0 5.5e-5,0 v 0 c 0.0051,-0.19394 0.0016,-0.391435 0.03884,-0.582613 z" /><path
           style="fill:none;stroke:#000000;stroke-width:0.3;stroke-dasharray:none;stroke-opacity:1"
           id="path164"
           d="m -77.677932,74.337208 c 0.07633,0.05369 0.155088,0.111961 0.241043,0.149511 0.119219,0.05208 0.259424,0.08747 0.386278,0.109294 0.08244,0.01418 0.166016,0.02074 0.249024,0.03113 0,0 2.3e-5,-3e-6 2.3e-5,-3e-6 v 0 c -0.08297,-0.01037 -0.16651,-0.01696 -0.248917,-0.03114 -0.12686,-0.02186 -0.267052,-0.05721 -0.386276,-0.109294 -0.08596,-0.03755 -0.164724,-0.09582 -0.241059,-0.149506 z" /><path
           style="fill:none;stroke:#000000;stroke-width:0.3;stroke-dasharray:none;stroke-opacity:1"
           id="path165"
           d="m -75.006678,73.204783 c 0.336484,-0.01778 0.66031,-0.119139 0.981062,-0.21463 0,0 -4.3e-5,-5e-6 -4.3e-5,-5e-6 v 0 c -0.320799,0.09543 -0.644641,0.196837 -0.981157,0.214614 z" /><path
           style="fill:none;stroke:#000000;stroke-width:0.3;stroke-dasharray:none;stroke-opacity:1"
           id="path166"
           d="m -77.195504,84.426895 c 0.156969,0.168034 0.38092,0.256294 0.608496,0.273198 0.07572,0.0056 0.151837,-0.0021 0.227754,-0.003 0.239278,-0.02455 0.468698,-0.0948 0.687779,-0.192246 0.0597,-0.02655 0.116916,-0.05839 0.175373,-0.08758 0,0 -3.7e-5,-6e-6 -3.7e-5,-6e-6 v 0 c -0.05847,0.0292 -0.115699,0.06103 -0.175418,0.08758 -0.219107,0.09742 -0.448556,0.167661 -0.687851,0.192233 -0.07582,0.0011 -0.151834,0.0087 -0.227446,0.003 -0.227579,-0.01691 -0.451528,-0.10515 -0.6085,-0.273187 z" /><path
           style="fill:none;stroke:#000000;stroke-width:0.3;stroke-dasharray:none;stroke-opacity:1"
           id="path167"
           d="m -73.792849,80.000691 c 0.217591,-0.06995 0.445143,-0.09835 0.670711,-0.129048 0,0 -4.3e-5,-5e-6 -4.3e-5,-5e-6 v 0 c -0.225599,0.03068 -0.453191,0.05906 -0.670806,0.129037 z" /><path
           style="fill:none;stroke:#000000;stroke-width:0.3;stroke-dasharray:none;stroke-opacity:1"
           id="path168"
           d="m -74.147235,87.092183 c -0.02296,-0.266221 -0.0053,-0.533694 0.0035,-0.800182 0.0021,-0.06384 0.0042,-0.12768 0.0063,-0.191519 0,0 -4.2e-5,0 -4.2e-5,0 v 0 c -0.0021,0.06384 -0.0043,0.12768 -0.0064,0.191519 -0.0089,0.266486 -0.02651,0.533964 -0.0035,0.800185 z" /><path
           style="fill:none;stroke:#000000;stroke-width:0.3;stroke-dasharray:none;stroke-opacity:1"
           id="path169"
           d="m -89.488202,78.973713 c 0.109691,0.203714 0.239347,0.395119 0.375105,0.582097 0.163388,0.226785 0.310819,0.464307 0.468376,0.695105 0.141833,0.213609 0.308041,0.409319 0.469773,0.607788 0.187587,0.2393 0.381921,0.472366 0.590733,0.693393 0.177056,0.190016 0.363585,0.370198 0.553738,0.546934 0.171006,0.162533 0.34254,0.324445 0.515096,0.485336 0.127783,0.122174 0.262427,0.236804 0.397841,0.35035 0.154046,0.125177 0.307123,0.25159 0.465391,0.371425 0.198208,0.135686 0.408821,0.251254 0.608595,0.384662 0.232259,0.160689 0.463725,0.321979 0.701077,0.47517 0.272722,0.185489 0.562557,0.342898 0.850487,0.502947 0.279988,0.153707 0.571511,0.284882 0.859883,0.421775 0.271833,0.132061 0.540612,0.26992 0.803828,0.418404 0.262488,0.146563 0.532281,0.279757 0.800137,0.416205 0.257818,0.131998 0.509796,0.274545 0.759455,0.42123 0.231068,0.134533 0.464044,0.26574 0.697637,0.395822 0.200837,0.109855 0.404381,0.21449 0.610238,0.314592 0.243641,0.118441 0.496556,0.214072 0.750281,0.307986 0.231717,0.08319 0.463982,0.16488 0.696733,0.245139 0.273473,0.09605 0.545134,0.196927 0.821513,0.284414 0.323781,0.107085 0.656291,0.182801 0.988062,0.260077 0.255675,0.0605 0.512972,0.114692 0.766855,0.18246 0.192747,0.05237 0.383773,0.110283 0.578491,0.155143 0.177215,0.03552 0.352499,0.07952 0.529182,0.117425 0.142211,0.02117 0.287877,0.05885 0.432618,0.04951 0,0 -1.27e-4,-1.8e-5 -1.27e-4,-1.8e-5 v 0 c -0.144624,0.0094 -0.290198,-0.02844 -0.432298,-0.04952 -0.176683,-0.03791 -0.351967,-0.08191 -0.529185,-0.117425 -0.19472,-0.04486 -0.385747,-0.102767 -0.578495,-0.155141 -0.253887,-0.06777 -0.511183,-0.121965 -0.766864,-0.182459 -0.331771,-0.07728 -0.664281,-0.152993 -0.988062,-0.260078 -0.276379,-0.08748 -0.54804,-0.188365 -0.82151,-0.284414 -0.232752,-0.08026 -0.465016,-0.161946 -0.696733,-0.245136 -0.253725,-0.09391 -0.506642,-0.189542 -0.750284,-0.307983 -0.205859,-0.100103 -0.409414,-0.204716 -0.610243,-0.314592 -0.233595,-0.130083 -0.466574,-0.26129 -0.697643,-0.395822 -0.249663,-0.146685 -0.501642,-0.28923 -0.759462,-0.421227 -0.267859,-0.136451 -0.53765,-0.269645 -0.80014,-0.416209 -0.263215,-0.148484 -0.531992,-0.28634 -0.803828,-0.418404 -0.288375,-0.136893 -0.579895,-0.268068 -0.859883,-0.421775 -0.28793,-0.160046 -0.577765,-0.317455 -0.850487,-0.502943 -0.237352,-0.153189 -0.468815,-0.314482 -0.701077,-0.475171 -0.199768,-0.133408 -0.410379,-0.248976 -0.608587,-0.384662 -0.158268,-0.119832 -0.311345,-0.246245 -0.465391,-0.371422 -0.135414,-0.113548 -0.27006,-0.228179 -0.397846,-0.350351 -0.172559,-0.160887 -0.344096,-0.322799 -0.515101,-0.485335 -0.190156,-0.176734 -0.37669,-0.356915 -0.55375,-0.546931 -0.208814,-0.221028 -0.403148,-0.454094 -0.590735,-0.693391 -0.161732,-0.198472 -0.327938,-0.394182 -0.469773,-0.607788 -0.157559,-0.230798 -0.304996,-0.46832 -0.468386,-0.695105 -0.135761,-0.186976 -0.26542,-0.378375 -0.375097,-0.582097 z" /><path
           style="fill:none;stroke:#000000;stroke-width:0.3;stroke-dasharray:none;stroke-opacity:1"
           id="path170"
           d="m -87.807132,81.643976 c -0.167246,0.07821 -0.324379,0.174686 -0.47698,0.278074 -0.124511,0.09128 -0.256937,0.173929 -0.368075,0.282131 -0.02172,0.02117 -0.04129,0.04444 -0.06193,0.06666 0,0 8.7e-5,8e-6 8.7e-5,8e-6 v 0 c 0.02066,-0.02222 0.04022,-0.0455 0.06197,-0.06666 0.111175,-0.108167 0.243602,-0.190834 0.368118,-0.282123 0.152603,-0.103389 0.309737,-0.199861 0.47699,-0.278067 z" /><path
           style="fill:none;stroke:#000000;stroke-width:0.3;stroke-dasharray:none;stroke-opacity:1"
           id="path171"
           d="m -83.218352,84.833157 c -0.07142,0.179671 -0.176099,0.343694 -0.265634,0.514676 -0.122317,0.229772 -0.226163,0.468791 -0.311703,0.714533 0,0 9.3e-5,6e-6 9.3e-5,6e-6 v 0 c 0.08569,-0.245695 0.189396,-0.48477 0.311755,-0.714534 0.08953,-0.170982 0.194202,-0.335007 0.265626,-0.514678 z" /><path
           style="fill:none;stroke:#000000;stroke-width:0.3;stroke-dasharray:none;stroke-opacity:1"
           id="path172"
           d="m -78.758504,87.353025 c -0.153366,0.272497 -0.280355,0.55903 -0.401021,0.84718 -0.02209,0.05454 -0.04416,0.109077 -0.06624,0.163613 0,0 4.5e-5,3e-6 4.5e-5,3e-6 v 0 c 0.02209,-0.05454 0.04419,-0.109075 0.06628,-0.163611 0.120766,-0.288115 0.247713,-0.574677 0.401092,-0.847177 z" /></g><use
         x="0"
         y="0"
         inkscape:tiled-clone-of="#g34"
         xlink:href="#g34"
         id="use35"
         inkscape:transform-center-x="60.828001"
         inkscape:transform-center-y="58.32143" /><use
         x="0"
         y="0"
         inkscape:tiled-clone-of="#g34"
         xlink:href="#g34"
         transform="rotate(60,-69.910936,66.424546)"
         id="use36"
         inkscape:transform-center-x="39.668853"
         inkscape:transform-center-y="59.09592" /><use
         x="0"
         y="0"
         inkscape:tiled-clone-of="#g34"
         xlink:href="#g34"
         transform="rotate(120,-70.297449,65.918324)"
         id="use37"
         inkscape:transform-center-x="29.056341"
         inkscape:transform-center-y="59.918647" /><use
         x="0"
         y="0"
         inkscape:tiled-clone-of="#g34"
         xlink:href="#g34"
         transform="rotate(180,-70.461458,65.814127)"
         id="use38"
         inkscape:transform-center-x="7.4159104"
         inkscape:transform-center-y="59.251451" /><use
         x="0"
         y="0"
         inkscape:tiled-clone-of="#g34"
         xlink:href="#g34"
         transform="rotate(-120,-70.636227,65.781645)"
         id="use39"
         inkscape:transform-center-x="-4.5041248"
         inkscape:transform-center-y="58.476961" /><use
         x="0"
         y="0"
         inkscape:tiled-clone-of="#g34"
         xlink:href="#g34"
         transform="rotate(-60,-71.158731,65.878414)"
         id="use40"
         inkscape:transform-center-x="-26.970796"
         inkscape:transform-center-y="57.654234" /></g></g></svg>
